<?xml version="1.0" encoding="utf-8"?>
<!-- Generator: Adobe Illustrator 16.0.0, SVG Export Plug-In . SVG Version: 6.00 Build 0)  -->
<!DOCTYPE svg PUBLIC "-//W3C//DTD SVG 1.1//EN" "http://www.w3.org/Graphics/SVG/1.1/DTD/svg11.dtd">
<svg version="1.1" id="Layer_1" xmlns="http://www.w3.org/2000/svg" xmlns:xlink="http://www.w3.org/1999/xlink" x="0px" y="0px"
	 width="150px" height="150px" viewBox="0 0 150 150" enable-background="new 0 0 150 150" xml:space="preserve">
<g>
	<path fill="#231F20" d="M23.461,47.38c2.513-1.78,5.066-3.427,7.649-4.938c0.759-0.442,1.658-0.141,2.021,0.646
		c1.24,2.688,2.584,5.274,4.021,7.751c0.308,0.531,0.336,0.95-0.021,1.453c-0.358,0.503-0.916,0.496-1.508,0.36
		c-1.137-0.262-2.273-0.523-3.41-0.785c-4.042,17.562-3.444,35.919,1.79,53.246c0.309,1.025-0.309,2.357-1.258,2.672
		c-0.95,0.312-2.248-0.441-2.57-1.516c-5.438-17.994-6.058-37.059-1.86-55.298c-1.462-0.337-2.924-0.673-4.386-1.009
		c-0.59-0.137-1.096-0.389-1.17-1.083C22.686,48.186,22.923,47.762,23.461,47.38z"/>
	<g>
		<path fill="#231F20" d="M94.986,108.615c-9.074,0-16.698-5.375-18.826-10.572c-0.805-1.965-1.14-3.387-1.276-4.295L44.556,83.443
			c-4.048-1.475-6.049-5.402-4.685-9.15c0.84-2.311,2.706-3.896,5.042-4.373l-2.125-0.839c-3.649-1.327-5.506-5.216-4.189-8.84
			c0.976-2.676,3.466-4.404,6.345-4.404c0.859,0,1.715,0.153,2.543,0.455l2.333,0.849c-0.954-1.774-1.195-3.976-0.452-6.017
			c1.004-2.756,3.648-4.607,6.579-4.607c0.816,0,1.621,0.143,2.394,0.424l23.507,9.384c0.037-0.674,0.157-1.306,0.327-1.772
			c0.858-2.362,3.124-3.949,5.638-3.949c0.699,0,1.39,0.122,2.052,0.363c0.954,0.347,23.411,8.558,28.211,13.628
			c4.991,5.27,9.502,11.408,5.182,23.275c-4.077,11.201-10.936,17.217-22.933,20.111C98.58,108.402,96.785,108.615,94.986,108.615z
			 M78.216,94.881c0.166,0.564,0.397,1.238,0.721,2.025c1.715,4.189,8.339,8.709,16.05,8.709c1.562,0,3.12-0.186,4.634-0.551
			c11.045-2.666,17.076-7.945,20.817-18.221c3.742-10.281,0.157-15.225-4.541-20.187c-3.583-3.784-20.747-10.574-27.059-12.872
			c-0.332-0.12-0.678-0.182-1.026-0.182c-1.257,0-2.39,0.794-2.819,1.975c-0.204,0.562-0.188,1.466-0.095,1.958
			c1.087,0.428,3.384,1.356,3.689,1.479c0.767,0.311,1.138,1.183,0.829,1.95c-0.31,0.768-1.181,1.06-1.948,0.757L83.346,60
			c0,0-0.001,0-0.002,0c-0.012,0-0.023,0.067-0.035,0.062L57.271,49.706c-0.398-0.146-0.859-0.208-1.324-0.208
			c-1.675,0-3.187,1.068-3.761,2.644c-0.773,2.127,0.304,4.638,2.307,5.367l22.665,9.584c0.749,0.317,1.109,1.175,0.812,1.932
			c-0.299,0.758-1.147,1.139-1.909,0.861l-29.6-10.774c-0.499-0.181-1.009-0.273-1.518-0.273c-1.628,0-2.979,0.932-3.525,2.431
			c-0.742,2.041,0.327,4.242,2.434,5.009l32.138,12.696c0.754,0.297,1.135,1.141,0.86,1.902c-0.272,0.764-1.101,1.172-1.875,0.92
			l-26.644-8.667c-2.617-0.95-4.849,0.015-5.642,2.19c-0.804,2.21,0.373,4.388,2.862,5.294l31.138,10.58
			c0.029,0.01,0.059,0.018,0.088,0.027l12.309,4.186c0.784,0.268,1.203,1.119,0.937,1.902c-0.267,0.785-1.118,1.205-1.902,0.938
			l-0.009-0.002L78.216,94.881z"/>
	</g>
</g>
</svg>
