<?xml version="1.0" encoding="utf-8"?>
<!-- Generator: Adobe Illustrator 16.0.0, SVG Export Plug-In . SVG Version: 6.00 Build 0)  -->
<!DOCTYPE svg PUBLIC "-//W3C//DTD SVG 1.1//EN" "http://www.w3.org/Graphics/SVG/1.1/DTD/svg11.dtd">
<svg version="1.1" id="Layer_1" xmlns="http://www.w3.org/2000/svg" xmlns:xlink="http://www.w3.org/1999/xlink" x="0px" y="0px"
	 width="100px" height="100px" viewBox="0 0 100 100" enable-background="new 0 0 100 100" xml:space="preserve">
<g>
	<path fill="#231F20" d="M76.482,44.875c-0.407,0-1.44,0.14-2.502,0.47c-0.271-3.613-3.299-6.47-6.98-6.47
		c-1.68,0-3.223,0.594-4.43,1.584c-0.986-2.673-3.56-4.584-6.57-4.584c-1.751,0-3.552,0.536-5,1.572v-7.268
		c1.772-0.986,3.293-2.364,4.462-4.009c2.449,3.446,6.463,5.705,11.003,5.705c7.444,0,13.5-6.056,13.5-13.5s-6.056-13.5-13.5-13.5
		c-4.536,0-8.547,2.255-10.996,5.696c-2.448-3.443-6.466-5.696-11.004-5.696c-7.444,0-13.5,6.056-13.5,13.5
		c0,4.994,2.732,9.354,6.775,11.688l0.071,31.554l-5.76-6.045c-1.55-1.551-3.6-2.405-5.772-2.405s-4.223,0.854-5.772,2.405
		c-3.204,3.203-3.211,8.41-0.072,11.545c0.052,0.059,5.269,5.875,12.712,13.318l1.211,1.215c7.058,7.096,13.152,13.225,25.35,13.225
		c12.629,0,16.854-6.338,20.1-12.83c3.122-6.244,3.158-30.156,3.158-31.17C82.965,47.678,79.936,44.875,76.482,44.875z
		 M66.465,7.875c5.79,0,10.5,4.71,10.5,10.5s-4.71,10.5-10.5,10.5s-10.5-4.71-10.5-10.5S60.675,7.875,66.465,7.875z M77.123,80.703
		c-3.056,6.112-6.475,11.172-17.416,11.172c-10.95,0-16.366-5.445-23.223-12.34l-1.217-1.221
		c-7.381-7.381-12.547-13.141-12.655-13.258c-0.981-0.982-1.521-2.289-1.518-3.679c0.004-1.392,0.548-2.7,1.533-3.685
		c0.983-0.984,2.28-1.526,3.651-1.526s2.667,0.542,3.625,1.5l8.33,8.742c0.426,0.446,1.079,0.585,1.645,0.357
		c0.57-0.229,0.942-0.782,0.941-1.396l-0.104-45.965c0-2.076,0.985-4.516,3.763-4.516c3.268,0,3.521,3.429,3.521,4.484v28
		c0,0.829,0.672,1.5,1.5,1.5s1.5-0.671,1.5-1.5v-4c0-3.302,2.99-4.5,5-4.5c2.206,0,4,1.794,4,4v5.5c0,0.829,0.672,1.5,1.5,1.5
		s1.5-0.671,1.5-1.5v-2.5c0-2.206,1.794-4,4-4s4,1.794,4,4v6.5c0,0.828,0.672,1.5,1.5,1.5s1.5-0.672,1.5-1.5v-3.82
		c0.6-0.292,1.776-0.681,2.482-0.681c1.79,0,3.482,1.458,3.482,3C79.965,57.591,79.453,76.043,77.123,80.703z"/>
	<path fill="#231F20" d="M66.5,20H73c0.828,0,1.5-0.671,1.5-1.5S73.828,17,73,17h-5v-4.625c0-0.829-0.672-1.5-1.5-1.5
		s-1.5,0.671-1.5,1.5v6.5C65,19.703,65.672,20,66.5,20z"/>
</g>
</svg>
