<?xml version="1.0" encoding="utf-8"?>
<!-- Generator: Adobe Illustrator 16.0.0, SVG Export Plug-In . SVG Version: 6.00 Build 0)  -->
<!DOCTYPE svg PUBLIC "-//W3C//DTD SVG 1.1//EN" "http://www.w3.org/Graphics/SVG/1.1/DTD/svg11.dtd">
<svg version="1.1" id="Layer_1" xmlns="http://www.w3.org/2000/svg" xmlns:xlink="http://www.w3.org/1999/xlink" x="0px" y="0px"
	 width="100px" height="120px" viewBox="0 0 100 120" enable-background="new 0 0 100 120" xml:space="preserve">
<g>
	<path fill="#231F20" d="M78.482,58.875c-0.407,0-1.44,0.14-2.502,0.47c-0.271-3.613-3.299-6.47-6.98-6.47
		c-1.68,0-3.223,0.594-4.43,1.584c-0.986-2.673-3.56-4.584-6.57-4.584c-1.751,0-3.552,0.536-5,1.572V33.375
		c0-4.486-2.621-7.5-6.521-7.5c-3.919,0-6.763,3.154-6.763,7.503l0.096,42.239l-5.76-6.045c-1.55-1.551-3.6-2.405-5.772-2.405
		s-4.223,0.854-5.772,2.405c-3.204,3.203-3.211,8.41-0.072,11.545c0.052,0.059,5.269,5.875,12.712,13.318l1.211,1.215
		c7.058,7.096,13.152,13.225,25.35,13.225c12.629,0,16.854-6.338,20.1-12.83c3.122-6.244,3.158-30.156,3.158-31.17
		C84.965,61.678,81.936,58.875,78.482,58.875z M79.123,94.703c-3.056,6.112-6.475,11.172-17.416,11.172
		c-10.95,0-16.366-5.445-23.223-12.34l-1.217-1.221c-7.381-7.381-12.547-13.141-12.655-13.258c-0.981-0.982-1.521-2.289-1.518-3.679
		c0.004-1.392,0.548-2.7,1.533-3.685c0.983-0.984,2.28-1.526,3.651-1.526s2.667,0.542,3.625,1.5l8.33,8.742
		c0.425,0.445,1.079,0.587,1.645,0.357c0.57-0.229,0.942-0.782,0.941-1.396l-0.104-45.997c0-2.076,0.985-4.5,3.763-4.5
		c3.268,0,3.521,3.444,3.521,4.5v28c0,0.828,0.672,1.5,1.5,1.5s1.5-0.672,1.5-1.5v-4c0-3.302,2.99-4.5,5-4.5c2.206,0,4,1.794,4,4
		v5.5c0,0.828,0.672,1.5,1.5,1.5s1.5-0.672,1.5-1.5v-2.5c0-2.206,1.794-4,4-4s4,1.794,4,4v6.5c0,0.828,0.672,1.5,1.5,1.5
		s1.5-0.672,1.5-1.5v-3.82c0.6-0.292,1.776-0.68,2.482-0.68c1.79,0,3.482,1.457,3.482,3C81.965,71.591,81.453,90.043,79.123,94.703z
		"/>
	<path fill="#231F20" d="M26,19h4v30.375c0,1,1,2,2,2s2-1,2-2V19h4c0.606,0,1.153-0.178,1.386-0.738s0.104-1.113-0.325-1.542
		l-6-5.953c-0.586-0.586-1.535-0.562-2.121,0.023l-6,6.012c-0.429,0.429-0.558,0.893-0.325,1.454S25.394,19,26,19z"/>
	<path fill="#231F20" d="M23.061,62.936l6-6c0.429-0.429,0.558-1.261,0.325-1.822S28.606,54,28,54h-4V24.375c0-1-1-2-2-2s-2,1-2,2
		V54h-4c-0.606,0-1.153,0.553-1.386,1.113s-0.104,1.299,0.325,1.728l6,6.047C21.525,63.475,22.475,63.521,23.061,62.936z"/>
</g>
</svg>
