<?xml version="1.0" encoding="utf-8"?>
<!-- Generator: Adobe Illustrator 16.0.0, SVG Export Plug-In . SVG Version: 6.00 Build 0)  -->
<!DOCTYPE svg PUBLIC "-//W3C//DTD SVG 1.1//EN" "http://www.w3.org/Graphics/SVG/1.1/DTD/svg11.dtd">
<svg version="1.1" id="Layer_1" xmlns="http://www.w3.org/2000/svg" xmlns:xlink="http://www.w3.org/1999/xlink" x="0px" y="0px"
	 width="100px" height="120px" viewBox="0 0 100 120" enable-background="new 0 0 100 120" xml:space="preserve">
<g>
	<path fill="#231F20" d="M75.005,66.367c-0.847-0.31-1.874-0.396-2.512-0.418c0.979-3.486-0.889-7.205-4.348-8.466
		c-1.528-0.555-3.227-0.546-4.701-0.028c-0.003-1.001-0.224-1.999-0.659-2.933c-0.791-1.694-2.193-2.979-3.949-3.619
		c-1.679-0.611-3.635-0.677-5.237-0.231l6.181-16.984c0.698-1.917,0.795-3.781,0.279-5.391c-0.591-1.843-1.919-3.187-3.842-3.886
		c-0.775-0.283-1.562-0.426-2.338-0.426c-2.901,0-5.423,1.977-6.584,5.163L32.938,68.871l-3.345-7.65
		c-1.337-2.868-4.233-4.721-7.378-4.721c-1.201,0-2.369,0.261-3.471,0.775c-1.986,0.926-3.496,2.568-4.249,4.624
		c-0.755,2.061-0.661,4.291,0.232,6.201c0.029,0.072,2.942,7.324,7.391,16.865l0.722,1.559c4.204,9.082,7.836,16.748,19.299,20.92
		c3.145,1.145,6.1,1.557,8.781,1.557c0,0,0.001,0,0.002,0c6.644,0,10.802-3.243,14.491-6.738
		c5.07-4.799,13.282-27.182,13.629-28.135c0.546-1.496,0.373-3.186-0.474-4.715C77.779,67.983,76.48,66.903,75.005,66.367z
		 M76.225,73.194c-2.298,6.312-9.088,23.476-12.873,27.06c-3.386,3.206-6.885,6.085-12.43,6.084c-2.332,0-4.941-0.52-7.757-1.544
		c-10.29-3.745-13.517-10.716-17.603-19.54l-0.725-1.561c-4.411-9.461-7.296-16.641-7.357-16.787
		c-0.587-1.259-0.646-2.671-0.168-3.977c0.479-1.305,1.438-2.348,2.7-2.937c0.703-0.328,1.443-0.494,2.203-0.494
		c2.014,0,3.8,1.146,4.645,2.957l4.837,11.063c0.246,0.562,0.785,0.927,1.423,0.898c0.614-0.021,1.153-0.412,1.362-0.99
		l15.633-43.257c0.904-2.484,2.938-3.719,5.075-2.941c1.033,0.376,1.71,1.043,2.011,1.983c0.307,0.956,0.222,2.181-0.24,3.449
		l-9.576,26.312c-0.284,0.779,0.118,1.639,0.896,1.923c0.773,0.281,1.639-0.118,1.922-0.896l1.368-3.759
		c0.941-2.585,3.294-2.864,4.262-2.864c0.672,0,1.355,0.119,1.977,0.346c1.004,0.365,1.805,1.1,2.257,2.068
		c0.451,0.968,0.499,2.054,0.134,3.059l-1.881,5.168c-0.283,0.779,0.118,1.639,0.896,1.923c0.774,0.282,1.638-0.118,1.922-0.896
		l0.856-2.351c0.572-1.574,2.083-2.633,3.76-2.633c0.465,0,0.925,0.082,1.365,0.242c2.073,0.756,3.146,3.056,2.392,5.128
		l-2.223,6.108c-0.283,0.777,0.118,1.639,0.896,1.922c0.774,0.282,1.638-0.117,1.922-0.896l1.306-3.586
		c0.172-0.02,0.405-0.035,0.699-0.035c0.719,0,1.469,0.097,1.867,0.242c0.793,0.289,1.528,0.934,1.966,1.725
		C76.195,71.363,76.564,72.262,76.225,73.194z"/>
	<path fill="#231F20" d="M86.68,18.083c-1.512-2.583-3.158-5.137-4.938-7.649c-0.382-0.539-0.806-0.775-1.499-0.702
		c-0.694,0.074-0.946,0.58-1.083,1.17c-0.336,1.462-0.672,2.924-1.009,4.386c-18.239-4.197-37.304-3.577-55.299,1.86
		c-1.073,0.323-1.828,1.621-1.515,2.571c0.313,0.949,1.646,1.566,2.672,1.258c17.326-5.234,35.683-5.832,53.245-1.791
		c-0.262,1.137-0.523,2.274-0.785,3.411c-0.136,0.592-0.143,1.149,0.36,1.507s0.922,0.33,1.453,0.021
		c2.477-1.437,5.062-2.781,7.751-4.021C86.82,19.741,87.122,18.841,86.68,18.083z"/>
</g>
</svg>
