<?xml version="1.0" encoding="utf-8"?>
<!-- Generator: Adobe Illustrator 16.0.0, SVG Export Plug-In . SVG Version: 6.00 Build 0)  -->
<!DOCTYPE svg PUBLIC "-//W3C//DTD SVG 1.1//EN" "http://www.w3.org/Graphics/SVG/1.1/DTD/svg11.dtd">
<svg version="1.1" id="Layer_1" xmlns="http://www.w3.org/2000/svg" xmlns:xlink="http://www.w3.org/1999/xlink" x="0px" y="0px"
	 width="100px" height="100px" viewBox="0 0 100 100" enable-background="new 0 0 100 100" xml:space="preserve">
<g>
	<path fill="#231F20" d="M40.189,91.875c-12.629,0-16.854-6.338-20.1-12.83c-3.122-6.244-3.158-30.156-3.158-31.17
		c0-3.196,3.054-6,6.534-6c0.414,0,1.472,0.143,2.554,0.479c0.268-3.617,3.296-6.479,6.98-6.479c1.68,0,3.223,0.595,4.43,1.584
		c0.986-2.673,3.56-4.584,6.57-4.584c1.751,0,3.552,0.536,5,1.572V16.375c0-4.486,2.6-7.5,6.47-7.5c3.967,0,6.737,3.084,6.737,7.5
		l-0.108,42.239l5.729-6.016c1.575-1.576,3.624-2.43,5.795-2.43s4.22,0.854,5.77,2.405c3.204,3.203,3.21,8.41,0.015,11.605l0,0
		c0.004,0-5.214,5.814-12.656,13.258l-1.211,1.215C58.481,85.746,52.387,91.875,40.189,91.875z M23.466,44.875
		c-1.783,0-3.534,1.486-3.534,3c0,6.717,0.512,25.168,2.842,29.829c3.056,6.113,6.475,11.172,17.416,11.172
		c10.95,0,16.366-5.445,23.223-12.34l1.217-1.221c7.385-7.387,12.548-13.141,12.6-13.199c2.082-2.086,2.076-5.389,0.042-7.422
		c-0.983-0.984-2.279-1.525-3.648-1.525s-2.665,0.541-3.648,1.525l-8.299,8.715c-0.423,0.447-1.077,0.59-1.645,0.357
		c-0.57-0.229-0.943-0.781-0.941-1.395l0.118-46c0-2.072-0.979-4.496-3.737-4.496c-3.22,0-3.47,3.444-3.47,4.5v28
		c0,0.828-0.672,1.5-1.5,1.5s-1.5-0.672-1.5-1.5v-4c0-3.302-2.99-4.5-5-4.5c-2.206,0-4,1.794-4,4v5.5c0,0.828-0.672,1.5-1.5,1.5
		s-1.5-0.672-1.5-1.5v-2.5c0-2.206-1.794-4-4-4s-4,1.794-4,4v6.5c0,0.828-0.672,1.5-1.5,1.5s-1.5-0.672-1.5-1.5v-3.812
		C25.389,45.267,24.186,44.875,23.466,44.875z"/>
</g>
</svg>
