<?xml version="1.0" encoding="utf-8"?>
<!-- Generator: Adobe Illustrator 16.0.0, SVG Export Plug-In . SVG Version: 6.00 Build 0)  -->
<!DOCTYPE svg PUBLIC "-//W3C//DTD SVG 1.1//EN" "http://www.w3.org/Graphics/SVG/1.1/DTD/svg11.dtd">
<svg version="1.1" id="Layer_1" xmlns="http://www.w3.org/2000/svg" xmlns:xlink="http://www.w3.org/1999/xlink" x="0px" y="0px"
	 width="100px" height="100px" viewBox="0 0 100 100" enable-background="new 0 0 100 100" xml:space="preserve">
<g>
	<path fill="#231F20" d="M26.524,82.045c-2.759-5.518-3.091-10.074-3.819-20.059c-0.102-1.387-0.211-2.879-0.335-4.496
		c-1-12.998-2.002-25.496-2.002-25.496c-0.003-0.04-0.01-0.08-0.01-0.12c0-3.309,2.683-6,5.991-6c1.654,0,3.136,0.672,4.222,1.757
		l-0.272-7.757c0-3.859,3.275-7,7.135-7c2.173,0,4.566,0.979,5.566,2.483v-2.483c0-3.925,2.898-7,6.684-7
		c3.855,0,6.91,3.075,6.91,6.962l0.006,2.257c1.235-1.972,3.313-3.219,5.797-3.219c3.993,0,6.991,3.225,6.991,7.532l-0.692,32.025
		c0.808,0.439,2.031,1.242,3.6,2.666c5.43,4.936,7.205,16.869,1.074,26.105c-6.825,10.283-14.824,14.672-26.744,14.672
		C33.996,94.875,29.77,88.537,26.524,82.045z M68.391,65.656c-0.018,0.818-0.898,1.719-1.532,1.719s-1.486-0.939-1.469-1.768
		l0.984-46.202c0-2.649-1.647-4.469-4.005-4.469s-4.006,1.913-4.007,4.616l-1.005,28.125c-0.029,0.808-0.758,1.696-1.516,1.696
		s-1.487-0.901-1.508-1.712l-0.91-34.788c0-2.243-1.567-4-3.74-4c-2.138,0-3.684,1.72-3.684,4v31.5c0,0.813-0.691,2-1.567,2
		s-1.421-0.874-1.462-1.674l-1.303-24.826c0-2.131-2.012-4-4.275-4c-2.206,0-4.013,1.794-4.014,3.954l0.993,32.5
		c0.025,0.809-0.599,1.492-1.405,1.543c-0.793,0.049-1.512-0.547-1.591-1.352l-2.002-20.5c-0.005-0.048-0.007-0.097-0.007-0.146
		c0-1.654-1.346-3-3-3c-1.636,0-2.971,1.316-3,2.946c0.079,0.988,1.037,12.984,1.995,25.439c0.125,1.621,0.234,3.119,0.336,4.51
		c0.698,9.576,1.018,13.947,3.511,18.934c3.056,6.113,6.475,11.172,17.416,11.172c10.936,0,17.959-3.861,24.242-13.33
		c3.661-5.516,5.25-16.916-0.593-22.227c-0.631-0.574-1.188-1.021-1.66-1.371L68.391,65.656z"/>
</g>
</svg>
