<?xml version="1.0" encoding="utf-8"?>
<!-- Generator: Adobe Illustrator 16.0.0, SVG Export Plug-In . SVG Version: 6.00 Build 0)  -->
<!DOCTYPE svg PUBLIC "-//W3C//DTD SVG 1.1//EN" "http://www.w3.org/Graphics/SVG/1.1/DTD/svg11.dtd">
<svg version="1.1" id="Layer_1" xmlns="http://www.w3.org/2000/svg" xmlns:xlink="http://www.w3.org/1999/xlink" x="0px" y="0px"
	 width="100px" height="100px" viewBox="0 0 100 100" enable-background="new 0 0 100 100" xml:space="preserve">
<g>
	<path fill="#231F20" d="M25.131,82.045c-3.122-6.244-3.152-30.156-3.152-31.17c0-3.309,2.702-6,6.011-6
		c0.498,0,1.153,0.104,1.798,0.299l-0.735-25.299c0-3.859,3.323-7,7.183-7c2.172,0,3.766,0.979,5.766,2.484v-2.484
		c0-3.926,2.699-7,6.484-7c3.855,0,6.658,3.074,6.656,6.959l0.038,2.297c1.229-1.992,3.327-3.256,5.82-3.256
		c3.988,0,6.99,3.225,6.99,7.532l-0.691,32.025c0.807,0.438,2.026,1.24,3.597,2.668c5.43,4.934,7.205,16.867,1.074,26.104
		c-6.825,10.283-14.823,14.672-26.743,14.672C32.597,94.875,28.376,88.537,25.131,82.045z M66.995,65.406
		c-0.018,0.828-0.683,1.445-1.532,1.469c-0.828-0.018-1.484-0.705-1.467-1.533l0.988-45.967c0-2.649-1.642-4.5-3.994-4.5
		c-2.74,0-3.986,2.332-3.987,4.552l-0.963,28c-0.028,0.81-0.69,1.466-1.494,1.448c-0.811-0.003-1.451-0.648-1.473-1.459
		l-0.896-34.541c0-2.243-1.521-4-3.692-4c-2.139,0-3.484,1.72-3.484,4v31.5c0,0.813-0.662,2-1.729,2s-1.723-0.874-1.764-1.674
		L40.22,19.875c0-2.131-2.021-4-4.285-4c-2.206,0-4.052,1.795-4.053,3.954l0.907,32.5c0.025,0.828-0.443,1.52-1.27,1.545
		c-0.861,0.014-1.521-0.619-1.55-1.445c-0.012-0.336-0.102-2.886-0.127-3.972c-0.431-0.256-1.275-0.581-1.875-0.581
		c-1.654,0-3,1.346-3,3c0,6.715,0.511,25.167,2.842,29.829c3.056,6.113,6.475,11.172,17.416,11.172
		c10.936,0,17.959-3.861,24.242-13.33c3.661-5.516,5.251-16.916-0.592-22.227c-0.63-0.572-1.185-1.02-1.656-1.369L66.995,65.406z"/>
</g>
</svg>
