<?xml version="1.0" encoding="utf-8"?>
<!-- Generator: Adobe Illustrator 16.0.0, SVG Export Plug-In . SVG Version: 6.00 Build 0)  -->
<!DOCTYPE svg PUBLIC "-//W3C//DTD SVG 1.1//EN" "http://www.w3.org/Graphics/SVG/1.1/DTD/svg11.dtd">
<svg version="1.1" id="Layer_1" xmlns="http://www.w3.org/2000/svg" xmlns:xlink="http://www.w3.org/1999/xlink" x="0px" y="0px"
	 width="100px" height="100px" viewBox="0 0 100 100" enable-background="new 0 0 100 100" xml:space="preserve">
<path fill="#231F20" d="M21.915,82.045c-2.759-5.518-3.091-10.074-3.819-20.059c-0.102-1.387-0.209-2.879-0.333-4.496
	c-1-12.998-1.999-25.496-1.999-25.496c-0.003-0.04-0.003-0.08-0.003-0.12c0-3.309,2.694-6,6.003-6c1.653,0,3.159,0.672,4.245,1.757
	l-0.225-7.757c0-3.859,3.485-7,7.345-7c2.172,0,4.871,0.979,5.871,2.483v-2.483c0-3.925,2.594-7,6.379-7
	c3.855,0,6.662,3.075,6.662,6.962l-0.023,2.257c1.235-1.972,3.299-3.219,5.782-3.219c3.993,0,6.984,3.225,6.984,7.532l-0.912,42.154
	l5.743-5.988c1.549-1.551,3.603-2.404,5.785-2.404c2.182,0,4.235,0.854,5.785,2.404c3.208,3.207,3.222,8.414,0.088,11.545
	c-0.052,0.057-5.263,5.875-12.706,13.318l-1.223,1.227c-7.05,7.09-13.139,13.213-25.33,13.213
	C29.386,94.875,25.16,88.537,21.915,82.045z M71.753,57.674l-8.391,8.744c-0.427,0.445-1.086,0.588-1.656,0.35
	c-0.571-0.236-0.938-0.791-0.926-1.41l0.984-45.952c0-2.649-1.646-4.469-4.003-4.469s-4.003,1.913-4.004,4.616L52.76,47.678
	c-0.029,0.808-0.809,1.696-1.504,1.696s-1.464-0.901-1.484-1.712l-0.862-34.788c0-2.243-1.358-4-3.53-4c-2.139,0-3.379,1.72-3.379,4
	v31.5c0,0.813-1.059,2-1.873,2c-0.812,0-1.668-0.874-1.709-1.674l-1.332-24.826c0-2.131-2.026-4-4.29-4
	c-2.206,0-4.02,1.794-4.021,3.954l0.99,32.5c0.025,0.809-0.6,1.492-1.408,1.543c-0.787,0.031-1.513-0.547-1.591-1.352l-2.002-20.5
	c-0.005-0.048-0.008-0.097-0.008-0.146c0-1.654-1.346-3-3-3c-1.636,0-2.971,1.316-3,2.946c0.079,0.988,1.037,12.984,1.995,25.439
	c0.125,1.621,0.234,3.119,0.336,4.51c0.698,9.576,1.018,13.947,3.511,18.934c3.056,6.113,6.475,11.172,17.416,11.172
	c10.944,0,16.354-5.441,23.203-12.328l1.229-1.232c7.38-7.381,12.54-13.141,12.648-13.258c0.979-0.98,1.516-2.285,1.51-3.676
	c-0.007-1.391-0.554-2.701-1.541-3.688c-0.983-0.984-2.286-1.525-3.666-1.525C74.017,56.168,72.715,56.711,71.753,57.674z"/>
</svg>
