<?xml version="1.0" encoding="utf-8"?>
<!-- Generator: Adobe Illustrator 16.0.0, SVG Export Plug-In . SVG Version: 6.00 Build 0)  -->
<!DOCTYPE svg PUBLIC "-//W3C//DTD SVG 1.1//EN" "http://www.w3.org/Graphics/SVG/1.1/DTD/svg11.dtd">
<svg version="1.1" id="Layer_1" xmlns="http://www.w3.org/2000/svg" xmlns:xlink="http://www.w3.org/1999/xlink" x="0px" y="0px"
	 width="100px" height="100px" viewBox="0 0 100 100" enable-background="new 0 0 100 100" xml:space="preserve">
<g>
	<path fill="#231F20" d="M40.99,82.789c-3.188,0-6.379-0.598-9.757-1.828c-11.867-4.318-13.67-11.719-14.5-18.93
		c-0.798-6.936,7.346-29.417,7.693-30.371c0.844-2.317,3.169-3.875,5.785-3.875c0.738,0,1.459,0.126,2.141,0.375
		c0.633,0.23,1.349,0.663,1.993,1.172c1.134-2.457,3.619-4.07,6.356-4.07c0.816,0,1.622,0.143,2.395,0.424
		c1.536,0.56,2.803,1.613,3.625,3.003c1.307-1.541,3.252-2.483,5.344-2.483c0.816,0,1.621,0.143,2.394,0.424
		c2.303,0.838,4.338,2.696,5.104,5.105c1.529-2.358,3.281-4.787,4.915-6.421c2.988-2.988,7.371-6.55,11.282-6.55
		c0.689,0,1.346,0.111,1.951,0.332c1.899,0.691,3.347,2.181,3.972,4.086c0.653,1.993,0.327,4.189-0.896,6.024
		c-0.931,1.396-2.167,2.225-3.476,3.101c-1.958,1.311-4.176,2.797-6.47,6.812c-2.712,4.744-5.998,13.301-7.752,18.086l7.517-3.713
		c1.13-0.527,2.297-0.789,3.498-0.789c3.152,0,6.055,1.855,7.394,4.729c1.916,4.109,0.146,9.006-3.947,10.914l0,0
		c0.005,0-6.884,3.682-16.424,8.131l-1.561,0.73C53.455,80.078,47.682,82.789,40.99,82.789z M30.212,30.786
		c-1.339,0-2.559,0.782-2.967,1.901c-2.297,6.311-8.127,23.825-7.531,29c0.781,6.789,2.265,12.713,12.545,16.455
		c3.044,1.107,5.899,1.646,8.731,1.646c6.022,0,11.249-2.455,17.301-5.297l1.568-0.734c9.466-4.414,16.281-8.059,16.35-8.094
		c2.668-1.248,3.787-4.355,2.57-6.965c-0.861-1.848-2.652-2.996-4.675-2.996c-0.759,0-1.499,0.166-2.199,0.494l-10.816,5.34
		c-0.545,0.271-1.199,0.184-1.655-0.219c-0.457-0.402-0.625-1.039-0.427-1.615c0.211-0.609,5.206-15.032,9.229-22.073
		c2.645-4.627,5.396-6.47,7.405-7.815c1.146-0.767,2.05-1.373,2.649-2.272c0.709-1.064,0.907-2.312,0.542-3.426
		c-0.336-1.025-1.119-1.827-2.146-2.202c-2.078-0.752-5.932,1.365-10.087,5.521c-3.796,3.796-8.592,12.834-8.64,12.925
		c-0.368,0.696-1.212,0.993-1.935,0.67c-0.721-0.319-1.071-1.144-0.801-1.884l1.368-3.759c1.129-3.103-1.271-5.252-3.16-5.939
		c-0.442-0.161-0.902-0.242-1.367-0.242c-1.676,0-3.187,1.058-3.76,2.633l-1.881,5.168c-0.283,0.778-1.144,1.184-1.922,0.896
		c-0.778-0.283-1.18-1.144-0.897-1.922l0.009-0.023l0.846-2.326c0.366-1.004,0.318-2.09-0.133-3.059
		c-0.451-0.968-1.253-1.702-2.257-2.068c-0.442-0.161-0.903-0.242-1.368-0.242c-1.675,0-3.186,1.058-3.758,2.633l-2.225,6.108
		c-0.283,0.778-1.145,1.177-1.923,0.896c-0.778-0.283-1.18-1.144-0.896-1.922v-0.001l1.318-3.623
		c-0.405-0.444-1.255-1.142-1.894-1.374C30.974,30.851,30.599,30.786,30.212,30.786z"/>
</g>
</svg>
