<?xml version="1.0" encoding="utf-8"?>
<!-- Generator: Adobe Illustrator 16.0.0, SVG Export Plug-In . SVG Version: 6.00 Build 0)  -->
<!DOCTYPE svg PUBLIC "-//W3C//DTD SVG 1.1//EN" "http://www.w3.org/Graphics/SVG/1.1/DTD/svg11.dtd">
<svg version="1.1" id="Layer_1" xmlns="http://www.w3.org/2000/svg" xmlns:xlink="http://www.w3.org/1999/xlink" x="0px" y="0px"
	 width="100px" height="100px" viewBox="0 0 100 100" enable-background="new 0 0 100 100" xml:space="preserve">
<g>
	<path fill="#231F20" d="M52.969,94.875c-11.92,0-19.917-4.389-26.742-14.672c-6.131-9.236-4.354-21.17,1.075-26.105
		c1.568-1.424,2.795-2.227,3.603-2.666l-0.686-32.025c0-4.308,3.011-7.532,7.004-7.532c2.483,0,4.587,1.247,5.822,3.219l0.057-2.257
		c0-3.887,3.156-6.962,7.012-6.962c3.785,0,6.887,3.075,6.887,7v2.483c1-1.504,3.19-2.483,5.363-2.483c3.859,0,6.932,3.141,6.932,7
		l-0.272,7.757c1.086-1.085,2.567-1.757,4.222-1.757c3.309,0,5.991,2.691,5.991,6c0,0.04-0.007,0.08-0.01,0.119
		c0,0-1.002,12.499-2.002,25.497c-0.124,1.617-0.233,3.109-0.335,4.496c-0.729,9.984-1.061,14.541-3.819,20.059
		C69.824,88.537,65.598,94.875,52.969,94.875z M30.979,54.947c-0.473,0.35-1.029,0.797-1.66,1.371
		c-5.843,5.311-4.254,16.711-0.593,22.227c6.283,9.469,13.307,13.33,24.242,13.33c10.941,0,14.36-5.059,17.416-11.172
		c2.493-4.986,2.812-9.357,3.511-18.934c0.102-1.391,0.211-2.889,0.336-4.51c0.958-12.455,1.916-24.451,1.995-25.439
		c-0.029-1.63-1.364-2.946-3-2.946c-1.654,0-3,1.346-3,3c0,0.049-0.002,0.098-0.007,0.146l-2,20.5
		c-0.079,0.805-0.797,1.4-1.589,1.352c-0.808-0.051-1.429-0.734-1.403-1.543l1-32.5c-0.001-2.16-1.795-3.954-4.001-3.954
		c-2.264,0-4.25,1.869-4.25,4l-1.252,24.826c-0.041,0.8-0.484,1.674-1.36,1.674S54,45.188,54,44.375v-31.5c0-2.28-1.749-4-3.887-4
		c-2.173,0-3.943,1.757-3.943,4l-0.91,34.788c-0.021,0.811-0.75,1.712-1.508,1.712s-1.486-0.889-1.516-1.696l-1.005-28.125
		c-0.001-2.703-1.649-4.616-4.007-4.616s-4.005,1.819-4.005,4.469l0.984,46.202c0.018,0.828-0.835,1.768-1.469,1.768
		s-1.515-0.9-1.532-1.719L30.979,54.947z"/>
</g>
</svg>
