<?xml version="1.0" encoding="utf-8"?>
<!-- Generator: Adobe Illustrator 16.0.0, SVG Export Plug-In . SVG Version: 6.00 Build 0)  -->
<!DOCTYPE svg PUBLIC "-//W3C//DTD SVG 1.1//EN" "http://www.w3.org/Graphics/SVG/1.1/DTD/svg11.dtd">
<svg version="1.1" id="Layer_1" xmlns="http://www.w3.org/2000/svg" xmlns:xlink="http://www.w3.org/1999/xlink" x="0px" y="0px"
	 width="100px" height="100px" viewBox="0 0 100 100" enable-background="new 0 0 100 100" xml:space="preserve">
<g>
	<path fill="#231F20" d="M54.676,94.875c-11.92,0-19.917-4.389-26.742-14.672c-6.131-9.236-4.354-21.17,1.075-26.105
		c1.568-1.424,2.795-2.227,3.603-2.666l-0.686-32.025c0-4.308,3.011-7.532,7.004-7.532c2.418,0,4.476,1.182,5.723,3.063l0.046-2.097
		c0-3.892,2.976-6.967,6.77-6.967c3.723,0,6.532,3.01,6.532,7v27.258c1-0.792,2.511-1.258,3.997-1.258
		c3.681,0,6.705,2.855,6.979,6.469c1.057-0.329,2.085-0.469,2.489-0.469c3.447,0,6.469,2.804,6.469,6
		c0,1.014-0.036,24.926-3.158,31.17C71.53,88.537,67.305,94.875,54.676,94.875z M32.687,54.947c-0.473,0.35-1.029,0.797-1.66,1.371
		c-5.843,5.311-4.254,16.711-0.593,22.227c6.283,9.469,13.307,13.33,24.242,13.33c10.941,0,14.36-5.059,17.416-11.172
		c2.331-4.662,2.842-23.113,2.842-29.829c0-1.542-1.683-3-3.466-3c-0.703,0-2.468,0.387-2.468,0.68v3.821c0,0.828-0.672,1.5-1.5,1.5
		s-1.5-0.672-1.5-1.5v-6.5c0-2.206-1.797-4-4.003-4s-4.002,1.794-4.002,4c0,0.828-0.669,1.5-1.497,1.5S55,46.703,55,45.875v-33
		c0-1.927-1.107-4-3.532-4c-2.147,0-3.768,1.72-3.768,4l-0.767,34.783c-0.018,0.812-0.291,1.717-1.49,1.717
		s-1.479-0.889-1.509-1.696l-1-28.125c-0.001-2.703-1.646-4.616-4.004-4.616s-4.005,1.819-4.005,4.469l0.984,45.952
		c0.018,0.828-0.64,1.506-1.468,1.525c-0.807,0.008-1.515-0.645-1.532-1.473L32.687,54.947z"/>
</g>
</svg>
