<?xml version="1.0" encoding="utf-8"?>
<!-- Generator: Adobe Illustrator 16.0.0, SVG Export Plug-In . SVG Version: 6.00 Build 0)  -->
<!DOCTYPE svg PUBLIC "-//W3C//DTD SVG 1.1//EN" "http://www.w3.org/Graphics/SVG/1.1/DTD/svg11.dtd">
<svg version="1.1" id="Layer_1" xmlns="http://www.w3.org/2000/svg" xmlns:xlink="http://www.w3.org/1999/xlink" x="0px" y="0px"
	 width="100px" height="100px" viewBox="0 0 100 100" enable-background="new 0 0 100 100" xml:space="preserve">
<g>
	<path fill="#231F20" d="M55.242,94.875c-12.191,0-18.28-6.123-25.33-13.213l-1.223-1.227c-7.444-7.443-12.654-13.262-12.706-13.318
		c-3.134-3.131-3.12-8.338,0.089-11.545c1.55-1.551,3.605-2.404,5.788-2.404s4.238,0.854,5.788,2.404l5.363,5.588l-4.51-41.625
		c-0.006-0.053-0.009-0.107-0.009-0.161c0-4.275,3.011-7.5,7.004-7.5c2.355,0,6.397,0.956,6.997,7.36
		c0.17,1.809,1.253,7.93,2.365,13.975l0.517-20.373c0-3.887,3.02-6.962,6.875-6.962c3.785,0,6.75,3.075,6.75,7v14.077l1.272-7.334
		c0.721-4.159,3.491-6.743,7.228-6.743c1.73,0,3.284,0.68,4.374,1.913c1.293,1.463,1.847,3.552,1.558,5.88
		c-0.191,1.542-1.207,12.658-1.991,21.328l4.162-10.666c1.33-3.408,3.81-5.363,6.804-5.363c2.404,0,5.094,2.526,5.094,5.908
		c0,2.387-1.3,6.521-2.946,11.755c-1.598,5.082-3.409,10.843-4.24,15.826c-0.185,1.105-0.354,2.387-0.54,3.791
		C78.308,74.299,75.58,94.875,55.242,94.875z M21.86,56.168c-1.381,0-2.683,0.541-3.666,1.525c-2.039,2.039-2.053,5.342-0.032,7.363
		c0.109,0.117,5.268,5.877,12.648,13.258l1.229,1.232c6.85,6.887,12.259,12.328,23.203,12.328c17.71,0,20.025-17.465,21.558-29.023
		c0.19-1.439,0.365-2.756,0.555-3.891c0.865-5.189,2.71-11.055,4.338-16.232c1.443-4.591,2.808-8.928,2.808-10.854
		c0-1.709-1.358-2.908-2.094-2.908c-2.315,0-3.506,2.164-4.009,3.453l-8,20.5c-0.271,0.697-1.019,1.086-1.74,0.914
		c-0.728-0.17-1.218-0.85-1.151-1.594c0.107-1.195,2.624-29.33,2.949-31.942c0.179-1.441-0.124-2.727-0.829-3.524
		c-0.527-0.597-1.243-0.899-2.126-0.899c-3.074,0-3.996,2.667-4.272,4.257l-4.25,24.5c-0.133,0.767-0.823,1.31-1.606,1.237
		C56.596,45.802,56,45.153,56,44.375v-31.5c0-2.28-1.612-4-3.75-4c-2.173,0-3.875,1.757-3.875,4l-0.876,34.538
		c-0.019,0.766-0.612,1.394-1.375,1.457c-0.77,0.052-1.452-0.46-1.597-1.211c-0.189-0.983-4.644-24.118-5.021-28.145
		c-0.384-4.088-2.243-4.64-4.011-4.64c-2.335,0-3.972,1.814-4.004,4.423l4.976,45.916c0.069,0.639-0.275,1.25-0.857,1.521
		c-0.58,0.271-1.271,0.143-1.716-0.32l-8.391-8.742C24.542,56.709,23.24,56.168,21.86,56.168z"/>
</g>
</svg>
