<?xml version="1.0" encoding="utf-8"?>
<!-- Generator: Adobe Illustrator 16.0.0, SVG Export Plug-In . SVG Version: 6.00 Build 0)  -->
<!DOCTYPE svg PUBLIC "-//W3C//DTD SVG 1.1//EN" "http://www.w3.org/Graphics/SVG/1.1/DTD/svg11.dtd">
<svg version="1.1" id="Layer_1" xmlns="http://www.w3.org/2000/svg" xmlns:xlink="http://www.w3.org/1999/xlink" x="0px" y="0px"
	 width="100px" height="100px" viewBox="0 0 100 100" enable-background="new 0 0 100 100" xml:space="preserve">
<g>
	<path fill="#231F20" d="M58.53,91.875c-12.189,0-18.277-6.121-25.326-13.211l-1.225-1.229
		c-7.443-7.443-12.652-13.262-12.704-13.318c-1.492-1.49-2.34-3.553-2.329-5.75c0.011-2.188,0.871-4.246,2.421-5.795
		c1.55-1.551,3.606-2.405,5.79-2.405s4.24,0.854,5.79,2.405l5.847,6.082l0.039-42.281c0-4.274,3.034-7.499,7.058-7.499
		c4.053,0,7.109,3.225,7.109,7.5v18.072c1.448-1.036,3.249-1.572,5-1.572c3.011,0,5.584,1.911,6.57,4.584
		c1.207-0.989,2.75-1.584,4.43-1.584c3.639,0,6.638,2.791,6.97,6.345c0.727-0.229,1.436-0.345,1.925-0.345
		c3.305,0,5.894,2.636,5.894,6c0,1.015-0.036,24.926-3.158,31.17C75.385,85.537,71.159,91.875,58.53,91.875z M25.157,53.168
		c-1.383,0-2.686,0.541-3.669,1.525c-0.987,0.986-1.535,2.297-1.542,3.689c-0.007,1.389,0.528,2.693,1.508,3.674
		c0.109,0.117,5.267,5.877,12.646,13.258l1.231,1.234c6.848,6.887,12.256,12.326,23.198,12.326c10.941,0,14.36-5.059,17.416-11.172
		c2.33-4.66,2.842-23.111,2.842-29.829c0-1.683-1.271-3-2.894-3c-0.604,0-1.453,0.323-1.895,0.58v3.92c0,0.828-0.672,1.5-1.5,1.5
		s-1.5-0.672-1.5-1.5v-6.5c0-2.206-1.794-4-4-4s-4,1.794-4,4v2.5c0,0.828-0.672,1.5-1.5,1.5s-1.5-0.672-1.5-1.5v-5.5
		c0-2.206-1.794-4-4-4c-2.01,0-5,1.198-5,4.5v4c0,0.828-0.672,1.5-1.5,1.5s-1.5-0.672-1.5-1.5v-28c0-2.607-1.729-4.5-4.109-4.5
		c-2.352,0-4.058,1.893-4.058,4.5l-0.042,46c-0.001,0.613-0.373,1.162-0.94,1.391c-0.567,0.23-1.218,0.09-1.641-0.352l-8.404-8.742
		C27.843,53.709,26.54,53.168,25.157,53.168z"/>
</g>
</svg>
