<?xml version="1.0" encoding="utf-8"?>
<!-- Generator: Adobe Illustrator 16.0.0, SVG Export Plug-In . SVG Version: 6.00 Build 0)  -->
<!DOCTYPE svg PUBLIC "-//W3C//DTD SVG 1.1//EN" "http://www.w3.org/Graphics/SVG/1.1/DTD/svg11.dtd">
<svg version="1.1" id="Layer_1" xmlns="http://www.w3.org/2000/svg" xmlns:xlink="http://www.w3.org/1999/xlink" x="0px" y="0px"
	 width="100px" height="100px" viewBox="0 0 100 100" enable-background="new 0 0 100 100" xml:space="preserve">
<path fill="#231F20" d="M57.353,94.875c-12.191,0-18.28-6.123-25.33-13.213L30.8,80.436c-7.443-7.443-12.654-13.262-12.706-13.318
	c-3.134-3.131-3.119-8.338,0.089-11.545c1.55-1.551,3.605-2.404,5.787-2.404c2.183,0,4.238,0.854,5.788,2.404l5.747,5.988
	l-0.902-42.154c0-4.308,3.011-7.532,7.004-7.532c2.483,0,4.587,1.247,5.822,3.219l0.057-2.257c0-3.887,2.964-6.962,6.819-6.962
	c3.785,0,6.695,3.075,6.695,7v2.483c1-1.504,3.383-2.483,5.555-2.483c3.859,0,7.028,3.141,7.028,7l-0.225,7.757
	c1.086-1.085,2.592-1.757,4.245-1.757c3.309,0,6.003,2.691,6.003,6c0,0.04,0,0.08-0.003,0.119c0,0-0.999,12.499-1.999,25.497
	c-0.124,1.617-0.231,3.109-0.333,4.496c-0.729,9.984-1.061,14.541-3.819,20.059C74.207,88.537,69.981,94.875,57.353,94.875z
	 M23.97,56.168c-1.38,0-2.683,0.541-3.666,1.525c-0.987,0.986-1.534,2.297-1.541,3.688c-0.006,1.391,0.53,2.695,1.51,3.676
	c0.108,0.117,5.269,5.877,12.648,13.258l1.229,1.232c6.85,6.887,12.259,12.328,23.203,12.328c10.941,0,14.36-5.059,17.416-11.172
	c2.493-4.986,2.812-9.357,3.511-18.934c0.102-1.391,0.211-2.889,0.336-4.51c0.958-12.455,1.916-24.451,1.995-25.439
	c-0.029-1.63-1.364-2.946-3-2.946c-1.654,0-3,1.346-3,3c0,0.049-0.002,0.098-0.007,0.146l-2,20.5
	c-0.078,0.805-0.802,1.383-1.589,1.352c-0.808-0.051-1.429-0.734-1.403-1.543l1-32.5c-0.001-2.16-1.795-3.954-4.001-3.954
	c-2.264,0-4.25,1.869-4.25,4l-1.252,24.826c-0.041,0.8-0.739,1.674-1.552,1.674c-0.814,0-1.557-1.187-1.557-2v-31.5
	c0-2.28-1.557-4-3.695-4c-2.172,0-3.847,1.757-3.847,4l-0.862,34.788c-0.021,0.811-0.789,1.712-1.484,1.712
	s-1.475-0.889-1.504-1.696l-0.998-28.125c-0.001-2.703-1.646-4.616-4.004-4.616s-4.003,1.819-4.003,4.469l0.984,45.952
	c0.013,0.619-0.354,1.174-0.926,1.41c-0.57,0.238-1.229,0.096-1.656-0.35l-8.391-8.744C26.652,56.711,25.351,56.168,23.97,56.168z"
	/>
</svg>
