<?xml version="1.0" encoding="utf-8"?>
<!-- Generator: Adobe Illustrator 16.0.0, SVG Export Plug-In . SVG Version: 6.00 Build 0)  -->
<!DOCTYPE svg PUBLIC "-//W3C//DTD SVG 1.1//EN" "http://www.w3.org/Graphics/SVG/1.1/DTD/svg11.dtd">
<svg version="1.1" id="Layer_1" xmlns="http://www.w3.org/2000/svg" xmlns:xlink="http://www.w3.org/1999/xlink" x="0px" y="0px"
	 width="100px" height="100px" viewBox="0 0 100 100" enable-background="new 0 0 100 100" xml:space="preserve">
<path fill="#231F20" d="M71.25,29.875c-0.484,0-1.368,0.135-2.273,0.42c-0.296-3.59-3.312-6.42-6.977-6.42
	c-1.68,0-3.223,0.595-4.43,1.584c-0.986-2.673-3.56-4.584-6.57-4.584c-3.258,0-6.687,1.854-7.701,5.335
	c-1.099-0.854-2.482-1.335-4.053-1.335c-3.986,0-6.879,3.154-6.879,7.504l0.011,3.991c-0.85,0.428-2.162,1.238-3.803,2.729
	c-5.429,4.935-7.206,16.869-1.075,26.105c6.279,9.461,15.776,14.672,26.742,14.672c12.629,0,16.854-6.338,20.1-12.83
	c3.122-6.244,3.158-30.156,3.158-31.17C77.5,32.623,74.638,29.875,71.25,29.875z M71.646,65.703
	c-3.056,6.113-6.487,11.172-17.429,11.172c-9.928,0-18.564-4.734-24.269-13.33c-3.661-5.516-5.373-16.917,0.47-22.226
	c0.665-0.604,2.051-1.425,2.051-1.425l-0.031,10.48c0,1.25,0.395,2,1.293,2s1.27-0.707,1.27-2V32.375c0-2.24,1.383-4.5,4.062-4.5
	c2.771,0,3.846,2.424,3.846,4.5c0,0.828,0.718,1.5,1.546,1.5S46,33.203,46,32.375v-4c0-3.302,2.99-4.5,5-4.5c2.206,0,4,1.794,4,4
	v5.5c0,0.828,0.672,1.5,1.5,1.5s1.5-0.672,1.5-1.5v-2.5c0-2.206,1.794-4,4-4s4,1.794,4,4v6.5c0,0.828,0.672,1.5,1.5,1.5
	s1.5-0.672,1.5-1.5v-3.856c0.534-0.279,1.567-0.644,2.247-0.644c1.731,0,3.246,1.402,3.246,3
	C74.493,42.591,73.976,61.043,71.646,65.703z"/>
</svg>
