<?xml version="1.0" encoding="utf-8"?>
<!-- Generator: Adobe Illustrator 16.0.0, SVG Export Plug-In . SVG Version: 6.00 Build 0)  -->
<!DOCTYPE svg PUBLIC "-//W3C//DTD SVG 1.1//EN" "http://www.w3.org/Graphics/SVG/1.1/DTD/svg11.dtd">
<svg version="1.1" id="Layer_1" xmlns="http://www.w3.org/2000/svg" xmlns:xlink="http://www.w3.org/1999/xlink" x="0px" y="0px"
	 width="100px" height="100px" viewBox="0 0 100 100" enable-background="new 0 0 100 100" xml:space="preserve">
<g>
	<path fill="#231F20" d="M59.416,94.875c-12.191,0-18.28-6.123-25.33-13.213l-1.223-1.227c-7.443-7.443-12.654-13.262-12.706-13.318
		c-3.134-3.131-3.12-8.338,0.088-11.545c1.55-1.551,3.605-2.404,5.787-2.404s4.236,0.854,5.786,2.404l5.745,5.986l-0.908-42.152
		c0-4.308,3.007-7.532,6.994-7.532c2.47,0,4.563,1.242,5.797,3.206l0.06-2.246c-0.001-3.885,3-6.96,6.831-6.96
		c3.799,0,6.663,3.01,6.663,7v27.258c1.135-0.792,2.514-1.258,4-1.258c3.674,0,6.695,2.844,6.979,6.446
		c1.006-0.312,1.973-0.446,2.358-0.446c3.435,0,6.337,2.748,6.337,6c0,1.014-0.036,24.926-3.158,31.17
		C76.271,88.537,72.045,94.875,59.416,94.875z M26.032,56.168c-1.381,0-2.683,0.541-3.666,1.525
		c-0.987,0.986-1.534,2.297-1.54,3.688s0.53,2.695,1.51,3.676c0.108,0.117,5.269,5.877,12.648,13.258l1.229,1.232
		c6.85,6.887,12.259,12.328,23.203,12.328c10.941,0,14.36-5.059,17.416-11.172c2.331-4.662,2.842-23.113,2.842-29.829
		c0-1.57-1.591-3-3.337-3c-0.689,0-1.779,0.375-2.337,0.659v3.841c0,0.828-0.672,1.5-1.5,1.5s-1.5-0.672-1.5-1.5v-6.5
		c0-2.206-1.794-4-4-4s-4,1.794-4,4c0,0.828-0.672,1.5-1.5,1.5s-1.5-0.672-1.5-1.5v-33c0-2.317-1.541-4-3.663-4
		c-2.148,0-3.832,1.757-3.832,4l-0.916,34.79c-0.021,0.811-0.534,1.71-1.499,1.71s-1.472-0.891-1.499-1.698l-0.958-28.125
		c-0.001-2.219-1.247-4.614-3.983-4.614c-2.352,0-3.994,1.819-3.994,4.469l0.99,45.952c0.013,0.619-0.354,1.174-0.926,1.41
		c-0.57,0.236-1.229,0.096-1.656-0.352l-8.389-8.744C28.713,56.711,27.412,56.168,26.032,56.168z"/>
</g>
</svg>
