<?xml version="1.0" encoding="utf-8"?>
<!-- Generator: Adobe Illustrator 16.0.0, SVG Export Plug-In . SVG Version: 6.00 Build 0)  -->
<!DOCTYPE svg PUBLIC "-//W3C//DTD SVG 1.1//EN" "http://www.w3.org/Graphics/SVG/1.1/DTD/svg11.dtd">
<svg version="1.1" id="Layer_1" xmlns="http://www.w3.org/2000/svg" xmlns:xlink="http://www.w3.org/1999/xlink" x="0px" y="0px"
	 width="100px" height="100px" viewBox="0 0 100 100" enable-background="new 0 0 100 100" xml:space="preserve">
<g>
	<path fill="#231F20" d="M40.083,94.875c-12.629,0-16.854-6.338-20.1-12.83c-3.122-6.244-3.158-30.156-3.158-31.17
		c0-3.536,3.472-6,6.587-6c0.256,0,1.411,0.134,2.605,0.498c0.258-3.626,3.291-6.498,6.982-6.498c1.486,0,2.865,0.466,4,1.258
		V12.875c0-4.056,2.696-7,6.412-7c3.761,0,6.707,3.075,6.707,7l0.051,2.058c1.24-1.874,3.288-3.058,5.695-3.058
		c3.982,0,6.985,3.225,6.985,7.5l-0.909,42.184l5.721-5.965c1.57-1.572,3.625-2.426,5.807-2.426s4.236,0.854,5.786,2.404
		c3.208,3.207,3.221,8.414,0.029,11.605l0,0c0.003,0-5.207,5.816-12.648,13.258l-1.223,1.227
		C58.363,88.752,52.274,94.875,40.083,94.875z M23.412,47.875c-1.625,0-3.587,1.338-3.587,3c0,6.717,0.512,25.168,2.842,29.829
		c3.056,6.113,6.475,11.172,17.416,11.172c10.944,0,16.354-5.441,23.203-12.328l1.229-1.232c7.385-7.385,12.54-13.141,12.591-13.197
		c2.079-2.084,2.066-5.387,0.028-7.424c-0.983-0.984-2.285-1.525-3.665-1.525s-2.681,0.541-3.663,1.525l-8.365,8.719
		c-0.428,0.447-1.087,0.586-1.656,0.348c-0.571-0.236-0.938-0.799-0.926-1.418l0.992-46c0-2.135-1.247-4.468-3.985-4.468
		c-2.726,0-3.967,2.333-3.967,4.5l-0.927,28.113C50.945,48.296,50.434,49,49.467,49s-1.474-0.714-1.494-1.525l-0.854-34.532
		c0-2.317-1.594-4.053-3.707-4.053C41.055,8.89,40,10.883,40,12.875v33c0,0.828-0.672,1.5-1.5,1.5s-1.5-0.672-1.5-1.5
		c0-2.206-1.794-4-4-4s-4,1.794-4,4v6.5c0,0.828-0.672,1.5-1.5,1.5s-1.5-0.672-1.5-1.5v-3.808
		C25.359,48.259,24.112,47.875,23.412,47.875z"/>
</g>
</svg>
