<?xml version="1.0" encoding="utf-8"?>
<!-- Generator: Adobe Illustrator 16.0.0, SVG Export Plug-In . SVG Version: 6.00 Build 0)  -->
<!DOCTYPE svg PUBLIC "-//W3C//DTD SVG 1.1//EN" "http://www.w3.org/Graphics/SVG/1.1/DTD/svg11.dtd">
<svg version="1.1" id="Layer_1" xmlns="http://www.w3.org/2000/svg" xmlns:xlink="http://www.w3.org/1999/xlink" x="0px" y="0px"
	 width="100px" height="100px" viewBox="0 0 100 100" enable-background="new 0 0 100 100" xml:space="preserve">
<g>
	<path fill="#231F20" d="M25.242,82.045c-3.122-6.244-3.158-30.156-3.158-31.17c0-3.196,3.021-6,6.469-6
		c0.404,0,1.433,0.14,2.489,0.469c0.273-3.613,3.289-6.469,6.97-6.469c1.486,0,2.988,0.466,3.988,1.258V12.875
		c0-3.99,2.818-7,6.541-7c3.794,0,6.774,3.075,6.774,6.967l0.048,2.097c1.246-1.882,3.306-3.063,5.724-3.063
		c3.993,0,7.004,3.225,7.004,7.532l-0.685,32.025c0.808,0.439,2.033,1.242,3.602,2.666c5.43,4.936,7.207,16.869,1.076,26.105
		c-6.825,10.283-14.822,14.672-26.742,14.672C32.713,94.875,28.487,88.537,25.242,82.045z M67.107,65.41
		c-0.018,0.828-0.726,1.48-1.532,1.473c-0.828-0.02-1.485-0.697-1.468-1.525l0.984-45.952c0-2.649-1.647-4.469-4.005-4.469
		s-4.003,1.913-4.004,4.616l-1,28.125c-0.029,0.808-0.31,1.696-1.509,1.696s-1.473-0.905-1.49-1.717l-0.767-34.783
		c0-2.28-1.629-4-3.776-4c-2.425,0-3.541,2.073-3.541,4v33c0,0.828-0.661,1.5-1.489,1.5s-1.492-0.672-1.492-1.5
		c0-2.206-1.804-4-4.009-4c-2.207,0-4.01,1.794-4.01,4v6.5c0,0.828-0.672,1.5-1.5,1.5s-1.5-0.672-1.5-1.5v-3.821
		c0-0.293-1.756-0.68-2.459-0.68c-1.783,0-3.462,1.458-3.462,3c0,6.715,0.513,25.167,2.845,29.829
		c3.055,6.113,6.476,11.172,17.417,11.172c10.936,0,17.959-3.861,24.242-13.33c3.661-5.516,5.251-16.916-0.592-22.227
		c-0.631-0.574-1.188-1.021-1.661-1.371L67.107,65.41z"/>
</g>
</svg>
