<?xml version="1.0" encoding="utf-8"?>
<!-- Generator: Adobe Illustrator 16.0.0, SVG Export Plug-In . SVG Version: 6.00 Build 0)  -->
<!DOCTYPE svg PUBLIC "-//W3C//DTD SVG 1.1//EN" "http://www.w3.org/Graphics/SVG/1.1/DTD/svg11.dtd">
<svg version="1.1" id="Layer_1" xmlns="http://www.w3.org/2000/svg" xmlns:xlink="http://www.w3.org/1999/xlink" x="0px" y="0px"
	 width="100px" height="100px" viewBox="0 0 100 100" enable-background="new 0 0 100 100" xml:space="preserve">
<g>
	<path fill="#231F20" d="M44.91,94.875c-20.338,0-23.066-20.576-24.531-31.629c-0.186-1.404-0.356-2.686-0.54-3.791
		c-0.831-4.982-2.642-10.744-4.241-15.826c-1.646-5.233-2.946-9.368-2.946-11.755c0-3.382,2.689-5.908,5.094-5.908
		c2.994,0,5.474,1.955,6.804,5.363l4.162,10.666c-0.784-8.67-1.8-19.786-1.991-21.328c-0.289-2.328,0.265-4.417,1.558-5.88
		c1.09-1.233,2.644-1.913,4.374-1.913c3.746,0,6.419,2.521,7.151,6.743c0.184,1.054,0.645,3.752,1.196,6.992V12.875
		c0-3.925,2.998-7,6.826-7c3.812,0,6.913,3.141,6.913,7l0.54,20.41c1.118-6.069,2.209-12.233,2.38-14.05
		c0.6-6.404,4.642-7.36,6.997-7.36c3.993,0,7.004,3.225,7.004,7.5c0,0.054-0.003,0.108-0.009,0.161l-4.51,41.625l5.343-5.566
		c1.57-1.572,3.626-2.426,5.809-2.426c2.182,0,4.237,0.854,5.787,2.404c3.208,3.207,3.223,8.414,0.031,11.605l0,0
		c0.003,0-5.207,5.816-12.648,13.258l-1.223,1.227C63.19,88.752,57.102,94.875,44.91,94.875z M17.746,28.966
		c-0.735,0-2.094,1.199-2.094,2.908c0,1.927,1.364,6.264,2.808,10.854c1.628,5.177,3.473,11.042,4.338,16.232
		c0.189,1.135,0.364,2.451,0.555,3.891C24.885,74.41,27.2,91.875,44.91,91.875c10.944,0,16.354-5.441,23.203-12.328l1.229-1.232
		c7.385-7.385,12.54-13.141,12.591-13.197c2.079-2.082,2.064-5.385,0.026-7.424c-0.983-0.984-2.286-1.525-3.666-1.525
		c-1.381,0-2.683,0.541-3.665,1.525l-8.37,8.721c-0.444,0.463-1.134,0.592-1.716,0.32s-0.927-0.883-0.857-1.521l4.976-45.916
		c-0.032-2.608-1.669-4.423-4.004-4.423c-1.768,0-3.627,0.552-4.011,4.64c-0.377,4.026-4.831,27.161-5.021,28.145
		c-0.145,0.752-0.824,1.254-1.596,1.211c-0.763-0.062-1.356-0.69-1.376-1.455l-0.913-34.5c-0.001-2.283-1.72-4.04-3.914-4.04
		c-2.146,0-3.826,1.757-3.826,4v31.5c0,0.779-0.597,1.43-1.374,1.495c-0.778,0.064-1.474-0.476-1.604-1.244
		c0,0-3.576-21.05-4.173-24.494c-0.337-1.942-1.339-4.257-4.196-4.257c-0.883,0-1.599,0.303-2.126,0.899
		c-0.705,0.798-1.008,2.083-0.829,3.524c0.325,2.612,2.842,30.747,2.949,31.942c0.066,0.744-0.424,1.424-1.151,1.594
		c-0.718,0.174-1.468-0.217-1.74-0.914l-8-20.5C21.251,31.13,20.062,28.966,17.746,28.966z"/>
</g>
</svg>
