<?xml version="1.0" encoding="utf-8"?>
<!-- Generator: Adobe Illustrator 16.0.0, SVG Export Plug-In . SVG Version: 6.00 Build 0)  -->
<!DOCTYPE svg PUBLIC "-//W3C//DTD SVG 1.1//EN" "http://www.w3.org/Graphics/SVG/1.1/DTD/svg11.dtd">
<svg version="1.1" id="Layer_1" xmlns="http://www.w3.org/2000/svg" xmlns:xlink="http://www.w3.org/1999/xlink" x="0px" y="0px"
	 width="100px" height="100px" viewBox="0 0 100 100" enable-background="new 0 0 100 100" xml:space="preserve">
<g>
	<path fill="#231F20" d="M24.354,79.045c-3.122-6.244-3.158-30.156-3.158-31.17c0-3.196,3.049-6,6.525-6
		c0.413,0,1.467,0.143,2.545,0.478c0.268-3.617,3.297-6.478,6.98-6.478c1.65,0,3.17,0.574,4.368,1.533
		c0.863-2.729,3.17-4.533,6.106-4.533c1.902,0,3.598,0.779,4.812,2.055l0.663-18.555c0-4.275,3.011-7.5,7.004-7.5
		s7.004,3.225,7.004,7.532l-0.686,32.024c0.808,0.44,2.034,1.242,3.603,2.667c5.429,4.936,7.206,16.869,1.075,26.105
		C64.37,87.486,56.373,91.875,44.453,91.875C31.824,91.875,27.599,85.537,24.354,79.045z M66.219,62.406
		c-0.018,0.828-0.699,1.477-1.532,1.469c-0.828-0.02-1.485-0.705-1.468-1.533l0.984-45.967c0-2.649-1.646-4.5-4.004-4.5
		s-4.004,1.851-4.005,4.554l-1,28c-0.027,0.771-0.635,1.395-1.404,1.443c-0.756,0.043-1.45-0.493-1.575-1.255l-0.737-4.5
		c-0.013-0.08-0.02-0.161-0.02-0.242c0-2.28-1.729-4-3.86-4c-2.388,0-3.598,2.073-3.598,4v3c0,0.828-0.549,1.5-1.377,1.5
		s-1.439-0.672-1.439-1.5c0-2.206-1.886-4-4.092-4S33,40.668,33,42.875v6.5c0,0.828-0.672,1.5-1.5,1.5s-1.5-0.672-1.5-1.5v-3.813
		c-1-0.295-1.685-0.687-2.402-0.687c-1.779,0-3.465,1.486-3.465,3c0,6.717,0.543,25.168,2.873,29.829
		c3.056,6.113,6.49,11.172,17.432,11.172c10.936,0,17.967-3.861,24.25-13.33c3.661-5.516,5.254-16.916-0.589-22.227
		c-0.631-0.574-1.185-1.021-1.657-1.371L66.219,62.406z"/>
</g>
</svg>
