<?xml version="1.0" encoding="utf-8"?>
<!-- Generator: Adobe Illustrator 16.0.0, SVG Export Plug-In . SVG Version: 6.00 Build 0)  -->
<!DOCTYPE svg PUBLIC "-//W3C//DTD SVG 1.1//EN" "http://www.w3.org/Graphics/SVG/1.1/DTD/svg11.dtd">
<svg version="1.1" id="Layer_1" xmlns="http://www.w3.org/2000/svg" xmlns:xlink="http://www.w3.org/1999/xlink" x="0px" y="0px"
	 width="100px" height="100px" viewBox="0 0 100 100" enable-background="new 0 0 100 100" xml:space="preserve">
<g>
	<path fill="#231F20" d="M57.958,82.875L57.958,82.875c-6.693,0-12.466-2.711-18.578-5.582l-1.56-0.73
		c-9.541-4.449-16.43-8.131-16.498-8.168c-4.019-1.871-5.789-6.768-3.873-10.877c1.339-2.873,4.241-4.729,7.394-4.729
		c1.201,0,2.368,0.262,3.469,0.775l7.546,3.727c-1.754-4.785-5.04-13.342-7.752-18.086c-2.294-4.015-4.512-5.501-6.47-6.812
		c-1.309-0.876-2.545-1.704-3.476-3.101c-1.224-1.835-1.55-4.031-0.896-6.024c0.625-1.905,2.072-3.395,3.972-4.086
		c0.605-0.221,1.262-0.332,1.951-0.332c3.911,0,8.294,3.562,11.282,6.55c1.634,1.634,3.386,4.062,4.915,6.421
		c0.767-2.409,2.802-4.268,5.104-5.105c0.773-0.281,1.578-0.424,2.395-0.424c2.092,0,4.037,0.942,5.344,2.483
		c0.822-1.39,2.089-2.443,3.626-3.003c0.771-0.281,1.577-0.424,2.394-0.424c2.737,0,5.223,1.613,6.356,4.07
		c0.645-0.509,1.36-0.941,1.994-1.172c0.681-0.249,1.401-0.375,2.14-0.375c2.616,0,4.941,1.558,5.785,3.874
		c0.348,0.954,8.491,23.436,7.693,30.372c-0.83,7.211-2.633,14.611-14.5,18.93C64.337,82.277,61.145,82.875,57.958,82.875z
		 M24.843,55.789c-2.022,0-3.813,1.148-4.675,2.996c-1.217,2.609-0.098,5.717,2.496,6.928c0.143,0.072,6.964,3.719,16.424,8.131
		l1.567,0.734c6.052,2.842,11.279,5.297,17.302,5.297h0.001c2.831,0,5.687-0.539,8.73-1.646c10.28-3.742,11.764-9.666,12.545-16.455
		c0.596-5.176-5.234-22.69-7.531-29.001c-0.408-1.118-1.628-1.9-2.967-1.9c-0.387,0-0.762,0.065-1.113,0.193
		c-0.639,0.232-1.489,0.93-1.895,1.374l1.318,3.624c0.284,0.778-0.117,1.639-0.896,1.922s-1.639-0.117-1.923-0.896l-2.224-6.108
		c-0.573-1.575-2.084-2.633-3.759-2.633c-0.465,0-0.926,0.081-1.367,0.242c-1.005,0.366-1.807,1.101-2.258,2.068
		c-0.451,0.969-0.499,2.055-0.134,3.058l0.855,2.351c0.282,0.778-0.119,1.639-0.897,1.922c-0.777,0.283-1.639-0.118-1.922-0.896
		l-1.881-5.168c-0.573-1.575-2.084-2.633-3.76-2.633c-0.465,0-0.925,0.081-1.368,0.242c-1.888,0.688-4.288,2.837-3.159,5.939
		l1.368,3.759c0.271,0.74-0.08,1.563-0.801,1.884c-0.723,0.32-1.566,0.026-1.935-0.67c-0.048-0.091-4.848-9.132-8.64-12.925
		C28.192,23.366,24.336,21.25,22.261,22c-1.027,0.375-1.811,1.177-2.146,2.202c-0.365,1.113-0.167,2.361,0.542,3.426
		c0.6,0.899,1.504,1.506,2.649,2.272c2.009,1.346,4.761,3.188,7.405,7.815c4.023,7.041,9.019,21.463,9.229,22.073
		c0.198,0.576,0.03,1.213-0.427,1.615c-0.454,0.402-1.108,0.49-1.655,0.219l-10.846-5.355
		C26.342,55.955,25.602,55.789,24.843,55.789z"/>
</g>
</svg>
