<?xml version="1.0" encoding="utf-8"?>
<!-- Generator: Adobe Illustrator 16.0.0, SVG Export Plug-In . SVG Version: 6.00 Build 0)  -->
<!DOCTYPE svg PUBLIC "-//W3C//DTD SVG 1.1//EN" "http://www.w3.org/Graphics/SVG/1.1/DTD/svg11.dtd">
<svg version="1.1" id="Layer_1" xmlns="http://www.w3.org/2000/svg" xmlns:xlink="http://www.w3.org/1999/xlink" x="0px" y="0px"
	 width="100px" height="100px" viewBox="0 0 100 100" enable-background="new 0 0 100 100" xml:space="preserve">
<g>
	<path fill="#231F20" d="M54.793,91.875c-11.92,0-19.917-4.389-26.742-14.672c-6.131-9.236-4.354-21.17,1.075-26.105
		c1.568-1.424,2.795-2.226,3.603-2.667l-0.686-32.024c0-4.308,3.011-7.532,7.004-7.532s7.004,3.225,7.004,7.5l0.663,18.555
		c1.214-1.275,2.909-2.055,4.812-2.055c2.937,0,5.243,1.804,6.106,4.533c1.198-0.959,2.718-1.533,4.368-1.533
		c3.684,0,6.713,2.86,6.98,6.478c1.078-0.335,2.132-0.478,2.545-0.478c3.477,0,6.525,2.804,6.525,6
		c0,1.015-0.036,24.926-3.158,31.17C71.647,85.537,67.422,91.875,54.793,91.875z M32.804,51.947c-0.473,0.35-1.029,0.797-1.66,1.371
		c-5.843,5.311-4.254,16.711-0.593,22.227c6.283,9.469,13.307,13.33,24.242,13.33c10.941,0,14.36-5.059,17.416-11.172
		c2.33-4.66,2.842-23.111,2.842-29.829c0-1.514-1.746-3-3.525-3c-0.718,0-1.916,0.392-2.525,0.687v3.813c0,0.828-0.672,1.5-1.5,1.5
		s-1.5-0.672-1.5-1.5v-6.5c0-2.206-1.794-4-4-4s-4,1.794-4,4c0,0.828-0.672,1.5-1.5,1.5s-1.5-0.672-1.5-1.5v-3
		c0-1.927-1.087-4-3.475-4c-2.131,0-3.737,1.72-3.737,4c0,0.081-0.007,0.162-0.02,0.242l-0.737,4.5
		c-0.125,0.762-0.819,1.298-1.575,1.255c-0.77-0.049-1.377-0.673-1.404-1.443l-1-28c-0.001-2.703-1.647-4.554-4.005-4.554
		s-4.004,1.851-4.004,4.5l0.984,45.967c0.018,0.828-0.64,1.514-1.468,1.533c-0.833,0.008-1.515-0.641-1.532-1.469L32.804,51.947z"/>
</g>
</svg>
