<?xml version="1.0" encoding="utf-8"?>
<!-- Generator: Adobe Illustrator 16.0.0, SVG Export Plug-In . SVG Version: 6.00 Build 0)  -->
<!DOCTYPE svg PUBLIC "-//W3C//DTD SVG 1.1//EN" "http://www.w3.org/Graphics/SVG/1.1/DTD/svg11.dtd">
<svg version="1.1" id="Layer_1" xmlns="http://www.w3.org/2000/svg" xmlns:xlink="http://www.w3.org/1999/xlink" x="0px" y="0px"
	 width="100px" height="100px" viewBox="0 0 100 100" enable-background="new 0 0 100 100" xml:space="preserve">
<g>
	<path fill="#231F20" d="M54.579,94.875c-11.92,0-19.917-4.389-26.742-14.672c-6.131-9.236-4.354-21.17,1.074-26.104
		c1.571-1.428,2.792-2.23,3.599-2.668l-0.688-32.025c0-4.308,3.008-7.532,6.996-7.532c2.493,0,4.604,1.264,5.833,3.256l0.062-2.297
		c-0.001-3.885,2.85-6.959,6.705-6.959c3.785,0,6.582,3.074,6.582,7v2.484c2-1.505,3.496-2.484,5.668-2.484
		c3.859,0,7.085,3.141,7.085,7l-0.735,25.299c0.645-0.195,1.3-0.299,1.798-0.299c3.309,0,6.011,2.691,6.011,6
		c0,1.014-0.03,24.926-3.152,31.17C71.429,88.537,67.208,94.875,54.579,94.875z M32.585,54.949c-0.472,0.35-1.026,0.797-1.656,1.369
		c-5.843,5.311-4.253,16.711-0.592,22.227c6.283,9.469,13.307,13.33,24.242,13.33c10.941,0,14.36-5.059,17.416-11.172
		c2.331-4.662,2.842-23.113,2.842-29.829c0-1.654-1.346-3-3-3c-0.6,0-1.444,0.325-1.875,0.581c-0.025,1.086-0.114,3.636-0.126,3.972
		c-0.029,0.826-0.688,1.459-1.549,1.445c-0.826-0.025-1.294-0.717-1.269-1.545l0.91-32.5c-0.001-2.159-1.841-3.954-4.047-3.954
		c-2.264,0-4.272,1.869-4.272,4l-1.263,24.826c-0.041,0.8-0.649,1.674-1.716,1.674S55,45.188,55,44.375v-31.5
		c0-2.28-1.443-4-3.582-4c-2.172,0-3.79,1.757-3.79,4l-0.896,34.541c-0.021,0.811-0.662,1.456-1.473,1.459
		c-0.804,0.018-1.466-0.639-1.494-1.448l-0.963-28c-0.001-2.22-1.247-4.552-3.987-4.552c-2.353,0-3.994,1.851-3.994,4.5
		l0.988,45.967c0.018,0.828-0.639,1.516-1.467,1.533c-0.85-0.023-1.515-0.641-1.532-1.469L32.585,54.949z"/>
</g>
</svg>
