<?xml version="1.0" encoding="utf-8"?>
<!-- Generator: Adobe Illustrator 16.0.0, SVG Export Plug-In . SVG Version: 6.00 Build 0)  -->
<!DOCTYPE svg PUBLIC "-//W3C//DTD SVG 1.1//EN" "http://www.w3.org/Graphics/SVG/1.1/DTD/svg11.dtd">
<svg version="1.1" id="Layer_1" xmlns="http://www.w3.org/2000/svg" xmlns:xlink="http://www.w3.org/1999/xlink" x="0px" y="0px"
	 width="150px" height="150px" viewBox="0 0 150 150" enable-background="new 0 0 150 150" xml:space="preserve">
<path fill="#231F20" d="M120.965,63.375c0-7.812-4.771-14.936-11.947-17.96c-2.233-6.968-8.162-12.084-15.387-13.266
	c-3.73-4.631-9.223-7.274-15.166-7.274c-5.311,0-10.408,2.196-14.086,6.046c-10.212,0.571-18.414,9.165-18.414,19.454
	c0,8.439,5.398,15.625,12.919,18.33l0.149,7.005c-3.236-2.404-7.234-3.835-11.568-3.835c-10.752,0-19.5,8.749-19.5,19.5
	s8.748,19.5,19.5,19.5c2.015,0,3.954-0.316,5.781-0.893c0.471,0.477,0.951,0.961,1.443,1.453l1.223,1.227
	c7.05,7.09,13.139,13.213,25.33,13.213c12.629,0,16.854-6.338,20.1-12.83c2.759-5.518,3.091-10.074,3.819-20.059
	c0.102-1.387,0.21-2.879,0.334-4.496c0.161-2.092,0.321-4.168,0.479-6.182C114.555,80.268,120.965,72.571,120.965,63.375z
	 M41.983,98.117c0.024,0.027,1.209,1.348,3.224,3.506c-4.707-1.035-8.242-5.234-8.242-10.248c0-5.791,4.711-10.5,10.5-10.5
	c5.682,0,10.312,4.537,10.484,10.178l-4.302-4.48c-1.55-1.551-3.605-2.404-5.788-2.404c-2.182,0-4.237,0.854-5.787,2.404
	C38.864,89.779,38.85,94.986,41.983,98.117z M47.465,107.875c-9.098,0-16.5-7.402-16.5-16.5s7.402-16.5,16.5-16.5
	c4.555,0,8.671,1.866,11.655,4.862l0.107,5.035c-2.316-4.111-6.718-6.896-11.763-6.896c-7.443,0-13.5,6.055-13.5,13.5
	c0,7.443,6.057,13.5,13.5,13.5c0.264,0,0.522-0.018,0.782-0.033c0.802,0.84,1.664,1.734,2.585,2.682
	C49.745,107.752,48.619,107.875,47.465,107.875z M102.505,88.26c-0.125,1.621-0.234,3.119-0.336,4.51
	c-0.698,9.576-1.018,13.947-3.511,18.934c-3.056,6.113-6.475,11.172-17.416,11.172c-10.944,0-16.354-5.441-23.203-12.328
	l-1.229-1.232c-0.188-0.189-0.369-0.371-0.555-0.559l0,0c-0.762-0.764-1.502-1.512-2.21-2.234c-0.802-0.818-1.568-1.607-2.292-2.357
	l0,0c-0.418-0.434-0.819-0.852-1.207-1.258c-0.049-0.051-0.094-0.098-0.142-0.148c-0.339-0.355-0.669-0.701-0.985-1.035
	c-3.217-3.393-5.191-5.594-5.258-5.666c-0.979-0.98-1.516-2.285-1.51-3.676c0.007-1.391,0.554-2.701,1.541-3.688
	c0.983-0.984,2.286-1.525,3.666-1.525c1.381,0,2.683,0.543,3.645,1.506l6.111,6.369l2.029,2.115l0,0l0.25,0.26
	c0.427,0.445,1.086,0.588,1.656,0.35c0.571-0.236,0.938-0.791,0.926-1.41l-0.264-12.34l0,0l-0.118-5.492l0,0L61.77,63.347l0,0
	l-0.039-1.822l-0.238-11.119c0-2.649,1.646-4.469,4.004-4.469s4.004,1.913,4.005,4.616l0.333,9.353l0,0l0.011,0.31l0.213,5.995l0,0
	l0.024,0.669l0.419,11.798c0.029,0.809,0.812,1.697,1.507,1.697s1.471-0.902,1.491-1.713l0.308-12.221l0.048-1.885l0,0l0.093-3.714
	l0,0l0.01-0.394l0.418-16.574c0-2.243,1.702-4,3.875-4c2.138,0,3.75,1.72,3.75,4v13.656v4.321v3.634v3.416v6.473
	c0,0.813,0.688,2,1.501,2s1.456-0.875,1.497-1.674l0.594-11.764l0,0l0.021-0.44l0.637-12.622c0-2.131,1.986-4,4.25-4
	c2.206,0,4,1.794,4.001,3.954l-0.833,27.068l0,0l-0.048,1.568l-0.119,3.863c-0.025,0.809,0.596,1.492,1.403,1.543
	c0.787,0.031,1.511-0.547,1.589-1.352l0.124-1.27l0,0l0.099-1.012l0.494-5.064l0,0l0.3-3.078l0,0l0.983-10.076
	c0.005-0.048,0.007-0.097,0.007-0.146c0-1.654,1.346-3,3-3c1.636,0,2.971,1.316,3,2.946c-0.046,0.575-0.39,4.877-0.857,10.823l0,0
	c-0.02,0.254-0.041,0.519-0.061,0.778c-0.188,2.375-0.391,4.984-0.604,7.708c-0.018,0.225-0.034,0.443-0.052,0.67l0,0
	C102.788,84.588,102.646,86.418,102.505,88.26z M102.34,52.92c5.396,0.445,9.625,5.037,9.625,10.454
	c0,3.863-2.102,7.238-5.219,9.061c0.443-5.615,0.749-9.441,0.749-9.441c0.003-0.039,0.005-0.079,0.005-0.119c0-3.309-2.691-6-6-6
	c-1.653,0-3.152,0.672-4.238,1.757l0.238-7.757c0-3.859-3.141-7-7-7c-2.173,0-4.158,0.979-5.5,2.483v-2.483c0-3.925-2.965-7-6.75-7
	c-3.855,0-6.875,3.075-6.875,6.962l-0.057,2.257c-1.235-1.972-3.339-3.219-5.822-3.219c-3.993,0-7.004,3.225-7.004,7.532l0.17,7.939
	c-2.258-1.924-3.697-4.778-3.697-7.972c0-5.79,4.711-10.5,10.5-10.5c0.719,0,1.444,0.075,2.158,0.225
	c0.645,0.137,1.305-0.17,1.622-0.75c1.845-3.377,5.378-5.475,9.22-5.475c4.105,0,7.857,2.424,9.559,6.175
	c0.264,0.581,0.863,0.932,1.502,0.874c0.31-0.028,0.622-0.049,0.939-0.049c5.789,0,10.5,4.71,10.503,10.415
	c-0.003,0.037-0.005,0.099-0.005,0.136C100.963,52.206,101.561,52.856,102.34,52.92z M106.218,79.174
	c0.089-1.131,0.175-2.232,0.258-3.293c4.966-1.993,8.489-6.835,8.489-12.506c0-6.519-4.76-12.107-11.059-13.269
	c-0.642-6.852-6.425-12.231-13.441-12.231c-0.059,0-0.119,0.001-0.178,0.002c-2.358-4.286-6.892-7.002-11.822-7.002
	c-4.577,0-8.812,2.315-11.297,6.108c-0.566-0.072-1.137-0.108-1.703-0.108c-7.443,0-13.5,6.056-13.5,13.5
	c0,4.996,2.731,9.358,6.777,11.689l0.072,3.385c-5.791-2.562-9.85-8.346-9.85-15.074c0-8.888,7.234-16.28,16.127-16.479
	c0.415-0.01,0.808-0.19,1.084-0.5c3.138-3.509,7.617-5.521,12.289-5.521c5.202,0,9.998,2.396,13.156,6.575
	c0.242,0.32,0.604,0.53,1.002,0.583c6.558,0.859,11.943,5.534,13.721,11.909c0.129,0.461,0.469,0.833,0.916,1.002
	c6.403,2.408,10.705,8.609,10.705,15.431C117.965,70.821,113.006,77.129,106.218,79.174z"/>
</svg>
