<?xml version="1.0" encoding="utf-8"?>
<!-- Generator: Adobe Illustrator 16.0.0, SVG Export Plug-In . SVG Version: 6.00 Build 0)  -->
<!DOCTYPE svg PUBLIC "-//W3C//DTD SVG 1.1//EN" "http://www.w3.org/Graphics/SVG/1.1/DTD/svg11.dtd">
<svg version="1.1" id="Layer_1" xmlns="http://www.w3.org/2000/svg" xmlns:xlink="http://www.w3.org/1999/xlink" x="0px" y="0px"
	 width="150px" height="150px" viewBox="0 0 150 150" enable-background="new 0 0 150 150" xml:space="preserve">
<g>
	<path fill="#231F20" d="M84.062,21.814l-6-6c-0.586-0.586-1.535-0.586-2.121,0l-6,6c-0.429,0.429-0.558,0.887-0.325,1.448
		S70.396,24,71.002,24H75v15.375c0,1,1,2,2,2s2-1,2-2V24h4.002c0.606,0,1.153-0.178,1.386-0.738S84.491,22.243,84.062,21.814z"/>
	<path fill="#231F20" d="M98.062,31.814l-6-6c-0.586-0.586-1.535-0.586-2.121,0l-6,6c-0.429,0.429-0.558,0.887-0.325,1.448
		S84.396,34,85.002,34H89v10.375c0,1,1,2,2,2s2-1,2-2V34h4.002c0.606,0,1.153-0.178,1.386-0.738S98.491,32.243,98.062,31.814z"/>
	<path fill="#231F20" d="M70.062,31.814l-6-6c-0.586-0.586-1.535-0.586-2.121,0l-6,6c-0.429,0.429-0.558,0.887-0.325,1.448
		S56.396,34,57.002,34H61v10.375c0,1,1,2,2,2s2-1,2-2V34h4.002c0.606,0,1.153-0.178,1.386-0.738S70.491,32.243,70.062,31.814z"/>
	<path fill="#231F20" d="M111.062,21.812l-6-6c-0.586-0.586-1.535-0.586-2.121,0l-6,6c-0.429,0.429-0.558,0.888-0.325,1.449
		S97.395,24,98.001,24H102v30.373c0,1,1,2,2,2s2-1,2-2V24h4.001c0.606,0,1.153-0.179,1.386-0.739S111.49,22.241,111.062,21.812z"/>
	<path fill="#231F20" d="M55.062,44.812l-6-6c-0.586-0.586-1.535-0.586-2.121,0l-6,6c-0.429,0.429-0.558,0.888-0.325,1.449
		S41.395,47,42.001,47H46v38.373c0,1,1,2,2,2s2-1,2-2V47h4.001c0.606,0,1.153-0.179,1.386-0.739S55.49,45.241,55.062,44.812z"/>
	<g>
		<path fill="#231F20" d="M80.242,135.875c-12.191,0-18.28-6.123-25.33-13.213l-1.223-1.227
			c-7.443-7.443-12.654-13.262-12.706-13.318c-3.134-3.131-3.119-8.338,0.089-11.545c1.55-1.551,3.605-2.404,5.787-2.404
			c2.183,0,4.238,0.854,5.788,2.404l5.747,5.988l-0.902-42.154c0-4.308,3.011-7.532,7.004-7.532c2.483,0,4.587,1.247,5.822,3.219
			l0.057-2.257c0-3.887,3.02-6.962,6.875-6.962c3.785,0,6.75,3.075,6.75,7v2.483c1.342-1.504,3.327-2.483,5.5-2.483
			c3.859,0,7,3.141,7,7l-0.238,7.757c1.086-1.085,2.585-1.757,4.238-1.757c3.309,0,6,2.691,6,6c0,0.04-0.002,0.08-0.005,0.119
			c0,0-1,12.499-2,25.497c-0.124,1.617-0.232,3.109-0.334,4.496c-0.729,9.984-1.061,14.541-3.819,20.059
			C97.097,129.537,92.871,135.875,80.242,135.875z M46.859,97.168c-1.38,0-2.683,0.541-3.666,1.525
			c-0.987,0.986-1.534,2.297-1.541,3.688c-0.006,1.391,0.53,2.695,1.51,3.676c0.108,0.117,5.269,5.877,12.648,13.258l1.229,1.232
			c6.85,6.887,12.259,12.328,23.203,12.328c10.941,0,14.36-5.059,17.416-11.172c2.493-4.986,2.812-9.357,3.511-18.934
			c0.102-1.391,0.211-2.889,0.336-4.51c0.958-12.455,1.916-24.451,1.995-25.439c-0.029-1.63-1.364-2.946-3-2.946
			c-1.654,0-3,1.346-3,3c0,0.049-0.002,0.098-0.007,0.146l-2,20.5c-0.079,0.805-0.797,1.393-1.589,1.352
			c-0.808-0.051-1.429-0.734-1.403-1.543l1-32.5c-0.001-2.16-1.795-3.954-4.001-3.954c-2.264,0-4.25,1.869-4.25,4l-1.252,24.639
			C83.957,86.312,83.297,87,82.501,87c-0.014,0-0.026,0-0.039,0C81.648,86,81,86.188,81,85.375v-31.5c0-2.28-1.612-4-3.75-4
			c-2.173,0-3.875,1.757-3.875,4l-0.876,34.6C72.479,89.285,71.818,89,71.008,90c-0.003,0-0.005,0-0.008,0
			c-0.808,0-1.47-0.701-1.499-1.51l-1-28.031c-0.001-2.703-1.647-4.569-4.005-4.569s-4.004,1.843-4.004,4.492l0.984,45.963
			c0.013,0.619-0.354,1.18-0.926,1.416c-0.569,0.236-1.229,0.099-1.656-0.347l-8.391-8.743
			C49.542,97.709,48.24,97.168,46.859,97.168z"/>
	</g>
</g>
</svg>
