<?xml version="1.0" encoding="utf-8"?>
<!-- Generator: Adobe Illustrator 16.0.0, SVG Export Plug-In . SVG Version: 6.00 Build 0)  -->
<!DOCTYPE svg PUBLIC "-//W3C//DTD SVG 1.1//EN" "http://www.w3.org/Graphics/SVG/1.1/DTD/svg11.dtd">
<svg version="1.1" id="Layer_1" xmlns="http://www.w3.org/2000/svg" xmlns:xlink="http://www.w3.org/1999/xlink" x="0px" y="0px"
	 width="150px" height="150px" viewBox="0 0 150 150" enable-background="new 0 0 150 150" xml:space="preserve">
<g>
	<g>
		<path fill="#231F20" d="M105.575,118.395c-6.688,0-12.458-2.709-18.566-5.578l-1.567-0.734c-9.541-4.449-16.428-8.135-16.496-8.17
			c-1.911-0.889-3.414-2.537-4.155-4.605c-0.739-2.059-0.636-4.287,0.291-6.273c1.339-2.875,4.248-4.732,7.409-4.732
			c1.201,0,2.368,0.26,3.468,0.773l7.448,3.66L68.142,53.433c-0.696-1.912-0.703-3.89-0.03-5.596
			c0.716-1.813,2.148-3.19,4.034-3.877c2.295-0.837,4.749-0.399,6.572,1.028l-0.717-2.136c-0.627-1.72-0.568-3.605,0.178-5.273
			c0.757-1.694,2.143-2.98,3.901-3.62c0.753-0.274,1.531-0.414,2.312-0.414c2.867,0,5.39,1.839,6.424,4.684l0.852,2.339
			c0.081-0.201,0.171-0.401,0.271-0.599c0.842-1.672,2.317-2.992,4.048-3.621c0.771-0.281,1.577-0.424,2.393-0.424
			c2.932,0,5.576,1.852,6.579,4.606l2.429,7.371c0.649-1.392,1.828-2.535,3.381-3.101c0.663-0.241,1.353-0.363,2.053-0.363
			c2.513,0,4.778,1.587,5.639,3.948c0.014,0.038,0.026,0.076,0.037,0.114c0,0.001,3.334,12.087,6.84,24.643
			c0.436,1.56,0.844,2.998,1.223,4.333c2.731,9.635,3.978,14.031,3.273,20.162c-0.83,7.211-2.633,14.611-14.501,18.93
			C111.953,117.797,108.762,118.395,105.575,118.395z M72.49,91.301c-2,0-3.841,1.178-4.69,3c-0.59,1.266-0.656,2.684-0.187,3.992
			s1.42,2.352,2.675,2.938c0.143,0.074,6.961,3.721,16.421,8.133l1.575,0.738c6.049,2.84,11.272,5.293,17.291,5.293
			c2.831,0,5.687-0.537,8.729-1.645c10.281-3.742,11.765-9.666,12.546-16.455c0.637-5.539-0.56-9.758-3.18-19
			c-0.38-1.34-0.788-2.782-1.225-4.345c-3.359-12.029-6.561-23.627-6.826-24.587c-0.568-1.479-2.317-2.291-3.827-1.743
			c-1.554,0.566-2.358,2.291-1.793,3.846c0.017,0.045,0.031,0.092,0.044,0.139l5.132,19.948c0.201,0.784-0.255,1.586-1.031,1.813
			c-0.777,0.224-1.594-0.202-1.847-0.97l-10.175-30.882c-0.559-1.531-2.069-2.59-3.745-2.59c-0.465,0-0.925,0.081-1.366,0.242
			c-1.021,0.371-1.894,1.156-2.396,2.153c-0.504,0.999-0.586,2.085-0.231,3.059l7.229,23.522c0.239,0.777-0.186,1.604-0.957,1.862
			c-0.768,0.263-1.608-0.144-1.886-0.909l-10.774-29.6c-0.761-2.091-2.903-3.204-4.891-2.477c-0.989,0.36-1.767,1.079-2.189,2.026
			c-0.426,0.952-0.456,2.039-0.085,3.058l10.99,32.755c0.258,0.769-0.142,1.604-0.901,1.885c-0.764,0.279-1.606-0.094-1.911-0.844
			l-10.517-25.97c-0.897-2.462-3.136-3.7-5.321-2.909c-1.083,0.395-1.868,1.142-2.27,2.159c-0.404,1.024-0.388,2.245,0.047,3.438
			l16.646,42.86c0.224,0.576,0.071,1.23-0.385,1.648c-0.455,0.418-1.12,0.512-1.676,0.24l-10.874-5.346
			C73.99,91.467,73.25,91.301,72.49,91.301z"/>
	</g>
	<path fill="#231F20" d="M21.5,43H48v3.875c0,0.606,0.115,1.153,0.676,1.386s0.956,0.104,1.385-0.325L56,42.375
		c0.586-0.586,0.586-1.414,0-2l-5.939-5.561c-0.429-0.429-0.824-0.558-1.385-0.325S48,35.268,48,35.875V39H21.5c-1,0-2,1-2,2
		S20.5,43,21.5,43z"/>
	<path fill="#231F20" d="M21.5,57H38v3.875c0,0.606,0.115,1.153,0.676,1.386s0.956,0.104,1.385-0.325L46,56.375
		c0.586-0.586,0.586-1.414,0-2l-5.939-5.561c-0.429-0.429-0.824-0.558-1.385-0.325S38,49.268,38,49.875V53H21.5c-1,0-2,1-2,2
		S20.5,57,21.5,57z"/>
	<path fill="#231F20" d="M21.5,85H38v3.875c0,0.605,0.115,1.152,0.676,1.385s0.956,0.104,1.385-0.324L46,84.375
		c0.586-0.586,0.586-1.414,0-2l-5.939-5.561c-0.429-0.43-0.824-0.559-1.385-0.326S38,77.268,38,77.875V81H21.5c-1,0-2,1-2,2
		S20.5,85,21.5,85z"/>
	<path fill="#231F20" d="M21.5,71H48v3.875c0,0.606,0.115,1.153,0.676,1.385s0.956,0.104,1.385-0.325L56,70.375
		c0.586-0.586,0.586-1.414,0-2l-5.939-5.561c-0.429-0.429-0.824-0.558-1.385-0.325S48,63.268,48,63.875V67H21.5c-1,0-2,1-2,2
		S20.5,71,21.5,71z"/>
	<path fill="#231F20" d="M21.5,99H48v3.875c0,0.605,0.115,1.152,0.676,1.385s0.956,0.104,1.385-0.324L56,98.375
		c0.586-0.586,0.586-1.414,0-2l-5.939-5.561c-0.429-0.43-0.824-0.559-1.385-0.326S48,91.268,48,91.875V95H21.5c-1,0-2,1-2,2
		S20.5,99,21.5,99z"/>
</g>
</svg>
