<?xml version="1.0" encoding="utf-8"?>
<!-- Generator: Adobe Illustrator 16.0.0, SVG Export Plug-In . SVG Version: 6.00 Build 0)  -->
<!DOCTYPE svg PUBLIC "-//W3C//DTD SVG 1.1//EN" "http://www.w3.org/Graphics/SVG/1.1/DTD/svg11.dtd">
<svg version="1.1" id="Layer_1" xmlns="http://www.w3.org/2000/svg" xmlns:xlink="http://www.w3.org/1999/xlink" x="0px" y="0px"
	 width="150px" height="150px" viewBox="0 0 150 150" enable-background="new 0 0 150 150" xml:space="preserve">
<g>
	<path fill="#231F20" d="M70.939,29.935l6,6c0.586,0.586,1.535,0.586,2.121,0l6-6c0.429-0.429,0.558-1.261,0.325-1.822
		S84.606,27,84,27h-4v-9.625c0-1-1-2-2-2s-2,1-2,2V27h-4c-0.606,0-1.153,0.553-1.386,1.113S70.511,29.506,70.939,29.935z"/>
	<path fill="#231F20" d="M56.939,39.935l6,6c0.586,0.586,1.535,0.586,2.121,0l6-6c0.429-0.429,0.558-1.261,0.325-1.822
		S70.606,37,70,37h-4V17.375c0-1-1-2-2-2s-2,1-2,2V37h-4c-0.606,0-1.153,0.553-1.386,1.113S56.511,39.506,56.939,39.935z"/>
	<path fill="#231F20" d="M84.939,39.935l6,6c0.586,0.586,1.535,0.586,2.121,0l6-6c0.429-0.429,0.558-1.261,0.325-1.822
		S98.606,37,98,37h-4V17.375c0-1-1-2-2-2s-2,1-2,2V37h-4c-0.606,0-1.153,0.553-1.386,1.113S84.511,39.506,84.939,39.935z"/>
	<path fill="#231F20" d="M97.939,49.935l6,6c0.586,0.586,1.535,0.586,2.121,0l6-6c0.429-0.429,0.558-1.261,0.325-1.822
		S111.606,47,111,47h-4V17.375c0-1-1-2-2-2s-2,1-2,2V47h-4c-0.606,0-1.153,0.553-1.386,1.113S97.511,49.506,97.939,49.935z"/>
	<path fill="#231F20" d="M37.939,79.936l6,6c0.586,0.586,1.535,0.586,2.121,0l6-6c0.429-0.43,0.558-1.262,0.325-1.822
		S51.606,77,51,77h-4V38.375c0-1-1-2-2-2s-2,1-2,2V77h-4c-0.606,0-1.153,0.553-1.386,1.113S37.511,79.506,37.939,79.936z"/>
	<g>
		<path fill="#231F20" d="M81.242,135.875c-12.191,0-18.28-6.123-25.33-13.213l-1.223-1.227
			c-7.443-7.443-12.654-13.262-12.706-13.318c-3.134-3.131-3.119-8.338,0.089-11.545c1.55-1.551,3.605-2.404,5.787-2.404
			c2.183,0,4.238,0.854,5.788,2.404l5.747,5.988l-0.902-42.154c0-4.308,3.011-7.532,7.004-7.532c2.483,0,4.587,1.247,5.822,3.219
			l0.057-2.257c0-3.887,3.02-6.962,6.875-6.962c3.785,0,6.75,3.075,6.75,7v2.483c1.342-1.504,3.327-2.483,5.5-2.483
			c3.859,0,7,3.141,7,7l-0.238,7.757c1.086-1.085,2.585-1.757,4.238-1.757c3.309,0,6,2.691,6,6c0,0.04-0.002,0.08-0.005,0.119
			c0,0-1,12.499-2,25.497c-0.124,1.617-0.232,3.109-0.334,4.496c-0.729,9.984-1.061,14.541-3.819,20.059
			C98.097,129.537,93.871,135.875,81.242,135.875z M47.859,97.168c-1.38,0-2.683,0.541-3.666,1.525
			c-0.987,0.986-1.534,2.297-1.541,3.688c-0.006,1.391,0.53,2.695,1.51,3.676c0.108,0.117,5.269,5.877,12.648,13.258l1.229,1.232
			c6.85,6.887,12.259,12.328,23.203,12.328c10.941,0,14.36-5.059,17.416-11.172c2.493-4.986,2.812-9.357,3.511-18.934
			c0.102-1.391,0.211-2.889,0.336-4.51c0.958-12.455,1.916-24.451,1.995-25.439c-0.029-1.63-1.364-2.946-3-2.946
			c-1.654,0-3,1.346-3,3c0,0.049-0.002,0.098-0.007,0.146l-2,20.5c-0.079,0.805-0.794,1.383-1.589,1.352
			c-0.808-0.051-1.429-0.734-1.403-1.543l1-32.5c-0.001-2.16-1.795-3.954-4.001-3.954c-2.264,0-4.25,1.869-4.25,4l-1.252,24.639
			C84.957,86.312,84.297,87,83.501,87c-0.014,0-0.026,0-0.039,0C82.648,86,82,86.188,82,85.375v-31.5c0-2.28-1.612-4-3.75-4
			c-2.173,0-3.875,1.757-3.875,4l-0.876,34.538c-0.021,0.811-0.681,1.459-1.491,1.463c-0.786,0.047-1.477-0.635-1.507-1.447l-1-28
			c-0.001-2.703-1.647-4.554-4.005-4.554s-4.004,1.851-4.004,4.5l0.984,45.967c0.013,0.619-0.354,1.182-0.926,1.418
			c-0.569,0.238-1.229,0.1-1.656-0.346l-8.391-8.742C50.542,97.709,49.24,97.168,47.859,97.168z"/>
	</g>
</g>
</svg>
