<?xml version="1.0" encoding="utf-8"?>
<!-- Generator: Adobe Illustrator 16.0.0, SVG Export Plug-In . SVG Version: 6.00 Build 0)  -->
<!DOCTYPE svg PUBLIC "-//W3C//DTD SVG 1.1//EN" "http://www.w3.org/Graphics/SVG/1.1/DTD/svg11.dtd">
<svg version="1.1" id="Layer_1" xmlns="http://www.w3.org/2000/svg" xmlns:xlink="http://www.w3.org/1999/xlink" x="0px" y="0px"
	 width="150px" height="150px" viewBox="0 0 150 150" enable-background="new 0 0 150 150" xml:space="preserve">
<g>
	<path fill="#231F20" d="M105.741,25.433c1.78,2.512,3.427,5.066,4.938,7.649c0.442,0.759,0.141,1.658-0.646,2.021
		c-2.688,1.24-5.274,2.584-7.751,4.021c-0.531,0.308-0.95,0.336-1.453-0.021c-0.503-0.358-0.496-0.916-0.36-1.508
		c0.262-1.137,0.523-2.273,0.785-3.41c-17.562-4.042-35.919-3.444-53.245,1.79c-1.025,0.309-2.358-0.31-2.672-1.258
		c-0.313-0.95,0.441-2.248,1.515-2.571c17.995-5.437,37.06-6.057,55.299-1.859c0.337-1.462,0.673-2.924,1.009-4.386
		c0.137-0.59,0.389-1.097,1.083-1.17C104.936,24.658,105.359,24.894,105.741,25.433z"/>
	<g>
		<path fill="#231F20" d="M73.767,127.473c-2.683,0-5.638-0.58-8.782-1.725c-11.456-4.17-15.083-12.004-19.282-21.076l-0.73-1.574
			c-4.45-9.541-7.355-16.791-7.384-16.863c-0.894-1.908-0.985-4.137-0.225-6.197c0.758-2.053,2.27-3.691,4.257-4.619
			c1.099-0.513,2.265-0.773,3.467-0.773c3.161,0,6.069,1.857,7.408,4.732l3.353,7.594l13.57-39.919
			c1.135-3.12,3.78-5.117,6.75-5.117c0.806,0,1.615,0.146,2.406,0.435c1.887,0.686,3.32,2.062,4.036,3.876
			c0.144,0.366,0.257,0.744,0.339,1.132l0.822-2.094c0.996-2.742,3.609-4.608,6.488-4.608c0.798,0,1.59,0.141,2.353,0.419
			c1.76,0.639,3.128,1.925,3.852,3.62c0.701,1.64,0.735,3.51,0.097,5.265l-0.849,2.333c1.758-0.945,4.046-1.169,6.018-0.45
			c1.757,0.639,3.159,1.924,3.95,3.619c0.79,1.694,0.873,3.596,0.233,5.353l-2.877,7.206c1.389-0.648,3.078-0.75,4.583-0.201
			c3.109,1.133,4.718,4.583,3.587,7.69c-0.014,0.038-0.028,0.075-0.045,0.111c0,0-5.214,11.402-10.6,23.275
			c-0.668,1.473-1.28,2.836-1.848,4.102c-4.102,9.137-5.974,13.309-10.454,17.553C84.569,124.062,80.41,127.473,73.767,127.473z
			 M45.087,77.645c-0.76,0-1.5,0.166-2.198,0.492c-1.267,0.59-2.229,1.635-2.711,2.939c-0.481,1.305-0.424,2.713,0.162,3.967
			c0.062,0.15,2.938,7.328,7.351,16.787l0.734,1.582c4.079,8.812,7.302,15.773,17.585,19.518c2.816,1.023,5.426,1.543,7.757,1.543
			c5.545,0,9.044-2.877,12.431-6.082c4.05-3.836,5.845-7.838,9.779-16.604c0.569-1.27,1.183-2.637,1.853-4.113
			c5.16-11.377,10.163-22.32,10.576-23.222c0.529-1.541-0.274-3.235-1.812-3.796c-0.331-0.12-0.676-0.182-1.024-0.182
			c-1.257,0-2.39,0.794-2.818,1.975c-0.018,0.046-0.036,0.091-0.058,0.135L93.8,91.164c-0.35,0.729-1.212,1.053-1.955,0.727
			c-0.74-0.326-1.091-1.18-0.791-1.932l12.057-30.197c0.35-0.96,0.302-2.046-0.149-3.015c-0.452-0.969-1.253-1.703-2.257-2.068
			c-0.463-0.168-0.952-0.253-1.455-0.253c-1.781,0-3.352,1.027-3.908,2.558l-9.58,22.665c-0.318,0.75-1.179,1.107-1.931,0.812
			c-0.757-0.297-1.139-1.145-0.86-1.908l10.772-29.6c0.377-1.036,0.363-2.123-0.037-3.061c-0.395-0.924-1.146-1.627-2.118-1.979
			c-0.434-0.158-0.88-0.238-1.327-0.238c-1.647,0-3.093,1.048-3.682,2.67L73.941,78.5c-0.298,0.754-1.138,1.137-1.902,0.863
			c-0.763-0.273-1.171-1.104-0.921-1.873l8.637-26.654c0.452-1.245,0.469-2.467,0.064-3.491c-0.401-1.018-1.187-1.764-2.271-2.158
			c-2.186-0.795-4.429,0.462-5.302,2.859L57.449,91.578c-0.198,0.586-0.736,0.99-1.354,1.018c-0.627,0.02-1.189-0.328-1.438-0.895
			l-4.894-11.086C48.928,78.822,47.087,77.645,45.087,77.645z"/>
	</g>
</g>
</svg>
