<?xml version="1.0" encoding="utf-8"?>
<!-- Generator: Adobe Illustrator 16.0.0, SVG Export Plug-In . SVG Version: 6.00 Build 0)  -->
<!DOCTYPE svg PUBLIC "-//W3C//DTD SVG 1.1//EN" "http://www.w3.org/Graphics/SVG/1.1/DTD/svg11.dtd">
<svg version="1.1" id="Layer_1" xmlns="http://www.w3.org/2000/svg" xmlns:xlink="http://www.w3.org/1999/xlink" x="0px" y="0px"
	 width="150px" height="150px" viewBox="0 0 150 150" enable-background="new 0 0 150 150" xml:space="preserve">
<g>
	<path fill="#231F20" d="M93.25,73.875c-0.484,0-1.368,0.135-2.273,0.42c-0.296-3.59-3.312-6.42-6.977-6.42
		c-1.68,0-3.223,0.595-4.43,1.584c-0.986-2.673-3.56-4.584-6.57-4.584c-3.258,0-6.687,1.854-7.701,5.335
		c-1.099-0.854-2.482-1.335-4.053-1.335c-3.986,0-6.879,3.154-6.879,7.504l0.011,3.99c-0.85,0.428-2.162,1.238-3.803,2.729
		c-5.429,4.936-7.206,16.869-1.075,26.105c6.279,9.461,15.776,14.672,26.742,14.672c12.629,0,16.854-6.338,20.1-12.83
		c3.122-6.244,3.158-30.156,3.158-31.17C99.5,76.623,96.638,73.875,93.25,73.875z M93.646,109.703
		c-3.056,6.113-6.487,11.172-17.429,11.172c-9.928,0-18.564-4.734-24.269-13.33c-3.661-5.516-5.373-16.916,0.47-22.227
		c0.665-0.604,2.051-1.424,2.051-1.424l-0.031,10.48c0,1.25,0.395,2,1.293,2s1.27-0.707,1.27-2v-18c0-2.241,1.383-4.5,4.062-4.5
		c2.771,0,3.846,2.424,3.846,4.5c0,0.828,0.718,1.5,1.546,1.5S68,77.203,68,76.375v-4c0-3.302,2.99-4.5,5-4.5c2.206,0,4,1.794,4,4
		v5.5c0,0.828,0.672,1.5,1.5,1.5s1.5-0.672,1.5-1.5v-2.5c0-2.206,1.794-4,4-4s4,1.794,4,4v6.5c0,0.828,0.672,1.5,1.5,1.5
		s1.5-0.672,1.5-1.5v-3.857c0.534-0.279,1.567-0.643,2.247-0.643c1.731,0,3.246,1.402,3.246,3
		C96.493,86.592,95.976,105.043,93.646,109.703z"/>
	<path fill="#231F20" d="M73.941,53.935c0.586,0.586,1.535,0.586,2.121,0l6-6c0.429-0.428,0.558-1.261,0.325-1.822
		S81.608,45,81.002,45H77V30.375c0-1-1-2-2-2s-2,1-2,2V45h-3.998c-0.606,0-1.153,0.553-1.386,1.113s-0.104,1.3,0.325,1.728
		L73.941,53.935z"/>
	<path fill="#231F20" d="M33.562,74.314c-0.429-0.429-1.075-0.558-1.636-0.325S31,74.768,31,75.375V79H16.002c-1,0-2,1-2,2s1,2,2,2
		H31v4.375c0,0.605,0.366,1.152,0.927,1.385s1.207,0.104,1.636-0.324l6-6c0.586-0.586,0.586-1.535,0-2.121L33.562,74.314z"/>
	<path fill="#231F20" d="M55,63.412v-8.484c0-0.605-0.633-1.15-1.195-1.383c-0.561-0.232-1.474-0.104-1.903,0.325l-2.828,2.829
		L38.466,46.096c-0.707-0.707-2.122-0.7-2.829,0.007s-0.707,2.137,0,2.844l10.608,10.637l-2.828,2.884
		c-0.43,0.43-0.559,1.003-0.326,1.564C43.322,64.592,43.869,65,44.476,65h8.485C53.79,65,55,64.242,55,63.412z"/>
	<path fill="#231F20" d="M100.637,59.617l10.608-10.635c0.707-0.707,0.707-2.135,0-2.842s-2.122-0.714-2.829-0.007L97.809,56.738
		l-2.828-2.829c-0.43-0.43-1.284-0.56-1.845-0.327C92.574,53.814,92,54.36,92,54.965v8.485C92,64.28,93.092,65,93.921,65h8.485
		c0.606,0,1.153-0.389,1.385-0.949c0.232-0.561,0.104-1.218-0.326-1.648L100.637,59.617z"/>
	<path fill="#231F20" d="M133.002,79H118v-3.625c0-0.606-0.364-1.153-0.925-1.386s-1.205-0.104-1.634,0.325l-6,6
		c-0.586,0.586-0.586,1.535,0,2.121l6,6c0.429,0.428,1.073,0.557,1.634,0.324S118,87.98,118,87.375V83h15.002c1,0,2-1,2-2
		S134.002,79,133.002,79z"/>
</g>
</svg>
