<?xml version="1.0" encoding="utf-8"?>
<!-- Generator: Adobe Illustrator 16.0.0, SVG Export Plug-In . SVG Version: 6.00 Build 0)  -->
<!DOCTYPE svg PUBLIC "-//W3C//DTD SVG 1.1//EN" "http://www.w3.org/Graphics/SVG/1.1/DTD/svg11.dtd">
<svg version="1.1" id="Layer_1" xmlns="http://www.w3.org/2000/svg" xmlns:xlink="http://www.w3.org/1999/xlink" x="0px" y="0px"
	 width="150px" height="150px" viewBox="0 0 150 150" enable-background="new 0 0 150 150" xml:space="preserve">
<g>
	<path fill="#231F20" d="M121.641,41.106l-3-2.5c-0.299-0.248-0.715-0.302-1.064-0.137c-0.352,0.164-0.576,0.518-0.576,0.905V40h-4
		v-4h1c0.388,0,0.741-0.037,0.905-0.389c0.165-0.351,0.111-0.672-0.137-0.971l-2.5-2.953c-0.381-0.455-1.156-0.432-1.537,0.023
		l-2.5,3.012c-0.248,0.299-0.302,0.533-0.137,0.883C108.259,35.957,108.612,36,109,36h1v4h-4v-0.625
		c0-0.388-0.225-0.741-0.576-0.905c-0.349-0.164-0.765-0.111-1.064,0.137l-3,2.5c-0.228,0.19-0.359,0.472-0.359,0.769
		s0.132,0.578,0.359,0.769l3,2.5c0.184,0.152,0.411,0.231,0.641,0.231c0.144,0,0.289-0.031,0.424-0.095
		c0.352-0.164,0.576-0.518,0.576-0.905V43h4v4h-1c-0.388,0-0.741,0.412-0.905,0.764c-0.165,0.351-0.111,0.859,0.137,1.158l2.5,3.047
		c0.19,0.228,0.472,0.383,0.769,0.383s0.578-0.12,0.769-0.348l2.5-2.994c0.248-0.299,0.302-0.898,0.137-1.249
		C114.741,47.409,114.388,47,114,47h-1v-4h4v1.375c0,0.388,0.225,0.741,0.576,0.905c0.135,0.063,0.279,0.095,0.424,0.095
		c0.229,0,0.457-0.079,0.641-0.231l3-2.5c0.228-0.19,0.359-0.472,0.359-0.769S121.868,41.296,121.641,41.106z"/>
	<path fill="#231F20" d="M108.965,60.375c0-6.519-4.76-12.107-11.059-13.269c-0.642-6.852-6.425-12.231-13.441-12.231
		c-0.059,0-0.119,0.001-0.178,0.002c-2.358-4.286-6.892-7.002-11.822-7.002c-4.577,0-8.812,2.315-11.297,6.108
		c-0.566-0.072-1.137-0.108-1.703-0.108c-7.443,0-13.5,6.056-13.5,13.5c0,4.967,2.699,9.306,6.704,11.648l0.571,22.768
		c-2.314-4.121-6.723-6.917-11.775-6.917c-7.443,0-13.5,6.055-13.5,13.5c0,7.443,6.057,13.5,13.5,13.5
		c0.263,0,0.521-0.018,0.779-0.033c1.873,1.947,4.088,4.213,6.555,6.662l1.228,1.223c7.075,7.062,13.187,13.164,25.378,13.119
		c12.629-0.045,16.831-6.398,20.053-12.902c2.738-5.527,3.055-10.086,3.746-20.072c0.097-1.387,0.199-2.881,0.318-4.498
		c0.32-4.369,0.64-8.68,0.924-12.481C105.428,70.908,108.965,66.056,108.965,60.375z M96.211,89.664
		c-0.664,9.58-0.967,13.951-3.442,18.947c-3.034,6.125-6.435,11.195-17.376,11.234c-10.943,0.041-16.373-5.381-23.247-12.242
		l-1.233-1.229c-1.932-1.918-3.706-3.721-5.284-5.348c-0.804-0.83-1.555-1.611-2.247-2.336l0,0c-3.16-3.311-5.1-5.457-5.165-5.527
		c-0.983-0.977-1.524-2.281-1.523-3.67c0.002-1.393,0.544-2.703,1.528-3.695c0.979-0.986,2.28-1.533,3.66-1.537
		c1.381-0.006,2.685,0.533,3.65,1.492l6.848,7.084l1.27,1.314l0,0l0.305,0.314c0.428,0.445,1.088,0.584,1.657,0.346
		c0.571-0.24,0.936-0.797,0.921-1.414L55.379,47.45c-0.01-2.649,1.631-4.475,3.988-4.483c2.357-0.008,4.011,1.898,4.021,4.602
		l1.103,28.121c0.032,0.807,0.817,1.694,1.513,1.692c0.695-0.004,1.468-0.908,1.485-1.718l0.749-34.791
		c-0.008-2.243,1.688-4.006,3.86-4.014c2.138-0.008,3.757,1.706,3.765,3.986l0.049,13.566l0,0l0.012,3.11l0.055,14.823
		c0.002,0.813,0.694,1.997,1.508,1.994s1.453-0.88,1.491-1.68l0.55-11.745l0,0l0.057-1.213l0.555-11.872
		c-0.008-2.131,1.972-4.007,4.235-4.016c2.206-0.008,4.007,1.779,4.016,3.939l-0.538,19.844l0,0l-0.104,3.833l0,0l-0.239,8.827
		c-0.022,0.809,0.602,1.488,1.409,1.537c0.787,0.027,1.509-0.551,1.584-1.357l0.847-9.013l0.125-1.34l0,0l0.953-10.153
		c0.005-0.048,0.007-0.097,0.007-0.146c-0.007-1.654,1.335-3.005,2.989-3.011c1.635-0.006,2.975,1.306,3.01,2.936
		c-0.047,0.619-0.424,5.562-0.922,12.232c-0.01,0.112-0.018,0.224-0.025,0.337c-0.292,3.896-0.623,8.355-0.955,12.876
		C96.41,86.777,96.307,88.273,96.211,89.664z"/>
</g>
</svg>
