<?xml version="1.0" encoding="utf-8"?>
<!-- Generator: Adobe Illustrator 16.0.0, SVG Export Plug-In . SVG Version: 6.00 Build 0)  -->
<!DOCTYPE svg PUBLIC "-//W3C//DTD SVG 1.1//EN" "http://www.w3.org/Graphics/SVG/1.1/DTD/svg11.dtd">
<svg version="1.1" id="Layer_1" xmlns="http://www.w3.org/2000/svg" xmlns:xlink="http://www.w3.org/1999/xlink" x="0px" y="0px"
	 width="150px" height="150px" viewBox="0 0 150 150" enable-background="new 0 0 150 150" xml:space="preserve">
<g>
	<path fill="#231F20" d="M69.002,21H73v15.375c0,1,1,2,2,2s2-1,2-2V21h4.002c0.606,0,1.153-0.178,1.386-0.738
		s0.104-1.113-0.325-1.542l-6-5.953c-0.586-0.586-1.535-0.562-2.121,0.023l-6,6.012c-0.429,0.429-0.558,0.893-0.325,1.454
		S68.396,21,69.002,21z"/>
	<path fill="#231F20" d="M40.002,65c0-1-1-2-2-2H23v-3.625c0-0.606-0.364-1.153-0.925-1.386s-1.205-0.104-1.634,0.325l-6,6
		c-0.586,0.586-0.586,1.535,0,2.121l6,6c0.429,0.429,1.073,0.558,1.634,0.325S23,71.981,23,71.375V67h15.002
		C39.002,67,40.002,66,40.002,65z"/>
	<path fill="#231F20" d="M36.11,41.396c0.561,0.232,1.39,0.103,1.819-0.327l2.828-2.83l10.607,10.603
		c0.707,0.707,2.122,0.697,2.829-0.01s0.707-2.143,0-2.85L43.586,35.333l2.828-2.909c0.43-0.43,0.559-1.424,0.326-1.985
		C46.509,29.879,45.962,29,45.355,29H36.87C36.041,29,35,30.699,35,31.528v8.485C35,40.619,35.549,41.164,36.11,41.396z"/>
	<path fill="#231F20" d="M110.752,41.396c0.562-0.232,1.248-0.777,1.248-1.383v-8.485c0-0.829-1.316-2.528-2.146-2.528h-8.485
		c-0.606,0-1.153,0.879-1.385,1.439c-0.232,0.561-0.104,1.461,0.326,1.891l2.828,2.956L92.53,45.958
		c-0.707,0.707-0.707,2.154,0,2.861s2.122,0.723,2.829,0.016l10.607-10.6l2.828,2.832C109.225,41.497,110.191,41.628,110.752,41.396
		z"/>
	<path fill="#231F20" d="M134.562,64.314l-6-6c-0.429-0.429-1.075-0.558-1.636-0.325S126,58.768,126,59.375V63h-14.998c-1,0-2,1-2,2
		s1,2,2,2H126v4.375c0,0.606,0.366,1.153,0.927,1.386s1.207,0.104,1.636-0.325l6-6C135.148,65.849,135.148,64.9,134.562,64.314z"/>
	<path fill="#231F20" d="M103.406,69.966c-2.994,0-5.474,1.955-6.804,5.363L92.44,85.996c0.784-8.67,1.8-19.787,1.991-21.329
		c0.289-2.328-0.265-4.417-1.558-5.88c-1.09-1.233-2.644-1.913-4.374-1.913c-3.736,0-6.507,2.584-7.228,6.743L80,70.952V56.875
		c0-3.925-2.965-7-6.75-7c-3.855,0-6.875,3.075-6.875,6.962l-0.517,20.373c-1.112-6.044-2.195-12.166-2.365-13.974
		c-0.6-6.404-4.642-7.36-6.997-7.36c-3.993,0-7.004,3.225-7.004,7.5c0,0.054,0.003,0.108,0.009,0.161l4.51,41.625l-5.363-5.588
		c-1.55-1.551-3.605-2.404-5.788-2.404c-2.182,0-4.237,0.854-5.787,2.404c-3.208,3.207-3.223,8.414-0.089,11.545
		c0.052,0.057,5.263,5.875,12.706,13.318l1.223,1.227c7.05,7.09,13.139,13.213,25.33,13.213c20.338,0,23.065-20.576,24.531-31.629
		c0.187-1.404,0.355-2.686,0.54-3.791c0.831-4.982,2.643-10.744,4.24-15.826c1.646-5.232,2.946-9.367,2.946-11.754
		C108.5,72.493,105.811,69.966,103.406,69.966z M102.692,86.729c-1.628,5.178-3.473,11.043-4.338,16.232
		c-0.189,1.135-0.364,2.451-0.555,3.891c-1.532,11.559-3.848,29.023-21.558,29.023c-10.944,0-16.354-5.441-23.203-12.328
		l-1.229-1.232c-7.38-7.381-12.54-13.141-12.648-13.258c-2.021-2.021-2.007-5.324,0.031-7.363c0.983-0.984,2.286-1.525,3.666-1.525
		c1.381,0,2.683,0.541,3.645,1.504l8.391,8.742c0.445,0.463,1.136,0.592,1.716,0.32c0.582-0.271,0.927-0.883,0.857-1.521
		l-4.976-45.916c0.032-2.608,1.669-4.423,4.004-4.423c1.768,0,3.627,0.552,4.011,4.64c0.377,4.026,4.831,27.162,5.021,28.144
		c0.145,0.752,0.821,1.27,1.597,1.211c0.763-0.062,1.356-0.691,1.375-1.457l0.876-34.538c0-2.243,1.702-4,3.875-4
		c2.138,0,3.75,1.72,3.75,4v31.5c0,0.777,0.596,1.428,1.371,1.494c0.782,0.068,1.474-0.471,1.606-1.238l4.25-24.5
		c0.276-1.59,1.198-4.257,4.272-4.257c0.883,0,1.599,0.303,2.126,0.899c0.705,0.798,1.008,2.083,0.829,3.524
		c-0.325,2.612-2.842,30.747-2.949,31.942c-0.066,0.744,0.424,1.424,1.151,1.594c0.722,0.178,1.469-0.217,1.74-0.914l8-20.5
		c0.503-1.29,1.693-3.454,4.009-3.454c0.735,0,2.094,1.199,2.094,2.908C105.5,77.801,104.136,82.139,102.692,86.729z"/>
</g>
</svg>
