<?xml version="1.0" encoding="utf-8"?>
<!-- Generator: Adobe Illustrator 16.0.0, SVG Export Plug-In . SVG Version: 6.00 Build 0)  -->
<!DOCTYPE svg PUBLIC "-//W3C//DTD SVG 1.1//EN" "http://www.w3.org/Graphics/SVG/1.1/DTD/svg11.dtd">
<svg version="1.1" id="Layer_1" xmlns="http://www.w3.org/2000/svg" xmlns:xlink="http://www.w3.org/1999/xlink" x="0px" y="0px"
	 width="150px" height="150px" viewBox="0 0 150 150" enable-background="new 0 0 150 150" xml:space="preserve">
<path fill="#231F20" d="M114.965,60.375c0-6.519-4.76-12.107-11.059-13.269c-0.642-6.852-6.425-12.231-13.441-12.231
	c-0.059,0-0.119,0.001-0.178,0.002c-2.358-4.286-6.892-7.002-11.822-7.002c-4.577,0-8.812,2.315-11.297,6.108
	c-0.566-0.072-1.137-0.108-1.703-0.108c-7.443,0-13.5,6.056-13.5,13.5c0,4.967,2.699,9.306,6.704,11.648l0.571,22.768
	c-2.314-4.121-6.723-6.917-11.775-6.917c-7.443,0-13.5,6.055-13.5,13.5c0,7.443,6.057,13.5,13.5,13.5
	c0.263,0,0.521-0.018,0.779-0.033c1.873,1.947,4.088,4.213,6.555,6.662l1.228,1.223c7.075,7.062,13.187,13.164,25.378,13.119
	c12.629-0.045,16.831-6.398,20.053-12.902c2.738-5.527,3.055-10.086,3.746-20.072c0.097-1.387,0.199-2.881,0.318-4.498
	c0.32-4.369,0.64-8.68,0.924-12.481C111.428,70.908,114.965,66.056,114.965,60.375z M36.965,88.375c0-5.791,4.711-10.5,10.5-10.5
	c5.688,0,10.324,4.549,10.484,10.199l-4.283-4.43c-1.555-1.545-3.613-2.391-5.797-2.383c-2.182,0.008-4.233,0.869-5.777,2.424
	c-3.197,3.221-3.192,8.426-0.047,11.547c0.023,0.025,1.173,1.299,3.133,3.383C40.485,97.568,36.965,93.379,36.965,88.375z
	 M102.211,89.664c-0.664,9.58-0.967,13.951-3.442,18.947c-3.034,6.125-6.435,11.195-17.376,11.234
	c-10.943,0.041-16.373-5.381-23.247-12.242l-1.233-1.229c-1.932-1.918-3.706-3.721-5.284-5.348c-0.804-0.83-1.555-1.611-2.247-2.336
	l0,0c-3.16-3.311-5.1-5.457-5.165-5.527c-0.983-0.977-1.524-2.281-1.523-3.67c0.002-1.393,0.544-2.703,1.528-3.695
	c0.979-0.986,2.28-1.533,3.66-1.537c1.381-0.006,2.685,0.533,3.65,1.492l6.848,7.084l1.27,1.314l0,0l0.305,0.314
	c0.428,0.445,1.088,0.584,1.657,0.346c0.571-0.24,0.936-0.797,0.921-1.414L61.379,47.45c-0.01-2.649,1.631-4.475,3.988-4.483
	c2.357-0.008,4.011,1.898,4.021,4.602l1.103,28.121c0.032,0.807,0.817,1.694,1.513,1.692c0.695-0.004,1.468-0.908,1.485-1.718
	l0.749-34.791c-0.008-2.243,1.688-4.006,3.86-4.014c2.138-0.008,3.757,1.706,3.765,3.986l0.049,13.566l0,0l0.012,3.11l0.055,14.823
	c0.002,0.813,0.694,1.997,1.508,1.994s1.453-0.88,1.491-1.68l0.55-11.745l0,0l0.057-1.213l0.555-11.872
	c-0.008-2.131,1.972-4.007,4.235-4.016c2.206-0.008,4.007,1.779,4.016,3.939l-0.538,19.844l0,0l-0.104,3.833l0,0l-0.239,8.827
	c-0.022,0.809,0.602,1.488,1.409,1.537c0.787,0.027,1.509-0.551,1.584-1.357l0.847-9.013l0.125-1.34l0,0l0.953-10.153
	c0.005-0.048,0.007-0.097,0.007-0.146c-0.007-1.654,1.335-3.005,2.989-3.011c1.635-0.006,2.975,1.306,3.01,2.936
	c-0.047,0.619-0.424,5.562-0.922,12.232c-0.01,0.112-0.018,0.224-0.025,0.337c-0.292,3.896-0.623,8.355-0.955,12.876
	C102.41,86.777,102.307,88.273,102.211,89.664z M106.703,69.462c0.428-5.698,0.725-9.592,0.725-9.592
	c0.003-0.039,0.005-0.079,0.005-0.119c-0.013-3.309-2.714-5.99-6.022-5.979c-1.652,0.006-3.149,0.684-4.231,1.772l0.21-7.758
	c-0.014-3.859-3.166-6.988-7.025-6.975c-2.173,0.008-4.154,0.995-5.49,2.503l-0.01-2.482c-0.014-3.925-2.99-6.989-6.775-6.976
	c-3.855,0.014-6.863,3.101-6.85,6.987l-0.049,2.257c-1.242-1.968-3.35-3.207-5.834-3.198c-3.992,0.015-6.992,3.25-6.977,7.558
	l0.196,7.812c-2.208-1.924-3.61-4.746-3.61-7.898c0-5.79,4.711-10.5,10.5-10.5c0.719,0,1.444,0.075,2.158,0.225
	c0.645,0.137,1.305-0.17,1.622-0.75c1.845-3.377,5.378-5.475,9.22-5.475c4.105,0,7.857,2.424,9.559,6.175
	c0.264,0.581,0.859,0.932,1.502,0.874c0.31-0.028,0.622-0.049,0.939-0.049c5.789,0,10.5,4.71,10.503,10.415
	c-0.003,0.037-0.005,0.099-0.005,0.136c0,0.78,0.598,1.431,1.377,1.495c5.396,0.445,9.625,5.037,9.625,10.454
	C111.965,64.256,109.844,67.646,106.703,69.462z"/>
</svg>
