<?xml version="1.0" encoding="utf-8"?>
<!-- Generator: Adobe Illustrator 16.0.0, SVG Export Plug-In . SVG Version: 6.00 Build 0)  -->
<!DOCTYPE svg PUBLIC "-//W3C//DTD SVG 1.1//EN" "http://www.w3.org/Graphics/SVG/1.1/DTD/svg11.dtd">
<svg version="1.1" id="Layer_1" xmlns="http://www.w3.org/2000/svg" xmlns:xlink="http://www.w3.org/1999/xlink" x="0px" y="0px"
	 width="150px" height="150px" viewBox="0 0 150 150" enable-background="new 0 0 150 150" xml:space="preserve">
<g>
	<path fill="#231F20" d="M36.896,29.189c-1.618,2.619-3.101,5.272-4.446,7.945c-0.393,0.785-0.035,1.665,0.772,1.977
		c2.762,1.068,5.428,2.246,7.99,3.524c0.549,0.274,0.969,0.276,1.448-0.112c0.479-0.389,0.438-0.945,0.265-1.528
		c-0.333-1.118-0.666-2.235-0.998-3.353c17.272-5.141,35.63-5.701,53.252-1.569c1.042,0.244,2.334-0.457,2.587-1.423
		c0.253-0.969-0.581-2.217-1.674-2.472c-18.302-4.291-37.368-3.709-55.307,1.629c-0.428-1.438-0.854-2.875-1.282-4.313
		c-0.174-0.58-0.457-1.068-1.154-1.1C37.652,28.365,37.244,28.627,36.896,29.189z"/>
	<path fill="#231F20" d="M106.103,21.192c1.618,2.618,3.101,5.271,4.446,7.944c0.395,0.786,0.035,1.665-0.772,1.977
		c-2.762,1.068-5.427,2.246-7.989,3.525c-0.55,0.272-0.97,0.274-1.448-0.114c-0.48-0.39-0.438-0.944-0.265-1.527
		c0.333-1.118,0.665-2.235,0.999-3.354C83.8,24.501,65.442,23.94,47.82,28.071c-1.043,0.243-2.334-0.458-2.587-1.424
		c-0.253-0.968,0.582-2.216,1.674-2.471c18.302-4.29,37.368-3.707,55.306,1.632c0.429-1.437,0.855-2.875,1.283-4.312
		c0.174-0.58,0.458-1.07,1.155-1.1C105.348,20.367,105.756,20.629,106.103,21.192z"/>
	<path fill="#231F20" d="M76.575,131.395c-6.688,0-12.458-2.709-18.566-5.578l-1.567-0.734c-9.541-4.449-16.428-8.135-16.496-8.17
		c-1.911-0.889-3.414-2.537-4.155-4.605c-0.739-2.059-0.636-4.287,0.291-6.273c1.339-2.875,4.248-4.732,7.409-4.732
		c1.201,0,2.368,0.26,3.468,0.773l7.448,3.66L39.142,66.433c-0.696-1.912-0.703-3.89-0.03-5.596c0.716-1.813,2.148-3.19,4.034-3.877
		c2.294-0.837,4.749-0.4,6.572,1.028l-0.717-2.136c-0.627-1.72-0.568-3.605,0.178-5.273c0.757-1.694,2.143-2.98,3.901-3.62
		c0.753-0.274,1.531-0.414,2.312-0.414c2.867,0,5.39,1.839,6.424,4.684l0.852,2.339c0.081-0.201,0.171-0.401,0.271-0.599
		c0.842-1.672,2.317-2.992,4.048-3.621c0.771-0.281,1.577-0.424,2.393-0.424c2.932,0,5.576,1.852,6.579,4.606l2.429,7.371
		c0.649-1.392,1.828-2.535,3.381-3.101c0.663-0.241,1.353-0.363,2.053-0.363c2.513,0,4.778,1.587,5.639,3.948
		c0.014,0.038,0.026,0.076,0.037,0.114c0,0.001,3.334,12.087,6.84,24.642c0.436,1.561,0.844,2.998,1.223,4.334
		c2.731,9.635,3.978,14.031,3.273,20.162c-0.83,7.211-2.633,14.611-14.501,18.93C82.953,130.797,79.762,131.395,76.575,131.395z
		 M43.49,104.301c-2,0-3.841,1.178-4.69,3c-0.59,1.266-0.656,2.684-0.187,3.992s1.42,2.352,2.675,2.938
		c0.143,0.074,6.961,3.721,16.421,8.133l1.575,0.738c6.049,2.84,11.272,5.293,17.291,5.293c2.831,0,5.687-0.537,8.729-1.645
		c10.281-3.742,11.765-9.666,12.546-16.455c0.637-5.539-0.56-9.758-3.18-19c-0.38-1.34-0.788-2.781-1.225-4.346
		c-3.359-12.029-6.561-23.626-6.826-24.586c-0.568-1.479-2.316-2.29-3.827-1.743c-1.554,0.566-2.358,2.291-1.793,3.846
		c0.017,0.045,0.031,0.092,0.044,0.139l5.132,19.949c0.201,0.783-0.255,1.586-1.031,1.812c-0.777,0.227-1.594-0.201-1.847-0.969
		L73.123,54.514c-0.559-1.531-2.069-2.59-3.745-2.59c-0.465,0-0.925,0.081-1.366,0.242c-1.021,0.371-1.894,1.156-2.396,2.153
		c-0.504,0.999-0.586,2.085-0.231,3.059L72.614,80.9c0.239,0.777-0.186,1.604-0.957,1.863c-0.767,0.262-1.608-0.145-1.886-0.91
		L58.997,52.254c-0.761-2.09-2.903-3.203-4.891-2.477c-0.989,0.36-1.767,1.079-2.189,2.026c-0.426,0.952-0.456,2.039-0.085,3.058
		l10.99,32.755c0.258,0.768-0.142,1.604-0.901,1.885c-0.762,0.281-1.605-0.094-1.911-0.844l-10.517-25.97
		c-0.896-2.462-3.136-3.7-5.321-2.909c-1.083,0.395-1.868,1.142-2.27,2.159c-0.404,1.024-0.388,2.245,0.047,3.438l16.646,42.86
		c0.224,0.576,0.071,1.23-0.385,1.648s-1.121,0.512-1.676,0.24l-10.874-5.346C44.99,104.467,44.25,104.301,43.49,104.301z"/>
	<path fill="#A6A8AB" d="M42.971,88.219c0.293-0.031,0.59-0.051,0.889-0.051c0.785,0,1.553,0.113,2.287,0.328
		c-0.374-1.109-0.382-2.301,0.031-3.42c0.03-0.082,0.08-0.152,0.114-0.232l-1.331-3.428c-0.681,0.762-1.234,1.637-1.598,2.621
		C42.858,85.406,42.736,86.846,42.971,88.219z"/>
	<path fill="#808184" d="M38.688,102.895c0.852-0.621,1.812-1.076,2.843-1.334c-0.849-0.926-1.337-1.469-1.369-1.504
		c-0.979-0.98-1.516-2.285-1.51-3.676c0.007-1.391,0.554-2.701,1.541-3.688c0.983-0.984,2.286-1.525,3.666-1.525
		c1.381,0,2.683,0.543,3.645,1.506l3.073,3.201l-2.545-6.553c-1.253-0.748-2.681-1.154-4.173-1.154
		c-2.182,0-4.237,0.854-5.787,2.404c-3.208,3.207-3.223,8.414-0.089,11.545C37.994,102.129,38.241,102.404,38.688,102.895z"/>
	<g>
		<path fill="#808184" d="M61.197,49.955c0.099-0.007,0.196-0.018,0.299-0.018c1.121,0,2.068,0.445,2.763,1.192
			c0.729-0.748,1.608-1.34,2.573-1.717c-1.264-1.573-3.152-2.538-5.336-2.538c-1,0-1.925,0.226-2.769,0.599
			C59.726,48.06,60.575,48.904,61.197,49.955z"/>
		<path fill="#808184" d="M97.5,60.875c-1.653,0-3.152,0.672-4.238,1.757l0.238-7.757c0-3.859-3.141-7-7-7
			c-2.173,0-4.158,0.979-5.5,2.483v-2.483c0-3.925-2.965-7-6.75-7c-3.855,0-6.875,3.075-6.875,6.962l-0.035,1.417
			c0.664-0.204,1.345-0.329,2.038-0.329c0.328,0,0.65,0.031,0.969,0.076l0.028-1.126c0-2.243,1.702-4,3.875-4
			c2.138,0,3.75,1.72,3.75,4v11.856l0.386,1.171c0.649-1.392,1.828-2.535,3.381-3.101c0.111-0.04,0.228-0.058,0.341-0.092
			l0.143-2.835c0-2.131,1.986-4,4.25-4c2.206,0,4,1.794,4.001,3.954l-0.286,9.28c0.729,2.635,1.949,7.043,3.375,12.176l0.903-9.265
			c0.005-0.048,0.007-0.097,0.007-0.146c0-1.654,1.346-3,3-3c1.636,0,2.971,1.316,3,2.946c-0.079,0.988-1.037,12.984-1.995,25.439
			c-0.033,0.43-0.062,0.828-0.094,1.24c1.093,3.904,1.867,6.887,2.275,9.594c0.16-1.801,0.307-3.809,0.475-6.107
			c0.102-1.387,0.21-2.879,0.334-4.496c1-12.998,2-25.496,2-25.496c0.003-0.04,0.005-0.08,0.005-0.12
			C103.5,63.566,100.809,60.875,97.5,60.875z"/>
	</g>
	<path fill="#A6A8AB" d="M113.619,71.837c-1.505-0.548-3.194-0.448-4.583,0.201l2.877-7.206c0.64-1.757,0.557-3.658-0.233-5.353
		c-0.791-1.695-2.193-2.98-3.95-3.619c-1.971-0.719-4.259-0.495-6.018,0.45l0.849-2.333c0.639-1.755,0.604-3.625-0.097-5.265
		c-0.724-1.695-2.092-2.981-3.852-3.62c-0.763-0.278-1.555-0.419-2.353-0.419c-2.707,0-5.161,1.661-6.275,4.138
		c0.937,0.541,1.739,1.287,2.338,2.184l0.256-0.651c0.589-1.622,2.034-2.67,3.682-2.67c0.447,0,0.894,0.08,1.327,0.238
		c0.972,0.353,1.724,1.056,2.118,1.979c0.4,0.938,0.414,2.024,0.037,3.061l-2.896,7.959c0.215-0.023,0.433-0.037,0.654-0.037
		c1.275,0,2.456,0.402,3.429,1.083l0.412-0.974c0.557-1.53,2.127-2.558,3.908-2.558c0.503,0,0.992,0.085,1.455,0.253
		c1.004,0.365,1.805,1.1,2.257,2.068c0.451,0.969,0.499,2.055,0.149,3.015l-6.684,16.74c-0.265,3.375-0.557,7.127-0.852,10.953
		l7.117-14.871c0.021-0.045,0.04-0.09,0.058-0.135c0.429-1.181,1.562-1.975,2.818-1.975c0.349,0,0.693,0.062,1.024,0.182
		c1.538,0.561,2.342,2.254,1.812,3.795c-0.413,0.902-5.416,11.846-10.576,23.223c-0.67,1.477-1.283,2.844-1.853,4.113
		c-0.337,0.752-0.654,1.457-0.963,2.141c-0.019,0.881-0.075,1.773-0.183,2.711c-0.314,2.73-0.77,5.488-1.856,8.096
		c1.786-2.916,3.4-6.508,5.739-11.719c0.567-1.266,1.18-2.629,1.848-4.102c5.386-11.873,10.6-23.273,10.6-23.273
		c0.017-0.037,0.031-0.074,0.045-0.113C118.337,76.42,116.729,72.97,113.619,71.837z"/>
</g>
</svg>
