<?xml version="1.0" encoding="utf-8"?>
<!-- Generator: Adobe Illustrator 16.0.0, SVG Export Plug-In . SVG Version: 6.00 Build 0)  -->
<!DOCTYPE svg PUBLIC "-//W3C//DTD SVG 1.1//EN" "http://www.w3.org/Graphics/SVG/1.1/DTD/svg11.dtd">
<svg version="1.1" id="Layer_1" xmlns="http://www.w3.org/2000/svg" xmlns:xlink="http://www.w3.org/1999/xlink" x="0px" y="0px"
	 width="120px" height="120px" viewBox="0 0 120 120" enable-background="new 0 0 120 120" xml:space="preserve">
<g>
	<path fill="#231F20" d="M44,50.375V20h4c0.606,0,1.153-0.178,1.386-0.738s0.104-1.113-0.325-1.542l-6-5.953
		c-0.586-0.586-1.535-0.562-2.121,0.023l-6,6.012c-0.429,0.429-0.558,0.893-0.325,1.454S35.394,20,36,20h4v30.375c0,1,1,2,2,2
		S44,51.375,44,50.375z"/>
	<path fill="#231F20" d="M38,55h-4V25.375c0-1-1-2-2-2s-2,1-2,2V55h-4c-0.606,0-1.153,0.553-1.386,1.113s-0.104,1.299,0.325,1.728
		l6,6.047c0.586,0.586,1.535,0.609,2.121,0.023l6-5.989c0.429-0.429,0.558-1.255,0.325-1.816S38.606,55,38,55z"/>
	<path fill="#231F20" d="M88.482,59.875c-0.407,0-1.44,0.14-2.502,0.47c-0.271-3.613-3.299-6.47-6.98-6.47
		c-1.657,0-3.182,0.579-4.382,1.545c-0.887-2.708-3.232-4.545-6.136-4.545c-1.923,0-3.634,0.791-4.854,2.083l-0.664-18.583
		c0-4.276-3.011-7.5-7.004-7.5s-7.004,3.224-7.004,7.532l0.686,32.025c-0.808,0.439-2.034,1.242-3.603,2.667
		c-5.429,4.934-7.206,16.868-1.075,26.105c6.825,10.282,14.822,14.671,26.742,14.671c12.629,0,16.854-6.338,20.1-12.83
		c3.122-6.244,3.158-30.156,3.158-31.17C94.965,62.678,91.936,59.875,88.482,59.875z M89.123,95.703
		c-3.056,6.112-6.475,11.172-17.416,11.172c-10.936,0-17.959-3.862-24.242-13.33c-3.661-5.516-5.25-16.916,0.593-22.227
		c0.631-0.573,1.188-1.022,1.66-1.371l0.224,10.459c0.018,0.828,0.701,1.494,1.532,1.468c0.828-0.018,1.485-0.703,1.468-1.532
		l-0.984-45.967c0-2.649,1.646-4.5,4.004-4.5s4.004,1.851,4.005,4.554l1,28c0.027,0.77,0.633,1.393,1.4,1.443
		c0.751,0.051,1.449-0.488,1.578-1.247l0.759-4.5c0.014-0.083,0.021-0.166,0.021-0.25c0-2.28,1.616-4,3.759-4
		c2.417,0,3.518,2.073,3.518,4v3c0,0.829,0.672,1.5,1.5,1.5s1.5-0.672,1.5-1.5c0-2.206,1.794-4,4-4s4,1.794,4,4v6.5
		c0,0.828,0.672,1.5,1.5,1.5s1.5-0.672,1.5-1.5v-3.82c0.6-0.292,1.776-0.68,2.482-0.68c1.79,0,3.482,1.457,3.482,3
		C91.965,72.591,91.453,91.043,89.123,95.703z"/>
</g>
</svg>
