<?xml version="1.0" encoding="utf-8"?>
<!-- Generator: Adobe Illustrator 16.0.0, SVG Export Plug-In . SVG Version: 6.00 Build 0)  -->
<!DOCTYPE svg PUBLIC "-//W3C//DTD SVG 1.1//EN" "http://www.w3.org/Graphics/SVG/1.1/DTD/svg11.dtd">
<svg version="1.1" id="Layer_1" xmlns="http://www.w3.org/2000/svg" xmlns:xlink="http://www.w3.org/1999/xlink" x="0px" y="0px"
	 width="120px" height="120px" viewBox="0 0 120 120" enable-background="new 0 0 120 120" xml:space="preserve">
<g>
	<path fill="#231F20" d="M67.398,62.95c-0.812-0.296-1.779-0.376-2.372-0.396c0.444-1.603,0.306-3.294-0.405-4.818
		c-0.791-1.695-2.193-2.98-3.949-3.619c-1.354-0.493-2.846-0.546-4.188-0.188l9.322-25.613c0.64-1.755,0.623-3.613-0.045-5.232
		c-0.699-1.695-2.054-2.981-3.815-3.622c-0.759-0.276-1.546-0.417-2.337-0.417c-2.901,0-5.442,1.829-6.46,4.625l-0.799,2.039
		c-0.505-2.241-2.046-4.1-4.354-4.94c-0.791-0.288-1.601-0.434-2.406-0.434c-2.97,0-5.615,1.997-6.75,5.118L28.531,55.777
		c-0.913,0.136-2.331,0.472-4.299,1.277c-6.788,2.779-12.54,13.386-9.938,24.164c2.896,11.998,8.911,18.856,20.111,22.934
		c3.146,1.144,6.1,1.725,8.781,1.725c6.646,0,10.805-3.413,14.494-6.907c5.07-4.8,13.282-27.258,13.63-28.212
		C72.421,67.701,70.63,64.127,67.398,62.95z M68.491,69.731c-2.298,6.312-9.088,23.476-12.873,27.06
		c-3.386,3.206-6.885,6.085-12.432,6.085c-2.331,0-4.94-0.52-7.756-1.544c-10.274-3.74-15.554-9.771-18.221-20.818
		c-1.553-6.436,0.853-17.693,8.158-20.683c0.793-0.324,1.469-0.556,2.031-0.723l-3.365,9.899l-0.003,0.009
		c-0.267,0.785,0.152,1.637,0.938,1.903c0.785,0.265,1.636-0.153,1.902-0.938l14.798-43.533c0.873-2.398,3.118-3.655,5.302-2.86
		c2.215,0.806,3.129,3.109,2.206,5.649L40.54,55.891c-0.25,0.771,0.158,1.602,0.922,1.875c0.763,0.272,1.605-0.111,1.901-0.866
		L55.954,24.73c0.595-1.631,2.028-2.685,3.654-2.685c0.44,0,0.882,0.079,1.312,0.236c0.974,0.354,1.688,1.027,2.067,1.947
		c0.382,0.925,0.382,2.012,0,3.062L51.702,58.292c0,0.002-0.001,0.005-0.002,0.007v0c-0.283,0.778,0.118,1.639,0.896,1.922
		c0.773,0.282,1.639-0.117,1.922-0.896c0.573-1.575,2.084-2.633,3.759-2.633c0.465,0,0.925,0.082,1.368,0.243
		c1.004,0.365,1.805,1.099,2.257,2.067c0.451,0.968,0.499,2.055,0.134,3.059l-2.223,6.107c-0.283,0.779,0.118,1.64,0.896,1.923
		c0.774,0.282,1.639-0.118,1.922-0.896l1.313-3.606c0.179-0.023,0.425-0.042,0.738-0.042c0.656,0,1.319,0.087,1.689,0.222
		C68.018,66.368,69.026,68.257,68.491,69.731z"/>
	<path fill="#231F20" d="M106.439,34H80v-3.125c0-0.606-0.146-1.153-0.706-1.386s-0.972-0.104-1.399,0.325l-5.947,5.561
		c-0.586,0.586-0.59,1.414-0.004,2l5.938,5.561c0.429,0.429,0.854,0.558,1.414,0.325S80,42.481,80,41.875V38h26.439c1,0,2-1,2-2
		S107.439,34,106.439,34z"/>
	<path fill="#231F20" d="M87.881,28.935c0.429,0.429,0.854,0.558,1.414,0.325S90,28.481,90,27.875V24h16.439c1,0,2-1,2-2s-1-2-2-2
		H90v-3.125c0-0.606-0.146-1.153-0.706-1.386s-0.972-0.104-1.399,0.325l-5.947,5.561c-0.586,0.586-0.59,1.414-0.004,2L87.881,28.935
		z"/>
</g>
</svg>
