<?xml version="1.0" encoding="utf-8"?>
<!-- Generator: Adobe Illustrator 16.0.0, SVG Export Plug-In . SVG Version: 6.00 Build 0)  -->
<!DOCTYPE svg PUBLIC "-//W3C//DTD SVG 1.1//EN" "http://www.w3.org/Graphics/SVG/1.1/DTD/svg11.dtd">
<svg version="1.1" id="Layer_1" xmlns="http://www.w3.org/2000/svg" xmlns:xlink="http://www.w3.org/1999/xlink" x="0px" y="0px"
	 width="120px" height="120px" viewBox="0 0 120 120" enable-background="new 0 0 120 120" xml:space="preserve">
<g>
	<path fill="#231F20" d="M101.048,54.639c-0.844-2.317-3.169-3.874-5.785-3.874c-0.738,0-1.458,0.126-2.14,0.374
		c-0.611,0.222-1.324,0.644-1.994,1.171c-1.135-2.456-3.62-4.069-6.356-4.069c-0.816,0-1.622,0.143-2.394,0.424
		c-1.363,0.497-2.514,1.382-3.33,2.545L69.728,25.6c-1.035-2.845-3.558-4.683-6.426-4.683c-0.78,0-1.558,0.139-2.312,0.413
		c-3.622,1.319-5.407,5.241-4.077,8.894l0.716,2.136c-1.822-1.427-4.281-1.862-6.57-1.028c-1.887,0.687-3.319,2.063-4.035,3.877
		c-0.673,1.707-0.666,3.684,0.03,5.596L58.65,70.664c-0.609,0.689-1.487,1.862-2.475,3.738c-3.413,6.492-1.001,18.314,7.919,24.898
		c6.378,4.707,12.258,6.898,18.503,6.898c3.66,0,7.47-0.738,11.645-2.258c11.868-4.32,13.671-11.721,14.499-18.931
		C109.54,78.074,101.396,55.593,101.048,54.639z M105.761,84.668c-0.78,6.788-2.263,12.711-12.544,16.453
		c-3.841,1.398-7.314,2.078-10.619,2.078c-5.648,0-10.806-1.947-16.722-6.312c-5.326-3.931-10.719-14.101-7.045-21.088
		c0.397-0.756,0.767-1.367,1.092-1.857l3.788,9.752c0.3,0.773,1.169,1.155,1.941,0.855s1.155-1.169,0.855-1.941L49.86,39.749
		c-0.435-1.193-0.451-2.416-0.047-3.44c0.401-1.018,1.187-1.765,2.27-2.159c2.184-0.796,4.424,0.445,5.321,2.908l10.517,25.968
		c0.305,0.751,1.148,1.119,1.911,0.839c0.76-0.281,1.159-1.124,0.901-1.892l-10.99-32.771c-0.767-2.107,0.231-4.374,2.272-5.117
		c1.994-0.726,4.131,0.134,4.893,2.224L78.193,57h-0.002c0.283,1,1.141,1.498,1.919,1.215S81,57.389,81,56.61v-0.004
		c0-1.002-0.304-2.087,0.147-3.054c0.452-0.968,1.266-1.703,2.271-2.068c0.442-0.161,0.915-0.243,1.38-0.243
		c1.675,0,3.212,1.059,3.785,2.634l2.274,6.107C90.869,60.016,91,60.05,91,60.083c0,0.001,0,0.002,0,0.003s0,0.002,0,0.003
		c0-0.001,0,0.002,0,0.003c0,0-0.002,0.001,0,0.003c0-0.001,0,0.002,0,0.003c0,0.002,0,0.001,0,0.003c0,0.001,0,0.002,0,0.003
		c0,0.001,0,0.003,0,0.003c0,0.001-0.011,0.003-0.01,0.004c0.327,0.689,1.117,1.03,1.854,0.762C93.445,60.657,94,60.095,94,59.492
		c0-0.001,0-0.003,0-0.004c0-0.001,0-0.001,0-0.002c0-0.177-0.195-0.358-0.26-0.534l-1.485-3.619
		c0.406-0.445,1.256-1.142,1.895-1.374c0.352-0.128,0.726-0.193,1.113-0.193c1.339,0,2.559,0.782,2.967,1.9
		C100.526,61.977,106.357,79.489,105.761,84.668z"/>
	<path fill="#231F20" d="M40.061,16.814c-0.429-0.429-0.824-0.558-1.385-0.325S38,17.268,38,17.875V21H11.5c-1,0-2,1-2,2s1,2,2,2H38
		v3.875c0,0.606,0.115,1.153,0.676,1.386s0.956,0.104,1.385-0.325L46,24.375c0.586-0.586,0.586-1.414,0-2L40.061,16.814z"/>
	<path fill="#231F20" d="M30.061,30.814c-0.429-0.429-0.824-0.558-1.385-0.325S28,31.268,28,31.875V35H11.5c-1,0-2,1-2,2s1,2,2,2H28
		v3.875c0,0.606,0.115,1.153,0.676,1.386s0.956,0.104,1.385-0.325L36,38.375c0.586-0.586,0.586-1.414,0-2L30.061,30.814z"/>
</g>
</svg>
