<?xml version="1.0" encoding="utf-8"?>
<!-- Generator: Adobe Illustrator 16.0.0, SVG Export Plug-In . SVG Version: 6.00 Build 0)  -->
<!DOCTYPE svg PUBLIC "-//W3C//DTD SVG 1.1//EN" "http://www.w3.org/Graphics/SVG/1.1/DTD/svg11.dtd">
<svg version="1.1" id="Layer_1" xmlns="http://www.w3.org/2000/svg" xmlns:xlink="http://www.w3.org/1999/xlink" x="0px" y="0px"
	 width="120px" height="120px" viewBox="0 0 120 120" enable-background="new 0 0 120 120" xml:space="preserve">
<g>
	<path fill="#231F20" d="M102.996,50.441c-4.799-5.07-27.257-13.282-28.211-13.629c-0.599-0.217-1.229-0.328-1.872-0.328
		c-2.586,0-5.026,1.743-5.935,4.239c-0.229,0.627-0.369,1.481-0.397,2.373c-0.606-0.167-1.229-0.252-1.858-0.252
		c-2.933,0-5.576,1.852-6.577,4.607c-0.497,1.364-0.558,2.814-0.191,4.188l-25.61-9.322c-0.852-0.31-1.728-0.467-2.604-0.467
		c-2.884,0-5.279,1.659-6.25,4.328c-1.31,3.598,0.554,7.467,4.208,8.798l2.028,0.793c-2.282,0.509-4.101,2.083-4.929,4.358
		c-0.687,1.886-0.553,3.869,0.376,5.582c0.875,1.613,2.395,2.879,4.308,3.575L59.805,79.59c0.136,0.908,0.471,2.326,1.277,4.299
		c2.127,5.197,9.751,10.572,18.828,10.572c1.798,0,3.593-0.213,5.335-0.633c11.998-2.896,18.857-8.912,22.934-20.111
		C112.497,61.847,107.986,55.709,102.996,50.441z M105.36,72.69c-3.74,10.275-9.772,15.554-20.818,18.222
		c-1.513,0.364-3.071,0.549-4.632,0.549c-7.713,0-14.338-4.52-16.052-8.708c-0.323-0.79-0.555-1.466-0.721-2.03l9.897,3.365
		l0.009,0.003c0.784,0.265,1.636-0.153,1.902-0.938s-0.152-1.636-0.938-1.903L30.477,66.452c-1.193-0.435-2.141-1.206-2.665-2.175
		c-0.521-0.961-0.589-2.043-0.195-3.126c0.786-2.159,3.055-3.147,5.65-2.207l26.652,8.637c0.77,0.248,1.602-0.158,1.874-0.922
		c0.273-0.764-0.11-1.606-0.865-1.902L28.759,52.167c-2.108-0.767-3.184-2.948-2.45-4.965c0.536-1.474,1.819-2.354,3.432-2.354
		c0.525,0,1.056,0.097,1.578,0.287L62.32,56.419c0.002,0.001,0.005,0.002,0.008,0.003c0.777,0.284,1.639-0.119,1.922-0.896
		c0.283-0.779-0.118-1.639-0.896-1.923c-1.004-0.365-1.805-1.1-2.256-2.068c-0.452-0.968-0.499-2.054-0.133-3.059
		c0.572-1.575,2.082-2.632,3.758-2.632c0.465,0,0.926,0.082,1.368,0.243l6.107,2.223c0.773,0.283,1.639-0.118,1.922-0.897
		c0.283-0.778-0.118-1.639-0.896-1.922l-3.608-1.313c-0.075-0.622-0.055-1.777,0.182-2.427c0.577-1.582,2.501-2.648,3.963-2.118
		c6.311,2.297,23.475,9.087,27.059,12.873C105.517,57.464,109.102,62.406,105.36,72.69z"/>
	<path fill="#231F20" d="M18.131,29.088c-0.362-0.787-1.262-1.089-2.021-0.646c-2.583,1.512-5.137,3.158-7.649,4.938
		c-0.538,0.382-0.775,0.806-0.702,1.499c0.074,0.694,0.58,0.946,1.17,1.083c1.462,0.336,2.924,0.672,4.386,1.009
		C9.117,55.21,9.737,74.275,15.175,92.27c0.322,1.074,1.62,1.828,2.57,1.516c0.949-0.314,1.566-1.646,1.258-2.672
		c-5.234-17.326-5.832-35.683-1.79-53.246c1.137,0.262,2.273,0.523,3.41,0.785c0.592,0.136,1.149,0.143,1.508-0.36
		c0.357-0.503,0.329-0.922,0.021-1.453C20.715,34.363,19.371,31.777,18.131,29.088z"/>
</g>
</svg>
