<?xml version="1.0" encoding="utf-8"?>
<!-- Generator: Adobe Illustrator 16.0.0, SVG Export Plug-In . SVG Version: 6.00 Build 0)  -->
<!DOCTYPE svg PUBLIC "-//W3C//DTD SVG 1.1//EN" "http://www.w3.org/Graphics/SVG/1.1/DTD/svg11.dtd">
<svg version="1.1" id="Layer_1" xmlns="http://www.w3.org/2000/svg" xmlns:xlink="http://www.w3.org/1999/xlink" x="0px" y="0px"
	 width="120px" height="120px" viewBox="0 0 120 120" enable-background="new 0 0 120 120" xml:space="preserve">
<g>
	<path fill="#231F20" d="M81.398,68.95c-0.812-0.296-1.779-0.376-2.372-0.396c0.444-1.603,0.306-3.294-0.405-4.817
		c-0.791-1.695-2.193-2.98-3.949-3.619c-1.354-0.493-2.846-0.547-4.188-0.188l9.322-25.613c0.64-1.755,0.623-3.613-0.045-5.232
		c-0.699-1.695-2.054-2.981-3.815-3.622c-0.759-0.276-1.546-0.417-2.337-0.417c-2.901,0-5.442,1.829-6.46,4.625l-0.799,2.039
		c-0.505-2.241-2.046-4.1-4.354-4.94c-0.791-0.288-1.601-0.434-2.406-0.434c-2.97,0-5.615,1.997-6.75,5.118L42.531,61.777
		c-0.913,0.136-2.331,0.472-4.299,1.276c-6.788,2.778-12.54,13.386-9.938,24.164c2.896,11.998,8.911,18.856,20.111,22.934
		c3.146,1.144,6.1,1.725,8.781,1.725c6.646,0,10.805-3.413,14.494-6.907c5.07-4.8,13.282-27.258,13.63-28.212
		C86.421,73.701,84.63,70.127,81.398,68.95z M82.491,75.731c-2.298,6.312-9.088,23.476-12.873,27.06
		c-3.386,3.206-6.885,6.085-12.432,6.085c-2.331,0-4.94-0.52-7.756-1.544c-10.274-3.74-15.554-9.771-18.221-20.818
		c-1.553-6.436,0.853-17.693,8.158-20.684c0.793-0.324,1.469-0.556,2.031-0.723l-3.365,9.899l-0.003,0.009
		c-0.267,0.785,0.152,1.637,0.938,1.903c0.785,0.265,1.636-0.153,1.902-0.938l14.798-43.533c0.873-2.398,3.117-3.654,5.302-2.86
		c2.215,0.806,3.129,3.109,2.206,5.649L54.54,61.891c-0.25,0.771,0.158,1.602,0.922,1.875c0.763,0.273,1.606-0.11,1.901-0.865
		l12.591-32.17c0.595-1.631,2.028-2.685,3.654-2.685c0.44,0,0.882,0.079,1.312,0.236c0.974,0.354,1.688,1.027,2.067,1.947
		c0.382,0.925,0.382,2.012,0,3.062L65.702,64.293c0,0.002-0.001,0.004-0.002,0.007v0.001c-0.283,0.777,0.118,1.639,0.896,1.922
		c0.773,0.281,1.639-0.117,1.922-0.896c0.573-1.574,2.084-2.633,3.759-2.633c0.465,0,0.925,0.082,1.368,0.243
		c1.004,0.364,1.805,1.099,2.257,2.067c0.451,0.969,0.499,2.055,0.134,3.059l-2.223,6.107c-0.283,0.779,0.118,1.64,0.896,1.923
		c0.774,0.282,1.639-0.118,1.922-0.896l1.313-3.606c0.179-0.023,0.425-0.042,0.738-0.042c0.656,0,1.319,0.087,1.689,0.222
		C82.018,72.368,83.026,74.257,82.491,75.731z"/>
	<path fill="#231F20" d="M93.68,18.083c-1.512-2.583-3.158-5.137-4.938-7.649c-0.382-0.539-0.806-0.775-1.499-0.702
		c-0.694,0.074-0.946,0.58-1.083,1.17c-0.336,1.462-0.672,2.924-1.009,4.386c-18.239-4.197-37.304-3.577-55.299,1.86
		c-1.073,0.323-1.828,1.621-1.515,2.571c0.313,0.949,1.646,1.566,2.672,1.258c17.326-5.234,35.683-5.832,53.245-1.791
		c-0.262,1.137-0.523,2.274-0.785,3.411c-0.136,0.592-0.143,1.149,0.36,1.507s0.922,0.33,1.453,0.021
		c2.477-1.437,5.062-2.781,7.751-4.021C93.82,19.741,94.122,18.841,93.68,18.083z"/>
</g>
</svg>
