<?xml version="1.0" encoding="utf-8"?>
<!-- Generator: Adobe Illustrator 16.0.0, SVG Export Plug-In . SVG Version: 6.00 Build 0)  -->
<!DOCTYPE svg PUBLIC "-//W3C//DTD SVG 1.1//EN" "http://www.w3.org/Graphics/SVG/1.1/DTD/svg11.dtd">
<svg version="1.1" id="Layer_1" xmlns="http://www.w3.org/2000/svg" xmlns:xlink="http://www.w3.org/1999/xlink" x="0px" y="0px"
	 width="120px" height="120px" viewBox="0 0 120 120" enable-background="new 0 0 120 120" xml:space="preserve">
<path fill="#231F20" d="M81.086,58.875c-0.405,0-1.379,0.14-2.436,0.469c-0.273-3.613-3.189-6.469-6.87-6.469
	c-1.486,0-2.78,0.466-3.78,1.258V38.167c4.148-2.303,6.965-6.72,6.965-11.792c0-7.444-6.056-13.5-13.5-13.5
	c-5.113,0-9.57,2.857-11.861,7.059c-0.376-0.032-0.754-0.059-1.139-0.059c-7.444,0-13.5,6.056-13.5,13.5
	c0,4.996,2.731,9.358,6.777,11.689l0.436,20.368c-0.808,0.439-2.034,1.242-3.603,2.666c-5.429,4.936-7.206,16.869-1.075,26.105
	c6.825,10.283,14.822,14.672,26.742,14.672c12.629,0,16.868-6.338,20.113-12.83c3.122-6.244,3.172-30.156,3.172-31.17
	C87.527,61.678,84.532,58.875,81.086,58.875z M61.465,15.875c5.79,0,10.5,4.71,10.5,10.5c0,3.317-1.554,6.269-3.965,8.191v-7.691
	c0-3.99-3.026-7-6.749-7c-3.794,0-6.986,3.075-6.986,6.967l-0.046,2.097c-0.794-1.197-1.917-2.107-3.251-2.614
	C50.995,20.558,55.691,15.875,61.465,15.875z M81.658,94.703c-3.056,6.113-6.475,11.172-17.416,11.172
	c-10.936,0-17.959-3.861-24.242-13.33c-3.661-5.516-5.25-16.916,0.593-22.227c0.631-0.574,1.188-1.021,1.66-1.371l0.224,10.463
	c0.018,0.828,0.726,1.48,1.532,1.473c0.828-0.02,1.486-0.697,1.469-1.525l-0.706-33.009l0,0l-0.277-12.942
	c0-2.649,1.648-4.469,4.006-4.469s4.007,1.913,4.008,4.616l1.007,28.125c0.029,0.809,0.323,1.697,1.522,1.697
	s1.499-0.906,1.518-1.717l0.421-17.829v0l0.144-6.125l0.256-10.83c0-2.28,1.729-4,3.876-4c2.425,0,3.749,2.073,3.749,4v9.375v3.14
	v20.485c0,0.828,0.507,1.5,1.335,1.5s1.335-0.672,1.335-1.5c0-2.206,1.904-4,4.11-4s4.22,1.794,4.22,4v6.5
	c0,0.828,0.672,1.5,1.5,1.5s1.5-0.672,1.5-1.5v-3.82c0-0.293,1.548-0.68,2.251-0.68c1.783,0,3.249,1.457,3.249,3
	C84.5,71.59,83.989,90.041,81.658,94.703z"/>
</svg>
