<?xml version="1.0" encoding="utf-8"?>
<!-- Generator: Adobe Illustrator 16.0.0, SVG Export Plug-In . SVG Version: 6.00 Build 0)  -->
<!DOCTYPE svg PUBLIC "-//W3C//DTD SVG 1.1//EN" "http://www.w3.org/Graphics/SVG/1.1/DTD/svg11.dtd">
<svg version="1.1" id="Layer_1" xmlns="http://www.w3.org/2000/svg" xmlns:xlink="http://www.w3.org/1999/xlink" x="0px" y="0px"
	 width="120px" height="120px" viewBox="0 0 120 120" enable-background="new 0 0 120 120" xml:space="preserve">
<g>
	<path fill="#231F20" d="M79.5,28H86c0.828,0,1.5-0.671,1.5-1.5S86.828,25,86,25h-5v-4.625c0-0.829-0.672-1.5-1.5-1.5
		s-1.5,0.671-1.5,1.5v6.5C78,27.703,78.672,28,79.5,28z"/>
	<path fill="#231F20" d="M79.23,39.875c7.444,0,13.617-6.056,13.617-13.5s-6.231-13.5-13.676-13.5C74.636,12.875,71,15.13,68,18.571
		v0.03c-2-3.457-6.223-5.727-10.77-5.727c-4.969,0-9.39,2.734-11.739,7.054c-0.391-0.036-0.711-0.054-1.084-0.054
		c-7.443,0-13.471,6.056-13.471,13.5c0,4.996,2.746,9.358,6.792,11.689l0.443,20.368c-0.809,0.439-2.031,1.242-3.6,2.666
		c-5.429,4.936-7.204,16.869-1.073,26.105c6.825,10.283,14.823,14.672,26.743,14.672c12.629,0,16.869-6.338,20.113-12.83
		c3.123-6.244,3.173-30.156,3.173-31.17c0-3.197-2.995-6-6.441-6c-0.405,0-1.379,0.14-2.436,0.469
		c-0.273-3.613-3.189-6.469-6.871-6.469c-1.486,0-2.78,0.466-3.78,1.258V38.167c1.742-1.003,3-2.412,4-4.097v0.109
		C71,37.619,74.694,39.875,79.23,39.875z M67.78,55.875c2.206,0,4.22,1.794,4.22,4v6.5c0,0.828,0.672,1.5,1.5,1.5s1.5-0.672,1.5-1.5
		v-3.82c0-0.293,1.548-0.68,2.251-0.68c1.783,0,3.249,1.457,3.249,3c0,6.715-0.51,25.166-2.841,29.828
		c-3.056,6.113-6.475,11.172-17.416,11.172c-10.936,0-17.959-3.861-24.242-13.33c-3.661-5.516-5.25-16.916,0.593-22.227
		c0.631-0.574,1.188-1.021,1.66-1.371l0.224,10.463c0.018,0.828,0.726,1.48,1.532,1.473c0.828-0.02,1.486-0.697,1.469-1.525
		l-0.741-34.654l-0.033-1.538l-0.209-9.76c0-2.649,1.648-4.469,4.006-4.469s4.007,1.913,4.008,4.616l0.335,9.36l0.114,3.189
		l0.558,15.575c0.029,0.809,0.323,1.697,1.522,1.697s1.499-0.906,1.518-1.717l0.82-34.784c0-2.28,1.729-4,3.875-4
		c2.426,0,3.749,2.073,3.749,4v9.375v3.14v20.485c0,0.828,0.507,1.5,1.335,1.5s1.335-0.672,1.335-1.5
		C63.67,57.668,65.574,55.875,67.78,55.875z M79.465,15.875c5.79,0,10.5,4.71,10.5,10.5s-4.71,10.5-10.5,10.5
		c-4.104,0-7.656-2.373-9.382-5.812c-0.168-0.335-0.316-0.681-0.449-1.035c-0.015-0.037-0.028-0.075-0.041-0.112
		c-0.114-0.313-0.21-0.636-0.294-0.962c-0.019-0.071-0.039-0.141-0.055-0.213c-0.071-0.301-0.124-0.609-0.168-0.919
		c-0.012-0.088-0.03-0.174-0.04-0.263c-0.045-0.389-0.071-0.783-0.071-1.184c0-0.402,0.027-0.797,0.072-1.187
		c0.01-0.094,0.029-0.185,0.042-0.278c0.044-0.306,0.096-0.609,0.165-0.906c0.019-0.079,0.041-0.156,0.061-0.235
		c0.084-0.32,0.179-0.635,0.29-0.943c0.017-0.045,0.032-0.09,0.05-0.134c0.133-0.352,0.282-0.697,0.45-1.031
		C71.826,18.235,75.371,15.875,79.465,15.875z"/>
</g>
</svg>
