<?xml version="1.0" encoding="utf-8"?>
<!-- Generator: Adobe Illustrator 16.0.0, SVG Export Plug-In . SVG Version: 6.00 Build 0)  -->
<!DOCTYPE svg PUBLIC "-//W3C//DTD SVG 1.1//EN" "http://www.w3.org/Graphics/SVG/1.1/DTD/svg11.dtd">
<svg version="1.1" id="Layer_1" xmlns="http://www.w3.org/2000/svg" xmlns:xlink="http://www.w3.org/1999/xlink" x="0px" y="0px"
	 width="120px" height="120px" viewBox="0 0 120 120" enable-background="new 0 0 120 120" xml:space="preserve">
<path fill="#231F20" d="M81.42,58.875c-0.405,0-1.379,0.14-2.436,0.469c-0.273-3.613-2.855-6.469-6.537-6.469
	c-1.486,0-2.447,0.466-3.447,1.258V38.167c4-2.303,6.633-6.72,6.633-11.792c0-7.444-6.225-13.5-13.668-13.5
	c-4.97,0-9.59,2.734-11.939,7.054c-0.391-0.036-0.812-0.054-1.186-0.054c-7.443,0-13.52,6.056-13.52,13.5
	c0,4.996,2.72,9.358,6.766,11.689l0.432,20.368c-0.808,0.439-2.038,1.242-3.606,2.666c-5.429,4.936-7.206,16.869-1.075,26.105
	c6.825,10.283,14.82,14.672,26.74,14.672c12.629,0,16.868-6.338,20.113-12.83c3.122-6.244,3.172-30.156,3.172-31.17
	C87.861,61.678,84.866,58.875,81.42,58.875z M81.992,94.703c-3.056,6.113-6.475,11.172-17.416,11.172
	c-10.936,0-17.959-3.861-24.242-13.33c-3.661-5.516-5.25-16.916,0.593-22.227c0.631-0.574,1.188-1.021,1.66-1.371l0.224,10.463
	c0.018,0.828,0.726,1.48,1.532,1.473c0.828-0.02,1.486-0.697,1.469-1.525L45.07,44.704l-0.033-1.538l0,0l-0.209-9.76
	c0-2.649,1.648-4.469,4.006-4.469s4.007,1.913,4.008,4.616l0.335,9.36l0,0l0.114,3.189l0,0l0.558,15.575
	c0.029,0.809,0.323,1.697,1.522,1.697s1.499-0.906,1.518-1.717l0.82-34.784c0-2.28,2.062-4,4.209-4c2.426,0,4.082,2.073,4.082,4
	v9.375v3.14v20.485c0,0.828,0.174,1.5,1.002,1.5s1.168-0.672,1.168-1.5c0-2.206,2.154-4,4.36-4s4.47,1.794,4.47,4v6.5
	c0,0.828,0.672,1.5,1.5,1.5s1.5-0.672,1.5-1.5v-3.82c0-0.293,1.215-0.68,1.918-0.68c1.783,0,3.082,1.457,3.082,3
	C85,71.59,84.323,90.041,81.992,94.703z"/>
</svg>
