<?xml version="1.0" encoding="utf-8"?>
<!-- Generator: Adobe Illustrator 16.0.0, SVG Export Plug-In . SVG Version: 6.00 Build 0)  -->
<!DOCTYPE svg PUBLIC "-//W3C//DTD SVG 1.1//EN" "http://www.w3.org/Graphics/SVG/1.1/DTD/svg11.dtd">
<svg version="1.1" id="Layer_1" xmlns="http://www.w3.org/2000/svg" xmlns:xlink="http://www.w3.org/1999/xlink" x="0px" y="0px"
	 width="120px" height="120px" viewBox="0 0 120 120" enable-background="new 0 0 120 120" xml:space="preserve">
<g>
	<path fill="#231F20" d="M44,50.375V20h4c0.606,0,1.153-0.178,1.386-0.738s0.104-1.113-0.325-1.542l-6-5.953
		c-0.586-0.586-1.535-0.562-2.121,0.023l-6,6.012c-0.429,0.429-0.558,0.893-0.325,1.454S35.394,20,36,20h4v30.375c0,1,1,2,2,2
		S44,51.375,44,50.375z"/>
	<path fill="#231F20" d="M38,55h-4V25.375c0-1-1-2-2-2s-2,1-2,2V55h-4c-0.606,0-1.153,0.553-1.386,1.113s-0.104,1.299,0.325,1.728
		l6,6.047c0.586,0.586,1.535,0.609,2.121,0.023l6-5.989c0.429-0.429,0.558-1.255,0.325-1.816S38.606,55,38,55z"/>
	<g>
		<path fill="#231F20" d="M71.215,109.875c-11.92,0-19.917-4.389-26.742-14.672c-6.131-9.236-4.354-21.17,1.075-26.105
			c1.568-1.424,2.795-2.227,3.603-2.666l-0.686-32.025c0-4.308,3.011-7.532,7.004-7.532c2.418,0,4.476,1.182,5.723,3.063
			l0.046-2.097c0-3.892,3.206-6.967,7-6.967c3.723,0,6.763,3.01,6.763,7v27.258c1-0.792,2.28-1.258,3.767-1.258
			c3.681,0,6.59,2.855,6.863,6.469c1.057-0.329,2.026-0.469,2.433-0.469c3.445,0,6.439,2.803,6.439,6
			c0,1.014-0.051,24.926-3.173,31.17C88.084,103.537,83.844,109.875,71.215,109.875z M49.226,69.947
			c-0.473,0.35-1.029,0.797-1.66,1.371c-5.843,5.311-4.254,16.711-0.593,22.227c6.283,9.469,13.307,13.33,24.242,13.33
			c10.941,0,14.36-5.059,17.416-11.172c2.331-4.662,2.842-23.113,2.842-29.828c0-1.543-1.452-3-3.235-3
			c-0.703,0-2.237,0.387-2.237,0.68v3.82c0,0.828-0.672,1.5-1.5,1.5s-1.5-0.672-1.5-1.5v-6.5c0-2.206-2.027-4-4.233-4
			s-4.117,1.794-4.117,4c0,0.829-0.497,1.5-1.325,1.5S72,61.703,72,60.875v-33c0-1.927-1.338-4-3.763-4c-2.147,0-3.883,1.72-3.883,4
			l-0.823,34.784c-0.02,0.811-0.32,1.717-1.52,1.717s-1.494-0.889-1.523-1.697L59.48,34.553c-0.001-2.703-1.65-4.616-4.008-4.616
			s-4.006,1.819-4.006,4.469l0.983,45.952c0.018,0.828-0.641,1.506-1.469,1.525c-0.807,0.008-1.515-0.645-1.532-1.473L49.226,69.947
			z"/>
	</g>
</g>
</svg>
