<?xml version="1.0" encoding="utf-8"?>
<!-- Generator: Adobe Illustrator 16.0.0, SVG Export Plug-In . SVG Version: 6.00 Build 0)  -->
<!DOCTYPE svg PUBLIC "-//W3C//DTD SVG 1.1//EN" "http://www.w3.org/Graphics/SVG/1.1/DTD/svg11.dtd">
<svg version="1.1" id="Layer_1" xmlns="http://www.w3.org/2000/svg" xmlns:xlink="http://www.w3.org/1999/xlink" x="0px" y="0px"
	 width="120px" height="120px" viewBox="0 0 120 120" enable-background="new 0 0 120 120" xml:space="preserve">
<g>
	<path d="M93.048,68.639c-0.844-2.316-3.169-3.873-5.785-3.873c-0.738,0-1.458,0.125-2.14,0.373
		c-0.611,0.223-1.324,0.645-1.994,1.172c-1.135-2.456-3.62-4.07-6.356-4.07c-0.816,0-1.622,0.143-2.394,0.424
		c-1.363,0.497-2.514,1.383-3.33,2.546L61.728,39.6c-1.035-2.845-3.558-4.683-6.426-4.683c-0.78,0-1.558,0.139-2.312,0.413
		c-3.622,1.319-5.407,5.241-4.077,8.894l0.716,2.136c-1.822-1.427-4.281-1.862-6.57-1.028c-1.887,0.687-3.319,2.063-4.035,3.877
		c-0.673,1.707-0.666,3.684,0.03,5.596L50.65,84.664c-0.609,0.689-1.487,1.862-2.475,3.738c-3.413,6.492-1.001,18.314,7.919,24.898
		c6.378,4.707,12.258,6.898,18.503,6.898c3.66,0,7.47-0.738,11.645-2.258c11.868-4.32,13.671-11.721,14.499-18.931
		C101.54,92.074,93.396,69.593,93.048,68.639z M97.761,98.668c-0.78,6.788-2.263,12.711-12.544,16.453
		c-3.841,1.398-7.314,2.078-10.619,2.078c-5.648,0-10.806-1.947-16.722-6.312c-5.326-3.931-10.719-14.101-7.045-21.088
		c0.397-0.756,0.767-1.367,1.092-1.857l3.788,9.752c0.3,0.772,1.169,1.156,1.941,0.855c0.772-0.3,1.155-1.169,0.855-1.941
		L41.86,53.749c-0.435-1.193-0.451-2.416-0.047-3.44c0.401-1.018,1.187-1.765,2.27-2.159c2.186-0.795,4.425,0.445,5.321,2.908
		l10.517,25.968c0.305,0.751,1.148,1.119,1.911,0.839c0.76-0.281,1.159-1.123,0.901-1.892l-10.99-32.771
		c-0.767-2.107,0.231-4.374,2.272-5.117c1.994-0.729,4.131,0.134,4.893,2.224L70.193,71h-0.002c0.283,1,1.141,1.498,1.919,1.215
		S73,71.389,73,70.61v-0.005c0-1.002-0.304-2.087,0.147-3.054c0.452-0.968,1.266-1.702,2.271-2.067
		c0.442-0.162,0.915-0.244,1.38-0.244c1.675,0,3.212,1.059,3.785,2.635l2.274,6.107C82.869,74.016,83,74.05,83,74.083
		c0,0.001,0,0.003,0,0.003c0,0.002,0,0.003,0,0.004c0,0,0,0.002,0,0.004c0,0-0.002,0.002,0,0.003c-0.001-0.001,0,0.002,0,0.003
		c0,0.004,0,0.003,0,0.004s0,0.002,0,0.003s0,0.003,0,0.003c0,0.002-0.011,0.003-0.01,0.004c0.327,0.689,1.116,1.03,1.854,0.762
		C85.445,74.657,86,74.095,86,73.492c0-0.002,0-0.004,0-0.005s0-0.001,0-0.003c0-0.177-0.195-0.357-0.26-0.533l-1.485-3.619
		c0.406-0.445,1.256-1.142,1.895-1.373c0.352-0.129,0.726-0.193,1.113-0.193c1.339,0,2.559,0.781,2.967,1.9
		C92.526,75.977,98.357,93.489,97.761,98.668z"/>
	<path d="M35.542,51.596C27.016,48.066,21,39.662,21,29.875c0-12.958,10.542-23.5,23.5-23.5c12.705,0,23.08,10.136,23.48,22.745
		l-0.029-0.005l-0.124-0.022l-3.938-0.707c-0.597-0.107-1.199,0.156-1.527,0.667c-0.328,0.51-0.315,1.168,0.031,1.666l4.845,6.966
		c0.474,0.68,1.407,0.848,2.088,0.375l6.966-4.845c0.498-0.346,0.739-0.959,0.609-1.552s-0.604-1.049-1.2-1.156l-3.702-0.665
		C71.98,14.693,59.651,2.375,44.5,2.375c-15.163,0-27.5,12.336-27.5,27.5c0,12.329,8.155,22.788,19.354,26.268l-0.098-0.252
		C35.735,54.462,35.505,53.008,35.542,51.596z"/>
</g>
</svg>
