<?xml version="1.0" encoding="utf-8"?>
<!-- Generator: Adobe Illustrator 16.0.0, SVG Export Plug-In . SVG Version: 6.00 Build 0)  -->
<!DOCTYPE svg PUBLIC "-//W3C//DTD SVG 1.1//EN" "http://www.w3.org/Graphics/SVG/1.1/DTD/svg11.dtd">
<svg version="1.1" id="Layer_1" xmlns="http://www.w3.org/2000/svg" xmlns:xlink="http://www.w3.org/1999/xlink" x="0px" y="0px"
	 width="100px" height="100px" viewBox="0 0 100 100" enable-background="new 0 0 100 100" xml:space="preserve">
<path fill="#231F20" d="M76.482,44.875c-0.407,0-1.44,0.14-2.502,0.47c-0.271-3.613-3.299-6.47-6.98-6.47
	c-1.68,0-3.223,0.594-4.43,1.584c-0.986-2.673-3.56-4.584-6.57-4.584c-1.751,0-3.552,0.536-5,1.572v-7.268
	c4.148-2.306,6.965-6.73,6.965-11.804c0-7.444-6.056-13.5-13.5-13.5s-13.5,6.056-13.5,13.5c0,4.994,2.732,9.354,6.775,11.688
	l0.071,31.554l-5.76-6.045c-1.55-1.551-3.6-2.405-5.772-2.405s-4.223,0.854-5.772,2.405c-3.204,3.203-3.211,8.41-0.072,11.545
	c0.052,0.059,5.269,5.875,12.712,13.318l1.211,1.215c7.058,7.096,13.152,13.225,25.35,13.225c12.629,0,16.854-6.338,20.1-12.83
	c3.122-6.244,3.158-30.156,3.158-31.17C82.965,47.678,79.936,44.875,76.482,44.875z M40.716,19.406c0-2.076,0.985-4.516,3.763-4.516
	c3.268,0,3.521,3.429,3.521,4.484v28c0,0.829,0.672,1.5,1.5,1.5s1.5-0.671,1.5-1.5v-4c0-3.302,2.99-4.5,5-4.5c2.206,0,4,1.794,4,4
	v5.5c0,0.829,0.672,1.5,1.5,1.5s1.5-0.671,1.5-1.5v-2.5c0-2.206,1.794-4,4-4s4,1.794,4,4v6.5c0,0.828,0.672,1.5,1.5,1.5
	s1.5-0.672,1.5-1.5v-3.82c0.6-0.292,1.776-0.681,2.482-0.681c1.79,0,3.482,1.458,3.482,3c0,6.716-0.512,25.168-2.842,29.829
	c-3.056,6.112-6.475,11.172-17.416,11.172c-10.95,0-16.366-5.445-23.223-12.34l-1.217-1.221
	c-7.381-7.381-12.547-13.141-12.655-13.258c-0.981-0.982-1.521-2.289-1.518-3.679c0.004-1.392,0.548-2.7,1.533-3.685
	c0.983-0.984,2.28-1.526,3.651-1.526s2.667,0.542,3.625,1.5l8.33,8.742c0.426,0.446,1.079,0.585,1.645,0.357
	c0.57-0.229,0.942-0.782,0.941-1.396L40.716,19.406z"/>
</svg>
