<?xml version="1.0" encoding="utf-8"?>
<!-- Generator: Adobe Illustrator 16.0.0, SVG Export Plug-In . SVG Version: 6.00 Build 0)  -->
<!DOCTYPE svg PUBLIC "-//W3C//DTD SVG 1.1//EN" "http://www.w3.org/Graphics/SVG/1.1/DTD/svg11.dtd">
<svg version="1.1" id="Layer_1" xmlns="http://www.w3.org/2000/svg" xmlns:xlink="http://www.w3.org/1999/xlink" x="0px" y="0px"
	 width="120px" height="100px" viewBox="0 0 120 100" enable-background="new 0 0 120 100" xml:space="preserve">
<g>
	<path fill="#231F20" d="M101.842,35.553c-4.799-5.07-27.257-13.282-28.21-13.629c-0.577-0.21-1.187-0.317-1.812-0.317
		c-2.583,0-5.124,1.832-6.042,4.354c-0.139,0.38-0.361,1.4-0.412,2.514c-0.616-0.174-1.25-0.262-1.892-0.262
		c-2.931,0-5.575,1.851-6.58,4.608c-0.558,1.535-0.564,3.181-0.029,4.703c-2.921,0.012-5.551,1.86-6.55,4.607
		c-0.614,1.687-0.691,3.573-0.225,5.24l-16.991-6.184c-1.1-0.4-2.188-0.603-3.232-0.603c-2.878,0-5.081,1.519-6.045,4.166
		c-0.688,1.89-0.532,3.847,0.44,5.511c0.884,1.512,2.408,2.723,4.297,3.411l39.724,14.356l-7.65,3.345
		c-1.986,0.926-3.49,2.561-4.232,4.603c-0.743,2.042-0.642,4.261,0.285,6.247c1.345,2.886,4.269,4.751,7.447,4.751
		c1.198,0,2.359-0.259,3.376-0.735c0.072-0.029,7.323-2.941,16.863-7.391l1.555-0.721c9.082-4.205,16.926-7.836,21.098-19.299
		C111.343,46.959,106.832,40.822,101.842,35.553z M104.205,57.802c-3.746,10.291-10.716,13.518-19.54,17.603l-1.562,0.725
		c-9.461,4.412-16.64,7.297-16.787,7.357c-0.693,0.323-1.428,0.487-2.185,0.487c-2.018,0-3.874-1.185-4.729-3.02
		c-0.588-1.261-0.654-2.665-0.185-3.953c0.469-1.288,1.421-2.321,2.647-2.894l11.063-4.837c0.562-0.246,0.919-0.81,0.898-1.423
		c-0.02-0.614-0.412-1.154-0.989-1.362L29.582,50.852c-1.229-0.447-2.199-1.194-2.73-2.104c-0.528-0.905-0.6-1.905-0.212-2.971
		c0.53-1.455,1.615-2.193,3.227-2.193c0.694,0,1.437,0.142,2.206,0.422l26.312,9.576c0.774,0.282,1.638-0.118,1.922-0.896
		s-0.118-1.64-0.896-1.923l-3.759-1.368c-1.3-0.473-2.175-1.347-2.6-2.596c-0.382-1.125-0.352-2.452,0.081-3.642
		c0.573-1.575,2.084-2.633,3.759-2.633c0.466,0,0.926,0.082,1.368,0.243l5.169,1.881c0.774,0.281,1.638-0.117,1.922-0.896
		c0.283-0.778-0.117-1.639-0.896-1.923l-2.351-0.855c-1.004-0.365-1.805-1.099-2.257-2.067c-0.451-0.969-0.499-2.055-0.135-3.058
		c0.574-1.576,2.086-2.634,3.761-2.634c0.466,0,0.926,0.082,1.368,0.243l6.107,2.223c0.779,0.284,1.639-0.119,1.922-0.897
		s-0.118-1.639-0.896-1.922l-3.588-1.306c-0.07-0.663-0.032-1.902,0.209-2.566c0.587-1.613,2.565-2.77,4.01-2.246
		c6.311,2.297,23.475,9.087,27.059,12.873C104.362,42.576,107.947,47.519,104.205,57.802z"/>
	<path fill="#231F20" d="M23.535,22.685c-1.438-2.477-2.781-5.062-4.021-7.751c-0.362-0.787-1.262-1.089-2.021-0.646
		c-2.583,1.512-5.137,3.158-7.649,4.938c-0.538,0.382-0.775,0.806-0.702,1.499c0.074,0.694,0.58,0.946,1.17,1.083
		c1.462,0.336,2.924,0.672,4.386,1.009c-4.197,18.239-3.577,37.304,1.86,55.298c0.322,1.074,1.62,1.828,2.57,1.516
		c0.949-0.314,1.566-1.646,1.258-2.672c-5.234-17.326-5.832-35.683-1.79-53.246c1.137,0.262,2.273,0.523,3.41,0.785
		c0.592,0.136,1.149,0.143,1.508-0.36C23.871,23.635,23.843,23.216,23.535,22.685z"/>
</g>
</svg>
