<?xml version="1.0" encoding="utf-8"?>
<!-- Generator: Adobe Illustrator 16.0.0, SVG Export Plug-In . SVG Version: 6.00 Build 0)  -->
<!DOCTYPE svg PUBLIC "-//W3C//DTD SVG 1.1//EN" "http://www.w3.org/Graphics/SVG/1.1/DTD/svg11.dtd">
<svg version="1.1" id="Layer_1" xmlns="http://www.w3.org/2000/svg" xmlns:xlink="http://www.w3.org/1999/xlink" x="0px" y="0px"
	 width="150px" height="150px" viewBox="0 0 150 150" enable-background="new 0 0 150 150" xml:space="preserve">
<g>
	<path fill="#231F20" d="M97.25,54.875c-0.484,0-1.368,0.135-2.273,0.42c-0.296-3.59-3.312-6.42-6.977-6.42
		c-1.68,0-3.223,0.595-4.43,1.584c-0.986-2.673-3.56-4.584-6.57-4.584c-3.258,0-6.687,1.854-7.701,5.335
		c-1.099-0.854-2.482-1.335-4.053-1.335c-3.986,0-6.879,3.154-6.879,7.504l0.011,3.991c-0.85,0.428-2.162,1.238-3.803,2.729
		c-5.429,4.935-7.206,16.869-1.075,26.105c6.279,9.461,15.776,14.672,26.742,14.672c12.629,0,16.854-6.338,20.1-12.83
		c3.122-6.244,3.158-30.156,3.158-31.17C103.5,57.623,100.638,54.875,97.25,54.875z M97.646,90.703
		c-3.056,6.113-6.487,11.172-17.429,11.172c-9.928,0-18.564-4.734-24.269-13.33c-3.661-5.516-5.373-16.917,0.47-22.226
		c0.665-0.604,2.051-1.425,2.051-1.425l-0.031,10.48c0,1.25,0.395,2,1.293,2s1.27-0.707,1.27-2V57.375c0-2.24,1.383-4.5,4.062-4.5
		c2.771,0,3.846,2.424,3.846,4.5c0,0.828,0.718,1.5,1.546,1.5S72,58.203,72,57.375v-4c0-3.302,2.99-4.5,5-4.5c2.206,0,4,1.794,4,4
		v5.5c0,0.828,0.672,1.5,1.5,1.5s1.5-0.672,1.5-1.5v-2.5c0-2.206,1.794-4,4-4s4,1.794,4,4v6.5c0,0.828,0.672,1.5,1.5,1.5
		s1.5-0.672,1.5-1.5v-3.856c0.534-0.279,1.567-0.644,2.247-0.644c1.731,0,3.246,1.402,3.246,3
		C100.493,67.591,99.976,86.043,97.646,90.703z"/>
	<g>
		<path fill="#231F20" d="M61.77,113.266c-0.218,0-0.438-0.047-0.648-0.148c-7.224-3.469-13.292-8.854-18.036-16.002
			C33.055,82,36.782,63.56,46,55.003c0.892-8.021,6.218-14.588,13.706-16.824c0.786-0.24,1.629,0.213,1.866,1.009
			c0.237,0.793-0.215,1.629-1.009,1.866c-6.48,1.936-11.047,7.742-11.632,14.794l-0.05,0.599l-0.695,0.621
			c-8.424,7.654-11.813,24.508-2.602,38.389c4.441,6.691,10.105,11.725,16.835,14.955c0.747,0.359,1.062,1.256,0.703,2.002
			C62.864,112.951,62.328,113.266,61.77,113.266z"/>
	</g>
	<g>
		<path fill="#231F20" d="M59.356,118.693c-0.217,0-0.437-0.047-0.645-0.146c-8.236-3.928-15.368-10.191-20.626-18.113
			c-10.007-15.08-8.979-36.183,2.28-48.279c1.758-9.104,8.121-16.526,16.699-19.435c0.784-0.264,1.637,0.155,1.902,0.939
			s-0.154,1.636-0.939,1.902c-7.68,2.604-13.347,9.332-14.79,17.56l-0.079,0.45l-0.316,0.329
			C32.224,64.968,31.231,84.68,40.586,98.775c4.957,7.469,11.672,13.369,19.417,17.064c0.748,0.357,1.065,1.252,0.708,2
			C60.454,118.379,59.917,118.693,59.356,118.693z"/>
	</g>
	<g>
		<path fill="#231F20" d="M96.448,113.756c-0.537,0-1.057-0.289-1.326-0.797c-0.388-0.732-0.109-1.641,0.622-2.029
			c6.967-3.695,10.658-9.764,13.096-14.637c3.62-7.242,4.16-25.299,4.16-35.418c0-6.835-4.712-12.96-11.46-14.896l-0.451-0.129
			l-0.297-0.364c-1.175-1.439-2.574-2.666-4.162-3.646c-0.705-0.435-0.924-1.359-0.488-2.064s1.359-0.923,2.064-0.488
			c1.739,1.073,3.288,2.398,4.61,3.943C110.603,45.672,116,52.862,116,60.875c0,10.384-0.582,28.967-4.477,36.76
			c-2.638,5.273-6.655,11.852-14.373,15.945C96.926,113.699,96.686,113.756,96.448,113.756z"/>
	</g>
	<g>
		<path fill="#231F20" d="M98.897,119.268c-0.544,0-1.069-0.297-1.335-0.814c-0.379-0.736-0.089-1.641,0.648-2.02
			c8.765-4.506,13.326-12.121,15.995-17.457C117.387,92.613,119,79.795,119,60.875c0-8.822-5.685-16.903-14.146-20.108l-0.319-0.12
			l-0.235-0.248c-1.484-1.559-3.187-2.898-5.06-3.983c-0.717-0.415-0.961-1.333-0.546-2.05c0.416-0.718,1.333-0.961,2.05-0.546
			c2.021,1.171,3.867,2.604,5.491,4.266C115.68,41.808,122,50.924,122,60.875c0,19.389-1.72,32.661-5.11,39.444
			c-2.857,5.713-7.761,13.875-17.308,18.783C99.363,119.215,99.129,119.268,98.897,119.268z"/>
	</g>
	<g>
		<path fill="#231F20" d="M94.001,108.248c-0.527,0-1.038-0.277-1.312-0.771c-0.402-0.725-0.141-1.637,0.584-2.039
			c5.228-2.902,8.09-7.607,10.2-11.828C106.073,88.408,107,73.289,107,60.875c0-4.778-3.841-8.928-8.745-9.447l-0.76-0.08
			l-0.382-0.662c-0.772-1.34-1.858-2.521-3.141-3.416c-0.68-0.475-0.846-1.409-0.372-2.089c0.474-0.681,1.409-0.844,2.089-0.372
			c1.434,1.001,2.677,2.283,3.629,3.738C105.365,49.552,110,54.83,110,60.875c0,7.935-0.375,27.137-3.844,34.077
			c-2.181,4.361-5.45,9.791-11.429,13.109C94.497,108.188,94.248,108.248,94.001,108.248z"/>
	</g>
	<g>
		<path fill="#231F20" d="M64.217,107.758c-0.221,0-0.444-0.049-0.656-0.152c-6.188-3.014-11.396-7.658-15.477-13.809
			c-8.068-12.158-5.352-27.659,2.186-34.509c0.553-0.503,0.73-0.975,1.73-1.409v-0.482c0-6.895,4.18-12.411,10.5-13.732
			c0.804-0.171,1.572,0.349,1.742,1.162c0.169,0.811-0.305,1.605-1.116,1.775C58.233,47.623,55,51.959,55,57.392v1.984l-0.676,0.451
			c-0.67,0.494-1.388,1.06-2.07,1.68c-6.617,6.014-8.871,19.758-1.654,30.631c3.781,5.697,8.581,9.994,14.283,12.77
			c0.744,0.363,1.05,1.262,0.688,2.006C65.311,107.447,64.772,107.758,64.217,107.758z"/>
	</g>
</g>
</svg>
