<?xml version="1.0" encoding="utf-8"?>
<!-- Generator: Adobe Illustrator 16.0.0, SVG Export Plug-In . SVG Version: 6.00 Build 0)  -->
<!DOCTYPE svg PUBLIC "-//W3C//DTD SVG 1.1//EN" "http://www.w3.org/Graphics/SVG/1.1/DTD/svg11.dtd">
<svg version="1.1" id="Layer_1" xmlns="http://www.w3.org/2000/svg" xmlns:xlink="http://www.w3.org/1999/xlink" x="0px" y="0px"
	 width="150px" height="150px" viewBox="0 0 150 150" enable-background="new 0 0 150 150" xml:space="preserve">
<g>
	<g>
		<path fill="#231F20" d="M54.293,119.346c-2.683,0-5.637-0.58-8.782-1.725c-11.2-4.076-17.215-10.936-20.111-22.934
			c-2.603-10.775,3.148-21.381,9.938-24.161c1.969-0.806,3.386-1.143,4.3-1.278l10.309-30.324c1.135-3.12,3.779-5.117,6.749-5.117
			c0.806,0,1.615,0.146,2.407,0.435c1.887,0.686,3.32,2.062,4.035,3.876c0.145,0.366,0.258,0.744,0.34,1.131l0.821-2.092
			c0.997-2.742,3.61-4.609,6.488-4.609c0.798,0,1.589,0.141,2.353,0.419c3.556,1.294,5.291,5.196,3.949,8.885l-0.849,2.333
			c1.757-0.945,4.046-1.169,6.017-0.45c1.756,0.64,3.159,1.925,3.949,3.619c0.791,1.695,0.874,3.596,0.233,5.353l-2.877,7.208
			c1.39-0.649,3.079-0.749,4.585-0.201s2.708,1.649,3.386,3.102c0.677,1.452,0.748,3.082,0.199,4.589
			c-0.014,0.037-0.028,0.074-0.045,0.11c0,0-5.214,11.403-10.598,23.272c-0.672,1.48-1.286,2.85-1.856,4.121
			c-4.098,9.127-5.968,13.293-10.447,17.533C65.096,115.934,60.937,119.346,54.293,119.346z M38.504,72.58
			c-0.562,0.167-1.238,0.399-2.03,0.724c-7.307,2.992-9.712,14.248-8.158,20.681c2.667,11.047,7.945,17.078,18.221,20.818
			c2.816,1.023,5.426,1.543,7.757,1.543c5.545,0,9.044-2.877,12.43-6.084c4.049-3.832,5.842-7.828,9.772-16.584
			c0.572-1.275,1.188-2.646,1.861-4.131c5.159-11.375,10.162-22.32,10.574-23.221c0.255-0.739,0.213-1.534-0.117-2.244
			c-0.339-0.726-0.94-1.276-1.693-1.551c-1.532-0.558-3.295,0.284-3.846,1.794c-0.017,0.045-0.035,0.09-0.056,0.134l-8.891,18.579
			c-0.351,0.73-1.213,1.051-1.956,0.727c-0.74-0.326-1.091-1.18-0.791-1.93l12.055-30.198c0.35-0.961,0.303-2.047-0.149-3.015
			c-0.451-0.969-1.253-1.703-2.258-2.069c-0.461-0.168-0.95-0.253-1.454-0.253c-1.779,0-3.349,1.027-3.906,2.558l-9.582,22.667
			c-0.318,0.75-1.18,1.106-1.931,0.812c-0.757-0.298-1.139-1.146-0.86-1.909L74.27,40.826c0.779-2.143-0.148-4.31-2.157-5.041
			c-0.434-0.157-0.88-0.237-1.326-0.237c-1.646,0-3.092,1.049-3.682,2.671L54.467,70.375c-0.297,0.754-1.14,1.136-1.902,0.863
			c-0.763-0.273-1.171-1.104-0.921-1.875l8.639-26.653c0.451-1.244,0.468-2.466,0.064-3.49c-0.402-1.019-1.188-1.765-2.271-2.159
			c-2.183-0.795-4.429,0.461-5.302,2.859L37.977,83.451c-0.267,0.785-1.119,1.205-1.902,0.938c-0.785-0.266-1.204-1.117-0.938-1.902
			l0.037-0.111L38.504,72.58z"/>
	</g>
	<path fill="#231F20" d="M125.439,80H99v-3.125c0-0.607-0.146-1.154-0.706-1.386s-0.972-0.104-1.399,0.325l-5.947,5.561
		c-0.586,0.586-0.59,1.414-0.004,2l5.938,5.561c0.429,0.428,0.854,0.557,1.414,0.324S99,88.48,99,87.875V84h26.439c1,0,2-1,2-2
		S126.439,80,125.439,80z"/>
	<path fill="#231F20" d="M125.439,66H109v-3.125c0-0.606-0.146-1.153-0.706-1.386s-0.972-0.104-1.399,0.325l-5.947,5.561
		c-0.586,0.586-0.59,1.414-0.004,2l5.938,5.561c0.429,0.429,0.854,0.558,1.414,0.325S109,74.481,109,73.875V70h16.439c1,0,2-1,2-2
		S126.439,66,125.439,66z"/>
	<path fill="#231F20" d="M125.439,38H109v-3.125c0-0.606-0.146-1.153-0.706-1.386s-0.972-0.104-1.399,0.325l-5.947,5.561
		c-0.586,0.586-0.59,1.414-0.004,2l5.938,5.561c0.429,0.429,0.854,0.558,1.414,0.325S109,46.481,109,45.875V42h16.439c1,0,2-1,2-2
		S126.439,38,125.439,38z"/>
	<path fill="#231F20" d="M125.439,52H99v-3.125c0-0.606-0.146-1.153-0.706-1.386s-0.972-0.104-1.399,0.325l-5.947,5.561
		c-0.586,0.586-0.59,1.414-0.004,2l5.938,5.561c0.429,0.429,0.854,0.558,1.414,0.325S99,60.481,99,59.875V56h26.439c1,0,2-1,2-2
		S126.439,52,125.439,52z"/>
</g>
</svg>
