<?xml version="1.0" encoding="utf-8"?>
<!-- Generator: Adobe Illustrator 16.0.0, SVG Export Plug-In . SVG Version: 6.00 Build 0)  -->
<!DOCTYPE svg PUBLIC "-//W3C//DTD SVG 1.1//EN" "http://www.w3.org/Graphics/SVG/1.1/DTD/svg11.dtd">
<svg version="1.1" id="Layer_1" xmlns="http://www.w3.org/2000/svg" xmlns:xlink="http://www.w3.org/1999/xlink" x="0px" y="0px"
	 width="150px" height="150px" viewBox="0 0 150 150" enable-background="new 0 0 150 150" xml:space="preserve">
<g>
	<g>
		<path fill="#231F20" d="M98.687,118.713c-6.246,0-12.125-2.193-18.502-6.898c-8.92-6.584-11.332-18.406-7.919-24.898
			c0.987-1.877,1.866-3.049,2.475-3.738l-11.598-29.86c-1.474-4.048,0.253-8.107,4.004-9.474c2.294-0.836,4.748-0.397,6.571,1.028
			l-0.716-2.135c-0.627-1.72-0.568-3.605,0.177-5.273c0.758-1.694,2.144-2.98,3.901-3.619c0.754-0.274,1.531-0.414,2.312-0.414
			c2.867,0,5.39,1.838,6.425,4.682l0.85,2.334c0.746-1.872,2.277-3.471,4.317-4.214c0.773-0.281,1.578-0.424,2.395-0.424
			c2.933,0,5.576,1.852,6.579,4.607l2.429,7.371c0.649-1.392,1.828-2.536,3.382-3.101c0.662-0.241,1.353-0.363,2.053-0.363
			c2.513,0,4.778,1.587,5.637,3.949c0.014,0.037,0.026,0.075,0.037,0.113c0,0.001,3.335,12.087,6.841,24.642
			c0.438,1.564,0.846,3.007,1.226,4.345c2.729,9.629,3.975,14.021,3.27,20.15c-0.83,7.211-2.633,14.611-14.5,18.93
			C106.156,117.973,102.347,118.713,98.687,118.713z M76.013,86.455c-0.325,0.49-0.694,1.102-1.092,1.857
			c-3.674,6.986,1.719,17.156,7.045,21.088c5.915,4.365,11.072,6.312,16.721,6.312c3.305,0,6.778-0.68,10.619-2.078
			c10.28-3.742,11.764-9.666,12.545-16.455c0.637-5.537-0.558-9.752-3.176-18.988c-0.38-1.342-0.79-2.789-1.228-4.357
			c-3.36-12.031-6.563-23.631-6.827-24.586c-0.567-1.48-2.317-2.293-3.825-1.743c-1.555,0.565-2.359,2.291-1.794,3.846
			c0.017,0.046,0.031,0.092,0.044,0.139l5.132,19.947c0.201,0.784-0.255,1.586-1.031,1.813c-0.771,0.223-1.594-0.201-1.847-0.97
			L97.123,41.399c-0.558-1.532-2.068-2.59-3.744-2.59c-0.466,0-0.926,0.082-1.368,0.243c-2.127,0.773-3.354,3.21-2.625,5.212
			l7.229,23.522c0.239,0.777-0.186,1.604-0.957,1.862c-0.768,0.264-1.608-0.144-1.886-0.909L82.999,39.139
			c-0.762-2.089-2.896-3.203-4.894-2.476c-0.987,0.359-1.765,1.079-2.188,2.025c-0.426,0.952-0.456,2.039-0.085,3.058l10.989,32.756
			c0.258,0.769-0.142,1.603-0.901,1.884c-0.764,0.281-1.606-0.094-1.911-0.844l-10.516-25.97c-0.897-2.462-3.141-3.704-5.321-2.91
			c-2.215,0.807-3.129,3.109-2.223,5.6l16.647,42.859c0.3,0.771-0.083,1.641-0.855,1.941c-0.774,0.299-1.642-0.084-1.941-0.855
			L76.013,86.455z"/>
	</g>
	<path fill="#231F20" d="M26.5,42H53v3.875c0,0.606,0.115,1.153,0.676,1.386s0.956,0.104,1.385-0.325L61,41.375
		c0.586-0.586,0.586-1.414,0-2l-5.939-5.561c-0.429-0.429-0.824-0.558-1.385-0.325S53,34.268,53,34.875V38H26.5c-1,0-2,1-2,2
		S25.5,42,26.5,42z"/>
	<path fill="#231F20" d="M26.5,56H43v3.875c0,0.606,0.115,1.153,0.676,1.386s0.956,0.104,1.385-0.325L51,55.375
		c0.586-0.586,0.586-1.414,0-2l-5.939-5.561c-0.429-0.429-0.824-0.558-1.385-0.325S43,48.268,43,48.875V52H26.5c-1,0-2,1-2,2
		S25.5,56,26.5,56z"/>
	<path fill="#231F20" d="M26.5,84H43v3.875c0,0.605,0.115,1.152,0.676,1.385s0.956,0.104,1.385-0.324L51,83.375
		c0.586-0.586,0.586-1.414,0-2l-5.939-5.561c-0.429-0.429-0.824-0.558-1.385-0.325S43,76.268,43,76.875V80H26.5c-1,0-2,1-2,2
		S25.5,84,26.5,84z"/>
	<path fill="#231F20" d="M26.5,70H53v3.875c0,0.606,0.115,1.153,0.676,1.386s0.956,0.104,1.385-0.325L61,69.375
		c0.586-0.586,0.586-1.414,0-2l-5.939-5.561c-0.429-0.429-0.824-0.558-1.385-0.325S53,62.268,53,62.875V66H26.5c-1,0-2,1-2,2
		S25.5,70,26.5,70z"/>
</g>
</svg>
