<?xml version="1.0" encoding="utf-8"?>
<!-- Generator: Adobe Illustrator 16.0.0, SVG Export Plug-In . SVG Version: 6.00 Build 0)  -->
<!DOCTYPE svg PUBLIC "-//W3C//DTD SVG 1.1//EN" "http://www.w3.org/Graphics/SVG/1.1/DTD/svg11.dtd">
<svg version="1.1" id="Layer_1" xmlns="http://www.w3.org/2000/svg" xmlns:xlink="http://www.w3.org/1999/xlink" x="0px" y="0px"
	 width="150px" height="150px" viewBox="0 0 150 150" enable-background="new 0 0 150 150" xml:space="preserve">
<g>
	<g>
		<path fill="#231F20" d="M98.596,118.199c-6.245,0-12.124-2.191-18.501-6.898c-8.921-6.582-11.334-18.404-7.92-24.898
			c0.989-1.879,1.862-3.049,2.47-3.738l-11.6-29.857c-1.474-4.047,0.249-8.105,3.997-9.47c2.306-0.84,4.77-0.391,6.593,1.057
			l-0.725-2.172c-1.329-3.649,0.457-7.572,4.079-8.891c0.755-0.274,1.532-0.413,2.312-0.413c2.867,0,5.39,1.837,6.425,4.681
			l0.851,2.336c0.746-1.873,2.277-3.473,4.317-4.216c0.773-0.281,1.578-0.424,2.394-0.424c2.932,0,5.576,1.852,6.579,4.606
			l7.922,24.04c0.539-0.404,1.1-0.718,1.567-0.889c0.663-0.241,1.353-0.363,2.053-0.363c2.513,0,4.778,1.587,5.638,3.949
			c0.348,0.953,8.492,23.435,7.694,30.373c-0.83,7.209-2.633,14.609-14.5,18.928C106.066,117.461,102.257,118.199,98.596,118.199z
			 M75.919,85.945c-0.324,0.49-0.692,1.102-1.088,1.854c-3.675,6.988,1.718,17.158,7.045,21.088
			c5.915,4.365,11.071,6.312,16.72,6.312c3.305,0,6.778-0.68,10.62-2.078c10.28-3.742,11.764-9.664,12.545-16.453
			c0.596-5.178-5.235-22.692-7.532-29.003c-0.551-1.509-2.318-2.347-3.846-1.793c-0.562,0.206-1.245,0.801-1.562,1.188
			c0.348,1.03,1.136,3.457,1.239,3.776c0.255,0.786-0.174,1.632-0.961,1.889c-0.784,0.259-1.632-0.17-1.891-0.956l-1.392-4.224
			v-0.001c-0.012-0.036-0.025-0.077-0.032-0.105l-0.001-0.001l-8.751-26.552c-0.559-1.531-2.069-2.59-3.745-2.59
			c-0.465,0-0.925,0.082-1.367,0.243c-2.127,0.773-3.354,3.21-2.625,5.213l7.229,23.522c0.239,0.777-0.186,1.604-0.957,1.862
			c-0.767,0.263-1.608-0.144-1.886-0.909L82.908,38.625c-0.762-2.088-2.899-3.201-4.893-2.475c-2.042,0.743-3.04,2.977-2.273,5.084
			l10.933,32.778c0.257,0.769-0.145,1.603-0.904,1.882c-0.759,0.281-1.605-0.094-1.909-0.846l-10.487-25.98
			c-0.908-2.492-3.104-3.718-5.305-2.913c-2.212,0.806-3.123,3.106-2.217,5.595l11.909,30.656c0.013,0.027,0.025,0.055,0.036,0.084
			l4.705,12.119c0.3,0.771-0.083,1.641-0.855,1.941c-0.774,0.299-1.642-0.084-1.941-0.855L75.919,85.945z"/>
	</g>
	<path fill="#231F20" d="M26.5,42H53v3.875c0,0.606,0.115,1.153,0.676,1.386s0.956,0.104,1.385-0.325L61,41.375
		c0.586-0.586,0.586-1.414,0-2l-5.939-5.561c-0.429-0.429-0.824-0.558-1.385-0.325S53,34.268,53,34.875V38H26.5c-1,0-2,1-2,2
		S25.5,42,26.5,42z"/>
	<path fill="#231F20" d="M26.5,56H43v3.875c0,0.606,0.115,1.153,0.676,1.386s0.956,0.104,1.385-0.325L51,55.375
		c0.586-0.586,0.586-1.414,0-2l-5.939-5.561c-0.429-0.429-0.824-0.558-1.385-0.325S43,48.268,43,48.875V52H26.5c-1,0-2,1-2,2
		S25.5,56,26.5,56z"/>
	<path fill="#231F20" d="M26.5,70H53v3.875c0,0.606,0.115,1.153,0.676,1.386s0.956,0.104,1.385-0.325L61,69.375
		c0.586-0.586,0.586-1.414,0-2l-5.939-5.561c-0.429-0.429-0.824-0.558-1.385-0.325S53,62.268,53,62.875V66H26.5c-1,0-2,1-2,2
		S25.5,70,26.5,70z"/>
</g>
</svg>
