<?xml version="1.0" encoding="utf-8"?>
<!-- Generator: Adobe Illustrator 16.0.0, SVG Export Plug-In . SVG Version: 6.00 Build 0)  -->
<!DOCTYPE svg PUBLIC "-//W3C//DTD SVG 1.1//EN" "http://www.w3.org/Graphics/SVG/1.1/DTD/svg11.dtd">
<svg version="1.1" id="Layer_1" xmlns="http://www.w3.org/2000/svg" xmlns:xlink="http://www.w3.org/1999/xlink" x="0px" y="0px"
	 width="150px" height="150px" viewBox="0 0 150 150" enable-background="new 0 0 150 150" xml:space="preserve">
<g>
	<path fill="#231F20" d="M68.939,29.935l6,6c0.586,0.586,1.535,0.586,2.121,0l6-6c0.429-0.429,0.558-1.261,0.325-1.822
		S82.606,27,82,27h-4v-9.625c0-1-1-2-2-2s-2,1-2,2V27h-4c-0.606,0-1.153,0.553-1.386,1.113S68.511,29.506,68.939,29.935z"/>
	<path fill="#231F20" d="M54.939,39.935l6,6c0.586,0.586,1.535,0.586,2.121,0l6-6c0.429-0.429,0.558-1.261,0.325-1.822
		S68.606,37,68,37h-4V17.375c0-1-1-2-2-2s-2,1-2,2V37h-4c-0.606,0-1.153,0.553-1.386,1.113S54.511,39.506,54.939,39.935z"/>
	<path fill="#231F20" d="M82.939,39.935l6,6c0.586,0.586,1.535,0.586,2.121,0l6-6c0.429-0.429,0.558-1.261,0.325-1.822
		S96.606,37,96,37h-4V17.375c0-1-1-2-2-2s-2,1-2,2V37h-4c-0.606,0-1.153,0.553-1.386,1.113S82.511,39.506,82.939,39.935z"/>
	<g>
		<path fill="#231F20" d="M79.242,135.875c-11.92,0-19.917-4.389-26.742-14.672c-6.131-9.236-4.354-21.171,1.074-26.104
			c1.571-1.428,2.792-2.229,3.599-2.668l-0.688-32.024c0-4.308,3.008-7.532,6.996-7.532c2.493,0,4.604,1.263,5.833,3.256
			l0.062-2.297c-0.001-3.885,3.019-6.959,6.874-6.959c3.785,0,6.75,3.075,6.75,7v2.484c1.342-1.504,3.327-2.484,5.5-2.484
			c3.859,0,7,3.14,7,7l-0.777,25.299c0.645-0.195,1.279-0.299,1.777-0.299c3.309,0,6,2.691,6,6c0,1.014-0.036,24.926-3.158,31.17
			C96.097,129.537,91.871,135.875,79.242,135.875z M57.248,95.949c-0.472,0.35-1.026,0.797-1.656,1.369
			c-5.843,5.311-4.253,16.711-0.592,22.227c6.283,9.469,13.307,13.33,24.242,13.33c10.941,0,14.36-5.059,17.416-11.172
			c2.331-4.662,2.842-23.113,2.842-29.828c0-1.654-1.346-3-3-3c-0.6,0-1.444,0.324-1.875,0.58c-0.025,1.086-0.114,3.637-0.126,3.973
			c-0.029,0.826-0.688,1.459-1.549,1.445c-0.826-0.026-1.294-0.718-1.269-1.545l0.91-32.5c-0.001-2.16-1.841-3.954-4.047-3.954
			c-2.264,0-4.272,1.869-4.272,4L83.01,85.701c-0.041,0.799-0.481,1.674-1.548,1.674S80,86.188,80,85.375v-31.5
			c0-2.28-1.612-4-3.75-4c-2.173,0-3.875,1.757-3.875,4l-0.938,34.541c-0.021,0.811-0.683,1.456-1.493,1.46
			c-0.804,0.018-1.477-0.639-1.505-1.449l-0.969-28c-0.001-2.219-1.249-4.552-3.989-4.552c-2.353,0-3.996,1.851-3.996,4.5
			l0.988,45.967c0.018,0.828-0.64,1.516-1.468,1.533c-0.85-0.023-1.515-0.641-1.532-1.469L57.248,95.949z"/>
	</g>
</g>
</svg>
