<?xml version="1.0" encoding="utf-8"?>
<!-- Generator: Adobe Illustrator 16.0.0, SVG Export Plug-In . SVG Version: 6.00 Build 0)  -->
<!DOCTYPE svg PUBLIC "-//W3C//DTD SVG 1.1//EN" "http://www.w3.org/Graphics/SVG/1.1/DTD/svg11.dtd">
<svg version="1.1" id="Layer_1" xmlns="http://www.w3.org/2000/svg" xmlns:xlink="http://www.w3.org/1999/xlink" x="0px" y="0px"
	 width="150px" height="150px" viewBox="0 0 150 150" enable-background="new 0 0 150 150" xml:space="preserve">
<g>
	<path fill="#231F20" d="M40.259,26.433c-1.78,2.512-3.427,5.066-4.938,7.649c-0.442,0.758-0.141,1.659,0.646,2.021
		c2.688,1.24,5.274,2.584,7.751,4.021c0.531,0.308,0.95,0.336,1.453-0.021c0.502-0.358,0.496-0.916,0.36-1.508
		c-0.262-1.137-0.523-2.273-0.785-3.41c17.562-4.042,35.919-3.444,53.245,1.79c1.025,0.309,2.358-0.309,2.672-1.258
		c0.313-0.95-0.44-2.248-1.515-2.571c-17.995-5.437-37.06-6.057-55.299-1.859c-0.337-1.462-0.673-2.924-1.009-4.386
		c-0.137-0.59-0.389-1.095-1.083-1.17C41.064,25.658,40.641,25.894,40.259,26.433z"/>
	<g>
		<path fill="#231F20" d="M86.596,125.199c-6.245,0-12.124-2.191-18.501-6.898c-8.921-6.582-11.334-18.404-7.92-24.898
			c0.989-1.879,1.862-3.049,2.47-3.738l-11.6-29.857c-1.474-4.047,0.249-8.105,3.997-9.47c2.306-0.84,4.769-0.392,6.593,1.057
			l-0.725-2.172c-1.329-3.649,0.457-7.572,4.079-8.891c0.755-0.274,1.532-0.413,2.312-0.413c2.867,0,5.39,1.837,6.425,4.681
			l0.851,2.336c0.746-1.873,2.277-3.473,4.317-4.216c0.773-0.281,1.578-0.424,2.394-0.424c2.932,0,5.576,1.852,6.579,4.606
			l7.922,24.04c0.539-0.404,1.1-0.718,1.567-0.889c0.663-0.241,1.353-0.363,2.053-0.363c2.513,0,4.778,1.587,5.638,3.949
			c0.348,0.953,8.492,23.435,7.694,30.373c-0.83,7.209-2.633,14.609-14.5,18.928C94.066,124.461,90.257,125.199,86.596,125.199z
			 M63.919,92.945c-0.324,0.49-0.692,1.102-1.088,1.854c-3.675,6.988,1.718,17.158,7.045,21.088
			c5.915,4.365,11.071,6.312,16.72,6.312c3.305,0,6.778-0.68,10.62-2.078c10.28-3.742,11.764-9.664,12.545-16.453
			c0.596-5.178-5.235-22.691-7.532-29.003c-0.55-1.509-2.317-2.347-3.846-1.793c-0.562,0.206-1.245,0.801-1.562,1.188
			c0.348,1.03,1.136,3.457,1.239,3.777c0.255,0.785-0.174,1.631-0.961,1.889c-0.784,0.256-1.632-0.172-1.891-0.957l-1.392-4.223
			v-0.001c-0.012-0.036-0.025-0.077-0.032-0.105l-0.001-0.001l-8.751-26.552c-0.559-1.531-2.069-2.59-3.745-2.59
			c-0.465,0-0.925,0.082-1.367,0.243c-2.127,0.773-3.354,3.21-2.625,5.213l7.229,23.522c0.239,0.777-0.186,1.604-0.957,1.863
			c-0.768,0.262-1.608-0.144-1.886-0.91L70.908,45.625c-0.762-2.088-2.898-3.201-4.893-2.475c-2.042,0.743-3.04,2.977-2.273,5.084
			l10.933,32.779c0.257,0.768-0.145,1.602-0.904,1.881c-0.759,0.281-1.605-0.092-1.909-0.846l-10.487-25.98
			c-0.908-2.492-3.104-3.718-5.305-2.913c-2.212,0.806-3.123,3.106-2.217,5.595l11.909,30.656c0.013,0.027,0.025,0.055,0.036,0.084
			l4.705,12.119c0.3,0.771-0.083,1.641-0.855,1.941c-0.773,0.299-1.642-0.084-1.941-0.855L63.919,92.945z"/>
	</g>
</g>
</svg>
