<?xml version="1.0" encoding="utf-8"?>
<!-- Generator: Adobe Illustrator 16.0.0, SVG Export Plug-In . SVG Version: 6.00 Build 0)  -->
<!DOCTYPE svg PUBLIC "-//W3C//DTD SVG 1.1//EN" "http://www.w3.org/Graphics/SVG/1.1/DTD/svg11.dtd">
<svg version="1.1" id="Layer_1" xmlns="http://www.w3.org/2000/svg" xmlns:xlink="http://www.w3.org/1999/xlink" x="0px" y="0px"
	 width="150px" height="150px" viewBox="0 0 150 150" enable-background="new 0 0 150 150" xml:space="preserve">
<g>
	<path fill="#231F20" d="M103.741,25.433c1.78,2.512,3.427,5.066,4.938,7.649c0.442,0.759,0.141,1.658-0.646,2.021
		c-2.688,1.24-5.274,2.584-7.751,4.021c-0.531,0.308-0.95,0.336-1.453-0.021c-0.503-0.358-0.496-0.916-0.36-1.508
		c0.262-1.137,0.523-2.273,0.785-3.41c-17.562-4.042-35.919-3.444-53.245,1.79c-1.025,0.309-2.358-0.31-2.672-1.258
		c-0.313-0.95,0.441-2.248,1.515-2.571c17.995-5.437,37.06-6.057,55.299-1.859c0.337-1.462,0.673-2.924,1.009-4.386
		c0.137-0.59,0.389-1.097,1.083-1.17C102.936,24.658,103.359,24.894,103.741,25.433z"/>
	<g>
		<path fill="#231F20" d="M72.187,126.879c-2.682,0-5.637-0.58-8.781-1.727c-11.202-4.076-17.218-10.936-20.112-22.932
			c-2.602-10.775,3.149-21.385,9.938-24.164c1.965-0.805,3.381-1.141,4.295-1.277l10.306-30.327
			c1.136-3.122,3.779-5.119,6.745-5.119c0.805,0,1.613,0.146,2.404,0.435c1.887,0.686,3.317,2.062,4.028,3.877
			c0.148,0.376,0.263,0.767,0.344,1.166l0.84-2.126c0.996-2.74,3.61-4.606,6.489-4.606c0.798,0,1.588,0.141,2.351,0.417
			c3.557,1.297,5.291,5.2,3.949,8.888l-0.849,2.332c1.758-0.944,4.046-1.169,6.017-0.451c3.627,1.321,5.504,5.347,4.184,8.973
			l-9.381,23.501c0.521,0.025,1.162,0.111,1.77,0.332c3.108,1.131,4.718,4.58,3.586,7.689c-0.347,0.955-8.558,23.412-13.628,28.211
			C82.989,123.467,78.83,126.879,72.187,126.879z M56.394,80.111c-0.562,0.166-1.236,0.398-2.026,0.723
			c-7.306,2.99-9.712,14.248-8.158,20.684c2.666,11.045,7.945,17.076,18.222,20.816c2.815,1.025,5.425,1.545,7.756,1.545
			c5.545,0,9.044-2.879,12.431-6.086c3.784-3.582,10.574-20.746,12.872-27.059c0.565-1.555-0.239-3.279-1.793-3.846
			c-0.497-0.18-1.519-0.176-1.959-0.092c-0.428,1.088-1.355,3.383-1.479,3.688c-0.31,0.764-1.181,1.141-1.95,0.828
			c-0.768-0.309-1.201-1.18-0.895-1.947L91,85.242V85.24c0-0.012,0.07-0.023,0.074-0.035L101.5,59.167
			c0.738-2.028-0.32-4.329-2.393-5.085c-0.461-0.167-0.941-0.253-1.444-0.253c-1.781,0-3.349,1.028-3.906,2.56l-9.579,22.666
			c-0.317,0.75-1.178,1.105-1.93,0.812c-0.757-0.299-1.139-1.146-0.859-1.91l10.774-29.599c0.779-2.143-0.148-4.311-2.157-5.043
			c-0.432-0.156-0.877-0.236-1.324-0.236c-1.647,0-3.094,1.048-3.685,2.67L72.302,77.887c-0.298,0.756-1.14,1.135-1.903,0.859
			c-0.763-0.273-1.169-1.104-0.919-1.875l8.666-26.643c0.453-1.244,0.472-2.466,0.07-3.488c-0.397-1.015-1.18-1.76-2.261-2.153
			c-2.184-0.79-4.421,0.462-5.295,2.862L60.08,78.586c-0.009,0.029-0.018,0.059-0.027,0.088l-4.186,12.309
			c-0.267,0.785-1.117,1.205-1.902,0.938c-0.784-0.268-1.204-1.119-0.938-1.902l0.003-0.01L56.394,80.111z"/>
	</g>
</g>
</svg>
