<?xml version="1.0" encoding="utf-8"?>
<!-- Generator: Adobe Illustrator 16.0.0, SVG Export Plug-In . SVG Version: 6.00 Build 0)  -->
<!DOCTYPE svg PUBLIC "-//W3C//DTD SVG 1.1//EN" "http://www.w3.org/Graphics/SVG/1.1/DTD/svg11.dtd">
<svg version="1.1" id="Layer_1" xmlns="http://www.w3.org/2000/svg" xmlns:xlink="http://www.w3.org/1999/xlink" x="0px" y="0px"
	 width="120px" height="120px" viewBox="0 0 120 120" enable-background="new 0 0 120 120" xml:space="preserve">
<g>
	<path fill="#231F20" d="M83.465,13.875c-5.612,0-10.432,3.444-12.466,8.328c-2.154-1.461-4.741-2.328-7.534-2.328
		c-0.06,0-0.118,0-0.178,0.001c-2.358-4.285-6.892-7.001-11.822-7.001c-4.577,0-8.812,2.315-11.297,6.108
		c-0.566-0.072-1.136-0.108-1.703-0.108c-7.444,0-13.5,6.056-13.5,13.5c0,4.984,2.719,9.338,6.748,11.674l0.46,21.382
		c-0.807,0.438-2.027,1.24-3.599,2.668c-5.429,4.935-7.205,16.868-1.074,26.104c6.825,10.283,14.822,14.672,26.742,14.672
		c12.629,0,16.854-6.338,20.1-12.83c3.122-6.244,3.158-30.156,3.158-31.17c0-3.309-2.691-6-6-6c-0.498,0-1.133,0.104-1.777,0.299
		l0.433-14.09c2.571-1.473,4.604-3.77,5.759-6.524c2.156,1.46,4.756,2.315,7.551,2.315c7.444,0,13.5-6.056,13.5-13.5
		S90.909,13.875,83.465,13.875z M71.5,61.875c1.654,0,3,1.346,3,3c0,6.715-0.511,25.166-2.842,29.828
		c-3.056,6.113-6.475,11.172-17.416,11.172c-10.936,0-17.959-3.861-24.242-13.33c-3.661-5.516-5.251-16.916,0.592-22.227
		c0.63-0.572,1.185-1.02,1.656-1.369l0.225,10.457c0.018,0.828,0.683,1.445,1.532,1.469c0.828-0.018,1.485-0.705,1.468-1.533
		l-0.988-45.967c0-2.649,1.644-4.5,3.996-4.5c2.74,0,3.988,2.333,3.989,4.552l0.969,28c0.028,0.811,0.701,1.467,1.505,1.449
		c0.811-0.004,1.472-0.649,1.493-1.46l0.505-18.566v0l0.117-4.322l0.316-11.652c0-2.243,1.702-4,3.875-4c2.138,0,3.75,1.72,3.75,4
		v12.689v4.307v14.504c0,0.813,0.396,2,1.462,2s1.507-0.874,1.548-1.673l0.647-12.726l0.056-1.096l0.56-11.005
		c0-2.131,2.009-4,4.272-4c2.206,0,4.046,1.794,4.047,3.954l-0.261,9.299l-0.04,1.455l-0.609,21.746
		c-0.025,0.827,0.442,1.519,1.269,1.545c0.86,0.014,1.52-0.619,1.549-1.445c0.012-0.336,0.101-2.887,0.126-3.973
		C70.056,62.199,70.9,61.875,71.5,61.875z M83.465,37.875c-5.79,0-10.5-4.71-10.5-10.5s4.71-10.5,10.5-10.5s10.5,4.71,10.5,10.5
		S89.255,37.875,83.465,37.875z"/>
	<path fill="#231F20" d="M90,26h-5v-4.625c0-0.829-0.672-1.5-1.5-1.5s-1.5,0.671-1.5,1.5v6.5C82,28.703,82.672,29,83.5,29H90
		c0.828,0,1.5-0.671,1.5-1.5S90.828,26,90,26z"/>
</g>
</svg>
