<?xml version="1.0" encoding="utf-8"?>
<!-- Generator: Adobe Illustrator 16.0.0, SVG Export Plug-In . SVG Version: 6.00 Build 0)  -->
<!DOCTYPE svg PUBLIC "-//W3C//DTD SVG 1.1//EN" "http://www.w3.org/Graphics/SVG/1.1/DTD/svg11.dtd">
<svg version="1.1" id="Layer_1" xmlns="http://www.w3.org/2000/svg" xmlns:xlink="http://www.w3.org/1999/xlink" x="0px" y="0px"
	 width="120px" height="120px" viewBox="0 0 120 120" enable-background="new 0 0 120 120" xml:space="preserve">
<g>
	<path fill="#231F20" d="M99.641,26.106l-3-2.5c-0.299-0.249-0.715-0.302-1.064-0.138C95.225,23.633,95,23.986,95,24.375V25h-4v-4h1
		c0.388,0,0.741-0.037,0.905-0.389c0.165-0.352,0.111-0.673-0.137-0.971l-2.5-2.953c-0.381-0.456-1.156-0.433-1.537,0.023
		l-2.5,3.012c-0.248,0.298-0.302,0.532-0.137,0.883C86.259,20.957,86.612,21,87,21h1v4h-4v-0.625c0-0.388-0.225-0.741-0.576-0.906
		c-0.349-0.163-0.765-0.11-1.064,0.138l-3,2.5C79.132,26.296,79,26.578,79,26.875s0.132,0.578,0.359,0.768l3,2.5
		c0.184,0.153,0.411,0.232,0.641,0.232c0.144,0,0.289-0.031,0.424-0.094C83.775,30.116,84,29.763,84,29.375V28h4v4h-1
		c-0.388,0-0.741,0.412-0.905,0.763c-0.165,0.352-0.111,0.86,0.137,1.158l2.5,3.047c0.19,0.228,0.472,0.383,0.769,0.383
		s0.578-0.12,0.769-0.348l2.5-2.994c0.248-0.298,0.302-0.897,0.137-1.249C92.741,32.409,92.388,32,92,32h-1v-4h4v1.375
		c0,0.388,0.225,0.741,0.576,0.906c0.135,0.063,0.279,0.094,0.424,0.094c0.229,0,0.457-0.079,0.641-0.232l3-2.5
		c0.228-0.19,0.359-0.471,0.359-0.768S99.868,26.296,99.641,26.106z"/>
	<path fill="#231F20" d="M70.5,57.875c-0.498,0-1.133,0.104-1.777,0.299l0.433-14.09c4.063-2.328,6.81-6.7,6.81-11.709
		c0-7.444-6.056-13.5-13.5-13.5c-0.06,0-0.118,0-0.178,0.001c-2.358-4.285-6.892-7.001-11.822-7.001
		c-4.577,0-8.812,2.315-11.297,6.108c-0.566-0.072-1.136-0.108-1.703-0.108c-7.444,0-13.5,6.056-13.5,13.5
		c0,4.984,2.719,9.338,6.748,11.674l0.46,21.382c-0.807,0.438-2.027,1.24-3.599,2.668c-5.429,4.935-7.205,16.868-1.074,26.104
		c6.825,10.283,14.822,14.672,26.742,14.672c12.629,0,16.854-6.338,20.1-12.83c3.122-6.244,3.158-30.156,3.158-31.17
		C76.5,60.566,73.809,57.875,70.5,57.875z M70.658,93.703c-3.056,6.113-6.475,11.172-17.416,11.172
		c-10.936,0-17.959-3.861-24.242-13.33c-3.661-5.516-5.251-16.916,0.592-22.227c0.63-0.572,1.185-1.02,1.656-1.369l0.225,10.457
		c0.018,0.828,0.683,1.445,1.532,1.469c0.828-0.018,1.485-0.705,1.468-1.533l-0.988-45.967c0-2.649,1.644-4.5,3.996-4.5
		c2.74,0,3.988,2.333,3.989,4.552l0.969,28c0.028,0.81,0.701,1.466,1.505,1.449c0.811-0.004,1.472-0.649,1.493-1.46l0.505-18.566v0
		l0.117-4.322l0.316-11.652c0-2.243,1.702-4,3.875-4c2.138,0,3.75,1.72,3.75,4v12.689v4.307v14.504c0,0.813,0.396,2,1.462,2
		s1.507-0.874,1.548-1.673l0.647-12.726l0,0l0.056-1.096l0.56-11.005c0-2.131,2.009-4,4.272-4c2.206,0,4.046,1.794,4.047,3.954
		l-0.261,9.299l0,0l-0.04,1.455l-0.609,21.746c-0.025,0.827,0.442,1.519,1.269,1.545c0.86,0.014,1.52-0.619,1.549-1.445
		c0.012-0.336,0.101-2.887,0.126-3.973c0.431-0.256,1.275-0.581,1.875-0.581c1.654,0,3,1.346,3,3
		C73.5,70.59,72.989,89.041,70.658,93.703z"/>
</g>
</svg>
