<?xml version="1.0" encoding="utf-8"?>
<!-- Generator: Adobe Illustrator 16.0.0, SVG Export Plug-In . SVG Version: 6.00 Build 0)  -->
<!DOCTYPE svg PUBLIC "-//W3C//DTD SVG 1.1//EN" "http://www.w3.org/Graphics/SVG/1.1/DTD/svg11.dtd">
<svg version="1.1" id="Layer_1" xmlns="http://www.w3.org/2000/svg" xmlns:xlink="http://www.w3.org/1999/xlink" x="0px" y="0px"
	 width="120px" height="120px" viewBox="0 0 120 120" enable-background="new 0 0 120 120" xml:space="preserve">
<path fill="#231F20" d="M81.5,58.875c-0.498,0-1.133,0.104-1.777,0.299l0.433-14.09c4.063-2.328,6.81-6.7,6.81-11.709
	c0-7.444-6.056-13.5-13.5-13.5c-0.06,0-0.118,0-0.178,0.001c-2.358-4.285-6.892-7.001-11.822-7.001
	c-4.577,0-8.812,2.315-11.297,6.108c-0.566-0.072-1.136-0.108-1.703-0.108c-7.444,0-13.5,6.056-13.5,13.5
	c0,4.984,2.719,9.338,6.748,11.674l0.46,21.382c-0.807,0.438-2.027,1.24-3.599,2.668c-5.429,4.934-7.205,16.868-1.074,26.104
	c6.825,10.283,14.822,14.672,26.742,14.672c12.629,0,16.854-6.338,20.1-12.83c3.122-6.244,3.158-30.156,3.158-31.17
	C87.5,61.566,84.809,58.875,81.5,58.875z M37.965,32.375c0-5.79,4.71-10.5,10.5-10.5c0.72,0,1.445,0.075,2.157,0.224
	c0.648,0.135,1.306-0.17,1.623-0.749c1.845-3.377,5.378-5.475,9.22-5.475c4.104,0,7.856,2.423,9.558,6.174
	c0.264,0.582,0.878,0.935,1.5,0.875c0.311-0.028,0.624-0.048,0.942-0.048c5.79,0,10.5,4.71,10.5,10.5
	c0,3.191-1.438,6.046-3.694,7.971l0.229-7.471c0-3.86-3.141-7-7-7c-2.173,0-4.158,0.979-5.5,2.484v-2.484c0-3.925-2.965-7-6.75-7
	c-3.855,0-6.875,3.075-6.874,6.959l-0.062,2.297c-1.229-1.993-3.34-3.256-5.833-3.256c-3.988,0-6.996,3.224-6.996,7.532l0.148,6.916
	C39.393,38.398,37.965,35.554,37.965,32.375z M81.658,94.703c-3.056,6.113-6.475,11.172-17.416,11.172
	c-10.936,0-17.959-3.861-24.242-13.33c-3.661-5.516-5.251-16.916,0.592-22.227c0.63-0.572,1.185-1.02,1.656-1.369l0.225,10.457
	c0.018,0.828,0.683,1.445,1.532,1.469c0.828-0.018,1.485-0.705,1.468-1.533l-0.988-45.967c0-2.649,1.644-4.5,3.996-4.5
	c2.74,0,3.988,2.333,3.989,4.552l0.969,28c0.028,0.811,0.701,1.467,1.505,1.449c0.811-0.004,1.472-0.649,1.493-1.46l0.505-18.566v0
	l0.117-4.322l0.316-11.652c0-2.243,1.702-4,3.875-4c2.138,0,3.75,1.72,3.75,4v12.689v4.307v14.504c0,0.813,0.396,2,1.462,2
	s1.507-0.874,1.548-1.673l0.647-12.726l0,0l0.056-1.096l0.56-11.005c0-2.131,2.009-4,4.272-4c2.206,0,4.046,1.794,4.047,3.954
	l-0.261,9.299l0,0l-0.04,1.455l-0.609,21.746c-0.025,0.827,0.442,1.519,1.269,1.545c0.86,0.014,1.52-0.619,1.549-1.445
	c0.012-0.336,0.101-2.887,0.126-3.973c0.431-0.256,1.275-0.58,1.875-0.58c1.654,0,3,1.346,3,3
	C84.5,71.59,83.989,90.041,81.658,94.703z"/>
</svg>
