<?xml version="1.0" encoding="UTF-8" standalone="no"?>
<!-- Generator: Adobe Illustrator 16.0.0, SVG Export Plug-In . SVG Version: 6.00 Build 0)  -->

<svg
   xmlns:dc="http://purl.org/dc/elements/1.1/"
   xmlns:cc="http://creativecommons.org/ns#"
   xmlns:rdf="http://www.w3.org/1999/02/22-rdf-syntax-ns#"
   xmlns:svg="http://www.w3.org/2000/svg"
   xmlns="http://www.w3.org/2000/svg"
   xmlns:sodipodi="http://sodipodi.sourceforge.net/DTD/sodipodi-0.dtd"
   xmlns:inkscape="http://www.inkscape.org/namespaces/inkscape"
   version="1.1"
   id="Layer_1"
   x="0px"
   y="0px"
   width="100px"
   height="100px"
   viewBox="0 0 100 100"
   enable-background="new 0 0 100 100"
   xml:space="preserve"
   inkscape:version="0.91 r13725"
   sodipodi:docname="RightHand-5.svg"><metadata
     id="metadata9"><rdf:RDF><cc:Work
         rdf:about=""><dc:format>image/svg+xml</dc:format><dc:type
           rdf:resource="http://purl.org/dc/dcmitype/StillImage" /><dc:title></dc:title></cc:Work></rdf:RDF></metadata><defs
     id="defs7" /><sodipodi:namedview
     pagecolor="#ffffff"
     bordercolor="#666666"
     borderopacity="1"
     objecttolerance="10"
     gridtolerance="10"
     guidetolerance="10"
     inkscape:pageopacity="0"
     inkscape:pageshadow="2"
     inkscape:window-width="1282"
     inkscape:window-height="1061"
     id="namedview5"
     showgrid="false"
     inkscape:zoom="9.44"
     inkscape:cx="47.154873"
     inkscape:cy="48.549015"
     inkscape:window-x="545"
     inkscape:window-y="149"
     inkscape:window-maximized="0"
     inkscape:current-layer="Layer_1" /><path
     style="opacity:0.99999999;fill:#89a02c;fill-opacity:1;stroke:none"
     d="M 54.304688 8.875 C 53.761688 8.875 53.249578 8.9857813 52.787109 9.1855469 C 52.324641 9.3853125 51.911531 9.6733906 51.566406 10.033203 C 51.221281 10.393016 50.944875 10.824547 50.753906 11.304688 C 50.562938 11.784828 50.457031 12.31425 50.457031 12.875 L 49.595703 47.662109 C 49.585203 48.067609 49.388922 48.495641 49.107422 48.822266 C 48.825922 49.148891 48.458828 49.375 48.111328 49.375 C 47.763828 49.375 47.394875 49.153203 47.109375 48.830078 C 46.823875 48.506953 46.621922 48.083188 46.607422 47.679688 L 45.609375 19.554688 C 45.609125 18.878937 45.507609 18.252813 45.316406 17.693359 C 45.125203 17.133906 44.84525 16.640484 44.492188 16.232422 C 44.139125 15.824359 43.712391 15.500875 43.226562 15.279297 C 42.740734 15.057719 42.194969 14.9375 41.605469 14.9375 C 41.015969 14.9375 40.472141 15.051734 39.986328 15.263672 C 39.500516 15.475609 39.073703 15.786688 38.720703 16.179688 C 38.367703 16.572688 38.087547 17.046656 37.896484 17.589844 C 37.705422 18.133031 37.603516 18.74375 37.603516 19.40625 L 38.587891 65.359375 C 38.594391 65.668875 38.505375 65.961406 38.34375 66.207031 C 38.182125 66.452656 37.946156 66.651531 37.660156 66.769531 C 37.375156 66.888531 37.068672 66.911109 36.779297 66.849609 C 36.489922 66.788109 36.219359 66.642922 36.005859 66.419922 L 27.613281 57.675781 C 27.132281 57.193781 26.567344 56.816797 25.949219 56.560547 C 25.331094 56.304297 24.661203 56.167969 23.970703 56.167969 C 23.280703 56.167969 22.609406 56.302297 21.988281 56.560547 C 21.367156 56.818797 20.796188 57.201359 20.304688 57.693359 C 19.811188 58.186359 19.427016 58.759891 19.166016 59.384766 C 18.905016 60.009641 18.767172 60.685359 18.763672 61.380859 C 18.760672 62.076359 18.892687 62.750547 19.148438 63.373047 C 19.404188 63.995547 19.783437 64.566141 20.273438 65.056641 C 20.381438 65.173641 25.542875 70.933453 32.921875 78.314453 L 34.150391 79.546875 C 35.862891 81.268625 37.485578 82.900328 39.126953 84.378906 C 40.768328 85.857484 42.428547 87.182406 44.216797 88.292969 C 46.005047 89.403531 47.921094 90.300266 50.074219 90.917969 C 51.150781 91.22682 52.285484 91.464725 53.494141 91.626953 C 54.702797 91.789182 55.985516 91.875 57.353516 91.875 C 58.721141 91.875 59.970643 91.796756 61.117188 91.646484 C 62.263732 91.496213 63.306336 91.27318 64.259766 90.988281 C 65.213195 90.703383 66.076955 90.355053 66.865234 89.951172 C 67.653514 89.547291 68.366484 89.08925 69.017578 88.582031 C 70.319766 87.567594 71.375641 86.361266 72.296875 85.027344 C 73.218109 83.693422 74.005531 82.231375 74.769531 80.703125 C 75.392781 79.456625 75.880078 78.248859 76.271484 76.988281 C 76.662891 75.727703 76.957891 74.413594 77.197266 72.957031 C 77.676016 70.043906 77.929797 66.558031 78.279297 61.769531 C 78.381297 60.378531 78.490234 58.880766 78.615234 57.259766 C 79.573234 44.804766 80.532328 32.808313 80.611328 31.820312 C 80.596828 31.005313 80.254766 30.269078 79.712891 29.736328 C 79.171016 29.203578 78.429328 28.873047 77.611328 28.873047 C 76.784328 28.873047 76.033484 29.210656 75.490234 29.753906 C 74.946984 30.297156 74.611328 31.046047 74.611328 31.873047 C 74.611328 31.922047 74.608516 31.971531 74.603516 32.019531 L 72.603516 52.519531 C 72.564516 52.922031 72.365297 53.268516 72.076172 53.509766 C 71.787047 53.751016 71.409125 53.886594 71.015625 53.871094 C 70.611625 53.845594 70.253 53.663016 70 53.384766 C 69.747 53.106516 69.598328 52.732625 69.611328 52.328125 L 70.611328 19.828125 C 70.611078 19.288125 70.499672 18.772719 70.296875 18.300781 C 70.094078 17.828844 69.799688 17.402219 69.4375 17.042969 C 69.075312 16.683719 68.644438 16.391391 68.166016 16.189453 C 67.687594 15.987516 67.162828 15.875 66.611328 15.875 C 66.045328 15.875 65.49675 15.992656 64.992188 16.201172 C 64.487625 16.409688 64.026469 16.709359 63.636719 17.076172 C 63.246969 17.442984 62.928594 17.876672 62.707031 18.351562 C 62.485469 18.826453 62.361328 19.34225 62.361328 19.875 L 61.109375 44.701172 C 61.088875 45.101172 60.904297 45.519391 60.623047 45.837891 C 60.341797 46.156391 59.963141 46.375 59.556641 46.375 C 59.149641 46.375 58.760156 46.078062 58.472656 45.679688 C 58.185156 45.281313 58 44.7815 58 44.375 L 58 12.875 C 58 12.305 57.902031 11.770938 57.722656 11.289062 C 57.543281 10.807187 57.283328 10.377031 56.955078 10.019531 C 56.626828 9.6620313 56.231781 9.3765625 55.785156 9.1796875 C 55.338531 8.9828125 54.839188 8.875 54.304688 8.875 z "
     id="path3349" /><path
     d="M57.353,94.875c-12.191,0-18.28-6.123-25.33-13.213L30.8,80.436c-7.443-7.443-12.654-13.262-12.706-13.318  c-3.134-3.131-3.119-8.338,0.089-11.545c1.55-1.551,3.605-2.404,5.787-2.404c2.183,0,4.238,0.854,5.788,2.404l5.747,5.988  l-0.902-42.154c0-4.308,3.011-7.532,7.004-7.532c2.483,0,4.587,1.247,5.822,3.219l0.057-2.257c0-3.887,2.964-6.962,6.819-6.962  c3.785,0,6.695,3.075,6.695,7v2.483c1-1.504,3.383-2.483,5.555-2.483c3.859,0,7.028,3.141,7.028,7l-0.225,7.757  c1.086-1.085,2.592-1.757,4.245-1.757c3.309,0,6.003,2.691,6.003,6c0,0.04,0,0.08-0.003,0.119c0,0-0.999,12.499-1.999,25.497  c-0.124,1.617-0.231,3.109-0.333,4.496c-0.729,9.984-1.061,14.541-3.819,20.059C74.207,88.537,69.981,94.875,57.353,94.875z   M23.97,56.168c-1.38,0-2.683,0.541-3.666,1.525c-0.987,0.986-1.534,2.297-1.541,3.688c-0.006,1.391,0.53,2.695,1.51,3.676  c0.108,0.117,5.269,5.877,12.648,13.258l1.229,1.232c6.85,6.887,12.259,12.328,23.203,12.328c10.941,0,14.36-5.059,17.416-11.172  c2.493-4.986,2.812-9.357,3.511-18.934c0.102-1.391,0.211-2.889,0.336-4.51c0.958-12.455,1.916-24.451,1.995-25.439  c-0.029-1.63-1.364-2.946-3-2.946c-1.654,0-3,1.346-3,3c0,0.049-0.002,0.098-0.007,0.146l-2,20.5  c-0.078,0.805-0.802,1.383-1.589,1.352c-0.808-0.051-1.429-0.734-1.403-1.543l1-32.5c-0.001-2.16-1.795-3.954-4.001-3.954  c-2.264,0-4.25,1.869-4.25,4l-1.252,24.826c-0.041,0.8-0.739,1.674-1.552,1.674c-0.814,0-1.557-1.187-1.557-2v-31.5  c0-2.28-1.557-4-3.695-4c-2.172,0-3.847,1.757-3.847,4l-0.862,34.788c-0.021,0.811-0.789,1.712-1.484,1.712  s-1.475-0.889-1.504-1.696l-0.998-28.125c-0.001-2.703-1.646-4.616-4.004-4.616s-4.003,1.819-4.003,4.469l0.984,45.952  c0.013,0.619-0.354,1.174-0.926,1.41c-0.57,0.238-1.229,0.096-1.656-0.35l-8.391-8.744C26.652,56.711,25.351,56.168,23.97,56.168z"
     id="path3"
     fill="#231F20"
     style="stroke:#151518;stroke-opacity:1;stroke-width:1;stroke-miterlimit:4;stroke-dasharray:none;fill:#ffffff;fill-opacity:1" /></svg>