<?xml version="1.0" encoding="utf-8"?>
<!-- Generator: Adobe Illustrator 16.0.0, SVG Export Plug-In . SVG Version: 6.00 Build 0)  -->
<!DOCTYPE svg PUBLIC "-//W3C//DTD SVG 1.1//EN" "http://www.w3.org/Graphics/SVG/1.1/DTD/svg11.dtd">
<svg version="1.1" id="Layer_1" xmlns="http://www.w3.org/2000/svg" xmlns:xlink="http://www.w3.org/1999/xlink" x="0px" y="0px"
	 width="150px" height="150px" viewBox="0 0 150 150" enable-background="new 0 0 150 150" xml:space="preserve">
<g>
	<path fill="#231F20" d="M22.461,99.713c2.513,1.781,5.066,3.428,7.649,4.939c0.759,0.441,1.658,0.141,2.021-0.646
		c1.24-2.689,2.584-5.275,4.021-7.752c0.308-0.531,0.336-0.949-0.021-1.453c-0.358-0.502-0.916-0.496-1.508-0.359
		c-1.137,0.262-2.273,0.523-3.41,0.785c-4.042-17.562-3.444-35.919,1.79-53.246c0.309-1.025-0.309-2.358-1.258-2.672
		c-0.95-0.313-2.248,0.441-2.57,1.515c-5.438,17.995-6.058,37.059-1.86,55.299c-1.462,0.336-2.924,0.672-4.386,1.008
		c-0.59,0.137-1.096,0.389-1.17,1.084C21.686,98.908,21.923,99.332,22.461,99.713z"/>
	<g>
		<path fill="#231F20" d="M80.146,113.111c-3.179,0-6.104-1.871-7.454-4.766c-0.927-1.984-1.026-4.209-0.28-6.26
			c0.747-2.051,2.252-3.689,4.238-4.615l7.594-3.352L44.325,80.547c-4.048-1.473-6.049-5.404-4.683-9.156
			c0.837-2.302,2.688-3.886,5.006-4.376l-2.092-0.821c-1.72-0.625-3.126-1.882-3.925-3.525c-0.811-1.67-0.905-3.558-0.265-5.315
			c0.972-2.675,3.461-4.402,6.343-4.402c0.858,0,1.714,0.152,2.542,0.454l2.34,0.851c-0.103-0.19-0.198-0.388-0.285-0.591
			c-0.739-1.72-0.802-3.698-0.172-5.429c1.002-2.756,3.646-4.607,6.578-4.607c0.815,0,1.621,0.143,2.394,0.424l7.203,2.876
			c-0.676-1.451-0.746-3.078-0.198-4.582c0.861-2.363,3.128-3.95,5.64-3.95c0.699,0,1.39,0.122,2.051,0.363
			c0.038,0.014,0.075,0.028,0.111,0.045c0.001,0,11.401,5.214,23.274,10.6c1.473,0.668,2.836,1.28,4.102,1.848
			c9.138,4.102,13.309,5.974,17.553,10.454c4.99,5.271,9.5,11.409,5.18,23.275c-4.169,11.457-12.003,15.082-21.073,19.281
			l-1.576,0.732c-9.541,4.451-16.791,7.355-16.863,7.385C82.498,112.854,81.341,113.111,80.146,113.111z M46.21,69.855
			c-1.764,0-3.165,0.958-3.749,2.562c-0.394,1.084-0.326,2.165,0.195,3.127c0.524,0.968,1.471,1.74,2.664,2.175l43.532,14.799
			c0.586,0.197,0.989,0.736,1.017,1.354c0.026,0.617-0.328,1.189-0.894,1.438l-11.086,4.893c-1.231,0.576-2.186,1.613-2.658,2.912
			c-0.473,1.297-0.408,2.705,0.18,3.965c0.859,1.842,2.718,3.033,4.735,3.033c0.752,0,1.482-0.164,2.171-0.484
			c0.149-0.062,7.327-2.939,16.787-7.352l1.583-0.736c8.812-4.078,15.772-7.301,19.516-17.584
			c3.742-10.281,0.158-15.225-4.539-20.187c-3.836-4.05-7.837-5.845-16.604-9.779c-1.27-0.569-2.636-1.183-4.112-1.853
			C83.57,46.975,72.627,41.972,71.726,41.56c-1.518-0.521-3.252,0.318-3.796,1.812c-0.273,0.752-0.237,1.566,0.102,2.293
			c0.338,0.727,0.939,1.276,1.691,1.55c0.046,0.018,0.091,0.036,0.135,0.058l18.58,8.893c0.729,0.349,1.051,1.214,0.727,1.955
			c-0.324,0.739-1.177,1.089-1.931,0.791L57.036,46.855c-0.398-0.146-0.858-0.227-1.323-0.227c-1.676,0-3.187,1.058-3.76,2.633
			c-0.371,1.021-0.331,2.193,0.109,3.219c0.442,1.028,1.222,1.79,2.195,2.145l22.665,9.58c0.749,0.317,1.109,1.174,0.812,1.931
			c-0.299,0.758-1.147,1.138-1.909,0.86l-29.6-10.772c-0.498-0.181-1.009-0.272-1.517-0.272c-1.63,0-2.979,0.93-3.523,2.428
			c-0.36,0.988-0.309,2.047,0.144,2.979c0.456,0.938,1.269,1.659,2.288,2.029l32.156,12.636c0.754,0.297,1.137,1.139,0.863,1.902
			s-1.104,1.17-1.874,0.922L48.11,70.21C47.442,69.968,46.82,69.855,46.21,69.855z"/>
	</g>
</g>
</svg>
