<?xml version="1.0" encoding="utf-8"?>
<!-- Generator: Adobe Illustrator 16.0.0, SVG Export Plug-In . SVG Version: 6.00 Build 0)  -->
<!DOCTYPE svg PUBLIC "-//W3C//DTD SVG 1.1//EN" "http://www.w3.org/Graphics/SVG/1.1/DTD/svg11.dtd">
<svg version="1.1" id="Layer_1" xmlns="http://www.w3.org/2000/svg" xmlns:xlink="http://www.w3.org/1999/xlink" x="0px" y="0px"
	 width="150px" height="150px" viewBox="0 0 150 150" enable-background="new 0 0 150 150" xml:space="preserve">
<g>
	<path fill="#231F20" d="M40.259,27.433c-1.78,2.512-3.427,5.066-4.938,7.649c-0.442,0.758-0.141,1.659,0.646,2.021
		c2.688,1.24,5.274,2.584,7.751,4.021c0.531,0.308,0.95,0.336,1.453-0.021c0.502-0.358,0.496-0.916,0.36-1.508
		c-0.262-1.137-0.523-2.273-0.785-3.41c17.562-4.042,35.919-3.444,53.245,1.79c1.025,0.309,2.358-0.309,2.672-1.258
		c0.313-0.95-0.44-2.248-1.515-2.571c-17.995-5.437-37.06-6.057-55.299-1.859c-0.337-1.462-0.673-2.924-1.009-4.386
		c-0.137-0.59-0.389-1.095-1.083-1.17C41.064,26.658,40.641,26.894,40.259,27.433z"/>
	<g>
		<path fill="#231F20" d="M88.575,125.395c-6.688,0-12.458-2.709-18.566-5.578l-1.567-0.734c-9.541-4.449-16.428-8.135-16.496-8.17
			c-1.911-0.889-3.414-2.537-4.155-4.605c-0.739-2.059-0.636-4.287,0.291-6.273c1.339-2.875,4.248-4.732,7.409-4.732
			c1.201,0,2.368,0.26,3.468,0.773l7.448,3.66L51.142,60.433c-0.696-1.912-0.703-3.89-0.03-5.596
			c0.716-1.813,2.148-3.19,4.034-3.877c2.295-0.836,4.749-0.4,6.572,1.028l-0.717-2.136c-0.627-1.72-0.568-3.605,0.178-5.273
			c0.757-1.694,2.143-2.98,3.901-3.62c0.753-0.274,1.531-0.414,2.312-0.414c2.867,0,5.39,1.839,6.424,4.684l0.852,2.339
			c0.081-0.201,0.171-0.401,0.271-0.599c0.842-1.672,2.317-2.992,4.048-3.621c0.771-0.281,1.577-0.424,2.393-0.424
			c2.932,0,5.576,1.852,6.579,4.606l2.429,7.371c0.649-1.392,1.828-2.535,3.381-3.101c0.663-0.241,1.353-0.363,2.053-0.363
			c2.513,0,4.778,1.587,5.639,3.948c0.014,0.038,0.026,0.076,0.037,0.114c0,0.001,3.334,12.087,6.84,24.642
			c0.436,1.561,0.844,2.998,1.223,4.334c2.731,9.635,3.978,14.031,3.273,20.162c-0.83,7.211-2.633,14.611-14.501,18.93
			C94.953,124.797,91.762,125.395,88.575,125.395z M55.49,98.301c-2,0-3.841,1.178-4.69,3c-0.59,1.266-0.656,2.684-0.187,3.992
			s1.42,2.352,2.675,2.938c0.143,0.074,6.961,3.721,16.421,8.133l1.575,0.738c6.049,2.84,11.272,5.293,17.291,5.293
			c2.831,0,5.687-0.537,8.729-1.645c10.281-3.742,11.765-9.666,12.546-16.455c0.637-5.539-0.56-9.758-3.18-19
			c-0.38-1.34-0.788-2.781-1.225-4.346c-3.359-12.029-6.561-23.626-6.826-24.586c-0.568-1.479-2.317-2.289-3.827-1.743
			c-1.554,0.566-2.358,2.291-1.793,3.846c0.017,0.045,0.031,0.092,0.044,0.139l5.132,19.949c0.201,0.783-0.255,1.586-1.031,1.812
			c-0.776,0.225-1.595-0.201-1.847-0.969L85.123,48.514c-0.559-1.531-2.069-2.59-3.745-2.59c-0.465,0-0.925,0.081-1.366,0.242
			c-1.021,0.371-1.894,1.156-2.396,2.153c-0.504,0.999-0.586,2.085-0.231,3.059l7.229,23.522c0.239,0.777-0.186,1.603-0.957,1.863
			c-0.767,0.262-1.608-0.145-1.886-0.91l-10.774-29.6c-0.761-2.091-2.902-3.204-4.891-2.477c-0.989,0.36-1.767,1.079-2.189,2.026
			c-0.426,0.952-0.456,2.039-0.085,3.058l10.99,32.755c0.258,0.768-0.142,1.604-0.901,1.885c-0.762,0.279-1.605-0.094-1.911-0.844
			l-10.517-25.97c-0.896-2.462-3.136-3.7-5.321-2.909c-1.083,0.395-1.868,1.142-2.27,2.159c-0.404,1.024-0.388,2.245,0.047,3.438
			l16.646,42.86c0.224,0.576,0.071,1.23-0.385,1.648c-0.455,0.418-1.121,0.512-1.676,0.24l-10.874-5.346
			C56.99,98.467,56.25,98.301,55.49,98.301z"/>
	</g>
</g>
</svg>
