<?xml version="1.0" encoding="utf-8"?>
<!-- Generator: Adobe Illustrator 16.0.0, SVG Export Plug-In . SVG Version: 6.00 Build 0)  -->
<!DOCTYPE svg PUBLIC "-//W3C//DTD SVG 1.1//EN" "http://www.w3.org/Graphics/SVG/1.1/DTD/svg11.dtd">
<svg version="1.1" id="Layer_1" xmlns="http://www.w3.org/2000/svg" xmlns:xlink="http://www.w3.org/1999/xlink" x="0px" y="0px"
	 width="150px" height="150px" viewBox="0 0 150 150" enable-background="new 0 0 150 150" xml:space="preserve">
<g>
	<g>
		<path fill="#231F20" d="M56.086,98.289c-1.015,0-24.926-0.037-31.171-3.158c-6.491-3.246-12.829-7.471-12.829-20.1
			c0-10.966,5.21-20.463,14.671-26.742c3.772-2.504,8.209-3.828,12.829-3.828c5.44,0,10.527,1.879,13.276,4.903
			c1.447,1.593,2.252,2.87,2.69,3.722l4.021-0.033c4.358,0,7.513,2.85,7.513,6.775c0,1.506-0.445,2.822-1.25,3.871
			c3.426,1.045,5.25,4.445,5.25,7.676c0,3.011-1.911,5.584-4.584,6.571c0.989,1.207,1.584,2.75,1.584,4.43
			c0,3.68-2.854,6.705-6.466,6.979c0.327,1.053,0.466,2.074,0.466,2.479C62.086,95.271,59.282,98.289,56.086,98.289z M39.586,47.46
			c-2.809,0-7.027,0.578-11.171,3.328c-8.596,5.704-13.329,14.314-13.329,24.242c0,10.942,5.059,14.36,11.171,17.417
			c4.661,2.33,23.112,2.842,29.829,2.842c1.542,0,3-1.867,3-3.645c0-0.699-0.386-1.645-0.678-2.645h-3.822
			c-0.828,0-1.5-0.672-1.5-1.5s0.672-1.5,1.5-1.5h6.5c2.206,0,4-1.795,4-4c0-2.207-1.794-4-4-4h-2.5c-0.828,0-1.5-0.672-1.5-1.5
			s0.672-1.5,1.5-1.5h5.5c2.206,0,4-1.794,4-4c0-2.01-1.198-5-4.5-5h-4c-0.828,0-1.5-0.484-1.5-1.312s0.672-1.407,1.5-1.407
			c2.176,0,4.5-0.885,4.5-3.5c0-2.608-2.26-3.752-4.5-3.752l-4.708,0.051c-0.093,0.021-0.188-0.065-0.286-0.064L41.595,56
			c-0.003,0-0.006,0-0.009,0c-0.823,0-1.494-0.562-1.5-1.388c-0.006-0.827,0.66-1.454,1.487-1.46l10.479-0.062
			c-0.354-0.495-0.813-1.063-1.411-1.721C48.478,48.987,44.138,47.46,39.586,47.46z"/>
	</g>
	<g>
		<path fill="#231F20" d="M93.086,98.289c-3.309,0-6-2.672-6-5.957c0-0.504,0.12-1.238,0.356-1.986
			c-3.56-0.326-6.356-3.328-6.356-6.971c0-1.68,0.595-3.223,1.584-4.43c-2.673-0.986-4.584-3.56-4.584-6.571
			c0-3.302,1.905-6.78,5.479-7.741c-0.936-1.175-1.479-2.657-1.479-4.306c0-4.005,3.225-7.025,7.5-7.025l3.938-0.021
			c0.411-0.844,1.227-2.201,2.785-3.917c2.749-3.024,7.836-4.903,13.276-4.903c4.62,0,9.057,1.324,12.829,3.828
			c9.461,6.279,14.671,15.776,14.671,26.742c0,12.629-6.338,16.854-12.829,20.1C118.012,98.252,94.101,98.289,93.086,98.289z
			 M90.678,90c-0.263,1-0.592,1.523-0.592,2.145c0,1.658,1.317,3.051,3,3.051c6.717,0,25.168-0.465,29.829-2.795
			c6.112-3.057,11.171-6.451,11.171-17.393c0-9.928-4.733-18.526-13.329-24.23c-4.144-2.75-8.362-3.322-11.171-3.322
			c-4.552,0-8.892,1.542-11.056,3.924c-0.604,0.665-1.069,1.256-1.425,1.758l10.489,0.065c0.825,0.005,1.491,0.676,1.491,1.5
			c0,0.825-0.667,1.496-1.492,1.5l-18,0.1c-2.244,0-4.508,1.383-4.508,4.025c0,2.657,2.264,4.047,4.5,4.047
			c0.828,0,1.5,0.484,1.5,1.312S90.414,67,89.586,67h-4c-3.302,0-4.5,2.99-4.5,5c0,2.206,1.794,4,4,4h5.5c0.828,0,1.5,0.672,1.5,1.5
			s-0.672,1.5-1.5,1.5h-2.5c-2.206,0-4,1.793-4,4c0,2.205,1.794,4,4,4h6.5c0.828,0,1.5,0.672,1.5,1.5s-0.672,1.5-1.5,1.5H90.678z"/>
	</g>
	<g>
		<path fill="#231F20" d="M102.441,80.436l-6-6c-0.586-0.586-0.586-1.535,0-2.121l6-6c0.429-0.429,1.073-0.558,1.634-0.325
			S105,66.768,105,67.375V71h15.002c1,0,2,1,2,2s-1,2-2,2H105v4.375c0,0.605-0.364,1.152-0.925,1.385S102.87,80.863,102.441,80.436z
			"/>
	</g>
	<g>
		<path fill="#231F20" d="M45.562,80.436l6-6c0.586-0.586,0.586-1.535,0-2.121l-6-6c-0.429-0.429-1.075-0.558-1.636-0.325
			S43,66.768,43,67.375V71H28.002c-1,0-2,1-2,2s1,2,2,2H43v4.375c0,0.605,0.366,1.152,0.927,1.385S45.134,80.863,45.562,80.436z"/>
	</g>
	<g>
		<path fill="#231F20" d="M74.5,47.875c-0.828,0-1.5-0.672-1.5-1.5v-14c0-0.828,0.672-1.5,1.5-1.5s1.5,0.672,1.5,1.5v14
			C76,47.203,75.328,47.875,74.5,47.875z"/>
	</g>
	<g>
		<path fill="#231F20" d="M82.551,50.824c-0.384,0-0.768-0.146-1.061-0.439c-0.586-0.586-0.586-1.535,0-2.121l9.899-9.899
			c0.586-0.586,1.535-0.586,2.121,0s0.586,1.535,0,2.121l-9.899,9.899C83.318,50.677,82.935,50.824,82.551,50.824z"/>
	</g>
	<g>
		<path fill="#231F20" d="M66.45,50.824c-0.384,0-0.768-0.146-1.061-0.439l-9.899-9.899c-0.586-0.586-0.586-1.535,0-2.121
			s1.535-0.586,2.121,0l9.899,9.899c0.586,0.586,0.586,1.535,0,2.121C67.218,50.677,66.834,50.824,66.45,50.824z"/>
	</g>
	<g>
		<path fill="#231F20" d="M74.5,119.875c-0.828,0-1.5-0.672-1.5-1.5v-14c0-0.828,0.672-1.5,1.5-1.5s1.5,0.672,1.5,1.5v14
			C76,119.203,75.328,119.875,74.5,119.875z"/>
	</g>
	<g>
		<path fill="#231F20" d="M56.551,112.773c-0.384,0-0.768-0.146-1.061-0.439c-0.586-0.586-0.586-1.535,0-2.121l9.899-9.898
			c0.586-0.586,1.535-0.586,2.121,0s0.586,1.535,0,2.121l-9.899,9.898C57.318,112.627,56.935,112.773,56.551,112.773z"/>
	</g>
	<g>
		<path fill="#231F20" d="M92.45,112.773c-0.384,0-0.768-0.146-1.061-0.439l-9.899-9.898c-0.586-0.586-0.586-1.535,0-2.121
			s1.535-0.586,2.121,0l9.899,9.898c0.586,0.586,0.586,1.535,0,2.121C93.218,112.627,92.834,112.773,92.45,112.773z"/>
	</g>
</g>
</svg>
