<?xml version="1.0" encoding="utf-8"?>
<!-- Generator: Adobe Illustrator 16.0.0, SVG Export Plug-In . SVG Version: 6.00 Build 0)  -->
<!DOCTYPE svg PUBLIC "-//W3C//DTD SVG 1.1//EN" "http://www.w3.org/Graphics/SVG/1.1/DTD/svg11.dtd">
<svg version="1.1" id="Layer_1" xmlns="http://www.w3.org/2000/svg" xmlns:xlink="http://www.w3.org/1999/xlink" x="0px" y="0px"
	 width="150px" height="150px" viewBox="0 0 150 150" enable-background="new 0 0 150 150" xml:space="preserve">
<path fill="#231F20" d="M96.25,85.875c-0.484,0-1.368,0.135-2.273,0.42c-0.269-3.257-2.778-5.88-5.977-6.341v-58.58
	c0-0.828-0.672-1.5-1.5-1.5s-1.5,0.672-1.5,1.5V80.19c-0.896,0.269-1.725,0.689-2.43,1.269c-0.875-2.372-3-4.135-5.57-4.505v-60.58
	c0-0.828-0.672-1.5-1.5-1.5s-1.5,0.672-1.5,1.5v60.751c-2.559,0.598-4.895,2.316-5.701,5.083c-0.666-0.517-1.446-0.877-2.299-1.097
	V21.375c0-0.828-0.672-1.5-1.5-1.5s-1.5,0.672-1.5,1.5v59.615c-3.327,0.587-5.633,3.509-5.633,7.39l0.011,3.99
	c-0.85,0.428-2.162,1.238-3.803,2.729c-5.429,4.936-7.206,16.869-1.075,26.105c6.279,9.461,15.776,14.672,26.742,14.672
	c12.629,0,16.854-6.338,20.1-12.83c3.122-6.244,3.158-30.156,3.158-31.17C102.5,88.623,99.638,85.875,96.25,85.875z M96.646,121.703
	c-3.056,6.113-6.487,11.172-17.429,11.172c-9.928,0-18.564-4.734-24.269-13.33c-3.661-5.516-5.373-16.916,0.47-22.227
	c0.665-0.604,2.051-1.424,2.051-1.424l-0.031,10.48c0,1.25,0.395,2,1.293,2s1.27-0.707,1.27-2v-18c0-1.92,1.023-3.843,3-4.357
	v18.357c0,0.828,0.672,1.5,1.5,1.5s1.5-0.672,1.5-1.5V84.389c1.347,0.821,1.908,2.491,1.908,3.986c0,0.828,0.718,1.5,1.546,1.5
	S71,89.203,71,88.375v-4c0-2.295,1.444-3.572,3-4.139v22.139c0,0.828,0.672,1.5,1.5,1.5s1.5-0.672,1.5-1.5V80.017
	c1.721,0.447,3,1.999,3,3.858v5.5c0,0.828,0.672,1.5,1.5,1.5s1.5-0.672,1.5-1.5v-2.5c0-1.475,0.811-2.75,2-3.444v18.944
	c0,0.828,0.672,1.5,1.5,1.5s1.5-0.672,1.5-1.5V83.017c1.721,0.447,3,1.999,3,3.858v6.5c0,0.828,0.672,1.5,1.5,1.5s1.5-0.672,1.5-1.5
	v-3.857c0.534-0.279,1.567-0.643,2.247-0.643c1.731,0,3.246,1.402,3.246,3C99.493,98.592,98.976,117.043,96.646,121.703z"/>
</svg>
