<?xml version="1.0" encoding="utf-8"?>
<!-- Generator: Adobe Illustrator 16.0.0, SVG Export Plug-In . SVG Version: 6.00 Build 0)  -->
<!DOCTYPE svg PUBLIC "-//W3C//DTD SVG 1.1//EN" "http://www.w3.org/Graphics/SVG/1.1/DTD/svg11.dtd">
<svg version="1.1" id="Layer_1" xmlns="http://www.w3.org/2000/svg" xmlns:xlink="http://www.w3.org/1999/xlink" x="0px" y="0px"
	 width="200px" height="150px" viewBox="0 0 200 150" enable-background="new 0 0 200 150" xml:space="preserve">
<g>
	<path fill="#231F20" d="M166.352,72.72c-0.829-2.276-3.207-3.806-5.918-3.806c-0.776,0-1.525,0.13-2.228,0.385
		c-0.379,0.138-1.303,0.624-2.188,1.303c-1.123-2.485-3.624-4.121-6.381-4.121c-0.816,0-1.621,0.143-2.393,0.424
		c-1.573,0.572-2.82,1.663-3.617,3.013c-1.308-1.547-3.257-2.493-5.353-2.493c-0.815,0-1.621,0.143-2.394,0.424
		c-1.642,0.598-3.15,1.719-4.158,3.192l-2.493-6.849c3.107-3.585,4.246-8.696,2.512-13.461c-1.935-5.315-7.033-8.886-12.688-8.886
		c-1.573,0-3.126,0.274-4.615,0.817c-3.388,1.232-6.093,3.712-7.617,6.98c-1.523,3.269-1.684,6.935-0.45,10.322
		c1.664,4.573,5.675,7.84,10.363,8.665l10.859,29.627l-7.479-3.713c-1.103-0.516-2.271-0.779-3.472-0.779
		c-3.145,0-6.04,1.848-7.378,4.717c-0.927,1.986-1.027,4.199-0.282,6.26c0.745,2.062,2.25,3.68,4.163,4.568
		c0.068,0.037,6.961,3.66,16.501,8.107l1.55,0.42c6.116,2.873,11.893,5.162,18.589,5.162c0.001,0,0.001,0,0.002,0
		c3.187,0,6.378-0.174,9.756-1.402c11.869-4.32,13.672-11.391,14.5-18.6C174.843,96.061,166.699,73.674,166.352,72.72z
		 M171.063,102.631c-0.78,6.787-2.263,12.404-12.545,16.148c-3.044,1.107-5.899,1.221-8.73,1.221c-0.001,0-0.001,0-0.002,0
		c-6.026,0-11.257-2.033-17.313-4.877l-1.558-0.398c-9.46-4.412-16.285-8.01-16.427-8.082c-1.258-0.588-2.211-1.607-2.684-2.914
		c-0.473-1.309-0.409-2.713,0.18-3.977c0.86-1.844,2.646-2.984,4.659-2.984c0.759,0,1.5,0.169,2.17,0.481l10.817,5.366
		c0.55,0.275,1.21,0.185,1.668-0.226c0.457-0.41,0.619-1.056,0.407-1.632l-15.83-43.187c-0.709-1.951-0.612-4.566,1.997-5.517
		c0.431-0.156,0.85-0.235,1.246-0.235c1.513,0,2.859,1.219,3.603,3.26l9.577,26.31c0.283,0.779,1.148,1.18,1.922,0.896
		c0.779-0.283,1.181-1.143,0.896-1.922l-1.386-3.809c-1.084-3.076,1.306-5.207,3.178-5.888c0.441-0.161,0.901-0.242,1.366-0.242
		c1.675,0,3.186,1.059,3.76,2.633l1.881,5.169c0.284,0.779,1.147,1.18,1.922,0.896c0.778-0.283,1.18-1.145,0.896-1.922l-0.876-2.409
		c-0.711-2.053,0.369-4.325,2.412-5.069c0.442-0.16,0.902-0.242,1.367-0.242c1.676,0,3.187,1.058,3.76,2.632l2.224,6.108
		c0.284,0.779,1.147,1.178,1.922,0.896c0.779-0.283,1.181-1.146,0.896-1.924l-1.307-3.594c0.463-0.479,1.437-1.254,2.1-1.496
		c0.371-0.135,0.775-0.218,1.201-0.218c1.432,0,2.706,0.724,3.1,1.802C165.83,79.998,171.66,97.453,171.063,102.631z"/>
	<path fill="#231F20" d="M98.52,66.414C96.916,63.241,96,59.666,96,55.875c0-12.958,10.542-23.5,23.5-23.5
		c12.705,0,23.08,10.136,23.48,22.745l-0.029-0.005l-0.124-0.023l-3.938-0.707c-0.597-0.106-1.199,0.156-1.527,0.667
		s-0.315,1.169,0.031,1.666l4.845,6.966c0.474,0.681,1.407,0.849,2.088,0.375l6.966-4.845c0.498-0.347,0.739-0.959,0.609-1.552
		s-0.604-1.049-1.2-1.156l-3.702-0.664c-0.019-15.148-12.348-27.467-27.499-27.467c-15.163,0-27.5,12.336-27.5,27.5
		c0,3.532,0.678,6.907,1.897,10.012c-0.649-0.027-1.289-0.041-1.909-0.041c-2.312,0-5.267,0.479-8.017,1.064
		c1.162-2.245,1.037-4.998,0.002-7.219c-1.228-2.632-4.05-4.261-6.928-4.02c0.4-1.562,0.25-3.201-0.44-4.683
		c-1.145-2.456-3.637-4.043-6.348-4.043c-0.832,0-1.643,0.146-2.418,0.433c-0.098-0.814-0.297-1.626-0.582-2.236
		c-1.018-2.187-3.305-3.655-5.692-3.655c-0.836,0-1.639,0.176-2.386,0.524C58.26,42.44,36.604,52.58,32.264,58.047
		c-4.512,5.685-8.47,12.192-3.133,23.638c5.154,11.053,13.28,13.984,22.688,17.379l1.622,0.588
		c9.883,3.598,17.354,5.865,17.362,5.863c0.9,0.328,1.84,0.494,2.791,0.494c3.436,0,6.537-2.178,7.718-5.42
		c0.75-2.061,0.656-4.281-0.265-6.254c-0.92-1.973-2.562-3.473-4.652-4.232l-7.939-2.691c4.623-2.143,12.996-5.869,18.27-7.307
		c1.854-0.506,3.537-0.75,5.146-0.75c1.669,0,2.978,0.258,4.244,0.508c1.069,0.213,2.079,0.412,3.145,0.412
		c0.524,0,1.017-0.047,1.507-0.146c2.162-0.432,3.946-1.754,4.894-3.625c0.905-1.79,0.936-3.866,0.081-5.698
		C104.594,68.343,101.742,67.054,98.52,66.414z M102.984,75.149c-0.529,1.044-1.552,1.789-2.805,2.039
		c-0.992,0.199-2.117,0.004-3.481-0.266c-1.342-0.266-2.863-0.566-4.826-0.566c-1.88,0-3.821,0.279-5.936,0.855
		c-7.824,2.135-21.554,8.801-22.134,9.082c-0.547,0.268-0.879,0.836-0.841,1.443s0.439,1.131,1.016,1.326l11.424,3.871
		c1.307,0.475,2.347,1.424,2.928,2.67c0.582,1.246,0.641,2.654,0.165,3.959c-0.751,2.062-2.72,3.447-4.899,3.447
		c-0.601,0-1.194-0.105-1.844-0.338c-0.074-0.023-7.476-2.268-17.284-5.838l-1.629-0.59c-9.141-3.299-16.361-5.904-20.988-15.826
		c-4.624-9.917-1.483-15.154,2.764-20.505c3.24-4.081,19.747-12.344,25.833-15.183c0.347-0.161,0.724-0.243,1.118-0.243
		c1.224,0,2.446,0.79,2.974,1.923c0.287,0.615,0.396,1.708,0.368,2.31l-3.487,1.627l-0.007,0.003
		c-0.751,0.35-1.071,1.24-0.722,1.991c0.351,0.749,1.246,1.073,1.998,0.724l5.883-2.742c0.534-0.25,1.102-0.376,1.686-0.376
		c1.55,0,2.975,0.907,3.629,2.311c0.451,0.969,0.499,2.055,0.133,3.059c-0.365,1.004-1.1,1.806-2.067,2.257l-2.266,1.057
		c-0.751,0.351-1.076,1.242-0.726,1.993s1.241,1.075,1.993,0.726l4.984-2.324c0.535-0.249,1.103-0.376,1.687-0.376
		c1.551,0,2.975,0.907,3.63,2.312c0.849,1.821,1.025,5.038-1.966,6.434l-3.625,1.689c-0.715,0.333-1.05,1.162-0.766,1.898
		c0.283,0.736,1.085,1.126,1.842,0.895c0.098-0.03,9.885-3.029,15.248-3.029c5.878,0,10.106,1.237,11.035,3.229
		C103.485,73.066,103.472,74.187,102.984,75.149z"/>
</g>
</svg>
