<?xml version="1.0" encoding="utf-8"?>
<!-- Generator: Adobe Illustrator 16.0.0, SVG Export Plug-In . SVG Version: 6.00 Build 0)  -->
<!DOCTYPE svg PUBLIC "-//W3C//DTD SVG 1.1//EN" "http://www.w3.org/Graphics/SVG/1.1/DTD/svg11.dtd">
<svg version="1.1" id="Layer_1" xmlns="http://www.w3.org/2000/svg" xmlns:xlink="http://www.w3.org/1999/xlink" x="0px" y="0px"
	 width="200px" height="150px" viewBox="0 0 200 150" enable-background="new 0 0 200 150" xml:space="preserve">
<g>
	<path fill="#231F20" d="M83.261,62.275c0.524,0,1.017-0.047,1.507-0.146c2.162-0.433,3.946-1.754,4.894-3.626
		c0.905-1.789,0.936-3.865,0.081-5.697c-0.355-0.763-0.875-1.412-1.517-1.966c0.946-1.19,2.021-2.308,3.233-3.325
		c9.926-8.328,24.611-6.889,32.94,3.037c0.212,0.252,0.408,0.486,0.602,0.717l-3.112,2.612c-0.465,0.39-0.623,1.052-0.441,1.63
		c0.183,0.578,0.721,1.02,1.324,1.072l8.463,0.75c0.824,0.072,1.569-0.518,1.642-1.342l0.774-8.411
		c0.053-0.604-0.354-1.29-0.893-1.57c-0.538-0.28-1.212-0.232-1.676,0.157l-2.682,2.25l-0.335,0.281
		c-0.196-0.234-0.39-0.465-0.602-0.718c-9.747-11.616-26.959-13.278-38.575-3.53c-1.628,1.366-3.032,2.886-4.245,4.509
		c-2.663-0.861-5.858-1.114-8.655-1.114c-2.312,0-5.267,0.479-8.017,1.064c1.162-2.245,1.037-4.998,0.002-7.219
		c-1.228-2.632-4.047-4.262-6.928-4.02c0.4-1.562,0.25-3.201-0.44-4.683c-1.145-2.456-3.637-4.043-6.348-4.043
		c-0.832,0-1.643,0.146-2.418,0.433c-0.098-0.814-0.297-1.626-0.582-2.236c-1.018-2.187-3.305-3.655-5.692-3.655
		c-0.836,0-1.639,0.176-2.386,0.524C42.26,24.44,20.604,34.58,16.265,40.047c-4.513,5.685-8.472,12.191-3.134,23.639
		C18.284,74.737,26.41,77.67,35.818,81.064l1.623,0.588c9.883,3.598,17.354,5.865,17.362,5.863c0.9,0.328,1.84,0.494,2.791,0.494
		c3.436,0,6.537-2.178,7.718-5.42c0.75-2.061,0.656-4.281-0.265-6.254c-0.92-1.973-2.562-3.472-4.652-4.233l-7.939-2.69
		c4.623-2.143,12.996-5.869,18.27-7.307c1.854-0.506,3.537-0.751,5.146-0.751c1.669,0,2.978,0.259,4.244,0.509
		C81.186,62.076,82.195,62.275,83.261,62.275z M69.937,59.211c-7.824,2.134-21.554,8.8-22.134,9.082
		c-0.547,0.267-0.879,0.836-0.841,1.443s0.439,1.131,1.016,1.326l11.424,3.871c1.307,0.475,2.347,1.423,2.928,2.669
		c0.582,1.246,0.641,2.654,0.165,3.959c-0.751,2.062-2.72,3.447-4.899,3.447c-0.601,0-1.194-0.105-1.844-0.338
		c-0.074-0.023-7.476-2.268-17.284-5.838l-1.63-0.59c-9.141-3.299-16.361-5.906-20.987-15.826
		c-4.624-9.918-1.483-15.154,2.765-20.506c3.239-4.081,19.746-12.344,25.833-15.183c0.347-0.161,0.724-0.243,1.118-0.243
		c1.224,0,2.446,0.79,2.974,1.923c0.287,0.615,0.396,1.708,0.368,2.31l-3.487,1.627l-0.007,0.003
		c-0.751,0.35-1.071,1.24-0.722,1.991c0.35,0.749,1.247,1.072,1.998,0.724l5.883-2.742c0.534-0.25,1.102-0.376,1.686-0.376
		c1.55,0,2.975,0.907,3.629,2.311c0.451,0.969,0.499,2.055,0.133,3.059c-0.365,1.004-1.1,1.806-2.067,2.257l-2.266,1.057
		c-0.751,0.351-1.076,1.242-0.726,1.993c0.35,0.75,1.24,1.075,1.993,0.726l4.984-2.324c0.535-0.249,1.103-0.376,1.687-0.376
		c1.551,0,2.975,0.907,3.63,2.312c0.849,1.821,1.025,5.038-1.966,6.434l-3.625,1.689c-0.715,0.333-1.05,1.162-0.766,1.898
		c0.283,0.736,1.085,1.127,1.842,0.895c0.098-0.03,9.885-3.029,15.248-3.029c5.878,0,10.106,1.237,11.035,3.229
		c0.462,0.992,0.448,2.113-0.039,3.075c-0.529,1.045-1.552,1.788-2.805,2.039c-0.992,0.198-2.117,0.002-3.481-0.267
		c-1.342-0.266-2.863-0.566-4.826-0.566C73.992,58.355,72.051,58.635,69.937,59.211z"/>
	<path fill="#231F20" d="M183.257,77.66c-0.844-2.317-3.169-3.875-5.785-3.875c-0.738,0-1.459,0.126-2.14,0.375
		c-0.634,0.23-1.35,0.663-1.994,1.172c-1.134-2.457-3.619-4.07-6.356-4.07c-0.816,0-1.622,0.143-2.394,0.424
		c-1.537,0.56-2.804,1.613-3.626,3.003c-1.307-1.541-3.252-2.483-5.344-2.483c-0.816,0-1.621,0.143-2.395,0.424
		c-2.302,0.838-4.337,2.696-5.104,5.105c-1.529-2.358-3.281-4.787-4.915-6.42c-2.988-2.988-7.371-6.55-11.282-6.55
		c-0.689,0-1.346,0.111-1.951,0.332c-1.899,0.691-3.347,2.181-3.972,4.086c-0.653,1.993-0.327,4.189,0.896,6.024
		c0.284,0.426,0.604,0.788,0.938,1.125c-1.396,2.873-3.386,5.51-5.986,7.691c-9.926,8.328-24.801,7.049-33.131-2.877
		c-0.128-0.152-0.242-0.289-0.362-0.432l0.048-0.041l3.447-2.893c0.465-0.391,0.51-1.189,0.326-1.768
		c-0.182-0.579-0.836-1.159-1.441-1.211l-8.453-0.741c-0.826-0.072-1.555,0.535-1.628,1.36l-0.745,8.448
		c-0.052,0.604,0.414,1.359,0.953,1.641c0.538,0.279,1.332,0.375,1.797-0.016l2.632-2.209c0.122,0.146,0.234,0.279,0.362,0.432
		c9.746,11.615,27.161,13.109,38.776,3.363c2.825-2.373,5.039-5.207,6.652-8.295c1.777,1.223,3.739,2.795,5.761,6.334
		c2.712,4.744,5.998,13.301,7.752,18.086l-7.546-3.727c-1.101-0.514-2.268-0.775-3.469-0.775c-3.152,0-6.055,1.855-7.394,4.729
		c-1.916,4.109-0.146,9.006,3.873,10.877c0.068,0.037,6.957,3.719,16.498,8.168l1.56,0.73c6.112,2.871,11.885,5.582,18.577,5.582
		h0.001c3.187,0,6.379-0.598,9.756-1.828c11.867-4.318,13.67-11.719,14.5-18.93C191.748,101.096,183.604,78.613,183.257,77.66z
		 M187.97,107.688c-0.781,6.789-2.265,12.713-12.545,16.455c-3.044,1.107-5.899,1.646-8.73,1.646h-0.001
		c-6.022,0-11.25-2.455-17.302-5.297l-1.567-0.734c-9.46-4.412-16.281-8.059-16.424-8.131c-2.594-1.211-3.713-4.318-2.496-6.928
		c0.861-1.848,2.652-2.996,4.675-2.996c0.759,0,1.499,0.166,2.17,0.479l10.846,5.355c0.545,0.271,1.2,0.184,1.655-0.219
		c0.457-0.402,0.625-1.039,0.427-1.615c-0.211-0.609-5.206-15.031-9.229-22.072c-2.645-4.627-5.396-6.471-7.405-7.816
		c-1.146-0.767-2.05-1.373-2.649-2.272c-0.709-1.064-0.907-2.312-0.542-3.426c0.336-1.025,1.119-1.827,2.146-2.202
		c2.077-0.751,5.932,1.365,10.087,5.521c3.792,3.793,8.592,12.834,8.64,12.924c0.368,0.695,1.212,0.99,1.935,0.67
		c0.721-0.32,1.071-1.143,0.801-1.883l-1.368-3.76c-1.129-3.102,1.271-5.252,3.159-5.939c0.443-0.161,0.903-0.242,1.368-0.242
		c1.676,0,3.187,1.058,3.76,2.632l1.881,5.168c0.283,0.779,1.146,1.18,1.922,0.896c0.778-0.283,1.18-1.143,0.897-1.922l-0.855-2.35
		c-0.365-1.004-0.317-2.09,0.134-3.059c0.451-0.967,1.253-1.702,2.258-2.068c0.441-0.161,0.902-0.242,1.367-0.242
		c1.675,0,3.186,1.058,3.759,2.632l2.224,6.109c0.284,0.777,1.146,1.18,1.923,0.895c0.778-0.283,1.18-1.143,0.896-1.922
		l-1.318-3.623c0.405-0.445,1.256-1.143,1.895-1.375c0.352-0.127,0.727-0.193,1.113-0.193c1.339,0,2.559,0.783,2.967,1.9
		C182.735,84.998,188.565,102.512,187.97,107.688z"/>
</g>
</svg>
