<?xml version="1.0" encoding="utf-8"?>
<!-- Generator: Adobe Illustrator 16.0.0, SVG Export Plug-In . SVG Version: 6.00 Build 0)  -->
<!DOCTYPE svg PUBLIC "-//W3C//DTD SVG 1.1//EN" "http://www.w3.org/Graphics/SVG/1.1/DTD/svg11.dtd">
<svg version="1.1" id="Layer_1" xmlns="http://www.w3.org/2000/svg" xmlns:xlink="http://www.w3.org/1999/xlink" x="0px" y="0px"
	 width="150px" height="150px" viewBox="0 0 150 150" enable-background="new 0 0 150 150" xml:space="preserve">
<path d="M101.989,46.373c-2.05-8.051-8.763-13.978-17.004-15.003c-3.705-4.136-8.962-6.495-14.521-6.495
	c-4.908,0-9.565,1.84-13.19,5.194c-0.268-0.016-0.537-0.026-0.81-0.026c-10.66,0-19.332,8.672-19.332,19.332
	c0,8.337,5.314,15.437,12.726,18.145l0.319,14.913c-0.808,0.439-2.034,1.242-3.603,2.666c-5.429,4.936-7.206,16.869-1.075,26.105
	c6.825,10.283,14.822,14.672,26.742,14.672c12.629,0,16.854-6.338,20.1-12.83c2.759-5.518,3.091-10.074,3.819-20.059
	c0.102-1.387,0.21-2.879,0.334-4.496c0.161-2.086,0.321-4.152,0.478-6.162c8.582-2.043,14.992-9.755,14.992-18.954
	C111.965,56.281,108.161,49.83,101.989,46.373z M49.641,57.338c-2.246-1.927-3.676-4.779-3.676-7.964c0-5.79,4.71-10.5,10.5-10.5
	c0.852,0,1.734,0.116,2.623,0.345c0.619,0.161,1.272-0.092,1.625-0.625c1.955-2.955,5.228-4.72,8.752-4.72
	c4.162,0,7.936,2.467,9.613,6.285c0.277,0.631,0.954,0.994,1.624,0.875c0.637-0.107,1.213-0.16,1.763-0.16
	c5.79,0,10.5,4.71,10.499,10.489c-0.002,0.027-0.007,0.138-0.008,0.165c-0.012,0.742,0.521,1.381,1.252,1.504
	c5.074,0.85,8.757,5.198,8.757,10.342c0,3.863-2.103,7.236-5.219,9.061c0.443-5.615,0.749-9.44,0.749-9.44
	c0.003-0.04,0.005-0.08,0.005-0.12c0-3.309-2.691-6-6-6c-1.653,0-3.152,0.672-4.238,1.757l0.238-7.757c0-3.859-3.141-7-7-7
	c-2.173,0-4.158,0.979-5.5,2.483v-2.483c0-3.925-2.965-7-6.75-7c-3.855,0-6.875,3.075-6.875,6.962l-0.057,2.257
	c-1.235-1.972-3.339-3.219-5.822-3.219c-3.993,0-7.004,3.225-7.004,7.532L49.641,57.338z M93.505,88.26
	c-0.125,1.621-0.234,3.119-0.336,4.51c-0.698,9.576-1.018,13.947-3.511,18.934c-3.056,6.113-6.475,11.172-17.416,11.172
	c-10.936,0-17.959-3.861-24.242-13.33c-3.661-5.516-5.25-16.916,0.593-22.227c0.631-0.574,1.188-1.021,1.66-1.371l0.224,10.709
	c0.018,0.818,0.898,1.719,1.532,1.719s1.485-0.939,1.468-1.768l-0.602-28.249l-0.066-3.08l-0.316-14.873
	c0-2.649,1.646-4.469,4.004-4.469s4.004,1.913,4.005,4.616l0.516,14.491l0.109,3.08l0.375,10.553
	c0.029,0.809,0.749,1.697,1.507,1.697s1.471-0.902,1.491-1.713l0.299-11.866l0.087-3.454l0.49-19.468c0-2.243,1.702-4,3.875-4
	c2.138,0,3.75,1.72,3.75,4v21.783v3.496v6.221c0,0.813,0.625,2,1.501,2s1.456-0.875,1.497-1.674l0.09-1.779l0.316-6.285
	l0.846-16.762c0-2.131,1.986-4,4.25-4c2.206,0,4,1.794,4.001,3.954l-0.832,27.054l-0.102,3.281l-0.066,2.164
	c-0.025,0.809,0.596,1.492,1.403,1.543c0.792,0.049,1.51-0.547,1.589-1.352l0.125-1.277l0.296-3.033l1.579-16.189
	c0.005-0.048,0.007-0.097,0.007-0.146c0-1.654,1.346-3,3-3c1.636,0,2.971,1.316,3,2.946c-0.061,0.759-0.64,8.007-1.339,16.966
	c-0.076,0.986-0.155,1.992-0.234,3.014C93.788,84.588,93.646,86.418,93.505,88.26z M97.219,79.17
	c0.087-1.121,0.173-2.219,0.256-3.27c4.969-1.994,8.49-6.852,8.49-12.525c0-6.194-4.153-11.493-10.04-13.039
	c-0.531-6.96-6.365-12.461-13.46-12.461c-0.373,0-0.752,0.018-1.143,0.054c-2.35-4.319-6.888-7.054-11.857-7.054
	c-4.187,0-8.093,1.932-10.646,5.217c-0.792-0.145-1.581-0.217-2.354-0.217c-7.444,0-13.5,6.056-13.5,13.5
	c0,4.986,2.724,9.339,6.755,11.677l0.069,3.213c-5.684-2.559-9.656-8.264-9.656-14.89c0-9.006,7.326-16.332,16.332-16.332
	c0.423,0,0.837,0.032,1.251,0.064c0.442,0.036,0.862-0.123,1.172-0.43c3.125-3.097,7.237-4.803,11.577-4.803
	c4.874,0,9.477,2.146,12.626,5.888c0.253,0.301,0.615,0.49,1.007,0.527c7.445,0.703,13.522,6.09,15.122,13.405
	c0.096,0.438,0.382,0.809,0.779,1.014c5.53,2.848,8.966,8.468,8.966,14.666C108.965,70.82,104.005,77.123,97.219,79.17z"/>
</svg>
