<?xml version="1.0" encoding="utf-8"?>
<!-- Generator: Adobe Illustrator 16.0.0, SVG Export Plug-In . SVG Version: 6.00 Build 0)  -->
<!DOCTYPE svg PUBLIC "-//W3C//DTD SVG 1.1//EN" "http://www.w3.org/Graphics/SVG/1.1/DTD/svg11.dtd">
<svg version="1.1" id="Layer_1" xmlns="http://www.w3.org/2000/svg" xmlns:xlink="http://www.w3.org/1999/xlink" x="0px" y="0px"
	 width="150px" height="150px" viewBox="0 0 150 150" enable-background="new 0 0 150 150" xml:space="preserve">
<g>
	<path fill="#231F20" d="M40.259,27.433c-1.78,2.512-3.427,5.066-4.938,7.649c-0.442,0.758-0.141,1.659,0.646,2.021
		c2.688,1.24,5.274,2.584,7.751,4.021c0.531,0.308,0.95,0.336,1.453-0.021c0.502-0.358,0.496-0.916,0.36-1.508
		c-0.262-1.137-0.523-2.273-0.785-3.41c17.562-4.042,35.919-3.444,53.245,1.79c1.025,0.309,2.358-0.309,2.672-1.258
		c0.313-0.95-0.44-2.248-1.515-2.571c-17.995-5.437-37.06-6.057-55.299-1.859c-0.337-1.462-0.673-2.924-1.009-4.386
		c-0.137-0.59-0.389-1.095-1.083-1.17C41.064,26.658,40.641,26.894,40.259,27.433z"/>
	<g>
		<path fill="#231F20" d="M86.687,125.713c-6.246,0-12.125-2.193-18.502-6.898c-8.92-6.584-11.332-18.406-7.919-24.898
			c0.987-1.877,1.866-3.049,2.475-3.738l-11.598-29.86c-1.474-4.048,0.253-8.107,4.004-9.474c2.294-0.835,4.748-0.398,6.571,1.028
			l-0.716-2.135c-0.627-1.72-0.568-3.605,0.177-5.273c0.758-1.694,2.144-2.98,3.901-3.619c0.754-0.274,1.531-0.414,2.312-0.414
			c2.867,0,5.39,1.838,6.425,4.682l0.85,2.334c0.746-1.872,2.277-3.471,4.317-4.214c0.773-0.281,1.578-0.424,2.395-0.424
			c2.933,0,5.576,1.852,6.579,4.607l2.429,7.371c0.649-1.392,1.828-2.536,3.382-3.101c0.662-0.241,1.353-0.363,2.053-0.363
			c2.513,0,4.778,1.587,5.637,3.949c0.014,0.037,0.026,0.075,0.037,0.113c0,0.001,3.335,12.087,6.841,24.641
			c0.438,1.564,0.846,3.008,1.226,4.346c2.729,9.629,3.975,14.021,3.27,20.15c-0.83,7.211-2.633,14.611-14.5,18.93
			C94.156,124.973,90.347,125.713,86.687,125.713z M64.013,93.455c-0.325,0.49-0.694,1.102-1.092,1.857
			c-3.674,6.986,1.719,17.156,7.045,21.088c5.915,4.365,11.072,6.312,16.721,6.312c3.305,0,6.778-0.68,10.619-2.078
			c10.28-3.742,11.764-9.666,12.545-16.455c0.637-5.537-0.558-9.752-3.176-18.988c-0.38-1.342-0.79-2.789-1.228-4.357
			c-3.36-12.031-6.563-23.63-6.827-24.585c-0.567-1.48-2.316-2.292-3.825-1.743c-1.555,0.565-2.359,2.291-1.794,3.846
			c0.017,0.046,0.031,0.092,0.044,0.139l5.132,19.948c0.201,0.783-0.255,1.586-1.031,1.812c-0.772,0.225-1.594-0.201-1.847-0.969
			L85.123,48.399c-0.558-1.532-2.068-2.59-3.744-2.59c-0.466,0-0.926,0.082-1.368,0.243c-2.127,0.773-3.354,3.21-2.625,5.212
			l7.229,23.522c0.239,0.777-0.186,1.604-0.957,1.862c-0.768,0.264-1.608-0.143-1.886-0.909L70.999,46.139
			c-0.762-2.089-2.896-3.202-4.894-2.476c-0.987,0.359-1.765,1.079-2.188,2.025c-0.426,0.952-0.456,2.039-0.085,3.058l10.989,32.755
			c0.258,0.77-0.142,1.604-0.901,1.885c-0.762,0.281-1.605-0.094-1.911-0.844l-10.516-25.97c-0.897-2.462-3.142-3.705-5.321-2.91
			c-2.215,0.807-3.129,3.109-2.223,5.6l16.647,42.859c0.3,0.771-0.083,1.641-0.855,1.941c-0.772,0.299-1.642-0.084-1.941-0.855
			L64.013,93.455z"/>
	</g>
</g>
</svg>
