<?xml version="1.0" encoding="utf-8"?>
<!-- Generator: Adobe Illustrator 16.0.0, SVG Export Plug-In . SVG Version: 6.00 Build 0)  -->
<!DOCTYPE svg PUBLIC "-//W3C//DTD SVG 1.1//EN" "http://www.w3.org/Graphics/SVG/1.1/DTD/svg11.dtd">
<svg version="1.1" id="Layer_1" xmlns="http://www.w3.org/2000/svg" xmlns:xlink="http://www.w3.org/1999/xlink" x="0px" y="0px"
	 width="150px" height="150px" viewBox="0 0 150 150" enable-background="new 0 0 150 150" xml:space="preserve">
<g>
	<path fill="#231F20" d="M23.461,102.713c2.513,1.781,5.066,3.428,7.649,4.939c0.759,0.441,1.658,0.141,2.021-0.646
		c1.24-2.689,2.584-5.275,4.021-7.752c0.308-0.531,0.336-0.949-0.021-1.453c-0.358-0.502-0.916-0.496-1.508-0.359
		c-1.137,0.262-2.273,0.523-3.41,0.785c-4.042-17.562-3.444-35.919,1.79-53.246c0.309-1.025-0.309-2.358-1.258-2.672
		c-0.95-0.313-2.248,0.441-2.57,1.515c-5.438,17.995-6.058,37.059-1.86,55.299c-1.462,0.336-2.924,0.672-4.386,1.008
		c-0.59,0.137-1.096,0.389-1.17,1.084C22.686,101.908,22.923,102.332,23.461,102.713z"/>
	<g>
		<path fill="#231F20" d="M94.989,109.008c-9.074,0-16.698-5.375-18.825-10.572c-0.803-1.961-1.138-3.389-1.275-4.299L44.562,83.828
			c-1.914-0.695-3.433-1.961-4.307-3.574c-0.929-1.713-1.062-3.695-0.376-5.583c0.836-2.301,2.688-3.885,5.006-4.375l-2.091-0.821
			c-1.72-0.625-3.127-1.882-3.926-3.525c-0.811-1.669-0.905-3.557-0.265-5.315c0.974-2.675,3.463-4.403,6.343-4.403
			c0.859,0,1.714,0.152,2.542,0.454l2.34,0.851c-0.104-0.19-0.198-0.388-0.285-0.591c-0.739-1.72-0.802-3.697-0.172-5.428
			c1.003-2.756,3.646-4.607,6.577-4.607c0.816,0,1.622,0.144,2.395,0.425l7.204,2.876c-0.675-1.452-0.745-3.079-0.197-4.584
			c0.858-2.361,3.124-3.948,5.637-3.948c0.7,0,1.391,0.122,2.054,0.363c0.037,0.014,0.074,0.028,0.11,0.045
			c0.001,0,11.402,5.214,23.272,10.598c1.48,0.672,2.85,1.286,4.12,1.856c9.128,4.098,13.294,5.968,17.534,10.447
			c4.99,5.269,9.501,11.407,5.181,23.274c-4.076,11.201-10.935,17.215-22.933,20.111C98.583,108.795,96.787,109.008,94.989,109.008z
			 M78.219,95.27c0.166,0.564,0.398,1.24,0.722,2.029c1.714,4.189,8.338,8.709,16.049,8.709c1.562,0,3.12-0.186,4.632-0.551
			c11.047-2.666,17.078-7.945,20.818-18.221c3.742-10.281,0.157-15.225-4.541-20.186c-3.832-4.049-7.828-5.842-16.584-9.772
			c-1.274-0.572-2.646-1.188-4.131-1.861c-11.375-5.159-22.319-10.162-23.221-10.574c-1.522-0.526-3.252,0.317-3.795,1.811
			c-0.274,0.753-0.238,1.567,0.1,2.294c0.339,0.727,0.94,1.277,1.694,1.552c0.045,0.017,0.09,0.035,0.134,0.056l18.578,8.891
			c0.729,0.35,1.051,1.215,0.727,1.956c-0.324,0.74-1.183,1.089-1.93,0.791L57.273,50.137c-0.4-0.146-0.86-0.228-1.325-0.228
			c-1.674,0-3.185,1.059-3.759,2.635c-0.371,1.019-0.331,2.191,0.109,3.216c0.441,1.028,1.222,1.79,2.195,2.145l22.667,9.582
			c0.75,0.317,1.109,1.174,0.812,1.931c-0.299,0.758-1.147,1.139-1.909,0.86L46.463,59.503c-0.498-0.181-1.009-0.272-1.517-0.272
			c-1.628,0-2.979,0.931-3.524,2.43c-0.359,0.988-0.308,2.046,0.145,2.978c0.456,0.938,1.27,1.66,2.289,2.03l32.156,12.638
			c0.754,0.297,1.137,1.139,0.863,1.902c-0.273,0.762-1.1,1.17-1.875,0.92l-26.653-8.638c-2.595-0.938-4.863,0.048-5.649,2.206
			c-0.394,1.084-0.327,2.165,0.194,3.127c0.525,0.967,1.472,1.74,2.665,2.174l43.532,14.799c0.785,0.266,1.204,1.117,0.938,1.902
			s-1.117,1.205-1.902,0.938L88.013,98.6L78.219,95.27z"/>
	</g>
</g>
</svg>
