<?xml version="1.0" encoding="utf-8"?>
<!-- Generator: Adobe Illustrator 16.0.0, SVG Export Plug-In . SVG Version: 6.00 Build 0)  -->
<!DOCTYPE svg PUBLIC "-//W3C//DTD SVG 1.1//EN" "http://www.w3.org/Graphics/SVG/1.1/DTD/svg11.dtd">
<svg version="1.1" id="Layer_1" xmlns="http://www.w3.org/2000/svg" xmlns:xlink="http://www.w3.org/1999/xlink" x="0px" y="0px"
	 width="150px" height="150px" viewBox="0 0 150 150" enable-background="new 0 0 150 150" xml:space="preserve">
<path fill="#231F20" d="M108.465,60.375c0-6.194-4.153-11.493-10.04-13.039c-0.531-6.96-6.365-12.461-13.46-12.461
	c-0.373,0-0.752,0.018-1.143,0.054c-2.35-4.319-6.888-7.054-11.857-7.054c-4.187,0-8.093,1.932-10.646,5.217
	c-0.792-0.145-1.581-0.217-2.354-0.217c-7.444,0-13.5,6.056-13.5,13.5c0,4.986,2.724,9.339,6.755,11.677l0.458,21.38
	c-0.808,0.439-2.034,1.242-3.603,2.666c-5.429,4.936-7.206,16.869-1.075,26.105c6.825,10.283,14.822,14.672,26.742,14.672
	c12.629,0,16.854-6.338,20.1-12.83c2.759-5.518,3.091-10.074,3.819-20.059c0.102-1.387,0.21-2.879,0.334-4.496
	c0.34-4.412,0.679-8.764,0.979-12.59C104.943,70.906,108.465,66.048,108.465,60.375z M96.005,85.26
	c-0.125,1.621-0.234,3.119-0.336,4.51c-0.698,9.576-1.018,13.947-3.511,18.934c-3.056,6.113-6.475,11.172-17.416,11.172
	c-10.936,0-17.959-3.861-24.242-13.33c-3.661-5.516-5.25-16.916,0.593-22.227c0.631-0.574,1.188-1.021,1.66-1.371l0.224,10.709
	c0.018,0.818,0.898,1.719,1.532,1.719s1.485-0.939,1.468-1.768l-0.984-46.202c0-2.649,1.646-4.469,4.004-4.469
	S63,44.85,63.001,47.553l1,28.125c0.029,0.808,0.749,1.697,1.507,1.697s1.471-0.902,1.491-1.712l0.876-34.788
	c0-2.243,1.452-4,3.625-4c2.138,0,3.5,1.72,3.5,4v31.5c0,0.813,0.875,2,1.751,2s1.581-0.874,1.622-1.674l1.314-24.826
	c0-2.131,2.018-4,4.281-4c2.206,0,4.016,1.794,4.017,3.954l-0.992,32.5c-0.025,0.809,0.6,1.492,1.407,1.543
	c0.792,0.049,1.512-0.547,1.591-1.352l2.001-20.5C91.997,59.972,92,59.923,92,59.875c0-1.654,1.346-3,3-3
	c1.636,0,2.971,1.316,3,2.946C97.921,60.809,96.963,72.805,96.005,85.26z"/>
</svg>
