<?xml version="1.0" encoding="utf-8"?>
<!-- Generator: Adobe Illustrator 16.0.0, SVG Export Plug-In . SVG Version: 6.00 Build 0)  -->
<!DOCTYPE svg PUBLIC "-//W3C//DTD SVG 1.1//EN" "http://www.w3.org/Graphics/SVG/1.1/DTD/svg11.dtd">
<svg version="1.1" id="Layer_1" xmlns="http://www.w3.org/2000/svg" xmlns:xlink="http://www.w3.org/1999/xlink" x="0px" y="0px"
	 width="150px" height="150px" viewBox="0 0 150 150" enable-background="new 0 0 150 150" xml:space="preserve">
<g>
	<path fill="#231F20" d="M112.965,41.375c0-7.444-6.056-13.5-13.5-13.5c-5.819,0-10.775,3.707-12.668,8.879
		c-2.007-1.187-4.337-1.879-6.832-1.879c-0.373,0-0.752,0.018-1.143,0.054c-2.35-4.319-6.888-7.054-11.857-7.054
		c-4.187,0-8.093,1.932-10.646,5.217c-0.792-0.145-1.581-0.217-2.354-0.217c-7.444,0-13.5,6.056-13.5,13.5
		c0,4.986,2.724,9.339,6.755,11.677l0.458,21.38c-0.808,0.439-2.034,1.242-3.603,2.666c-5.429,4.936-7.206,16.869-1.075,26.105
		c6.825,10.283,14.822,14.672,26.742,14.672c12.629,0,16.854-6.338,20.1-12.83c2.759-5.518,3.091-10.074,3.819-20.059
		c0.102-1.387,0.21-2.879,0.334-4.496c0.34-4.412,0.679-8.764,0.979-12.59c4.969-1.994,8.49-6.852,8.49-12.525
		c0-2.061-0.469-4.016-1.301-5.771C108.319,53.348,112.965,47.894,112.965,41.375z M91.005,85.26
		c-0.125,1.621-0.234,3.119-0.336,4.51c-0.698,9.576-1.018,13.947-3.511,18.934c-3.056,6.113-6.475,11.172-17.416,11.172
		c-10.936,0-17.959-3.861-24.242-13.33c-3.661-5.516-5.25-16.916,0.593-22.227c0.631-0.574,1.188-1.021,1.66-1.371l0.224,10.709
		c0.018,0.818,0.898,1.719,1.532,1.719s1.485-0.939,1.468-1.768l-0.984-46.202c0-2.649,1.646-4.469,4.004-4.469
		S58,44.85,58.001,47.553l1,28.125c0.029,0.808,0.749,1.697,1.507,1.697s1.471-0.902,1.491-1.712l0.876-34.788
		c0-2.243,1.452-4,3.625-4c2.138,0,3.5,1.72,3.5,4v31.5c0,0.813,0.875,2,1.751,2s1.581-0.874,1.622-1.674l1.314-24.826
		c0-2.131,2.018-4,4.281-4c2.206,0,4.016,1.794,4.017,3.954l-0.992,32.5c-0.025,0.809,0.6,1.492,1.407,1.543
		c0.792,0.049,1.512-0.547,1.591-1.352l2.001-20.5C86.997,59.972,87,59.923,87,59.875c0-1.654,1.346-3,3-3
		c1.636,0,2.971,1.316,3,2.946C92.921,60.809,91.963,72.805,91.005,85.26z M99.465,51.875c-5.79,0-10.5-4.71-10.5-10.5
		s4.71-10.5,10.5-10.5s10.5,4.71,10.5,10.5S105.255,51.875,99.465,51.875z"/>
	<path fill="#231F20" d="M106,40h-5v-4.625c0-0.828-0.672-1.5-1.5-1.5s-1.5,0.672-1.5,1.5v6.5C98,42.703,98.672,43,99.5,43h6.5
		c0.828,0,1.5-0.672,1.5-1.5S106.828,40,106,40z"/>
</g>
</svg>
