<?xml version="1.0" encoding="utf-8"?>
<!-- Generator: Adobe Illustrator 16.0.0, SVG Export Plug-In . SVG Version: 6.00 Build 0)  -->
<!DOCTYPE svg PUBLIC "-//W3C//DTD SVG 1.1//EN" "http://www.w3.org/Graphics/SVG/1.1/DTD/svg11.dtd">
<svg version="1.1" id="Layer_1" xmlns="http://www.w3.org/2000/svg" xmlns:xlink="http://www.w3.org/1999/xlink" x="0px" y="0px"
	 width="150px" height="150px" viewBox="0 0 150 150" enable-background="new 0 0 150 150" xml:space="preserve">
<path fill="#231F20" d="M107.965,60.375c0-6.194-4.153-11.493-10.04-13.039c-0.531-6.96-6.365-12.461-13.46-12.461
	c-0.373,0-0.752,0.018-1.143,0.054c-2.35-4.319-6.888-7.054-11.857-7.054c-4.187,0-8.093,1.932-10.646,5.217
	c-0.792-0.145-1.581-0.217-2.354-0.217c-7.444,0-13.5,6.056-13.5,13.5c0,4.986,2.724,9.339,6.755,11.677l0.458,21.38
	c-0.808,0.439-2.034,1.242-3.603,2.666c-5.429,4.936-7.206,16.869-1.075,26.105c6.825,10.283,14.822,14.672,26.742,14.672
	c12.629,0,16.854-6.338,20.1-12.83c2.759-5.518,3.091-10.074,3.819-20.059c0.102-1.387,0.21-2.879,0.334-4.496
	c0.34-4.412,0.679-8.764,0.979-12.59C104.443,70.906,107.965,66.048,107.965,60.375z M95.505,85.26
	c-0.125,1.621-0.234,3.119-0.336,4.51c-0.698,9.576-1.018,13.947-3.511,18.934c-3.056,6.113-6.475,11.172-17.416,11.172
	c-10.936,0-17.959-3.861-24.242-13.33c-3.661-5.516-5.25-16.916,0.593-22.227c0.631-0.574,1.188-1.021,1.66-1.371l0.224,10.709
	c0.018,0.818,0.898,1.719,1.532,1.719s1.485-0.939,1.468-1.768l-0.984-46.202c0-2.649,1.646-4.469,4.004-4.469
	s4.004,1.913,4.005,4.616l1,28.125c0.029,0.808,0.749,1.697,1.507,1.697s1.471-0.902,1.491-1.712l0.876-34.788
	c0-2.243,1.702-4,3.875-4c2.138,0,3.75,1.72,3.75,4v31.5c0,0.813,0.625,2,1.501,2s1.456-0.874,1.497-1.674l1.252-24.826
	c0-2.131,1.986-4,4.25-4c2.206,0,4,1.794,4.001,3.954l-1,32.5c-0.025,0.809,0.596,1.492,1.403,1.543
	c0.792,0.049,1.51-0.547,1.589-1.352l2-20.5c0.005-0.048,0.007-0.097,0.007-0.146c0-1.654,1.346-3,3-3c1.636,0,2.971,1.316,3,2.946
	C97.421,60.809,96.463,72.805,95.505,85.26z M99.746,69.435c0.443-5.615,0.749-9.44,0.749-9.44c0.003-0.04,0.005-0.08,0.005-0.12
	c0-3.309-2.691-6-6-6c-1.653,0-3.152,0.672-4.238,1.757l0.238-7.757c0-3.859-3.141-7-7-7c-2.173,0-4.158,0.979-5.5,2.483v-2.483
	c0-3.925-2.965-7-6.75-7c-3.855,0-6.875,3.075-6.875,6.962l-0.057,2.257c-1.235-1.972-3.339-3.219-5.822-3.219
	c-3.993,0-7.004,3.225-7.004,7.532l0.148,6.932c-2.246-1.927-3.676-4.779-3.676-7.964c0-5.79,4.71-10.5,10.5-10.5
	c0.852,0,1.734,0.116,2.623,0.345c0.619,0.161,1.272-0.092,1.625-0.625c1.955-2.955,5.228-4.72,8.752-4.72
	c4.162,0,7.936,2.467,9.613,6.285c0.277,0.631,0.954,0.994,1.624,0.875c0.637-0.107,1.213-0.16,1.763-0.16
	c5.79,0,10.5,4.71,10.499,10.489c-0.002,0.027-0.007,0.138-0.008,0.165c-0.012,0.742,0.521,1.381,1.252,1.504
	c5.074,0.85,8.757,5.198,8.757,10.342C104.965,64.238,102.862,67.611,99.746,69.435z"/>
</svg>
