<?xml version="1.0" encoding="UTF-8" standalone="no"?>
<!-- Created with Inkscape (http://www.inkscape.org/) -->

<svg
   xmlns:dc="http://purl.org/dc/elements/1.1/"
   xmlns:cc="http://creativecommons.org/ns#"
   xmlns:rdf="http://www.w3.org/1999/02/22-rdf-syntax-ns#"
   xmlns:svg="http://www.w3.org/2000/svg"
   xmlns="http://www.w3.org/2000/svg"
   xmlns:xlink="http://www.w3.org/1999/xlink"
   xmlns:sodipodi="http://sodipodi.sourceforge.net/DTD/sodipodi-0.dtd"
   xmlns:inkscape="http://www.inkscape.org/namespaces/inkscape"
   width="100mm"
   height="100mm"
   viewBox="0 0 354.33071 354.33071"
   id="svg10491"
   version="1.1"
   inkscape:version="0.91 r13725"
   sodipodi:docname="clear_n.svg">
  <defs
     id="defs10493">
    <linearGradient
       inkscape:collect="always"
       id="linearGradient4956-3-2">
      <stop
         style="stop-color:#002d82;stop-opacity:1"
         offset="0"
         id="stop4974" />
      <stop
         style="stop-color:#acb5ff;stop-opacity:0"
         offset="1"
         id="stop4976" />
    </linearGradient>
    <clipPath
       id="clipPath1646"
       clipPathUnits="userSpaceOnUse">
      <path
         inkscape:connector-curvature="0"
         id="path1644"
         d="m 1010.33,6333.02 c -69.799,0 -137.392,31.99 -183.744,86.99 -49.602,58.81 -62.891,137.42 -22.449,204.73 43.988,73.27 124.343,118 206.193,118 80.38,0 157.02,-42.54 202.58,-112.26 48.37,-74.02 26.9,-165.57 -32.66,-225.63 -45.47,-45.87 -106.9,-71.83 -169.92,-71.83" />
    </clipPath>
    <linearGradient
       id="linearGradient1652"
       spreadMethod="pad"
       gradientTransform="matrix(-1.72e-5,-393.497,-393.497,1.72e-5,1009.91,6727.9)"
       gradientUnits="userSpaceOnUse"
       y2="0"
       x2="1"
       y1="0"
       x1="0">
      <stop
         id="stop1648"
         offset="0"
         style="stop-opacity:1;stop-color:#fdf9e5" />
      <stop
         id="stop1650"
         offset="1"
         style="stop-opacity:1;stop-color:#f7db69" />
    </linearGradient>
    <clipPath
       id="clipPath1628"
       clipPathUnits="userSpaceOnUse">
      <path
         inkscape:connector-curvature="0"
         id="path1626"
         d="M 0,7267.61 0,0 l 12000,0 0,7267.61 z" />
    </clipPath>
    <linearGradient
       inkscape:collect="always"
       xlink:href="#linearGradient4956-3-2"
       id="linearGradient4978"
       x1="52.142857"
       y1="957.36218"
       x2="300.71426"
       y2="800.2193"
       gradientUnits="userSpaceOnUse" />
  </defs>
  <sodipodi:namedview
     id="base"
     pagecolor="#ffffff"
     bordercolor="#666666"
     borderopacity="1.0"
     inkscape:pageopacity="0.0"
     inkscape:pageshadow="2"
     inkscape:zoom="1.4"
     inkscape:cx="223.60699"
     inkscape:cy="239.79629"
     inkscape:document-units="px"
     inkscape:current-layer="layer1"
     showgrid="false"
     inkscape:window-width="1594"
     inkscape:window-height="974"
     inkscape:window-x="266"
     inkscape:window-y="111"
     inkscape:window-maximized="0" />
  <metadata
     id="metadata10496">
    <rdf:RDF>
      <cc:Work
         rdf:about="">
        <dc:format>image/svg+xml</dc:format>
        <dc:type
           rdf:resource="http://purl.org/dc/dcmitype/StillImage" />
        <dc:title></dc:title>
      </cc:Work>
    </rdf:RDF>
  </metadata>
  <g
     inkscape:label="Layer 1"
     inkscape:groupmode="layer"
     id="layer1"
     transform="translate(0,-698.0315)">
    <g
       id="g5009">
      <path
         sodipodi:nodetypes="cscsscc"
         inkscape:connector-curvature="0"
         d="m 281.09129,967.90925 c -96.1246,0 -176.906,-62.20996 -176.906,-158.33461 0,-33.0258 11.34135,-73.90215 27.31629,-100.20941 -68.659423,23.30984 -117.372871,82.54832 -117.372871,159.08785 0,96.1246 77.924255,174.04902 174.048891,174.04902 63.10004,0 118.35493,-33.5784 148.8767,-83.8396 -17.5696,5.9635 -36.37784,9.24675 -55.96301,9.24675"
         style="fill:url(#linearGradient4978);fill-opacity:1;fill-rule:nonzero;stroke:none"
         id="path48" />
      <path
         inkscape:connector-curvature="0"
         d="m 55.864291,844.09528 c 0,9.3951 -7.617162,17.01226 -17.012274,17.01226 -9.396311,0 -17.012262,-7.61716 -17.012262,-17.01226 0,-9.39632 7.615951,-17.01228 17.012262,-17.01228 9.395112,0 17.012274,7.61596 17.012274,17.01228"
         style="fill:#4350ba;fill-opacity:1;fill-rule:nonzero;stroke:none"
         id="path56" />
      <path
         inkscape:connector-curvature="0"
         d="m 171.42876,776.49207 2.65333,8.16522 c 0.37967,1.16981 1.46984,1.96141 2.69975,1.96141 l 8.58545,0 c 2.75009,0 3.89351,3.51921 1.66872,5.13564 l -6.94606,5.0467 c -0.99488,0.72271 -1.4112,2.00393 -1.03103,3.17374 l 2.65284,8.16523 c 0.85024,2.6157 -2.14368,4.79064 -4.36847,3.17422 l -6.94557,-5.04671 c -0.99536,-0.7227 -2.34255,-0.7227 -3.33743,0 l -6.94606,5.04671 c -2.22479,1.61642 -5.21822,-0.55852 -4.36846,-3.17422 l 2.65333,-8.16523 c 0.38016,-1.16981 -0.0366,-2.45103 -1.03153,-3.17374 l -6.94557,-5.0467 c -2.22479,-1.61643 -1.08136,-5.13564 1.66871,-5.13564 l 8.58546,0 c 1.22991,0 2.31959,-0.7916 2.69975,-1.96141 l 2.65285,-8.16522 c 0.85023,-2.61571 4.55023,-2.61571 5.39999,0"
         style="fill:#f7d007;fill-opacity:1;fill-rule:nonzero;stroke:none"
         id="path58" />
      <path
         inkscape:connector-curvature="0"
         d="m 196.46356,725.47674 1.9746,6.07872 c 0.28293,0.87076 1.09457,1.46055 2.0103,1.46055 l 6.39094,0 c 2.04742,0 2.89865,2.61962 1.24215,3.82265 l -5.17033,3.75718 c -0.7408,0.538 -1.05059,1.49182 -0.76767,2.36259 l 1.97509,6.07872 c 0.63232,1.94675 -1.59589,3.56611 -3.25238,2.36258 l -5.17085,-3.75668 c -0.74029,-0.538 -1.74346,-0.538 -2.48424,0 l -5.17082,3.75668 c -1.65601,1.20353 -3.88471,-0.41583 -3.25192,-2.36258 l 1.97509,-6.07872 c 0.28293,-0.87077 -0.0269,-1.82459 -0.76766,-2.36259 l -5.17081,-3.75718 c -1.65651,-1.20303 -0.80528,-3.82265 1.24213,-3.82265 l 6.39145,0 c 0.91571,0 1.72686,-0.58979 2.00979,-1.46055 l 1.97509,-6.07872 c 0.63279,-1.94675 3.38728,-1.94675 4.02005,0"
         style="fill:#f7d007;fill-opacity:1;fill-rule:nonzero;stroke:none"
         id="path60" />
      <path
         inkscape:connector-curvature="0"
         d="m 281.31404,738.93328 1.29143,3.9742 c 0.1848,0.56937 0.71541,0.95465 1.31402,0.95465 l 4.17873,0 c 1.33853,0 1.89506,1.71288 0.8122,2.49964 l -3.38079,2.45634 c -0.48424,0.35175 -0.68687,0.97534 -0.50183,1.54472 l 1.2912,3.9742 c 0.41383,1.27311 -1.04338,2.3317 -2.12623,1.54496 l -3.38057,-2.45635 c -0.48446,-0.35175 -1.14016,-0.35175 -1.62439,0 l -3.38081,2.45635 c -1.08284,0.78674 -2.53982,-0.27185 -2.12623,-1.54496 l 1.29145,-3.9742 c 0.18503,-0.56938 -0.0178,-1.19297 -0.50208,-1.54472 l -3.38055,-2.45634 c -1.08286,-0.78676 -0.52632,-2.49964 0.8122,-2.49964 l 4.17873,0 c 0.59862,0 1.12899,-0.38528 1.31402,-0.95465 l 1.2912,-3.9742 c 0.41382,-1.27313 2.2147,-1.27313 2.6283,0"
         style="fill:#f7d007;fill-opacity:1;fill-rule:nonzero;stroke:none"
         id="path58-0" />
      <path
         inkscape:connector-curvature="0"
         d="m 260.04057,837.30825 2.84789,9.10241 c 0.40751,1.30408 1.57762,2.18654 2.89771,2.18654 l 9.21498,0 c 2.95174,0 4.179,3.92314 1.79108,5.7251 l -7.45538,5.62596 c -1.06783,0.80566 -1.51468,2.23393 -1.10663,3.53801 l 2.84736,9.10243 c 0.91258,2.91592 -2.30087,5.3405 -4.68879,3.53855 l -7.45486,-5.62596 c -1.06834,-0.80566 -2.51432,-0.80566 -3.58215,0 l -7.45538,5.62596 c -2.38792,1.80195 -5.60085,-0.62263 -4.68878,-3.53855 l 2.84789,-9.10243 c 0.40803,-1.30408 -0.0393,-2.73235 -1.10717,-3.53801 l -7.45486,-5.62596 c -2.38792,-1.80196 -1.16065,-5.7251 1.79107,-5.7251 l 9.21499,0 c 1.3201,0 2.48968,-0.88246 2.89771,-2.18654 l 2.84738,-9.10241 c 0.91257,-2.91594 4.88387,-2.91594 5.79594,0"
         style="fill:#f7d007;fill-opacity:1;fill-rule:nonzero;stroke:none"
         id="path58-3" />
      <path
         inkscape:connector-curvature="0"
         d="m 189.86942,989.86222 c 0,7.22553 -5.85817,13.08368 -13.08371,13.08368 -7.22646,0 -13.08369,-5.85815 -13.08369,-13.08368 0,-7.22647 5.85723,-13.08371 13.08369,-13.08371 7.22554,0 13.08371,5.85724 13.08371,13.08371"
         style="fill:#4350ba;fill-opacity:1;fill-rule:nonzero;stroke:none"
         id="path56-1" />
      <path
         inkscape:connector-curvature="0"
         d="m 139.86941,965.21938 c 0,14.1287 -12.09461,25.58368 -27.01227,25.58368 -14.919574,0 -27.012261,-11.45498 -27.012261,-25.58368 0,-14.13055 12.092687,-25.58372 27.012261,-25.58372 14.91766,0 27.01227,11.45317 27.01227,25.58372"
         style="fill:#4350ba;fill-opacity:1;fill-rule:nonzero;stroke:none"
         id="path56-6" />
      <path
         inkscape:connector-curvature="0"
         d="m 112.72655,898.0765 c 0,9.3951 -7.61716,17.01226 -17.01227,17.01226 -9.396311,0 -17.012262,-7.61716 -17.012262,-17.01226 0,-9.39632 7.615951,-17.01228 17.012262,-17.01228 9.39511,0 17.01227,7.61596 17.01227,17.01228"
         style="fill:#4350ba;fill-opacity:1;fill-rule:nonzero;stroke:none"
         id="path56-9" />
    </g>
  </g>
</svg>
