<?xml version="1.0" encoding="UTF-8" standalone="no"?>
<!-- Created with Inkscape (http://www.inkscape.org/) -->

<svg
   xmlns:dc="http://purl.org/dc/elements/1.1/"
   xmlns:cc="http://creativecommons.org/ns#"
   xmlns:rdf="http://www.w3.org/1999/02/22-rdf-syntax-ns#"
   xmlns:svg="http://www.w3.org/2000/svg"
   xmlns="http://www.w3.org/2000/svg"
   xmlns:xlink="http://www.w3.org/1999/xlink"
   xmlns:sodipodi="http://sodipodi.sourceforge.net/DTD/sodipodi-0.dtd"
   xmlns:inkscape="http://www.inkscape.org/namespaces/inkscape"
   width="100mm"
   height="100mm"
   viewBox="0 0 354.33071 354.33071"
   id="svg10764"
   version="1.1"
   inkscape:version="0.91 r13725"
   sodipodi:docname="cloud.svg">
  <defs
     id="defs10766">
    <clipPath
       id="clipPath1958-8"
       clipPathUnits="userSpaceOnUse">
      <path
         inkscape:connector-curvature="0"
         id="path1956-0"
         d="M 0,7267.61 0,0 l 12000,0 0,7267.61 z" />
    </clipPath>
    <clipPath
       id="clipPath1968-3"
       clipPathUnits="userSpaceOnUse">
      <path
         inkscape:connector-curvature="0"
         id="path1966-2"
         d="m 3151.79,6046.54 c -41.84,0 -78.44,22.26 -98.85,55.46 -27.73,-33.83 -69.82,-55.46 -116.97,-55.46 -63.5,0 -117.74,39.18 -140.16,94.64 -24.3,-15.33 -52.99,-24.29 -83.86,-24.29 -87.09,0 -157.74,70.61 -157.74,157.73 0,87.13 70.65,157.78 157.74,157.78 8.5,0 16.76,-0.88 24.9,-2.15 l 0,0 0,0 c -0.05,1.38 -0.22,2.73 -0.22,4.1 0,86.6 70.18,156.78 156.78,156.78 80.22,0 146.25,-60.29 155.52,-138.04 27.26,21.15 61.37,33.86 98.54,33.86 77.85,0 142.83,-55.29 157.77,-128.77 9.21,2.22 18.82,3.55 28.69,3.55 67.62,0 122.45,-54.83 122.45,-122.43 0,-67.61 -54.83,-122.41 -122.45,-122.41 -25.47,0 -49.1,7.78 -68.72,21.09 -11.3,-52.24 -57.74,-91.44 -113.42,-91.44 m 182.14,251.58 c 47.87,0 87.79,-33.92 97.14,-79.01 1.35,6.52 2.06,13.26 2.06,20.19 0,54.75 -44.4,99.15 -99.2,99.15 -20.9,0 -40.27,-6.54 -56.28,-17.63 0.05,1.7 0.25,3.38 0.25,5.09 0,72.05 -58.41,130.43 -130.43,130.43 -72.05,0 -130.45,-58.38 -130.45,-130.43 0,-6.88 0.68,-13.59 1.7,-20.16 9.74,62.41 63.57,110.25 128.75,110.25 72.02,0 130.43,-58.4 130.43,-130.45 0,-1.71 -0.2,-3.39 -0.25,-5.07 16.01,11.06 35.38,17.64 56.28,17.64 m -621.98,104.3 c -70.53,0 -127.75,-57.22 -127.75,-127.8 0,-6.87 0.68,-13.58 1.73,-20.16 9.71,60.97 62.37,107.62 126.02,107.62 23.58,0 45.56,-6.49 64.49,-17.6 l 0,0 0,0 c -5.94,14.05 -9.33,29.43 -9.82,45.53 -16.59,7.87 -35.08,12.41 -54.67,12.41 m 181.46,118.59 c 63.25,0 115.55,-46.3 125.23,-106.82 1.04,6.58 1.73,13.28 1.73,20.16 0,70.16 -56.84,126.99 -126.96,126.99 -70.15,0 -126.98,-56.83 -126.98,-126.99 0,-6.88 0.68,-13.58 1.73,-20.16 9.71,60.52 61.98,106.82 125.25,106.82" />
    </clipPath>
    <linearGradient
       id="linearGradient1976"
       spreadMethod="pad"
       gradientTransform="matrix(-2.4e-5,-548.957,-548.957,2.4e-5,3005.3,6570.39)"
       gradientUnits="userSpaceOnUse"
       y2="0"
       x2="1"
       y1="0"
       x1="0">
      <stop
         id="stop1970"
         offset="0"
         style="stop-opacity:1;stop-color:#e3f0ff" />
      <stop
         id="stop1972"
         offset="0.21864012"
         style="stop-opacity:1;stop-color:#e3f0ff" />
      <stop
         id="stop1974"
         offset="1"
         style="stop-opacity:1;stop-color:#3d78a6" />
    </linearGradient>
    <clipPath
       id="clipPath1986-4"
       clipPathUnits="userSpaceOnUse">
      <path
         inkscape:connector-curvature="0"
         id="path1984-5"
         d="M 0,7267.61 0,0 l 12000,0 0,7267.61 z" />
    </clipPath>
    <linearGradient
       inkscape:collect="always"
       xlink:href="#linearGradient13056"
       id="linearGradient13263"
       gradientUnits="userSpaceOnUse"
       gradientTransform="matrix(1.456497,0,0,1.5412759,-124.97658,-316.43829)"
       x1="209.08739"
       y1="742.75476"
       x2="336.88724"
       y2="770.90125" />
    <linearGradient
       x1="0"
       y1="0"
       x2="1"
       y2="0"
       gradientUnits="userSpaceOnUse"
       gradientTransform="matrix(-2.4e-5,-548.957,-548.957,2.4e-5,3005.3,6570.39)"
       spreadMethod="pad"
       id="linearGradient13056">
      <stop
         style="stop-opacity:1;stop-color:#fcfdff"
         offset="0"
         id="stop13058" />
      <stop
         style="stop-opacity:1;stop-color:#e3f0ff"
         offset="0.53854817"
         id="stop13060" />
      <stop
         style="stop-opacity:1;stop-color:#e3f0ff"
         offset="1"
         id="stop13062" />
    </linearGradient>
    <linearGradient
       inkscape:collect="always"
       xlink:href="#linearGradient1976-5"
       id="linearGradient13265"
       gradientUnits="userSpaceOnUse"
       gradientTransform="matrix(1.4655864,0,0,1.571646,-270.68057,-394.11687)"
       x1="312.84216"
       y1="762.28723"
       x2="220.57614"
       y2="745.50629" />
    <linearGradient
       x1="0"
       y1="0"
       x2="1"
       y2="0"
       gradientUnits="userSpaceOnUse"
       gradientTransform="matrix(-2.4e-5,-548.957,-548.957,2.4e-5,3005.3,6570.39)"
       spreadMethod="pad"
       id="linearGradient1976-5">
      <stop
         style="stop-opacity:1;stop-color:#f6f9fc"
         offset="0"
         id="stop13050" />
      <stop
         style="stop-opacity:1;stop-color:#fbfdfe"
         offset="0.36808839"
         id="stop13052" />
      <stop
         style="stop-opacity:1;stop-color:#ffffff"
         offset="1"
         id="stop13054" />
    </linearGradient>
    <linearGradient
       inkscape:collect="always"
       xlink:href="#linearGradient1902"
       id="linearGradient13267"
       gradientUnits="userSpaceOnUse"
       gradientTransform="matrix(1.4526272,0,0,1.4824667,-182.02599,-548.95062)"
       x1="138.99072"
       y1="947.46375"
       x2="188.58286"
       y2="947.46375" />
    <linearGradient
       id="linearGradient1902"
       spreadMethod="pad"
       gradientTransform="matrix(-3.43e-5,-784.19,-784.19,3.43e-5,3005.3,6945.35)"
       gradientUnits="userSpaceOnUse"
       y2="0"
       x2="1"
       y1="0"
       x1="0">
      <stop
         id="stop1896"
         offset="0"
         style="stop-opacity:1;stop-color:#ffffff" />
      <stop
         id="stop1898"
         offset="0.45629302"
         style="stop-opacity:1;stop-color:#e3f0ff" />
      <stop
         id="stop1900"
         offset="1"
         style="stop-opacity:1;stop-color:#f6f9fc" />
    </linearGradient>
    <clipPath
       id="clipPath1474"
       clipPathUnits="userSpaceOnUse">
      <path
         inkscape:connector-curvature="0"
         id="path1472"
         d="M 0,7267.61 0,0 l 12000,0 0,7267.61 z" />
    </clipPath>
    <clipPath
       id="clipPath1508"
       clipPathUnits="userSpaceOnUse">
      <path
         inkscape:connector-curvature="0"
         id="path1506"
         d="m 9571.65,6443.55 c -13.32,64.42 -70.37,112.85 -138.71,112.85 -29.93,0 -57.61,-9.38 -80.44,-25.2 0.12,2.42 0.39,4.82 0.39,7.26 0,102.92 -83.47,186.35 -186.36,186.35 -93.09,0 -170.01,-68.33 -183.93,-157.53 -1.43,9.42 -2.42,19 -2.42,28.82 0,102.92 83.41,186.34 186.35,186.34 102.89,0 186.36,-83.42 186.36,-186.34 0,-2.45 -0.27,-4.84 -0.39,-7.26 22.83,15.82 50.51,25.2 80.44,25.2 78.24,0 141.68,-63.43 141.68,-141.67 0,-9.87 -1.05,-19.5 -2.97,-28.82" />
    </clipPath>
    <clipPath
       id="clipPath1496"
       clipPathUnits="userSpaceOnUse">
      <path
         inkscape:connector-curvature="0"
         id="path1494"
         d="m 8982.49,6722.22 c -13.87,86.46 -88.58,152.58 -178.93,152.58 -90.34,0 -165.06,-66.12 -178.87,-152.58 -1.54,9.41 -2.53,18.98 -2.53,28.82 0,100.19 81.21,181.4 181.4,181.4 100.2,0 181.4,-81.21 181.4,-181.4 0,-9.84 -0.99,-19.41 -2.47,-28.82" />
    </clipPath>
    <clipPath
       id="clipPath1484"
       clipPathUnits="userSpaceOnUse">
      <path
         inkscape:connector-curvature="0"
         id="path1482"
         d="m 8364.34,6494.04 c -1.49,9.41 -2.49,18.98 -2.49,28.82 0,100.81 81.71,182.54 182.52,182.54 27.99,0 54.41,-6.48 78.07,-17.73 0.71,-23.01 5.56,-44.97 14.08,-65.03 -27.07,15.86 -58.48,25.12 -92.15,25.12 -90.95,0 -166.17,-66.64 -180.03,-153.72" />
    </clipPath>
    <clipPath
       id="clipPath1474-7"
       clipPathUnits="userSpaceOnUse">
      <path
         inkscape:connector-curvature="0"
         id="path1472-3"
         d="M 0,7267.61 0,0 l 12000,0 0,7267.61 z" />
    </clipPath>
    <clipPath
       id="clipPath1456"
       clipPathUnits="userSpaceOnUse">
      <path
         inkscape:connector-curvature="0"
         id="path1454"
         d="m 9172.7,6197.02 c -59.76,0 -112.03,31.76 -141.19,79.23 -39.61,-48.35 -99.75,-79.23 -167.14,-79.23 -90.68,0 -168.21,55.95 -200.23,135.18 -34.72,-21.88 -75.7,-34.71 -119.77,-34.71 -124.41,0 -225.32,100.89 -225.32,225.37 0,124.45 100.91,225.35 225.32,225.35 12.15,0 23.93,-1.22 35.53,-3.06 l 0,0 0,0 c -0.05,1.97 -0.27,3.89 -0.27,5.89 0,123.69 100.25,223.94 223.93,223.94 114.61,0 208.97,-86.13 222.23,-197.18 38.9,30.2 87.65,48.36 140.74,48.36 111.25,0 204.02,-78.99 225.42,-183.94 13.15,3.18 26.85,5.03 40.99,5.03 96.56,0 174.91,-78.29 174.91,-174.88 0,-96.58 -78.35,-174.88 -174.91,-174.88 -36.42,0 -70.21,11.14 -98.21,30.16 -16.12,-74.66 -82.47,-130.63 -162.03,-130.63 m 260.24,359.38 c 68.34,0 125.39,-48.43 138.71,-112.85 1.92,9.32 2.97,18.95 2.97,28.82 0,78.24 -63.44,141.67 -141.68,141.67 -29.93,0 -57.61,-9.38 -80.44,-25.2 0.12,2.42 0.39,4.81 0.39,7.26 0,102.92 -83.47,186.34 -186.36,186.34 -102.94,0 -186.35,-83.42 -186.35,-186.34 0,-9.82 0.99,-19.4 2.42,-28.82 13.92,89.2 90.84,157.53 183.93,157.53 102.89,0 186.36,-83.43 186.36,-186.35 0,-2.44 -0.27,-4.84 -0.39,-7.26 22.83,15.82 50.51,25.2 80.44,25.2 m -888.57,149 c -100.81,0 -182.52,-81.73 -182.52,-182.54 0,-9.84 1,-19.41 2.49,-28.82 13.86,87.08 89.08,153.72 180.03,153.72 33.67,0 65.08,-9.26 92.15,-25.12 l 0,0 0,0 c -8.52,20.06 -13.37,42.02 -14.08,65.03 -23.66,11.25 -50.08,17.73 -78.07,17.73 m 259.19,169.4 c 90.35,0 165.06,-66.12 178.93,-152.58 1.48,9.41 2.47,18.98 2.47,28.82 0,100.19 -81.2,181.4 -181.4,181.4 -100.19,0 -181.4,-81.21 -181.4,-181.4 0,-9.84 0.99,-19.41 2.53,-28.82 13.81,86.46 88.53,152.58 178.87,152.58" />
    </clipPath>
    <linearGradient
       id="linearGradient1464"
       spreadMethod="pad"
       gradientTransform="matrix(-3.43e-5,-784.19,-784.19,3.43e-5,8963.46,6945.35)"
       gradientUnits="userSpaceOnUse"
       y2="0"
       x2="1"
       y1="0"
       x1="0">
      <stop
         id="stop1458"
         offset="0"
         style="stop-opacity:1;stop-color:#e3f0ff" />
      <stop
         id="stop1460"
         offset="0.21864012"
         style="stop-opacity:1;stop-color:#e3f0ff" />
      <stop
         id="stop1462"
         offset="1"
         style="stop-opacity:1;stop-color:#89c9e2" />
    </linearGradient>
  </defs>
  <sodipodi:namedview
     id="base"
     pagecolor="#ffffff"
     bordercolor="#666666"
     borderopacity="1.0"
     inkscape:pageopacity="0.0"
     inkscape:pageshadow="2"
     inkscape:zoom="3.959798"
     inkscape:cx="156.6655"
     inkscape:cy="240.13248"
     inkscape:document-units="px"
     inkscape:current-layer="layer1"
     showgrid="false"
     inkscape:window-width="1399"
     inkscape:window-height="1126"
     inkscape:window-x="648"
     inkscape:window-y="133"
     inkscape:window-maximized="0" />
  <metadata
     id="metadata10769">
    <rdf:RDF>
      <cc:Work
         rdf:about="">
        <dc:format>image/svg+xml</dc:format>
        <dc:type
           rdf:resource="http://purl.org/dc/dcmitype/StillImage" />
        <dc:title></dc:title>
      </cc:Work>
    </rdf:RDF>
  </metadata>
  <g
     inkscape:label="Layer 1"
     inkscape:groupmode="layer"
     id="layer1"
     transform="translate(0,-698.0315)"
     style="display:inline">
    <g
       id="g11989">
      <g
         transform="matrix(1.961464,0,0,1.961464,-354.97349,-314.41003)"
         id="g11809">
        <g
           id="g1450"
           transform="matrix(0.13333333,0,0,-0.13333333,-923.69873,1476.2098)">
          <g
             clip-path="url(#clipPath1456)"
             id="g1452">
            <path
               id="path1466"
               style="fill:url(#linearGradient1464);fill-opacity:1;fill-rule:nonzero;stroke:none"
               d="m 9172.7,6197.02 c -59.76,0 -112.03,31.76 -141.19,79.23 -39.61,-48.35 -99.75,-79.23 -167.14,-79.23 -90.68,0 -168.21,55.95 -200.23,135.18 -34.72,-21.88 -75.7,-34.71 -119.77,-34.71 -124.41,0 -225.32,100.89 -225.32,225.37 0,124.45 100.91,225.35 225.32,225.35 12.15,0 23.93,-1.22 35.53,-3.06 l 0,0 c -0.05,1.97 -0.27,3.89 -0.27,5.89 0,123.69 100.25,223.94 223.93,223.94 114.61,0 208.97,-86.13 222.23,-197.18 38.9,30.2 87.65,48.36 140.74,48.36 111.25,0 204.02,-78.99 225.42,-183.94 13.15,3.18 26.85,5.03 40.99,5.03 96.56,0 174.91,-78.29 174.91,-174.88 0,-96.58 -78.35,-174.88 -174.91,-174.88 -36.42,0 -70.21,11.14 -98.21,30.16 -16.12,-74.66 -82.47,-130.63 -162.03,-130.63 m 260.24,359.38 c 68.34,0 125.39,-48.43 138.71,-112.85 1.92,9.32 2.97,18.95 2.97,28.82 0,78.24 -63.44,141.67 -141.68,141.67 -29.93,0 -57.61,-9.38 -80.44,-25.2 0.12,2.42 0.39,4.81 0.39,7.26 0,102.92 -83.47,186.34 -186.36,186.34 -102.94,0 -186.35,-83.42 -186.35,-186.34 0,-9.82 0.99,-19.4 2.42,-28.82 13.92,89.2 90.84,157.53 183.93,157.53 102.89,0 186.36,-83.43 186.36,-186.35 0,-2.44 -0.27,-4.84 -0.39,-7.26 22.83,15.82 50.51,25.2 80.44,25.2 m -888.57,149 c -100.81,0 -182.52,-81.73 -182.52,-182.54 0,-9.84 1,-19.41 2.49,-28.82 13.86,87.08 89.08,153.72 180.03,153.72 33.67,0 65.08,-9.26 92.15,-25.12 l 0,0 c -8.52,20.06 -13.37,42.02 -14.08,65.03 -23.66,11.25 -50.08,17.73 -78.07,17.73 m 259.19,169.4 c 90.35,0 165.06,-66.12 178.93,-152.58 1.48,9.41 2.47,18.98 2.47,28.82 0,100.19 -81.2,181.4 -181.4,181.4 -100.19,0 -181.4,-81.21 -181.4,-181.4 0,-9.84 0.99,-19.41 2.53,-28.82 13.81,86.46 88.53,152.58 178.87,152.58"
               inkscape:connector-curvature="0" />
          </g>
        </g>
        <g
           id="g1468"
           transform="matrix(0.13333333,0,0,-0.13333333,-923.69873,1476.2098)">
          <g
             clip-path="url(#clipPath1474-7)"
             id="g1470">
            <path
               id="path1476"
               style="fill:#89c0e2;fill-opacity:1;fill-rule:nonzero;stroke:none"
               d="m 8803.56,7003.15 c -130.5,0 -238.18,-99.69 -250.84,-226.92 -2.86,0.1 -5.61,0.15 -8.35,0.15 -139.76,0 -253.49,-113.74 -253.49,-253.52 0,-139.8 113.73,-253.54 253.49,-253.54 37.18,0 73.72,8.23 107.28,23.97 42.86,-76.5 123.3,-124.44 212.72,-124.44 61.56,0 119.88,22.93 164.61,63.87 36.43,-40.5 88.03,-63.87 143.72,-63.87 78.18,0 148.22,47.77 178.31,117.68 25.65,-11.32 53.43,-17.21 81.93,-17.21 111.97,0 203.09,91.08 203.09,203.05 0,111.97 -91.12,203.05 -203.09,203.05 -6.71,0 -13.48,-0.35 -20.3,-1.07 -33.62,105.74 -133.1,179.97 -246.11,179.97 -43.02,0 -84.4,-10.46 -121.65,-30.55 -31.41,104.78 -128.58,179.38 -241.32,179.38 m 0,-28.17 c 114.61,0 208.97,-86.13 222.23,-197.18 38.9,30.2 87.65,48.36 140.74,48.36 111.25,0 204.02,-78.99 225.42,-183.94 13.15,3.18 26.85,5.03 40.99,5.03 96.56,0 174.91,-78.29 174.91,-174.88 0,-96.58 -78.35,-174.88 -174.91,-174.88 -36.42,0 -70.21,11.14 -98.21,30.16 -16.12,-74.66 -82.47,-130.63 -162.03,-130.63 -59.76,0 -112.03,31.76 -141.19,79.23 -39.61,-48.35 -99.75,-79.23 -167.14,-79.23 -90.68,0 -168.21,55.95 -200.23,135.18 -34.72,-21.88 -75.7,-34.71 -119.77,-34.71 -124.41,0 -225.32,100.89 -225.32,225.37 0,124.45 100.91,225.35 225.32,225.35 12.15,0 23.93,-1.22 35.53,-3.06 -0.05,1.97 -0.27,3.89 -0.27,5.89 0,123.69 100.25,223.94 223.93,223.94"
               inkscape:connector-curvature="0" />
          </g>
        </g>
      </g>
      <path
         sodipodi:nodetypes="ccccccccc"
         inkscape:connector-curvature="0"
         id="path8296-4"
         d="m 182.11062,863.52626 c 8.59206,-25.82595 27.01525,-40.71228 54.07506,-38.41454 25.12331,1.50243 40.33536,18.21904 42.62368,47.96919 25.38343,-12.26614 45.66009,-7.0127 58.57097,25.4494 1.08877,-7.21842 1.97959,-25.8588 -12.40335,-38.99462 -16.81907,-12.38276 -29.73681,-10.45635 -45.25542,-2.61464 0.43504,-7.20483 -5.33179,-43.52204 -39.01332,-52.2933 -21.30286,-3.18236 -33.37052,1.93307 -44.86532,13.21094 -11.57481,12.02855 -14.94593,29.91337 -13.7323,45.68757 z"
         style="fill:url(#linearGradient13263);fill-opacity:1;fill-rule:nonzero;stroke:none;stroke-width:1px;stroke-linecap:butt;stroke-linejoin:miter;stroke-opacity:1" />
      <path
         sodipodi:nodetypes="cccccccc"
         inkscape:connector-curvature="0"
         id="path13090-7"
         d="m 88.187096,821.93456 c 8.812094,-20.7276 15.621554,-37.29211 47.309144,-38.93679 13.12903,0.0514 22.72666,5.16314 31.99584,12.76964 8.87496,9.18663 11.96481,20.60939 14.98143,30.02964 0.95591,-11.7129 0.58727,-21.91883 -5.88852,-34.37973 -10.77693,-17.51414 -20.68807,-21.28678 -36.63966,-24.83764 -12.45718,-0.58164 -24.3585,0.6363 -37.03223,13.33091 -7.754664,8.24248 -17.743025,19.6702 -14.726004,42.02397 z"
         style="fill:url(#linearGradient13265);fill-opacity:1;fill-rule:evenodd;stroke:none;stroke-width:1px;stroke-linecap:butt;stroke-linejoin:miter;stroke-opacity:1" />
      <path
         sodipodi:nodetypes="ccccccccccccc"
         inkscape:connector-curvature="0"
         id="path13130-8"
         d="m 20.563476,883.85236 c 2.166289,-7.40887 2.567577,-13.88809 11.922424,-25.08341 6.459703,-5.39499 9.34834,-10.84985 26.963013,-15.34956 8.230548,-0.97385 13.861992,-0.64402 17.700211,0.37439 5.875935,1.06848 10.596435,3.14768 14.765465,5.70928 -0.84266,-2.74545 -1.51014,-5.49089 -2.10935,-8.23635 -0.44309,-2.99504 -0.71773,-5.99006 -0.91712,-8.9851 -6.183844,-3.1868 -13.809687,-4.92392 -22.194032,-4.86694 -8.439654,-0.0464 -16.505731,2.44875 -24.2117,7.394 -5.836715,3.64393 -11.525465,8.94889 -16.874822,18.0638 -2.353154,4.77385 -4.245318,9.86136 -5.135807,15.63035 -0.789503,5.11651 -0.649743,11.75044 0.272021,16.86695 z"
         style="fill:url(#linearGradient13267);fill-opacity:1;fill-rule:evenodd;stroke:none;stroke-width:1px;stroke-linecap:butt;stroke-linejoin:miter;stroke-opacity:1" />
    </g>
  </g>
</svg>
