<?xml version="1.0" encoding="UTF-8" standalone="no"?>
<!-- Created with Inkscape (http://www.inkscape.org/) -->

<svg
   xmlns:dc="http://purl.org/dc/elements/1.1/"
   xmlns:cc="http://creativecommons.org/ns#"
   xmlns:rdf="http://www.w3.org/1999/02/22-rdf-syntax-ns#"
   xmlns:svg="http://www.w3.org/2000/svg"
   xmlns="http://www.w3.org/2000/svg"
   xmlns:sodipodi="http://sodipodi.sourceforge.net/DTD/sodipodi-0.dtd"
   xmlns:inkscape="http://www.inkscape.org/namespaces/inkscape"
   width="40mm"
   height="40mm"
   viewBox="0 0 141.73228 141.73228"
   id="svg5677"
   version="1.1"
   inkscape:version="0.91 r13725"
   sodipodi:docname="wd_NEE.svg">
  <defs
     id="defs5679" />
  <sodipodi:namedview
     id="base"
     pagecolor="#ffffff"
     bordercolor="#666666"
     borderopacity="1.0"
     inkscape:pageopacity="0.0"
     inkscape:pageshadow="2"
     inkscape:zoom="5.6"
     inkscape:cx="95.241124"
     inkscape:cy="81.978908"
     inkscape:document-units="px"
     inkscape:current-layer="layer1"
     showgrid="false"
     inkscape:window-width="1920"
     inkscape:window-height="1027"
     inkscape:window-x="-8"
     inkscape:window-y="-8"
     inkscape:window-maximized="1" />
  <metadata
     id="metadata5682">
    <rdf:RDF>
      <cc:Work
         rdf:about="">
        <dc:format>image/svg+xml</dc:format>
        <dc:type
           rdf:resource="http://purl.org/dc/dcmitype/StillImage" />
        <dc:title></dc:title>
      </cc:Work>
    </rdf:RDF>
  </metadata>
  <g
     inkscape:label="Layer 1"
     inkscape:groupmode="layer"
     id="layer1"
     transform="translate(0,-910.62989)">
    <path
       id="path696"
       style="fill:#fcffff;fill-opacity:1;fill-rule:nonzero;stroke:#000000;stroke-width:1.625;stroke-miterlimit:4;stroke-dasharray:none;stroke-opacity:1"
       d="m 112.21571,951.34042 c -1.64427,-2.39486 -4.92941,-3.00538 -7.32436,-1.36105 l -56.417691,38.73534 -12.795595,-18.63667 -7.874042,42.40716 42.404949,7.8868 -12.79561,-18.6367 56.417689,-38.73533 c 2.39495,-1.64433 3.00026,-4.93696 1.36113,-7.32436 z m 4.59181,15.99475 -52.074969,35.75373 13.409592,19.531 c 0.822124,1.1974 0.518063,2.8336 -0.67935,3.6557 -0.598768,0.4111 -1.305794,0.5508 -1.970432,0.4274 l -51.232388,-9.5207 c -0.664645,-0.1234 -1.276817,-0.4948 -1.693022,-1.1014 -0.421455,-0.6138 -0.548317,-1.3184 -0.424772,-1.9832 l 9.520406,-51.23244 c 0.128796,-0.65709 0.507996,-1.27419 1.106756,-1.68528 1.197445,-0.82215 2.838843,-0.51047 3.660981,0.68696 l 13.404332,19.5233 52.074976,-35.75372 c 4.7899,-3.28865 11.34733,-2.07007 14.64123,2.72747 l 2.97646,4.3352 c 3.29381,4.79739 2.0701,11.34732 -2.7198,14.63598"
       inkscape:connector-curvature="0" />
  </g>
</svg>
