<?xml version="1.0" encoding="UTF-8" standalone="no"?>
<!-- Created with Inkscape (http://www.inkscape.org/) -->

<svg
   xmlns:dc="http://purl.org/dc/elements/1.1/"
   xmlns:cc="http://creativecommons.org/ns#"
   xmlns:rdf="http://www.w3.org/1999/02/22-rdf-syntax-ns#"
   xmlns:svg="http://www.w3.org/2000/svg"
   xmlns="http://www.w3.org/2000/svg"
   xmlns:sodipodi="http://sodipodi.sourceforge.net/DTD/sodipodi-0.dtd"
   xmlns:inkscape="http://www.inkscape.org/namespaces/inkscape"
   width="40mm"
   height="40mm"
   viewBox="0 0 141.73228 141.73228"
   id="svg5677"
   version="1.1"
   inkscape:version="0.91 r13725"
   sodipodi:docname="wd_NE.svg">
  <defs
     id="defs5679" />
  <sodipodi:namedview
     id="base"
     pagecolor="#ffffff"
     bordercolor="#666666"
     borderopacity="1.0"
     inkscape:pageopacity="0.0"
     inkscape:pageshadow="2"
     inkscape:zoom="5.6"
     inkscape:cx="95.241124"
     inkscape:cy="81.978908"
     inkscape:document-units="px"
     inkscape:current-layer="layer1"
     showgrid="false"
     inkscape:window-width="1920"
     inkscape:window-height="1027"
     inkscape:window-x="-8"
     inkscape:window-y="-8"
     inkscape:window-maximized="1" />
  <metadata
     id="metadata5682">
    <rdf:RDF>
      <cc:Work
         rdf:about="">
        <dc:format>image/svg+xml</dc:format>
        <dc:type
           rdf:resource="http://purl.org/dc/dcmitype/StillImage" />
        <dc:title></dc:title>
      </cc:Work>
    </rdf:RDF>
  </metadata>
  <g
     inkscape:label="Layer 1"
     inkscape:groupmode="layer"
     id="layer1"
     transform="translate(0,-910.62989)">
    <path
       id="path696"
       style="fill:#fcffff;fill-opacity:1;fill-rule:nonzero;stroke:#000000;stroke-width:1.625;stroke-miterlimit:4;stroke-dasharray:none;stroke-opacity:1"
       d="m 106.1386,950.9933 c 2.05145,2.05683 2.04709,5.39824 -0.01,7.44973 l -48.454536,48.32737 15.964182,16.0061 -43.131958,-0.063 0.05027,-43.1321 15.964141,16.00622 48.45456,-48.32743 c 2.056919,-2.05149 5.404712,-2.04059 7.449742,0.01 z m -14.876802,-7.45639 -44.724741,44.60744 -16.7303,-16.77425 c -1.025732,-1.02843 -2.689834,-1.0306 -3.718304,-0.005 -0.514235,0.51289 -0.781567,1.18215 -0.782618,1.85815 l -0.06884,52.10947 c -0.0022,0.676 0.251718,1.346 0.771063,1.8667 0.525825,0.5273 1.195018,0.7816 1.871219,0.7825 l 52.109456,0.069 c 0.669563,-0.01 1.345899,-0.2648 1.860145,-0.7778 1.028429,-1.0257 1.024087,-2.6965 -0.0017,-3.7248 l -16.72366,-16.7677 44.724784,-44.60747 c 4.11382,-4.10297 4.12259,-10.7727 0.013,-14.89309 l -3.71352,-3.72329 c -4.10946,-4.12029 -10.772729,-4.12253 -14.886557,-0.0196"
       inkscape:connector-curvature="0" />
  </g>
</svg>
