<?xml version="1.0" encoding="UTF-8" standalone="no"?>
<!-- Created with Inkscape (http://www.inkscape.org/) -->

<svg
   xmlns:dc="http://purl.org/dc/elements/1.1/"
   xmlns:cc="http://creativecommons.org/ns#"
   xmlns:rdf="http://www.w3.org/1999/02/22-rdf-syntax-ns#"
   xmlns:svg="http://www.w3.org/2000/svg"
   xmlns="http://www.w3.org/2000/svg"
   xmlns:sodipodi="http://sodipodi.sourceforge.net/DTD/sodipodi-0.dtd"
   xmlns:inkscape="http://www.inkscape.org/namespaces/inkscape"
   width="40mm"
   height="40mm"
   viewBox="0 0 141.73228 141.73228"
   id="svg5677"
   version="1.1"
   inkscape:version="0.91 r13725"
   sodipodi:docname="wd_NNW.svg">
  <defs
     id="defs5679" />
  <sodipodi:namedview
     id="base"
     pagecolor="#ffffff"
     bordercolor="#666666"
     borderopacity="1.0"
     inkscape:pageopacity="0.0"
     inkscape:pageshadow="2"
     inkscape:zoom="5.6"
     inkscape:cx="95.241124"
     inkscape:cy="81.978908"
     inkscape:document-units="px"
     inkscape:current-layer="layer1"
     showgrid="false"
     inkscape:window-width="1920"
     inkscape:window-height="1027"
     inkscape:window-x="-8"
     inkscape:window-y="-8"
     inkscape:window-maximized="1" />
  <metadata
     id="metadata5682">
    <rdf:RDF>
      <cc:Work
         rdf:about="">
        <dc:format>image/svg+xml</dc:format>
        <dc:type
           rdf:resource="http://purl.org/dc/dcmitype/StillImage" />
        <dc:title></dc:title>
      </cc:Work>
    </rdf:RDF>
  </metadata>
  <g
     inkscape:label="Layer 1"
     inkscape:groupmode="layer"
     id="layer1"
     transform="translate(0,-910.62989)">
    <path
       id="path696"
       style="fill:#fcffff;fill-opacity:1;fill-rule:nonzero;stroke:#000000;stroke-width:1.625;stroke-miterlimit:4;stroke-dasharray:none;stroke-opacity:1"
       d="m 40.450369,939.2955 c -2.445649,1.56774 -3.159702,4.83194 -1.591909,7.27767 l 36.932535,57.61403 -19.03185,12.2 42.137068,9.2107 9.223347,-42.13446 -19.031877,12.20008 -36.932534,-57.61398 c -1.567794,-2.44573 -4.839644,-3.15483 -7.277658,-1.59198 z m 16.131902,-4.0839 34.089676,53.17919 19.945113,-12.7855 c 1.22282,-0.78387 2.84854,-0.42824 3.63242,0.79459 0.39196,0.61145 0.5092,1.32252 0.36487,1.98294 l -11.13546,50.90578 c -0.14433,0.6605 -0.53514,1.2604 -1.15436,1.6574 -0.62687,0.4018 -1.33507,0.5064 -1.9956,0.3619 l -50.905897,-11.1352 c -0.652689,-0.1495 -1.257493,-0.548 -1.649456,-1.1595 -0.783878,-1.2228 -0.420471,-2.8536 0.802354,-3.6374 l 19.93727,-12.7805 -34.089675,-53.17919 c -3.135593,-4.89145 -1.710333,-11.40708 3.188939,-14.54769 l 4.427122,-2.83793 c 4.89912,-3.1405 11.407092,-1.71035 14.542684,3.18111"
       inkscape:connector-curvature="0" />
  </g>
</svg>
