<?xml version="1.0" encoding="UTF-8" standalone="no"?>
<!-- Created with Inkscape (http://www.inkscape.org/) -->

<svg
   xmlns:dc="http://purl.org/dc/elements/1.1/"
   xmlns:cc="http://creativecommons.org/ns#"
   xmlns:rdf="http://www.w3.org/1999/02/22-rdf-syntax-ns#"
   xmlns:svg="http://www.w3.org/2000/svg"
   xmlns="http://www.w3.org/2000/svg"
   xmlns:sodipodi="http://sodipodi.sourceforge.net/DTD/sodipodi-0.dtd"
   xmlns:inkscape="http://www.inkscape.org/namespaces/inkscape"
   width="40mm"
   height="40mm"
   viewBox="0 0 141.73228 141.73228"
   id="svg5677"
   version="1.1"
   inkscape:version="0.91 r13725"
   sodipodi:docname="wd_SW.svg">
  <defs
     id="defs5679" />
  <sodipodi:namedview
     id="base"
     pagecolor="#ffffff"
     bordercolor="#666666"
     borderopacity="1.0"
     inkscape:pageopacity="0.0"
     inkscape:pageshadow="2"
     inkscape:zoom="5.6"
     inkscape:cx="95.241124"
     inkscape:cy="81.978908"
     inkscape:document-units="px"
     inkscape:current-layer="layer1"
     showgrid="false"
     inkscape:window-width="1920"
     inkscape:window-height="1027"
     inkscape:window-x="-8"
     inkscape:window-y="-8"
     inkscape:window-maximized="1" />
  <metadata
     id="metadata5682">
    <rdf:RDF>
      <cc:Work
         rdf:about="">
        <dc:format>image/svg+xml</dc:format>
        <dc:type
           rdf:resource="http://purl.org/dc/dcmitype/StillImage" />
        <dc:title></dc:title>
      </cc:Work>
    </rdf:RDF>
  </metadata>
  <g
     inkscape:label="Layer 1"
     inkscape:groupmode="layer"
     id="layer1"
     transform="translate(0,-910.62989)">
    <path
       id="path696"
       style="fill:#fcffff;fill-opacity:1;fill-rule:nonzero;stroke:#000000;stroke-width:1.625;stroke-miterlimit:4;stroke-dasharray:none;stroke-opacity:1"
       d="m 32.103598,1017.6962 c -2.060758,-2.0475 -2.071561,-5.3889 -0.02398,-7.4497 l 48.23472,-48.54679 -16.036656,-15.93356 43.131787,-0.13268 0.14563,43.1319 -16.036678,-15.9336 -48.234721,48.54683 c -2.047581,2.0608 -5.395389,2.0651 -7.449713,0.024 z m 14.910494,7.3888 44.521882,-44.80996 16.806196,16.69816 c 1.03037,1.02376 2.69453,1.01838 3.71829,-0.012 0.51191,-0.51522 0.77623,-1.18568 0.77418,-1.86167 l -0.16816,-52.10925 c -0.002,-0.676 -0.25778,-1.34481 -0.77955,-1.86323 -0.52821,-0.52482 -1.19853,-0.7761 -1.87467,-0.77393 l -52.109261,0.16788 c -0.669535,0.009 -1.344687,0.27099 -1.8566,0.78621 -1.023763,1.03039 -1.011835,2.70108 0.01854,3.72483 l 16.799584,16.69159 -44.521882,44.80998 c -4.095163,4.1216 -4.073664,10.7913 0.05457,14.893 l 3.730391,3.7064 c 4.128106,4.1016 10.791323,4.0736 14.886486,-0.048"
       inkscape:connector-curvature="0" />
  </g>
</svg>
