<?xml version="1.0" encoding="UTF-8" standalone="no"?>
<!-- Created with Inkscape (http://www.inkscape.org/) -->

<svg
   xmlns:dc="http://purl.org/dc/elements/1.1/"
   xmlns:cc="http://creativecommons.org/ns#"
   xmlns:rdf="http://www.w3.org/1999/02/22-rdf-syntax-ns#"
   xmlns:svg="http://www.w3.org/2000/svg"
   xmlns="http://www.w3.org/2000/svg"
   xmlns:sodipodi="http://sodipodi.sourceforge.net/DTD/sodipodi-0.dtd"
   xmlns:inkscape="http://www.inkscape.org/namespaces/inkscape"
   width="40mm"
   height="40mm"
   viewBox="0 0 141.73228 141.73228"
   id="svg5677"
   version="1.1"
   inkscape:version="0.91 r13725"
   sodipodi:docname="wd_SEE.svg">
  <defs
     id="defs5679" />
  <sodipodi:namedview
     id="base"
     pagecolor="#ffffff"
     bordercolor="#666666"
     borderopacity="1.0"
     inkscape:pageopacity="0.0"
     inkscape:pageshadow="2"
     inkscape:zoom="5.6"
     inkscape:cx="95.241124"
     inkscape:cy="81.978908"
     inkscape:document-units="px"
     inkscape:current-layer="layer1"
     showgrid="false"
     inkscape:window-width="1920"
     inkscape:window-height="1027"
     inkscape:window-x="-8"
     inkscape:window-y="-8"
     inkscape:window-maximized="1" />
  <metadata
     id="metadata5682">
    <rdf:RDF>
      <cc:Work
         rdf:about="">
        <dc:format>image/svg+xml</dc:format>
        <dc:type
           rdf:resource="http://purl.org/dc/dcmitype/StillImage" />
        <dc:title></dc:title>
      </cc:Work>
    </rdf:RDF>
  </metadata>
  <g
     inkscape:label="Layer 1"
     inkscape:groupmode="layer"
     id="layer1"
     transform="translate(0,-910.62989)">
    <path
       id="path696"
       style="fill:#fcffff;fill-opacity:1;fill-rule:nonzero;stroke:#000000;stroke-width:1.625;stroke-miterlimit:4;stroke-dasharray:none;stroke-opacity:1"
       d="m 113.40269,1011.8097 c -1.55355,2.4547 -4.81355,3.1877 -7.26831,1.6341 l -57.826933,-36.59822 -12.089623,19.1022 -9.454585,-42.08301 42.080318,-9.46725 -12.089641,19.10222 57.826904,36.59816 c 2.4548,1.5536 3.18285,4.8213 1.63413,7.2683 z m 3.99041,-16.15525 -53.375748,-33.78108 12.669756,-20.01883 c 0.776777,-1.22734 0.411735,-2.85098 -0.815618,-3.62776 -0.613713,-0.38841 -1.32545,-0.50152 -1.985022,-0.35338 l -50.840472,11.43014 c -0.65957,0.14816 -1.257283,0.54242 -1.650627,1.16394 -0.398206,0.62919 -0.498621,1.33798 -0.350328,1.99766 l 11.42988,50.84056 c 0.153281,0.6518 0.555302,1.2543 1.169013,1.6427 1.227352,0.7768 2.855945,0.4039 3.632723,-0.8234 l 12.664772,-20.01097 53.375731,33.78107 c 4.90955,3.1072 11.41683,1.6442 14.52898,-3.2732 l 2.81227,-4.4434 c 3.11205,-4.9173 1.64423,-11.41683 -3.26531,-14.52405"
       inkscape:connector-curvature="0" />
  </g>
</svg>
