<?xml version="1.0" encoding="UTF-8" standalone="no"?>
<!-- Created with Inkscape (http://www.inkscape.org/) -->

<svg
   xmlns:dc="http://purl.org/dc/elements/1.1/"
   xmlns:cc="http://creativecommons.org/ns#"
   xmlns:rdf="http://www.w3.org/1999/02/22-rdf-syntax-ns#"
   xmlns:svg="http://www.w3.org/2000/svg"
   xmlns="http://www.w3.org/2000/svg"
   xmlns:sodipodi="http://sodipodi.sourceforge.net/DTD/sodipodi-0.dtd"
   xmlns:inkscape="http://www.inkscape.org/namespaces/inkscape"
   width="40mm"
   height="40mm"
   viewBox="0 0 141.73228 141.73228"
   id="svg5677"
   version="1.1"
   inkscape:version="0.91 r13725"
   sodipodi:docname="wd_S.svg">
  <defs
     id="defs5679" />
  <sodipodi:namedview
     id="base"
     pagecolor="#ffffff"
     bordercolor="#666666"
     borderopacity="1.0"
     inkscape:pageopacity="0.0"
     inkscape:pageshadow="2"
     inkscape:zoom="5.6"
     inkscape:cx="95.241124"
     inkscape:cy="81.978908"
     inkscape:document-units="px"
     inkscape:current-layer="layer1"
     showgrid="false"
     inkscape:window-width="1920"
     inkscape:window-height="1027"
     inkscape:window-x="-8"
     inkscape:window-y="-8"
     inkscape:window-maximized="1" />
  <metadata
     id="metadata5682">
    <rdf:RDF>
      <cc:Work
         rdf:about="">
        <dc:format>image/svg+xml</dc:format>
        <dc:type
           rdf:resource="http://purl.org/dc/dcmitype/StillImage" />
        <dc:title></dc:title>
      </cc:Work>
    </rdf:RDF>
  </metadata>
  <g
     inkscape:label="Layer 1"
     inkscape:groupmode="layer"
     id="layer1"
     transform="translate(0,-910.62989)">
    <path
       id="path696"
       style="fill:#fcffff;fill-opacity:1;fill-rule:nonzero;stroke:#000000;stroke-width:1.625;stroke-miterlimit:4;stroke-dasharray:none;stroke-opacity:1"
       d="m 68.446725,1034.8459 c -2.905,0 -5.26774,-2.3627 -5.26774,-5.2678 l 0,-68.43522 -22.60648,0 30.50345,-30.4944 30.503665,30.4944 -22.606515,0 0,68.43522 c 0,2.9051 -2.37181,5.2678 -5.26774,5.2678 z m 15.78502,-5.2678 0,-63.16746 23.691275,0 c 1.4525,0 2.62923,-1.17675 2.62923,-2.62926 0,-0.7263 -0.28505,-1.3882 -0.76296,-1.8663 l -36.847085,-36.8469 c -0.47792,-0.4781 -1.13072,-0.7723 -1.86625,-0.7723 -0.74461,0 -1.39723,0.2942 -1.87535,0.7723 l -36.8471,36.8469 c -0.4688,0.4781 -0.7629,1.14 -0.7629,1.8663 0,1.45251 1.186,2.62926 2.6385,2.62926 l 23.68196,0 0,63.16746 c 0,5.8102 4.71619,10.5264 10.53566,10.5264 l 5.25864,0 c 5.81929,0 10.52638,-4.7162 10.52638,-10.5264"
       inkscape:connector-curvature="0" />
  </g>
</svg>
