<?xml version="1.0" encoding="UTF-8" standalone="no"?>
<!-- Created with Inkscape (http://www.inkscape.org/) -->

<svg
   xmlns:dc="http://purl.org/dc/elements/1.1/"
   xmlns:cc="http://creativecommons.org/ns#"
   xmlns:rdf="http://www.w3.org/1999/02/22-rdf-syntax-ns#"
   xmlns:svg="http://www.w3.org/2000/svg"
   xmlns="http://www.w3.org/2000/svg"
   xmlns:sodipodi="http://sodipodi.sourceforge.net/DTD/sodipodi-0.dtd"
   xmlns:inkscape="http://www.inkscape.org/namespaces/inkscape"
   width="40mm"
   height="40mm"
   viewBox="0 0 141.73228 141.73228"
   id="svg5677"
   version="1.1"
   inkscape:version="0.91 r13725"
   sodipodi:docname="wd_SSE.svg">
  <defs
     id="defs5679" />
  <sodipodi:namedview
     id="base"
     pagecolor="#ffffff"
     bordercolor="#666666"
     borderopacity="1.0"
     inkscape:pageopacity="0.0"
     inkscape:pageshadow="2"
     inkscape:zoom="5.6"
     inkscape:cx="95.241124"
     inkscape:cy="81.978908"
     inkscape:document-units="px"
     inkscape:current-layer="layer1"
     showgrid="false"
     inkscape:window-width="1920"
     inkscape:window-height="1027"
     inkscape:window-x="-8"
     inkscape:window-y="-8"
     inkscape:window-maximized="1" />
  <metadata
     id="metadata5682">
    <rdf:RDF>
      <cc:Work
         rdf:about="">
        <dc:format>image/svg+xml</dc:format>
        <dc:type
           rdf:resource="http://purl.org/dc/dcmitype/StillImage" />
        <dc:title></dc:title>
      </cc:Work>
    </rdf:RDF>
  </metadata>
  <g
     inkscape:label="Layer 1"
     inkscape:groupmode="layer"
     id="layer1"
     transform="translate(0,-910.62989)">
    <path
       id="path696"
       style="fill:#fcffff;fill-opacity:1;fill-rule:nonzero;stroke:#000000;stroke-width:1.625;stroke-miterlimit:4;stroke-dasharray:none;stroke-opacity:1"
       d="m 98.245213,1027.367 c -2.411565,1.6197 -5.690302,0.9757 -7.310043,-1.4359 l -38.156119,-56.81104 -18.766605,12.60426 8.320037,-42.32193 42.324577,8.30736 -18.766634,12.60428 38.156114,56.81097 c 1.61975,2.4117 0.96813,5.6955 -1.43591,7.3101 z m 10.166757,-13.1739 -35.219078,-52.43804 19.66714,-13.20909 c 1.205782,-0.80984 1.526538,-2.4428 0.71669,-3.64859 -0.404949,-0.60293 -1.010624,-0.99347 -1.673923,-1.12391 L 40.770436,933.72941 c -0.663307,-0.13042 -1.369256,-0.0107 -1.97985,0.39941 -0.618133,0.41516 -0.995869,1.02326 -1.126212,1.68672 l -10.044331,51.13233 c -0.122605,0.65827 0.0023,1.37171 0.407242,1.97465 0.809848,1.20579 2.450495,1.5214 3.656278,0.71156 l 19.659407,-13.2039 35.219075,52.43802 c 3.239482,4.8233 9.784114,6.1089 14.615105,2.8642 l 4.36542,-2.9319 c 4.83084,-3.2446 6.10888,-9.7841 2.8694,-14.6074"
       inkscape:connector-curvature="0" />
  </g>
</svg>
