<?xml version="1.0" encoding="utf-8"?>
<!-- Generator: Adobe Illustrator 16.0.0, SVG Export Plug-In . SVG Version: 6.00 Build 0)  -->
<!DOCTYPE svg PUBLIC "-//W3C//DTD SVG 1.1//EN" "http://www.w3.org/Graphics/SVG/1.1/DTD/svg11.dtd">
<svg version="1.1" id="Layer_1" xmlns="http://www.w3.org/2000/svg" xmlns:xlink="http://www.w3.org/1999/xlink" x="0px" y="0px"
	 width="120px" height="120px" viewBox="0 0 120 120" enable-background="new 0 0 120 120" xml:space="preserve">
<g>
	<path fill="#231F20" d="M90.048,58.639c-0.844-2.317-3.169-3.874-5.785-3.874c-0.738,0-1.458,0.126-2.14,0.374
		c-0.611,0.222-1.324,0.644-1.994,1.171c-1.135-2.456-3.62-4.069-6.356-4.069c-0.816,0-1.622,0.143-2.394,0.424
		c-1.363,0.497-2.514,1.382-3.33,2.545L58.728,29.6c-1.035-2.845-3.558-4.683-6.426-4.683c-0.78,0-1.558,0.139-2.312,0.413
		c-3.622,1.319-5.407,5.241-4.077,8.894l0.716,2.136c-1.822-1.428-4.281-1.861-6.57-1.028c-1.887,0.687-3.319,2.063-4.035,3.877
		c-0.673,1.707-0.666,3.684,0.03,5.596L47.65,74.664c-0.609,0.689-1.487,1.862-2.475,3.738c-3.413,6.492-1.001,18.314,7.919,24.898
		c6.378,4.707,12.258,6.898,18.503,6.898c3.66,0,7.47-0.738,11.645-2.258c11.868-4.32,13.671-11.721,14.499-18.931
		C98.54,82.074,90.396,59.593,90.048,58.639z M94.761,88.668c-0.78,6.788-2.263,12.711-12.544,16.453
		c-3.841,1.398-7.314,2.078-10.619,2.078c-5.648,0-10.806-1.947-16.722-6.312c-5.326-3.931-10.719-14.101-7.045-21.088
		c0.397-0.756,0.767-1.367,1.092-1.857l3.788,9.752c0.3,0.773,1.169,1.155,1.941,0.855s1.155-1.169,0.855-1.941L38.86,43.749
		c-0.435-1.193-0.451-2.416-0.047-3.44c0.401-1.018,1.187-1.765,2.27-2.159c2.185-0.795,4.424,0.445,5.321,2.908l10.517,25.968
		c0.305,0.751,1.148,1.121,1.911,0.839c0.76-0.281,1.159-1.123,0.901-1.892l-10.99-32.771c-0.767-2.107,0.231-4.374,2.272-5.117
		c1.993-0.727,4.131,0.134,4.893,2.224L67.193,61h-0.002c0.283,1,1.143,1.498,1.919,1.215C69.889,61.932,70,61.389,70,60.61v-0.004
		c0-1.002-0.304-2.087,0.147-3.054c0.452-0.968,1.266-1.703,2.271-2.068c0.442-0.161,0.915-0.243,1.38-0.243
		c1.675,0,3.212,1.059,3.785,2.634l2.274,6.108C79.869,64.016,80,64.05,80,64.083c0,0.001,0,0.003,0,0.003c0,0.002,0,0.003,0,0.004
		c0-0.001,0,0.002,0,0.004c0,0-0.001,0.002,0,0.003c0,0,0,0.002,0,0.003c0,0.002,0,0.002,0,0.004c0,0.001,0,0.002,0,0.003
		s0,0.003,0,0.003c0,0.002-0.011,0.003-0.01,0.004c0.327,0.689,1.116,1.03,1.854,0.762C82.445,64.657,83,64.095,83,63.492
		c0-0.002,0-0.004,0-0.005s0-0.001,0-0.003c0-0.177-0.195-0.357-0.26-0.533l-1.485-3.619c0.406-0.445,1.256-1.142,1.895-1.374
		c0.352-0.128,0.726-0.193,1.113-0.193c1.339,0,2.559,0.782,2.967,1.9C89.526,65.977,95.357,83.489,94.761,88.668z"/>
	<path fill="#231F20" d="M29.746,20.185c17.562-4.042,35.919-3.444,53.245,1.791c1.025,0.309,2.358-0.309,2.672-1.258
		c0.313-0.95-0.44-2.248-1.515-2.571c-17.995-5.437-37.06-6.057-55.299-1.86c-0.337-1.462-0.673-2.924-1.009-4.386
		c-0.137-0.59-0.389-1.095-1.083-1.17c-0.693-0.074-1.117,0.163-1.499,0.702c-1.78,2.512-3.427,5.066-4.938,7.649
		c-0.442,0.758-0.141,1.659,0.646,2.021c2.688,1.24,5.274,2.584,7.751,4.021c0.531,0.308,0.95,0.337,1.453-0.021
		c0.502-0.358,0.496-0.916,0.36-1.507C30.27,22.458,30.008,21.322,29.746,20.185z"/>
</g>
</svg>
