<?xml version="1.0" encoding="utf-8"?>
<!-- Generator: Adobe Illustrator 16.0.0, SVG Export Plug-In . SVG Version: 6.00 Build 0)  -->
<!DOCTYPE svg PUBLIC "-//W3C//DTD SVG 1.1//EN" "http://www.w3.org/Graphics/SVG/1.1/DTD/svg11.dtd">
<svg version="1.1" id="Layer_1" xmlns="http://www.w3.org/2000/svg" xmlns:xlink="http://www.w3.org/1999/xlink" x="0px" y="0px"
	 width="120px" height="120px" viewBox="0 0 120 120" enable-background="new 0 0 120 120" xml:space="preserve">
<g>
	<path d="M93.048,67.639c-0.844-2.316-3.169-3.873-5.785-3.873c-0.738,0-1.458,0.125-2.14,0.373
		c-0.611,0.223-1.324,0.645-1.994,1.172c-1.135-2.456-3.62-4.07-6.356-4.07c-0.816,0-1.622,0.143-2.394,0.424
		c-1.363,0.497-2.514,1.383-3.33,2.546L61.728,38.6c-1.035-2.845-3.558-4.683-6.426-4.683c-0.78,0-1.558,0.139-2.312,0.413
		c-3.622,1.319-5.407,5.241-4.077,8.894l0.716,2.136c-1.822-1.427-4.282-1.862-6.57-1.028c-1.887,0.687-3.319,2.063-4.035,3.877
		c-0.673,1.707-0.666,3.684,0.03,5.596L50.65,83.664c-0.609,0.689-1.487,1.862-2.475,3.738c-3.413,6.492-1.001,18.314,7.919,24.898
		c6.378,4.707,12.258,6.898,18.503,6.898c3.66,0,7.47-0.738,11.645-2.258c11.868-4.32,13.671-11.721,14.499-18.931
		C101.54,91.074,93.396,68.593,93.048,67.639z M97.761,97.668c-0.78,6.788-2.263,12.711-12.544,16.453
		c-3.841,1.398-7.314,2.078-10.619,2.078c-5.648,0-10.806-1.947-16.722-6.312c-5.326-3.931-10.719-14.101-7.045-21.088
		c0.397-0.756,0.767-1.367,1.092-1.857l3.788,9.752c0.3,0.772,1.169,1.156,1.941,0.855c0.772-0.3,1.155-1.169,0.855-1.941
		L41.86,52.749c-0.435-1.193-0.451-2.416-0.047-3.44c0.401-1.018,1.187-1.765,2.27-2.159c2.184-0.795,4.424,0.445,5.321,2.908
		l10.517,25.968c0.305,0.751,1.149,1.119,1.911,0.839c0.76-0.281,1.159-1.123,0.901-1.892l-10.99-32.771
		c-0.767-2.107,0.231-4.374,2.272-5.117c1.995-0.729,4.131,0.134,4.893,2.224L70.193,70h-0.002c0.283,1,1.142,1.498,1.919,1.215
		C72.889,70.932,73,70.389,73,69.61v-0.005c0-1.002-0.304-2.087,0.147-3.054c0.452-0.968,1.266-1.702,2.271-2.067
		c0.442-0.162,0.915-0.244,1.38-0.244c1.675,0,3.212,1.059,3.785,2.635l2.274,6.107C82.869,73.016,83,73.05,83,73.083
		c0,0.001,0,0.003,0,0.003c0,0.002,0,0.003,0,0.004c0,0,0,0.002,0,0.004c0,0-0.002,0.002,0,0.003c-0.001-0.001,0,0.002,0,0.003
		c0,0.004,0,0.003,0,0.004s0,0.002,0,0.003s0,0.003,0,0.003c0,0.002-0.011,0.003-0.01,0.004c0.327,0.689,1.117,1.03,1.854,0.762
		C85.445,73.657,86,73.095,86,72.492c0-0.002,0-0.004,0-0.005s0-0.001,0-0.003c0-0.177-0.195-0.357-0.26-0.533l-1.485-3.619
		c0.406-0.445,1.256-1.142,1.895-1.373c0.352-0.129,0.726-0.193,1.113-0.193c1.339,0,2.559,0.781,2.967,1.9
		C92.526,74.977,98.357,92.489,97.761,97.668z"/>
	<path d="M37.471,7.293c11.161-6.583,25.597-2.857,32.18,8.304c4.972,8.431,4.06,18.726-1.491,26.098l1.566,4.062l0.044,0.267
		c7.878-8.687,9.589-21.838,3.326-32.458C65.393,0.504,48.499-3.855,35.438,3.848c-13.051,7.697-17.413,24.57-9.734,37.627
		l-2.851,2.453c-0.46,0.396-0.636,1.029-0.446,1.605c0.188,0.577,0.708,0.982,1.312,1.027l8.462,0.635
		c0.826,0.062,1.545-0.557,1.607-1.384l0.635-8.461c0.046-0.604-0.278-1.178-0.819-1.451c-0.542-0.273-1.195-0.193-1.654,0.202
		l-3.032,2.609l-0.096,0.082l-0.022,0.02C22.739,27.749,26.526,13.748,37.471,7.293z"/>
</g>
</svg>
