<?xml version="1.0" encoding="UTF-8" standalone="no"?>
<!-- Created with Inkscape (http://www.inkscape.org/) -->

<svg
   xmlns:dc="http://purl.org/dc/elements/1.1/"
   xmlns:cc="http://creativecommons.org/ns#"
   xmlns:rdf="http://www.w3.org/1999/02/22-rdf-syntax-ns#"
   xmlns:svg="http://www.w3.org/2000/svg"
   xmlns="http://www.w3.org/2000/svg"
   xmlns:sodipodi="http://sodipodi.sourceforge.net/DTD/sodipodi-0.dtd"
   xmlns:inkscape="http://www.inkscape.org/namespaces/inkscape"
   width="40mm"
   height="40mm"
   viewBox="0 0 141.73228 141.73228"
   id="svg5677"
   version="1.1"
   inkscape:version="0.91 r13725"
   sodipodi:docname="wd_NWW.svg">
  <defs
     id="defs5679" />
  <sodipodi:namedview
     id="base"
     pagecolor="#ffffff"
     bordercolor="#666666"
     borderopacity="1.0"
     inkscape:pageopacity="0.0"
     inkscape:pageshadow="2"
     inkscape:zoom="5.6"
     inkscape:cx="95.241124"
     inkscape:cy="81.978908"
     inkscape:document-units="px"
     inkscape:current-layer="layer1"
     showgrid="false"
     inkscape:window-width="1920"
     inkscape:window-height="1027"
     inkscape:window-x="-8"
     inkscape:window-y="-8"
     inkscape:window-maximized="1" />
  <metadata
     id="metadata5682">
    <rdf:RDF>
      <cc:Work
         rdf:about="">
        <dc:format>image/svg+xml</dc:format>
        <dc:type
           rdf:resource="http://purl.org/dc/dcmitype/StillImage" />
        <dc:title></dc:title>
      </cc:Work>
    </rdf:RDF>
  </metadata>
  <g
     inkscape:label="Layer 1"
     inkscape:groupmode="layer"
     id="layer1"
     transform="translate(0,-910.62989)">
    <path
       id="path696"
       style="fill:#fcffff;fill-opacity:1;fill-rule:nonzero;stroke:#000000;stroke-width:1.625;stroke-miterlimit:4;stroke-dasharray:none;stroke-opacity:1"
       d="m 25.87444,957.50139 c -1.541035,2.46257 -0.791555,5.71882 1.671091,7.2599 l 58.012563,36.30331 -11.992231,19.1635 42.031467,-9.6812 -9.66863,-42.03453 -11.99222,19.16353 -58.012541,-36.30328 c -2.462646,-1.54108 -5.723694,-0.78386 -7.259916,1.67102 z m 12.839082,-10.58652 53.547067,33.50886 12.567661,-20.08308 c 0.77051,-1.23128 2.39227,-1.60456 3.62357,-0.83404 0.61567,0.38528 1.02556,0.97804 1.17732,1.63679 l 11.68859,50.7816 c 0.15179,0.6589 0.0549,1.3682 -0.3353,1.9918 -0.39502,0.6312 -0.99058,1.0284 -1.6495,1.18 l -50.781629,11.6889 c -0.653972,0.1438 -1.371069,0.042 -1.986773,-0.3433 -1.231278,-0.7705 -1.599694,-2.4002 -0.829146,-3.6314 l 12.562707,-20.0752 -53.547066,-33.5089 c -4.925294,-3.08216 -6.421371,-9.58189 -3.334283,-14.51507 l 2.789587,-4.45774 c 3.086997,-4.933 9.581898,-6.42139 14.507195,-3.33922"
       inkscape:connector-curvature="0" />
  </g>
</svg>
