<?xml version="1.0" encoding="UTF-8" standalone="no"?>
<!-- Created with Inkscape (http://www.inkscape.org/) -->

<svg
   xmlns:dc="http://purl.org/dc/elements/1.1/"
   xmlns:cc="http://creativecommons.org/ns#"
   xmlns:rdf="http://www.w3.org/1999/02/22-rdf-syntax-ns#"
   xmlns:svg="http://www.w3.org/2000/svg"
   xmlns="http://www.w3.org/2000/svg"
   xmlns:sodipodi="http://sodipodi.sourceforge.net/DTD/sodipodi-0.dtd"
   xmlns:inkscape="http://www.inkscape.org/namespaces/inkscape"
   width="40mm"
   height="40mm"
   viewBox="0 0 141.73228 141.73228"
   id="svg5677"
   version="1.1"
   inkscape:version="0.91 r13725"
   sodipodi:docname="wd_NW.svg">
  <defs
     id="defs5679" />
  <sodipodi:namedview
     id="base"
     pagecolor="#ffffff"
     bordercolor="#666666"
     borderopacity="1.0"
     inkscape:pageopacity="0.0"
     inkscape:pageshadow="2"
     inkscape:zoom="5.6"
     inkscape:cx="95.241124"
     inkscape:cy="81.978908"
     inkscape:document-units="px"
     inkscape:current-layer="layer1"
     showgrid="false"
     inkscape:window-width="1920"
     inkscape:window-height="1027"
     inkscape:window-x="-8"
     inkscape:window-y="-8"
     inkscape:window-maximized="1" />
  <metadata
     id="metadata5682">
    <rdf:RDF>
      <cc:Work
         rdf:about="">
        <dc:format>image/svg+xml</dc:format>
        <dc:type
           rdf:resource="http://purl.org/dc/dcmitype/StillImage" />
        <dc:title></dc:title>
      </cc:Work>
    </rdf:RDF>
  </metadata>
  <g
     inkscape:label="Layer 1"
     inkscape:groupmode="layer"
     id="layer1"
     transform="translate(0,-910.62989)">
    <path
       id="path696"
       style="fill:#fcffff;fill-opacity:1;fill-rule:nonzero;stroke:#000000;stroke-width:1.625;stroke-miterlimit:4;stroke-dasharray:none;stroke-opacity:1"
       d="m 35.687136,947.26579 c 2.050292,-2.05798 5.391703,-2.06426 7.449725,-0.0139 l 48.481354,48.30049 15.955285,-16.01504 0.0742,43.13194 -43.132061,0.087 15.955326,-16.015 -48.481393,-48.30051 c -2.058022,-2.05038 -2.057783,-5.39819 -0.0139,-7.44974 z m -7.409008,14.90046 44.74956,44.58255 -16.720929,16.7836 c -1.025156,1.029 -1.022032,2.6931 0.007,3.7183 0.514526,0.5126 1.184627,0.7778 1.860619,0.7767 l 52.109433,-0.097 c 0.676,-0 1.34516,-0.256 1.86428,-0.777 0.52554,-0.5275 0.77773,-1.1975 0.77647,-1.8737 l -0.0972,-52.10941 c -0.008,-0.66954 -0.26917,-1.34505 -0.78369,-1.85766 -1.02901,-1.02516 -2.69971,-1.0155 -3.72486,0.0135 l -16.714346,16.77694 -44.74958,-44.58259 c -4.116044,-4.10075 -10.785767,-4.08829 -14.89306,0.0344 l -3.711454,3.72536 c -4.107193,4.12254 -4.088226,10.78579 0.02782,14.88654"
       inkscape:connector-curvature="0" />
  </g>
</svg>
