<?xml version="1.0" encoding="UTF-8" standalone="no"?>
<!-- Created with Inkscape (http://www.inkscape.org/) -->

<svg
   xmlns:dc="http://purl.org/dc/elements/1.1/"
   xmlns:cc="http://creativecommons.org/ns#"
   xmlns:rdf="http://www.w3.org/1999/02/22-rdf-syntax-ns#"
   xmlns:svg="http://www.w3.org/2000/svg"
   xmlns="http://www.w3.org/2000/svg"
   xmlns:sodipodi="http://sodipodi.sourceforge.net/DTD/sodipodi-0.dtd"
   xmlns:inkscape="http://www.inkscape.org/namespaces/inkscape"
   width="40mm"
   height="40mm"
   viewBox="0 0 141.73228 141.73228"
   id="svg5677"
   version="1.1"
   inkscape:version="0.91 r13725"
   sodipodi:docname="wd_SSW.svg">
  <defs
     id="defs5679" />
  <sodipodi:namedview
     id="base"
     pagecolor="#ffffff"
     bordercolor="#666666"
     borderopacity="1.0"
     inkscape:pageopacity="0.0"
     inkscape:pageshadow="2"
     inkscape:zoom="5.6"
     inkscape:cx="95.241124"
     inkscape:cy="81.978908"
     inkscape:document-units="px"
     inkscape:current-layer="layer1"
     showgrid="false"
     inkscape:window-width="1920"
     inkscape:window-height="1027"
     inkscape:window-x="-8"
     inkscape:window-y="-8"
     inkscape:window-maximized="1" />
  <metadata
     id="metadata5682">
    <rdf:RDF>
      <cc:Work
         rdf:about="">
        <dc:format>image/svg+xml</dc:format>
        <dc:type
           rdf:resource="http://purl.org/dc/dcmitype/StillImage" />
        <dc:title></dc:title>
      </cc:Work>
    </rdf:RDF>
  </metadata>
  <g
     inkscape:label="Layer 1"
     inkscape:groupmode="layer"
     id="layer1"
     transform="translate(0,-910.62989)">
    <path
       id="path696"
       style="fill:#fcffff;fill-opacity:1;fill-rule:nonzero;stroke:#000000;stroke-width:1.625;stroke-miterlimit:4;stroke-dasharray:none;stroke-opacity:1"
       d="m 40.790379,1025.3455 c -2.457961,-1.5484 -3.197786,-4.8068 -1.649363,-7.2649 l 36.476085,-57.90398 -19.127664,-12.04929 42.062967,-9.54336 9.556016,42.06025 -19.12769,-12.04931 -36.476085,57.90399 c -1.548423,2.4581 -4.814568,3.193 -7.264855,1.6495 z m 16.163676,3.9563 33.66836,-53.4469 20.045525,12.62749 c 1.22898,0.77418 2.85184,0.40572 3.62603,-0.82327 0.38712,-0.61454 0.49873,-1.32651 0.34919,-1.98577 l -11.53739,-50.81624 c -0.14954,-0.65926 -0.54508,-1.25613 -1.16742,-1.64817 -0.63002,-0.39687 -1.33902,-0.4958 -1.998397,-0.34611 L 49.12364,944.39995 c -0.651486,0.15466 -1.253122,0.55795 -1.640241,1.17248 -0.77419,1.22899 -0.397909,2.85679 0.831072,3.63098 l 20.037643,12.62252 -33.66836,53.44687 c -3.096846,4.9161 -1.620153,11.4203 3.303783,14.5221 l 4.44941,2.8028 c 4.923784,3.1017 11.420262,1.6202 14.517108,-3.2959"
       inkscape:connector-curvature="0" />
  </g>
</svg>
