<?xml version="1.0" encoding="UTF-8" standalone="no"?>
<!-- Created with Inkscape (http://www.inkscape.org/) -->

<svg
   xmlns:dc="http://purl.org/dc/elements/1.1/"
   xmlns:cc="http://creativecommons.org/ns#"
   xmlns:rdf="http://www.w3.org/1999/02/22-rdf-syntax-ns#"
   xmlns:svg="http://www.w3.org/2000/svg"
   xmlns="http://www.w3.org/2000/svg"
   xmlns:sodipodi="http://sodipodi.sourceforge.net/DTD/sodipodi-0.dtd"
   xmlns:inkscape="http://www.inkscape.org/namespaces/inkscape"
   width="40mm"
   height="40mm"
   viewBox="0 0 141.73228 141.73228"
   id="svg5677"
   version="1.1"
   inkscape:version="0.91 r13725"
   sodipodi:docname="wd_SWW.svg">
  <defs
     id="defs5679" />
  <sodipodi:namedview
     id="base"
     pagecolor="#ffffff"
     bordercolor="#666666"
     borderopacity="1.0"
     inkscape:pageopacity="0.0"
     inkscape:pageshadow="2"
     inkscape:zoom="5.6"
     inkscape:cx="95.241124"
     inkscape:cy="81.978908"
     inkscape:document-units="px"
     inkscape:current-layer="layer1"
     showgrid="false"
     inkscape:window-width="1920"
     inkscape:window-height="1027"
     inkscape:window-x="-8"
     inkscape:window-y="-8"
     inkscape:window-maximized="1" />
  <metadata
     id="metadata5682">
    <rdf:RDF>
      <cc:Work
         rdf:about="">
        <dc:format>image/svg+xml</dc:format>
        <dc:type
           rdf:resource="http://purl.org/dc/dcmitype/StillImage" />
        <dc:title></dc:title>
      </cc:Work>
    </rdf:RDF>
  </metadata>
  <g
     inkscape:label="Layer 1"
     inkscape:groupmode="layer"
     id="layer1"
     transform="translate(0,-910.62989)">
    <path
       id="path696"
       style="fill:#fcffff;fill-opacity:1;fill-rule:nonzero;stroke:#000000;stroke-width:1.625;stroke-miterlimit:4;stroke-dasharray:none;stroke-opacity:1"
       d="m 25.114085,1005.1183 c -1.454064,-2.5149 -0.59133,-5.74295 1.923672,-7.19712 L 86.282885,963.66639 74.967353,944.0957 116.63501,955.2391 105.50408,996.91025 94.188532,977.33953 34.943401,1011.5943 c -2.515003,1.4542 -5.747597,0.5835 -7.197153,-1.9235 z m 12.461478,11.0285 54.684789,-31.61806 11.858518,20.50976 c 0.72704,1.2575 2.33477,1.6872 3.59223,0.9601 0.62877,-0.3635 1.0591,-0.9416 1.23378,-1.5946 l 13.4552,-50.34245 c 0.17468,-0.65305 0.10261,-1.36545 -0.26555,-2.00221 -0.37271,-0.6446 -0.95406,-1.06233 -1.60728,-1.23694 L 70.184886,937.36694 c -0.648553,-0.16654 -1.368778,-0.0898 -1.997543,0.27371 -1.257455,0.72705 -1.682534,2.34279 -0.955496,3.60024 l 11.853857,20.50174 -54.684775,31.61806 c -5.029959,2.90826 -6.752177,9.35181 -3.839284,14.38981 l 2.632209,4.5524 c 2.912805,5.0378 9.35175,6.7522 14.381709,3.8439"
       inkscape:connector-curvature="0" />
  </g>
</svg>
