<?xml version="1.0" encoding="UTF-8" standalone="no"?>
<!-- Created with Inkscape (http://www.inkscape.org/) -->

<svg
   xmlns:dc="http://purl.org/dc/elements/1.1/"
   xmlns:cc="http://creativecommons.org/ns#"
   xmlns:rdf="http://www.w3.org/1999/02/22-rdf-syntax-ns#"
   xmlns:svg="http://www.w3.org/2000/svg"
   xmlns="http://www.w3.org/2000/svg"
   xmlns:sodipodi="http://sodipodi.sourceforge.net/DTD/sodipodi-0.dtd"
   xmlns:inkscape="http://www.inkscape.org/namespaces/inkscape"
   width="40mm"
   height="40mm"
   viewBox="0 0 141.73228 141.73228"
   id="svg5677"
   version="1.1"
   inkscape:version="0.91 r13725"
   sodipodi:docname="wd_SE.svg">
  <defs
     id="defs5679" />
  <sodipodi:namedview
     id="base"
     pagecolor="#ffffff"
     bordercolor="#666666"
     borderopacity="1.0"
     inkscape:pageopacity="0.0"
     inkscape:pageshadow="2"
     inkscape:zoom="5.6"
     inkscape:cx="95.241124"
     inkscape:cy="81.978908"
     inkscape:document-units="px"
     inkscape:current-layer="layer1"
     showgrid="false"
     inkscape:window-width="1920"
     inkscape:window-height="1027"
     inkscape:window-x="-8"
     inkscape:window-y="-8"
     inkscape:window-maximized="1" />
  <metadata
     id="metadata5682">
    <rdf:RDF>
      <cc:Work
         rdf:about="">
        <dc:format>image/svg+xml</dc:format>
        <dc:type
           rdf:resource="http://purl.org/dc/dcmitype/StillImage" />
        <dc:title></dc:title>
      </cc:Work>
    </rdf:RDF>
  </metadata>
  <g
     inkscape:label="Layer 1"
     inkscape:groupmode="layer"
     id="layer1"
     transform="translate(0,-910.62989)">
    <path
       id="path696"
       style="fill:#fcffff;fill-opacity:1;fill-rule:nonzero;stroke:#000000;stroke-width:1.625;stroke-miterlimit:4;stroke-dasharray:none;stroke-opacity:1"
       d="m 102.53118,1021.1511 c -2.04685,2.0614 -5.388238,2.0732 -7.449691,0.026 l -48.562035,-48.21931 -15.92841,16.0417 -0.146396,-43.13175 43.131836,-0.15913 -15.928529,16.04166 48.562095,48.21933 c 2.06145,2.047 2.06681,5.3948 0.0262,7.4497 z m 7.38408,-14.9129 -44.824043,-44.50761 16.69283,-16.81154 c 1.023438,-1.03071 1.01753,-2.6948 -0.01305,-3.71828 -0.515381,-0.51174 -1.185931,-0.77582 -1.861928,-0.77359 l -52.10919,0.18414 c -0.676003,0.001 -1.344762,0.25825 -1.862935,0.78012 -0.524741,0.52838 -0.775789,1.1988 -0.773406,1.87499 l 0.18398,52.10918 c 0.01325,0.66951 0.271331,1.3446 0.786821,1.85635 1.030681,1.02343 2.70144,1.01098 3.724748,-0.0198 l 16.686313,-16.80486 44.824072,44.50769 c 4.122894,4.0939 10.792589,4.0702 14.892979,-0.059 l 3.70522,-3.7315 c 4.10029,-4.1295 4.07018,-10.7927 -0.0527,-14.8865"
       inkscape:connector-curvature="0" />
  </g>
</svg>
